<?xml version="1.0" encoding="UTF-8" standalone="no"?>
<!-- Generator: Adobe Illustrator 15.1.0, SVG Export Plug-In . SVG Version: 6.00 Build 0)  -->

<svg
   xmlns:dc="http://purl.org/dc/elements/1.1/"
   xmlns:cc="http://creativecommons.org/ns#"
   xmlns:rdf="http://www.w3.org/1999/02/22-rdf-syntax-ns#"
   xmlns:svg="http://www.w3.org/2000/svg"
   xmlns="http://www.w3.org/2000/svg"
   xmlns:sodipodi="http://sodipodi.sourceforge.net/DTD/sodipodi-0.dtd"
   xmlns:inkscape="http://www.inkscape.org/namespaces/inkscape"
   version="1.1"
   id="Layer_1"
   x="0px"
   y="0px"
   width="1105.445px"
   height="766.725px"
   viewBox="0 0 1105.445 766.725"
   enable-background="new 0 0 1105.445 766.725"
   xml:space="preserve"
   inkscape:version="0.91 r13725"
   sodipodi:docname="library-map-v4-5_FourthFloor.svg"><metadata
     id="metadata417"><rdf:RDF><cc:Work
         rdf:about=""><dc:format>image/svg+xml</dc:format><dc:type
           rdf:resource="http://purl.org/dc/dcmitype/StillImage" /></cc:Work></rdf:RDF></metadata><defs
     id="defs415"><pattern
       y="0"
       x="0"
       height="6"
       width="6"
       patternUnits="userSpaceOnUse"
       id="EMFhbasepattern" /></defs><sodipodi:namedview
     pagecolor="#ffffff"
     bordercolor="#666666"
     borderopacity="1"
     objecttolerance="10"
     gridtolerance="10"
     guidetolerance="10"
     inkscape:pageopacity="0"
     inkscape:pageshadow="2"
     inkscape:window-width="1440"
     inkscape:window-height="838"
     id="namedview413"
     showgrid="false"
     inkscape:zoom="0.8"
     inkscape:cx="552.72247"
     inkscape:cy="383.36249"
     inkscape:window-x="-8"
     inkscape:window-y="-8"
     inkscape:window-maximized="1"
     inkscape:current-layer="Layer_1" /><g
     id="_x34_th_Floor_-_Vector"><rect
       x="36.556"
       y="108.392"
       fill="#E6E6E6"
       stroke="#E6E6E6"
       stroke-miterlimit="10"
       width="540"
       height="164.333"
       id="rect4" /><rect
       x="36.556"
       y="108.392"
       fill="#003D7D"
       stroke="#E6E6E6"
       stroke-miterlimit="10"
       width="95.793"
       height="40.307"
       id="rect6" /><rect
       x="132.349"
       y="108.392"
       fill="#003D7D"
       stroke="#E6E6E6"
       stroke-miterlimit="10"
       width="95.792"
       height="40.307"
       id="rect8" /><rect
       x="229.472"
       y="108.392"
       fill="#003D7D"
       stroke="#E6E6E6"
       stroke-miterlimit="10"
       width="95.792"
       height="40.307"
       id="rect10" /><rect
       x="325.265"
       y="108.392"
       fill="#003D7D"
       stroke="#E6E6E6"
       stroke-miterlimit="10"
       width="95.792"
       height="40.307"
       id="rect12" /><rect
       x="421.057"
       y="108.392"
       fill="#003D7D"
       stroke="#E6E6E6"
       stroke-miterlimit="10"
       width="69.332"
       height="54"
       id="rect14" /><rect
       x="490.389"
       y="108.392"
       fill="#003D7D"
       stroke="#E6E6E6"
       stroke-miterlimit="10"
       width="86"
       height="54"
       id="rect16" /><rect
       x="490.389"
       y="162.392"
       fill="#003D7D"
       stroke="#E6E6E6"
       stroke-miterlimit="10"
       width="86.167"
       height="83"
       id="rect18" /><rect
       x="490.389"
       y="189.392"
       fill="#003D7D"
       stroke="#E6E6E6"
       stroke-miterlimit="10"
       width="43"
       height="26"
       id="rect20" /><rect
       x="97.889"
       y="176.423"
       fill="#003D7D"
       stroke="#E6E6E6"
       stroke-miterlimit="10"
       width="352.217"
       height="76.635"
       id="rect22" /><rect
       x="36.389"
       y="108.392"
       fill="none"
       stroke="#333333"
       stroke-width="3"
       stroke-miterlimit="10"
       width="540"
       height="164.333"
       id="rect24" /></g><g
     id="Key_-_4th_Floor"><rect
       x="861.674"
       y="85.73"
       fill="none"
       width="26.386"
       height="16.734"
       id="rect27" /><text
       transform="matrix(1 0 0 1 876.3848 95.7266)"
       fill="#333333"
       font-family="'HelveticaNeue'"
       font-size="14"
       id="text29">1.</text>
<rect
       x="861.674"
       y="122.007"
       fill="none"
       width="26.386"
       height="16.734"
       id="rect31" /><text
       transform="matrix(1 0 0 1 876.3848 132.0039)"
       fill="#333333"
       font-family="'HelveticaNeue'"
       font-size="14"
       id="text33">3.</text>
<rect
       x="861.674"
       y="140.146"
       fill="none"
       width="26.386"
       height="16.734"
       id="rect35" /><text
       transform="matrix(1 0 0 1 876.3848 150.1416)"
       fill="#333333"
       font-family="'HelveticaNeue'"
       font-size="14"
       id="text37">4. </text>
<rect
       x="861.674"
       y="158.284"
       fill="none"
       width="26.386"
       height="16.734"
       id="rect39" /><text
       transform="matrix(1 0 0 1 876.3848 168.2803)"
       fill="#333333"
       font-family="'HelveticaNeue'"
       font-size="14"
       id="text41">5.</text>
<rect
       x="861.674"
       y="103.869"
       fill="none"
       width="26.386"
       height="16.734"
       id="rect43" /><text
       transform="matrix(1 0 0 1 876.3848 113.8643)"
       fill="#333333"
       font-family="'HelveticaNeue'"
       font-size="14"
       id="text45">2.</text>
<rect
       x="896.909"
       y="103.869"
       fill="none"
       width="194.321"
       height="16.734"
       id="rect47" /><text
       transform="matrix(1 0 0 1 896.9082 113.8643)"
       fill="#333333"
       font-family="'HelveticaNeue'"
       font-size="14"
       id="text49">Wakefield Study Alcove</text>
<rect
       x="896.909"
       y="122.007"
       fill="none"
       width="194.321"
       height="16.734"
       id="rect51" /><text
       transform="matrix(1 0 0 1 896.9082 132.0029)"
       fill="#333333"
       font-family="'HelveticaNeue'"
       font-size="14"
       id="text53">Phillips Study Alcove</text>
<rect
       x="896.909"
       y="140.146"
       fill="none"
       width="194.321"
       height="16.734"
       id="rect55" /><text
       transform="matrix(1 0 0 1 896.9082 150.1416)"
       fill="#333333"
       font-family="'HelveticaNeue'"
       font-size="14"
       id="text57">Owen Study Alcove</text>
<rect
       x="896.909"
       y="158.284"
       fill="none"
       width="194.321"
       height="16.734"
       id="rect59" /><text
       transform="matrix(1 0 0 1 896.9082 168.2803)"
       fill="#333333"
       font-family="'HelveticaNeue'"
       font-size="14"
       id="text61">Books AC-BQ</text>
<rect
       x="896.909"
       y="85.73"
       fill="none"
       width="194.321"
       height="16.734"
       id="rect63" /><text
       transform="matrix(1 0 0 1 896.9082 95.7266)"
       fill="#333333"
       font-family="'HelveticaNeue'"
       font-size="14"
       id="text65">Graham Study Alcove</text>
<rect
       x="869.875"
       y="201.019"
       fill="none"
       width="190.668"
       height="16.734"
       id="rect67" /><text
       transform="matrix(1 0 0 1 869.875 211.0146)"
       fill="#333333"
       font-family="'HelveticaNeue'"
       font-size="14"
       id="text69">Limited Access Areas</text>
<rect
       x="845.555"
       y="41.334"
       fill="none"
       width="249.813"
       height="26.474"
       id="rect71" /><text
       transform="matrix(1 0 0 1 845.5547 62.7549)"
       fill="#333333"
       font-family="'HelveticaNeue'"
       font-size="30"
       id="text73">Fourth Floor</text>
<rect
       x="845.555"
       y="18.334"
       fill="none"
       width="249.813"
       height="15.808"
       id="rect75" /><text
       transform="matrix(1 0 0 1 845.5547 32.6133)"
       fill="#CCCCCC"
       font-family="'HelveticaNeue'"
       font-size="20"
       id="text77">Penrose Library</text>
<rect
       x="845.555"
       y="85.73"
       fill="#003D7D"
       width="14"
       height="89.289"
       id="rect79" /><rect
       x="845.555"
       y="200.019"
       fill="#333333"
       width="14"
       height="14.211"
       id="rect81" /><g
       id="g83"><g
         id="g85"><path
           fill="#FFFFFF"
           stroke="#003D7D"
           stroke-miterlimit="10"
           d="M552.098,243.425c-8.676,0-15.709,7.033-15.709,15.709     c0,8.676,7.033,15.709,15.709,15.709c8.677,0,15.709-7.033,15.709-15.709C567.807,250.458,560.774,243.425,552.098,243.425z"
           id="path87" /></g><path
         fill="#003D7D"
         d="M560.879,262.923c0-0.547-0.443-0.99-0.99-0.99h-4.716v-4.709c0-0.002,0-0.004,0-0.008    c0-0.547-0.442-0.99-0.99-0.99h-4.715v-4.707c0-0.002,0-0.004,0-0.008c0-0.547-0.442-0.99-0.989-0.99h-5.706    c-0.548,0-0.99,0.443-0.99,0.99c0,0.549,0.442,0.992,0.99,0.992h4.715v4.707c0,0.002,0,0.004,0,0.006    c0,0.139,0.027,0.268,0.078,0.387c0.149,0.355,0.503,0.605,0.913,0.605c0.006,0,0.011,0,0.016,0h4.699v4.715l0,0l0,0    c0,0.547,0.442,0.99,0.989,0.99h4.716v4.717c0,0.547,0.442,0.99,0.989,0.99c0.548,0,0.99-0.443,0.99-0.99v-5.699    C560.878,262.927,560.879,262.925,560.879,262.923z"
         id="path89" /></g><g
       id="g91"><g
         id="g93"><path
           fill="#FFFFFF"
           stroke="#003D7D"
           stroke-miterlimit="10"
           d="M511.89,186.683c-8.676,0-15.71,7.033-15.71,15.709     c0,8.676,7.034,15.709,15.71,15.709c8.677,0,15.709-7.033,15.709-15.709C527.599,193.716,520.566,186.683,511.89,186.683z"
           id="path95" /></g><g
         id="g97"><circle
           fill="#003D7D"
           cx="508.98"
           cy="202.331"
           r="1.055"
           id="circle99" /><path
           fill="#003D7D"
           d="M507.655,207.062c0,0.236-0.19,0.426-0.427,0.426h-0.068c-0.235,0-0.426-0.189-0.426-0.426v-2.842     c0-0.035,0.004-0.066,0.012-0.098c0.048-0.252,0.242-0.439,0.476-0.439h3.585c0.271,0,0.488,0.25,0.488,0.559     c0,0.02-0.001,0.041-0.003,0.059v2.762c0,0.236-0.191,0.426-0.427,0.426h-0.068c-0.234,0-0.427-0.189-0.427-0.426v3.174     c0,0.334-0.271,0.607-0.606,0.607h-0.099c-0.335,0-0.607-0.273-0.607-0.607v-2.916h-0.087v2.916c0,0.334-0.271,0.607-0.606,0.607     h-0.099c-0.336,0-0.606-0.273-0.606-0.607L507.655,207.062z"
           id="path101" /></g><g
         id="g103"><circle
           fill="#003D7D"
           cx="514.732"
           cy="202.331"
           r="1.055"
           id="circle105" /><path
           fill="#003D7D"
           d="M513.407,207.062c0,0.236-0.19,0.426-0.427,0.426h-0.068c-0.235,0-0.426-0.189-0.426-0.426v-2.842     c0-0.035,0.004-0.066,0.012-0.098c0.048-0.252,0.242-0.439,0.476-0.439h3.585c0.271,0,0.487,0.25,0.487,0.559     c0,0.02,0,0.041-0.002,0.059v2.762c0,0.236-0.19,0.426-0.427,0.426h-0.068c-0.234,0-0.427-0.189-0.427-0.426v3.174     c0,0.334-0.271,0.607-0.607,0.607h-0.098c-0.335,0-0.607-0.273-0.607-0.607v-2.916h-0.087v2.916c0,0.334-0.271,0.607-0.606,0.607     h-0.099c-0.336,0-0.606-0.273-0.606-0.607L513.407,207.062z"
           id="path107" /></g><path
         fill="#003D7D"
         d="M518.426,197.337h-13.072c-0.761,0-1.377,0.615-1.377,1.375v13.074c0,0.76,0.616,1.375,1.377,1.375h13.072    c0.76,0,1.376-0.615,1.376-1.375v-13.074C519.802,197.952,519.186,197.337,518.426,197.337z M518.083,211.442h-12.385v-12.385    h12.385V211.442z"
         id="path109" /><path
         fill="#003D7D"
         d="M515.146,196.247c0.009,0.008,0.017,0.012,0.023,0.02c0.024,0.021,0.049,0.043,0.075,0.061    c0.02,0.014,0.042,0.023,0.062,0.035c0.018,0.008,0.031,0.018,0.05,0.025c0.025,0.012,0.053,0.018,0.078,0.025    c0.016,0.004,0.028,0.01,0.045,0.012c0.036,0.008,0.073,0.012,0.111,0.012c0.006,0,0.011,0.002,0.018,0.002    c0.006,0,0.011-0.002,0.017-0.002c0.038,0,0.075-0.004,0.112-0.012c0.016-0.002,0.026-0.008,0.042-0.012    c0.026-0.008,0.055-0.014,0.08-0.025c0.019-0.008,0.032-0.018,0.051-0.027c0.021-0.01,0.042-0.02,0.062-0.033    c0.031-0.02,0.06-0.043,0.086-0.068c0.005-0.004,0.011-0.008,0.015-0.012l0,0l0,0l2.379-2.379    c0.256-0.258,0.256-0.672,0.001-0.928c-0.257-0.256-0.672-0.256-0.928,0l-1.261,1.26v-3.439c0-0.361-0.294-0.656-0.654-0.656    c-0.361,0.002-0.655,0.295-0.655,0.656v3.439l-1.261-1.26c-0.256-0.256-0.671-0.256-0.929,0c-0.255,0.256-0.255,0.67,0.002,0.928    L515.146,196.247L515.146,196.247L515.146,196.247z"
         id="path111" /><path
         fill="#003D7D"
         d="M508.632,190.298c-0.007-0.008-0.017-0.014-0.022-0.021c-0.024-0.021-0.049-0.043-0.075-0.061    c-0.021-0.014-0.042-0.023-0.063-0.035c-0.017-0.008-0.031-0.018-0.049-0.025c-0.026-0.012-0.053-0.018-0.079-0.023    c-0.015-0.004-0.028-0.01-0.043-0.014c-0.038-0.008-0.075-0.01-0.113-0.012c-0.006,0-0.012-0.002-0.017-0.002    s-0.011,0.002-0.017,0.002c-0.037,0.002-0.075,0.004-0.112,0.012c-0.015,0.004-0.027,0.01-0.042,0.014    c-0.027,0.006-0.055,0.014-0.08,0.023c-0.018,0.008-0.033,0.018-0.051,0.027c-0.021,0.01-0.042,0.02-0.062,0.033    c-0.029,0.021-0.059,0.045-0.085,0.07c-0.005,0.004-0.009,0.006-0.014,0.012l0,0l0,0l-2.379,2.379    c-0.257,0.256-0.257,0.67-0.001,0.926c0.257,0.256,0.672,0.256,0.928,0l1.26-1.26v3.441c0,0.361,0.293,0.654,0.655,0.654    s0.655-0.293,0.655-0.656v-3.439l1.261,1.26c0.256,0.256,0.671,0.258,0.928,0c0.255-0.256,0.255-0.67-0.001-0.926L508.632,190.298    L508.632,190.298L508.632,190.298z"
         id="path113" /></g><g
       id="g115"><g
         id="g117"><g
           id="g119"><path
             fill="#FFFFFF"
             stroke="#003D7D"
             stroke-miterlimit="10"
             d="M84.452,117.535c-6.08,0-11.01,4.93-11.01,11.01      s4.93,11.01,11.01,11.01s11.01-4.93,11.01-11.01S90.532,117.535,84.452,117.535z"
             id="path121" /></g></g><rect
         x="73.669"
         y="123.617"
         fill="none"
         width="21.297"
         height="11.258"
         id="rect123" /><text
         transform="matrix(1 0 0 1 80.5059 133.4072)"
         fill="#003D7D"
         font-family="'HelveticaNeue'"
         font-size="13.7123"
         id="text125">1</text>
</g><g
       id="g127"><g
         id="g129"><g
           id="g131"><path
             fill="#FFFFFF"
             stroke="#003D7D"
             stroke-miterlimit="10"
             d="M180.245,117.535c-6.08,0-11.01,4.93-11.01,11.01      s4.93,11.01,11.01,11.01s11.01-4.93,11.01-11.01S186.325,117.535,180.245,117.535z"
             id="path133" /></g></g><rect
         x="169.461"
         y="123.617"
         fill="none"
         width="21.297"
         height="11.258"
         id="rect135" /><text
         transform="matrix(1 0 0 1 176.2983 133.4072)"
         fill="#003D7D"
         font-family="'HelveticaNeue'"
         font-size="13.7123"
         id="text137">2</text>
</g><g
       id="g139"><g
         id="g141"><g
           id="g143"><path
             fill="#FFFFFF"
             stroke="#003D7D"
             stroke-miterlimit="10"
             d="M277.368,117.535c-6.08,0-11.01,4.93-11.01,11.01      s4.93,11.01,11.01,11.01s11.01-4.93,11.01-11.01S283.448,117.535,277.368,117.535z"
             id="path145" /></g></g><rect
         x="266.585"
         y="123.617"
         fill="none"
         width="21.297"
         height="11.258"
         id="rect147" /><text
         transform="matrix(1 0 0 1 273.4219 133.4072)"
         fill="#003D7D"
         font-family="'HelveticaNeue'"
         font-size="13.7123"
         id="text149">3</text>
</g><g
       id="g151"><g
         id="g153"><g
           id="g155"><path
             fill="#FFFFFF"
             stroke="#003D7D"
             stroke-miterlimit="10"
             d="M373.161,117.536c-6.08,0-11.01,4.93-11.01,11.01      s4.93,11.01,11.01,11.01s11.01-4.93,11.01-11.01S379.241,117.536,373.161,117.536z"
             id="path157" /></g></g><rect
         x="362.377"
         y="123.618"
         fill="none"
         width="21.297"
         height="11.258"
         id="rect159" /><text
         transform="matrix(1 0 0 1 369.2144 133.4082)"
         fill="#003D7D"
         font-family="'HelveticaNeue'"
         font-size="13.7123"
         id="text161">4</text>
</g><g
       id="g163"><g
         id="g165"><g
           id="g167"><path
             fill="#FFFFFF"
             stroke="#003D7D"
             stroke-miterlimit="10"
             d="M273.997,204.382c-6.08,0-11.01,4.93-11.01,11.01      s4.93,11.01,11.01,11.01c6.081,0,11.011-4.93,11.011-11.01S280.078,204.382,273.997,204.382z"
             id="path169" /></g></g><rect
         x="263.214"
         y="210.464"
         fill="none"
         width="21.298"
         height="11.258"
         id="rect171" /><text
         transform="matrix(1 0 0 1 270.0513 220.2539)"
         fill="#003D7D"
         font-family="'HelveticaNeue'"
         font-size="13.7123"
         id="text173">5</text>
</g><rect
       x="1007.314"
       y="320.927"
       fill="none"
       width="84.001"
       height="16.734"
       id="rect175" /><text
       transform="matrix(1 0 0 1 1007.3145 330.9229)"
       fill="#333333"
       font-family="'HelveticaNeue'"
       font-size="14"
       id="text177">Stairs</text>
<rect
       x="878.726"
       y="322.382"
       fill="none"
       width="84.001"
       height="16.734"
       id="rect179" /><text
       transform="matrix(1 0 0 1 878.7266 332.3779)"
       fill="#333333"
       font-family="'HelveticaNeue'"
       font-size="14"
       id="text181">Elevator</text>
<rect
       x="1007.105"
       y="357.294"
       fill="none"
       width="84"
       height="16.734"
       id="rect183" /><text
       transform="matrix(1 0 0 1 1007.1055 367.29)"
       fill="#333333"
       font-family="'HelveticaNeue'"
       font-size="14"
       id="text185">Printer</text>
<g
       id="g187"><g
         id="g189"><path
           fill="#FFFFFF"
           stroke="#003D7D"
           stroke-miterlimit="10"
           d="M984.947,313.128c-8.676,0-15.709,7.033-15.709,15.709     c0,8.676,7.033,15.709,15.709,15.709s15.709-7.033,15.709-15.709C1000.656,320.161,993.623,313.128,984.947,313.128z"
           id="path191" /></g><path
         fill="#003D7D"
         d="M993.729,332.626c0-0.547-0.443-0.99-0.99-0.99h-4.716v-4.709c0-0.002,0-0.004,0-0.008    c0-0.547-0.443-0.99-0.99-0.99h-4.715v-4.707c0-0.002,0-0.004,0-0.008c0-0.547-0.443-0.99-0.99-0.99h-5.706    c-0.547,0-0.99,0.443-0.99,0.99c0,0.549,0.443,0.992,0.99,0.992h4.715v4.707c0,0.002,0,0.004,0,0.006    c0,0.139,0.028,0.268,0.078,0.387c0.15,0.355,0.503,0.605,0.913,0.605c0.006,0,0.011,0,0.016,0h4.699v4.715l0,0l0,0    c0,0.547,0.443,0.99,0.99,0.99h4.715v4.717c0,0.547,0.443,0.99,0.99,0.99s0.989-0.443,0.989-0.99v-5.699    C993.727,332.63,993.729,332.628,993.729,332.626z"
         id="path193" /></g><g
       id="g195"><g
         id="g197"><path
           fill="#FFFFFF"
           stroke="#003D7D"
           stroke-miterlimit="10"
           d="M856.36,313.517c-8.677,0-15.71,7.033-15.71,15.709     c0,8.676,7.033,15.709,15.71,15.709c8.676,0,15.709-7.033,15.709-15.709C872.069,320.55,865.036,313.517,856.36,313.517z"
           id="path199" /></g><g
         id="g201"><circle
           fill="#003D7D"
           cx="853.45"
           cy="329.165"
           r="1.055"
           id="circle203" /><path
           fill="#003D7D"
           d="M852.125,333.896c0,0.236-0.19,0.426-0.426,0.426h-0.069c-0.235,0-0.426-0.189-0.426-0.426v-2.842     c0-0.035,0.004-0.066,0.012-0.098c0.048-0.252,0.242-0.439,0.477-0.439h3.585c0.27,0,0.487,0.25,0.487,0.559     c0,0.02-0.001,0.041-0.003,0.059v2.762c0,0.236-0.19,0.426-0.427,0.426h-0.068c-0.234,0-0.427-0.189-0.427-0.426v3.174     c0,0.334-0.271,0.607-0.605,0.607h-0.1c-0.335,0-0.606-0.273-0.606-0.607v-2.916h-0.087v2.916c0,0.334-0.272,0.607-0.607,0.607     h-0.098c-0.336,0-0.607-0.273-0.607-0.607L852.125,333.896z"
           id="path205" /></g><g
         id="g207"><circle
           fill="#003D7D"
           cx="859.202"
           cy="329.165"
           r="1.055"
           id="circle209" /><path
           fill="#003D7D"
           d="M857.876,333.896c0,0.236-0.19,0.426-0.426,0.426h-0.069c-0.234,0-0.426-0.189-0.426-0.426v-2.842     c0-0.035,0.004-0.066,0.012-0.098c0.048-0.252,0.242-0.439,0.477-0.439h3.585c0.27,0,0.486,0.25,0.486,0.559     c0,0.02,0,0.041-0.002,0.059v2.762c0,0.236-0.19,0.426-0.427,0.426h-0.068c-0.234,0-0.427-0.189-0.427-0.426v3.174     c0,0.334-0.271,0.607-0.606,0.607h-0.099c-0.335,0-0.606-0.273-0.606-0.607v-2.916h-0.087v2.916c0,0.334-0.272,0.607-0.607,0.607     h-0.098c-0.336,0-0.607-0.273-0.607-0.607L857.876,333.896z"
           id="path211" /></g><path
         fill="#003D7D"
         d="M862.896,324.171h-13.073c-0.761,0-1.376,0.615-1.376,1.375v13.074c0,0.76,0.616,1.375,1.376,1.375h13.073    c0.76,0,1.375-0.615,1.375-1.375v-13.074C864.271,324.786,863.656,324.171,862.896,324.171z M862.552,338.276h-12.385v-12.385    h12.385V338.276z"
         id="path213" /><path
         fill="#003D7D"
         d="M859.617,323.081c0.008,0.008,0.016,0.012,0.022,0.02c0.024,0.021,0.05,0.043,0.075,0.061    c0.021,0.014,0.042,0.023,0.063,0.035c0.017,0.008,0.03,0.018,0.049,0.025c0.026,0.012,0.053,0.018,0.079,0.025    c0.015,0.004,0.027,0.01,0.044,0.012c0.037,0.008,0.074,0.012,0.112,0.012c0.006,0,0.011,0.002,0.017,0.002    s0.011-0.002,0.017-0.002c0.038,0,0.075-0.004,0.112-0.012c0.016-0.002,0.027-0.008,0.042-0.012    c0.027-0.008,0.055-0.014,0.08-0.025c0.019-0.008,0.033-0.018,0.051-0.027c0.021-0.01,0.042-0.02,0.062-0.033    c0.031-0.02,0.059-0.043,0.086-0.068c0.004-0.004,0.01-0.008,0.014-0.012l0,0l0,0l2.379-2.379    c0.256-0.258,0.256-0.672,0.001-0.928c-0.257-0.256-0.672-0.256-0.928,0l-1.26,1.26v-3.439c0-0.361-0.294-0.656-0.655-0.656    c-0.361,0.002-0.655,0.295-0.655,0.656v3.439l-1.261-1.26c-0.256-0.256-0.671-0.256-0.928,0c-0.255,0.256-0.255,0.67,0.002,0.928    L859.617,323.081L859.617,323.081L859.617,323.081z"
         id="path215" /><path
         fill="#003D7D"
         d="M853.102,317.132c-0.007-0.008-0.017-0.014-0.022-0.021c-0.024-0.021-0.048-0.043-0.075-0.061    c-0.02-0.014-0.042-0.023-0.062-0.035c-0.018-0.008-0.032-0.018-0.05-0.025c-0.025-0.012-0.053-0.018-0.079-0.023    c-0.015-0.004-0.027-0.01-0.043-0.014c-0.037-0.008-0.074-0.01-0.112-0.012c-0.006,0-0.013-0.002-0.018-0.002    s-0.011,0.002-0.017,0.002c-0.037,0.002-0.075,0.004-0.112,0.012c-0.015,0.004-0.026,0.01-0.042,0.014    c-0.026,0.006-0.055,0.014-0.08,0.023c-0.018,0.008-0.033,0.018-0.051,0.027c-0.021,0.01-0.042,0.02-0.062,0.033    c-0.029,0.021-0.059,0.045-0.085,0.07c-0.005,0.004-0.009,0.006-0.014,0.012l0,0l0,0l-2.379,2.379    c-0.257,0.256-0.257,0.67-0.001,0.926c0.257,0.256,0.672,0.256,0.928,0l1.26-1.26v3.441c0,0.361,0.294,0.654,0.655,0.654    c0.362,0,0.655-0.293,0.655-0.656v-3.439l1.261,1.26c0.256,0.256,0.671,0.258,0.929,0c0.255-0.256,0.255-0.67-0.002-0.926    L853.102,317.132L853.102,317.132L853.102,317.132z"
         id="path217" /></g><g
       id="g219"><g
         id="g221"><path
           fill="#FFFFFF"
           stroke="#003D7D"
           stroke-miterlimit="10"
           d="M984.738,348.751c-8.562,0-15.5,6.939-15.5,15.5     s6.938,15.5,15.5,15.5c8.561,0,15.5-6.939,15.5-15.5S993.298,348.751,984.738,348.751z"
           id="path223" /></g><rect
         x="977.447"
         y="353.733"
         fill="#FFFFFF"
         stroke="#003D7D"
         stroke-miterlimit="10"
         width="14.498"
         height="10.342"
         id="rect225" /><path
         fill="#003D7D"
         d="M996.217,367.806c0,0.635-0.514,1.148-1.146,1.148h-21.126c-0.636,0-1.148-0.514-1.148-1.148v-7.459    c0-0.635,0.514-1.148,1.148-1.148h21.126c0.634,0,1.146,0.514,1.146,1.148V367.806z"
         id="path227" /><rect
         x="974.748"
         y="360.858"
         fill="#FFFFFF"
         width="2.984"
         height="1.32"
         id="rect229" /><rect
         x="977.447"
         y="364.251"
         fill="#FFFFFF"
         stroke="#003D7D"
         stroke-miterlimit="10"
         width="14.498"
         height="10.344"
         id="rect231" /><rect
         x="979.474"
         y="366.036"
         fill="#003D7D"
         width="10.181"
         height="2.285"
         id="rect233" /><rect
         x="979.474"
         y="369.997"
         fill="#003D7D"
         width="5.23"
         height="2.285"
         id="rect235" /></g><rect
       x="878.726"
       y="358.489"
       fill="none"
       width="84.001"
       height="16.734"
       id="rect237" /><text
       transform="matrix(1 0 0 1 878.7266 368.4854)"
       fill="#333333"
       font-family="'HelveticaNeue'"
       font-size="14"
       id="text239">Copier</text>
<rect
       x="1007.314"
       y="393.661"
       fill="none"
       width="84.001"
       height="16.733"
       id="rect241" /><text
       transform="matrix(1 0 0 1 1007.3145 403.6572)"
       fill="#333333"
       font-family="'HelveticaNeue'"
       font-size="14"
       id="text243">Scanner</text>
<g
       id="g245"><g
         id="g247"><path
           fill="#FFFFFF"
           stroke="#003D7D"
           stroke-miterlimit="10"
           d="M856.359,349.382c-8.562,0-15.5,6.939-15.5,15.5     s6.938,15.5,15.5,15.5c8.561,0,15.5-6.939,15.5-15.5S864.919,349.382,856.359,349.382z"
           id="path249" /></g><g
         id="g251"><path
           fill="#003D7D"
           d="M863.671,358.271l-7.503-0.012v-1.564l5.034-1.584v-1.227l-12.537,1.678     c-0.596,0-1.079,0.482-1.079,1.078v4.615h17.165v-1.906C864.751,358.753,864.268,358.271,863.671,358.271z"
           id="path253" /><polygon
           fill="#003D7D"
           points="868.529,361.374 864.713,362.333 864.713,362.335 859.138,362.335 859.138,363.495      853.14,363.495 853.14,362.335 847.586,362.335 847.586,368.028 864.751,368.028 864.751,364.024 868.529,362.276    "
           id="polygon255" /><path
           fill="#003D7D"
           d="M868.493,368.224l-3.741,0.939v-0.027h-5.613v1.16h-5.998v-1.16h-5.554v4.615     c0,0.596,0.483,1.08,1.079,1.08h15.006c0.597,0,1.08-0.484,1.08-1.08v-2.895l3.741-1.73V368.224z"
           id="path257" /></g></g><rect
       x="878.726"
       y="394.595"
       fill="none"
       width="84.001"
       height="16.734"
       id="rect259" /><text
       transform="matrix(1 0 0 1 878.7266 404.5908)"
       fill="#333333"
       font-family="'HelveticaNeue'"
       font-size="14"
       id="text261">Computers</text>
<g
       id="g263"><g
         id="g265"><path
           fill="#FFFFFF"
           stroke="#003D7D"
           stroke-miterlimit="10"
           d="M984.738,384.163c-8.562,0-15.5,6.939-15.5,15.5     s6.938,15.5,15.5,15.5c8.561,0,15.5-6.939,15.5-15.5S993.298,384.163,984.738,384.163z"
           id="path267" /></g><g
         id="g269"><path
           fill="#003D7D"
           d="M973.558,405.302c0,0.955,0.774,1.73,1.73,1.73h18.726c0.956,0,1.73-0.775,1.73-1.73v-3.309h-22.188     L973.558,405.302L973.558,405.302z M990.012,403.485h3.548c0.347,0,0.628,0.28,0.628,0.627c0,0.346-0.281,0.627-0.628,0.627     h-3.548c-0.347,0-0.627-0.281-0.627-0.627C989.385,403.766,989.666,403.485,990.012,403.485z M987.576,403.485     c0.346,0,0.627,0.28,0.627,0.627c0,0.346-0.281,0.627-0.627,0.627c-0.348,0-0.628-0.281-0.628-0.627     C986.948,403.766,987.229,403.485,987.576,403.485z"
           id="path271" /><path
           fill="#003D7D"
           d="M994.88,399.265l-17.155-7.508c-0.876-0.383-1.896,0.018-2.278,0.893l20.325,8.896     C996.155,400.667,995.755,399.647,994.88,399.265z"
           id="path273" /></g></g><g
       id="g275"><g
         id="g277"><path
           fill="#FFFFFF"
           stroke="#003D7D"
           stroke-miterlimit="10"
           d="M856.359,385.036c-8.561,0-15.5,6.939-15.5,15.5     s6.939,15.5,15.5,15.5s15.5-6.939,15.5-15.5S864.919,385.036,856.359,385.036z"
           id="path279" /></g><path
         fill="#003D7D"
         d="M863.783,390.362h-14.7c-0.634,0-1.147,0.514-1.147,1.146v9.238c0,0.633,0.515,1.146,1.147,1.146h5.512    v1.507h-2.584v1.123h8.846v-1.123h-2.583v-1.507h5.511c0.634,0,1.147-0.514,1.147-1.146v-9.238    C864.931,390.876,864.417,390.362,863.783,390.362z M863.781,400.146c0,0.317-0.257,0.573-0.573,0.573h-13.549    c-0.316,0-0.574-0.256-0.574-0.573v-8.038c0-0.315,0.258-0.571,0.574-0.571h13.549c0.316,0,0.573,0.256,0.573,0.571V400.146z"
         id="path281" /><path
         fill="#003D7D"
         d="M866.167,408.78c0.336,0.276-0.293,0.489-0.655,0.489h-18.29c-0.361,0-1.027-0.098-0.654-0.489    l2.617-2.687c0.304-0.326,0.608-0.487,1.177-0.487h11.779c0.896,0,1.047,0.161,1.408,0.487L866.167,408.78z"
         id="path283" /></g><rect
       x="878.726"
       y="287.204"
       fill="none"
       width="143.001"
       height="16.734"
       id="rect285" /><text
       transform="matrix(1 0 0 1 878.7266 297.1992)"
       fill="#333333"
       font-family="'HelveticaNeue'"
       font-size="14"
       id="text287">Emergency Exit</text>
<g
       id="g289"><g
         id="g291"><g
           id="g293"><g
             id="g295"><path
               fill="#FFFFFF"
               stroke="#003D7D"
               stroke-miterlimit="10"
               d="M892.081,242.416c-8.562,0-15.5,6.939-15.5,15.5       s6.938,15.5,15.5,15.5c8.56,0,15.5-6.939,15.5-15.5S900.64,242.416,892.081,242.416z"
               id="path297" /></g></g></g><g
         id="g299"><circle
           fill="#003D7D"
           cx="891.965"
           cy="249.269"
           r="2.474"
           id="circle301" /><path
           fill="#003D7D"
           d="M896.304,252.417c-0.134,0-0.261,0.025-0.379,0.068c-0.088-0.043-0.186-0.068-0.29-0.068h-1.006     c-0.029-0.004-0.06-0.01-0.092-0.01h-4.99c-0.032,0-0.062,0.006-0.093,0.01h-1.005c-0.104,0-0.202,0.025-0.291,0.068     c-0.117-0.043-0.245-0.068-0.379-0.068c-0.605,0-1.098,0.491-1.098,1.098v6.733c0,0.605,0.491,1.098,1.098,1.098     c0.311,0,0.589-0.129,0.789-0.334l-1.828,4.131h2.403v2.756c0,0.701,0.568,1.27,1.271,1.27s1.271-0.568,1.271-1.27v-2.756h0.715     v2.756c0,0.701,0.568,1.27,1.271,1.27s1.271-0.568,1.271-1.27v-2.756h2.364l-1.789-4.131c0.2,0.205,0.479,0.334,0.788,0.334     c0.606,0,1.098-0.492,1.098-1.098v-6.733C897.401,252.908,896.911,252.417,896.304,252.417z"
           id="path303" /></g></g><g
       id="g305"><g
         id="g307"><g
           id="g309"><g
             id="g311"><path
               fill="#FFFFFF"
               stroke="#003D7D"
               stroke-miterlimit="10"
               d="M856.018,242.415c-8.56,0-15.5,6.939-15.5,15.5       s6.94,15.5,15.5,15.5c8.562,0,15.5-6.939,15.5-15.5S864.579,242.415,856.018,242.415z"
               id="path313" /></g></g></g><g
         id="g315"><circle
           fill="#003D7D"
           cx="855.941"
           cy="249.197"
           r="2.474"
           id="circle317" /><path
           fill="#003D7D"
           d="M860.281,252.344c-0.134,0-0.262,0.025-0.38,0.068c-0.089-0.042-0.187-0.068-0.289-0.068h-1.006     c-0.029-0.004-0.062-0.01-0.093-0.01h-4.99c-0.032,0-0.062,0.006-0.093,0.01h-1.005c-0.104,0-0.203,0.026-0.291,0.068     c-0.118-0.043-0.245-0.068-0.379-0.068c-0.604,0-1.097,0.492-1.097,1.098v6.733c0,0.607,0.491,1.098,1.097,1.098     c0.606,0,1.098-0.49,1.098-1.098v-0.732c0,0.219,0.107,0.412,0.271,0.533c-0.001,0.02-0.003,0.037-0.003,0.057v7.793     c0,0.701,0.568,1.271,1.27,1.271c0.702,0,1.271-0.57,1.271-1.271v-5.902h0.714v5.902c0,0.701,0.568,1.271,1.271,1.271     c0.7,0,1.27-0.57,1.27-1.271v-7.793c0-0.02-0.002-0.037-0.003-0.057c0.164-0.121,0.271-0.314,0.271-0.533v0.732     c0,0.607,0.491,1.098,1.099,1.098c0.606,0,1.097-0.49,1.097-1.098v-6.733C861.377,252.836,860.887,252.344,860.281,252.344z"
           id="path319" /></g></g><rect
       x="949.668"
       y="250.792"
       fill="none"
       width="140.359"
       height="16.734"
       id="rect321" /><text
       transform="matrix(1 0 0 1 949.668 260.7891)"
       fill="#333333"
       font-family="'HelveticaNeue'"
       font-size="14"
       id="text323">Restrooms</text>
<g
       id="g325"><g
         id="g327"><path
           fill="#FFFFFF"
           stroke="#003D7D"
           stroke-miterlimit="10"
           d="M927.644,242.416c-8.561,0-15.501,6.939-15.501,15.5     s6.94,15.5,15.501,15.5c8.562,0,15.5-6.939,15.5-15.5S936.205,242.416,927.644,242.416z"
           id="path329" /></g><g
         id="g331"><rect
           x="926.707"
           y="246.543"
           fill="#003D7D"
           width="1.924"
           height="22.618"
           id="rect333" /></g><g
         id="g335"><circle
           fill="#003D7D"
           cx="934.059"
           cy="250.075"
           r="2.143"
           id="circle337" /><path
           fill="#003D7D"
           d="M937.819,252.802c-0.115,0-0.227,0.021-0.328,0.059c-0.076-0.037-0.161-0.059-0.252-0.059h-0.87     c-0.026-0.004-0.053-0.008-0.08-0.008h-4.324c-0.027,0-0.053,0.004-0.079,0.008h-0.871c-0.09,0-0.175,0.021-0.251,0.059     c-0.103-0.037-0.213-0.059-0.328-0.059c-0.524,0-0.95,0.426-0.95,0.95v5.833c0,0.525,0.426,0.951,0.95,0.951     s0.95-0.426,0.95-0.951v-0.635c0,0.189,0.094,0.357,0.234,0.463c-0.001,0.016-0.003,0.031-0.003,0.049v6.752     c0,0.607,0.493,1.1,1.101,1.1c0.608,0,1.101-0.492,1.101-1.1v-6.684h0.619v6.684c0,0.607,0.492,1.1,1.101,1.1s1.1-0.492,1.1-1.1     v-6.752c0-0.018-0.001-0.033-0.002-0.049c0.143-0.105,0.234-0.273,0.234-0.463v0.635c0,0.525,0.426,0.951,0.95,0.951     s0.951-0.426,0.951-0.951v-5.833C938.77,253.228,938.344,252.802,937.819,252.802z"
           id="path339" /></g><g
         id="g341"><circle
           fill="#003D7D"
           cx="920.97"
           cy="250.083"
           r="2.143"
           id="circle343" /><path
           fill="#003D7D"
           d="M924.73,252.81c-0.115,0-0.227,0.021-0.328,0.059c-0.076-0.037-0.161-0.059-0.251-0.059h-0.871     c-0.026-0.004-0.054-0.009-0.08-0.009h-4.324c-0.027,0-0.053,0.005-0.079,0.009h-0.871c-0.091,0-0.175,0.021-0.251,0.059     c-0.103-0.037-0.213-0.059-0.328-0.059c-0.524,0-0.95,0.426-0.95,0.95v5.833c0,0.525,0.426,0.951,0.95,0.951     c0.269,0,0.511-0.111,0.683-0.289l-0.717,3.578h1.217v2.387c0,0.609,0.493,1.102,1.101,1.102c0.608,0,1.101-0.492,1.101-1.102     v-2.387h0.619v2.387c0,0.609,0.492,1.102,1.101,1.102s1.1-0.492,1.1-1.102v-2.387h1.184l-0.684-3.578     c0.173,0.178,0.415,0.289,0.684,0.289c0.524,0,0.95-0.426,0.95-0.951v-5.833C925.68,253.236,925.255,252.81,924.73,252.81z"
           id="path345" /></g></g><g
       id="g347"><g
         id="g349"><path
           fill="#FFFFFF"
           stroke="#003D7D"
           stroke-miterlimit="10"
           d="M455.723,120.004c-8.561,0-15.501,6.939-15.501,15.5     s6.94,15.5,15.501,15.5c8.562,0,15.5-6.939,15.5-15.5S464.284,120.004,455.723,120.004z"
           id="path351" /></g><g
         id="g353"><rect
           x="454.786"
           y="124.132"
           fill="#003D7D"
           width="1.924"
           height="22.618"
           id="rect355" /></g><g
         id="g357"><circle
           fill="#003D7D"
           cx="462.138"
           cy="127.664"
           r="2.143"
           id="circle359" /><path
           fill="#003D7D"
           d="M465.898,130.391c-0.115,0-0.227,0.021-0.328,0.059c-0.076-0.037-0.161-0.059-0.252-0.059h-0.87     c-0.026-0.004-0.054-0.008-0.08-0.008h-4.324c-0.027,0-0.053,0.004-0.079,0.008h-0.871c-0.09,0-0.175,0.021-0.251,0.059     c-0.103-0.037-0.213-0.059-0.328-0.059c-0.524,0-0.95,0.426-0.95,0.95v5.833c0,0.525,0.426,0.951,0.95,0.951     s0.95-0.426,0.95-0.951v-0.635c0,0.189,0.093,0.357,0.234,0.463c-0.001,0.016-0.003,0.031-0.003,0.049v6.752     c0,0.607,0.493,1.1,1.101,1.1c0.608,0,1.101-0.492,1.101-1.1v-6.684h0.618v6.684c0,0.607,0.493,1.1,1.102,1.1     c0.607,0,1.1-0.492,1.1-1.1v-6.752c0-0.018-0.001-0.033-0.002-0.049c0.143-0.105,0.234-0.273,0.234-0.463v0.635     c0,0.525,0.426,0.951,0.95,0.951s0.95-0.426,0.95-0.951v-5.833C466.849,130.816,466.423,130.391,465.898,130.391z"
           id="path361" /></g><g
         id="g363"><circle
           fill="#003D7D"
           cx="449.049"
           cy="127.671"
           r="2.143"
           id="circle365" /><path
           fill="#003D7D"
           d="M452.809,130.398c-0.114,0-0.226,0.021-0.327,0.059c-0.076-0.037-0.161-0.059-0.251-0.059h-0.871     c-0.026-0.004-0.054-0.009-0.08-0.009h-4.324c-0.027,0-0.053,0.005-0.079,0.009h-0.871c-0.091,0-0.175,0.021-0.251,0.059     c-0.103-0.037-0.213-0.059-0.328-0.059c-0.524,0-0.951,0.426-0.951,0.95v5.833c0,0.525,0.427,0.951,0.951,0.951     c0.269,0,0.51-0.111,0.683-0.289l-0.718,3.578h1.218v2.387c0,0.609,0.492,1.102,1.101,1.102s1.1-0.492,1.1-1.102v-2.387h0.619     v2.387c0,0.609,0.493,1.102,1.102,1.102c0.607,0,1.1-0.492,1.1-1.102v-2.387h1.184l-0.684-3.578     c0.173,0.178,0.415,0.289,0.684,0.289c0.524,0,0.949-0.426,0.949-0.951v-5.833C453.759,130.824,453.334,130.398,452.809,130.398z     "
           id="path367" /></g></g><g
       id="g369"><g
         id="g371"><g
           id="g373"><g
             id="g375"><path
               fill="#FFFFFF"
               stroke="#003D7D"
               stroke-miterlimit="10"
               d="M856.044,278.069c-8.56,0-15.5,6.939-15.5,15.5       s6.94,15.5,15.5,15.5c8.562,0,15.5-6.939,15.5-15.5S864.605,278.069,856.044,278.069z"
               id="path377" /></g></g></g><g
         id="g379"><g
           id="g381"><circle
             fill="none"
             cx="851.392"
             cy="288.212"
             r="2.191"
             id="circle383" /><path
             fill="#003D7D"
             d="M866.51,299.778l-6.202-6.201v-2.459c-0.053,0.111-0.125,0.219-0.219,0.312      c-0.432,0.432-1.133,0.432-1.563,0l-1.711-1.711l-0.787,0.789l9.903,9.904c0.435,0.434,0.435,1.133,0,1.566      c-0.432,0.432-1.133,0.432-1.563,0l-6.263-6.262l-1.688,1.689l2.548,2.547c0.432,0.432,0.432,1.133,0,1.564      c-0.433,0.434-1.133,0.434-1.566,0l-3.295-3.295c-0.225-0.225-0.331-0.521-0.321-0.816c-0.01-0.295,0.098-0.592,0.321-0.818      l1.688-1.688l-2.078-2.078l-1.745,1.744c-0.025,0.035-0.055,0.066-0.086,0.098c-0.218,0.219-0.503,0.326-0.788,0.324      c-0.285,0.002-0.57-0.107-0.789-0.324c-0.03-0.031-0.059-0.062-0.085-0.096l-2.333-2.334c-0.432-0.432-0.432-1.133,0-1.564      c0.433-0.434,1.133-0.434,1.564,0l1.643,1.641l4.937-4.936c0.424-0.424,1.104-0.432,1.539-0.023      c0.031,0.025,0.062,0.053,0.092,0.082l2.43,2.43c0.094,0.094,0.166,0.199,0.219,0.312v-6.908h-13.244v20.273h13.244v-4.283      l3.36,3.361c0.785,0.785,2.058,0.785,2.842,0C867.297,301.833,867.294,300.563,866.51,299.778z M851.392,286.021      c1.212,0,2.192,0.98,2.192,2.191s-0.98,2.191-2.192,2.191c-1.21,0-2.19-0.98-2.19-2.191S850.182,286.021,851.392,286.021z"
             id="path385" /></g></g></g><g
       id="g387"><g
         id="g389"><path
           fill="#FFFFFF"
           stroke="#003D7D"
           stroke-miterlimit="10"
           d="M53.794,241.716c-8.676,0-15.709,7.033-15.709,15.709     c0,8.676,7.033,15.709,15.709,15.709c8.676,0,15.709-7.033,15.709-15.709C69.503,248.749,62.47,241.716,53.794,241.716z"
           id="path391" /></g><path
         fill="#003D7D"
         d="M62.576,261.214c0-0.547-0.443-0.99-0.99-0.99H56.87v-4.709c0-0.002,0-0.004,0-0.008    c0-0.547-0.443-0.99-0.99-0.99h-4.715v-4.707c0-0.002,0-0.004,0-0.008c0-0.547-0.443-0.99-0.99-0.99h-5.706    c-0.547,0-0.99,0.443-0.99,0.99c0,0.549,0.443,0.992,0.99,0.992h4.715v4.707c0,0.002,0,0.004,0,0.006    c0,0.139,0.028,0.268,0.078,0.387c0.15,0.355,0.503,0.605,0.913,0.605c0.006,0,0.011,0,0.016,0h4.699v4.715l0,0l0,0    c0,0.547,0.443,0.99,0.99,0.99h4.715v4.717c0,0.547,0.443,0.99,0.99,0.99s0.99-0.443,0.99-0.99v-5.699    C62.575,261.218,62.576,261.216,62.576,261.214z"
         id="path393" /></g><g
       id="g395"><g
         id="g397"><g
           id="g399"><g
             id="g401"><path
               fill="#FFFFFF"
               stroke="#003D7D"
               stroke-miterlimit="10"
               d="M86.003,241.925c-8.561,0-15.5,6.939-15.5,15.5       c0,8.561,6.939,15.5,15.5,15.5s15.5-6.939,15.5-15.5C101.503,248.864,94.564,241.925,86.003,241.925z"
               id="path403" /></g></g></g><g
         id="g405"><g
           id="g407"><circle
             fill="none"
             cx="81.351"
             cy="252.067"
             r="2.192"
             id="circle409" /><path
             fill="#003D7D"
             d="M96.468,263.634l-6.201-6.202v-2.459c-0.054,0.113-0.125,0.219-0.219,0.312      c-0.432,0.432-1.133,0.432-1.565,0l-1.71-1.71l-0.787,0.789l9.904,9.905c0.433,0.432,0.433,1.133,0,1.565      c-0.432,0.432-1.133,0.432-1.564,0l-6.262-6.261l-1.689,1.689l2.548,2.548c0.433,0.432,0.433,1.133,0,1.565      s-1.133,0.432-1.565,0l-3.295-3.295c-0.225-0.225-0.332-0.522-0.322-0.817c-0.01-0.295,0.098-0.593,0.322-0.818l1.688-1.688      l-2.078-2.079l-1.746,1.745c-0.026,0.034-0.055,0.066-0.086,0.097c-0.217,0.218-0.503,0.326-0.788,0.324      c-0.285,0.001-0.57-0.105-0.788-0.324c-0.031-0.031-0.059-0.063-0.086-0.097l-2.332-2.333c-0.433-0.432-0.433-1.133,0-1.565      c0.432-0.432,1.133-0.432,1.564,0l1.643,1.642l4.936-4.936c0.424-0.424,1.105-0.431,1.539-0.023      c0.031,0.025,0.062,0.052,0.092,0.082l2.43,2.43c0.094,0.094,0.165,0.2,0.219,0.313v-6.91H77.023v20.274h13.244v-4.282      l3.359,3.36c0.785,0.785,2.059,0.785,2.842,0C97.253,265.691,97.253,264.419,96.468,263.634z M81.351,249.875      c1.211,0,2.191,0.981,2.191,2.192s-0.98,2.192-2.191,2.192s-2.191-0.981-2.191-2.192S80.14,249.875,81.351,249.875z"
             id="path411" /></g></g></g></g><text
     sodipodi:linespacing="125%"
     id="text3778"
     y="369.89597"
     x="29.140259"
     style="font-style:normal;font-variant:normal;font-weight:400;font-size:31.25px;line-height:125%;font-family:'Times New Roman';text-align:start;letter-spacing:0px;word-spacing:0px;text-anchor:start;fill:#000000;fill-opacity:1;stroke:none"
     xml:space="preserve"><tspan
       id="tspan3780"
       y="369.89597"
       x="29.140259"
       sodipodi:role="line"
       style="font-size:31.25px"><tspan
         id="tspan3782"
         style="font-style:normal;font-variant:normal;font-weight:normal;font-stretch:normal;font-size:22.5px;font-family:Roboto;-inkscape-font-specification:Roboto;fill:#000000"
         dy="0"
         dx="0">The 4th floor is accessible via the main elevator or the exit stairs.</tspan></tspan></text>
<text
     sodipodi:linespacing="125%"
     id="text3784"
     y="409.96469"
     x="699.45825"
     style="font-style:normal;font-variant:normal;font-weight:400;font-size:20px;line-height:125%;font-family:'Times New Roman';text-align:start;letter-spacing:0px;word-spacing:0px;text-anchor:start;fill:#000000;fill-opacity:1;stroke:none"
     xml:space="preserve"><tspan
       id="tspan3786"
       y="392.45407"
       x="174.14026"
       sodipodi:role="line"><tspan
         id="tspan3788"
         style="font-style:normal;font-variant:normal;font-weight:normal;font-size:22.5px;font-family:Roboto;fill:#000000;-inkscape-font-specification:Roboto;font-stretch:normal;"
         dy="0"
         dx="0" /></tspan></text>
</svg>