<?xml version="1.0" encoding="utf-8"?>
<!-- Generator: Adobe Illustrator 15.1.0, SVG Export Plug-In . SVG Version: 6.00 Build 0)  -->
<!DOCTYPE svg PUBLIC "-//W3C//DTD SVG 1.1//EN" "http://www.w3.org/Graphics/SVG/1.1/DTD/svg11.dtd">
<svg version="1.1" id="Layer_1" xmlns="http://www.w3.org/2000/svg" xmlns:xlink="http://www.w3.org/1999/xlink" x="0px" y="0px"
	 width="1105.445px" height="766.725px" viewBox="0 0 1105.445 766.725" enable-background="new 0 0 1105.445 766.725"
	 xml:space="preserve">
<g id="_x32_nd_Floor_-_Vector">
	<polygon fill="#003D7D" stroke="#E6E6E6" stroke-miterlimit="10" points="476.93,201.276 476.93,162.142 490.43,162.142 
		576.597,162.142 576.597,128.892 441.43,128.892 441.43,201.276 	"/>
	<rect x="217.889" y="450.725" fill="#003D7D" stroke="#E6E6E6" stroke-miterlimit="10" width="19.083" height="0.334"/>
	<polygon fill="#003D7D" stroke="#E6E6E6" stroke-miterlimit="10" points="648.889,342.059 648.889,397.892 738.889,397.892 
		738.889,327.392 738.889,271.725 648.889,271.725 648.889,307.059 	"/>
	<rect x="533.389" y="162.142" fill="#003D7D" stroke="#E6E6E6" stroke-miterlimit="10" width="43.167" height="12"/>
	<rect x="395.223" y="286.392" fill="#003D7D" stroke="#E6E6E6" stroke-miterlimit="10" width="30.666" height="31.333"/>
	<polygon fill="#003D7D" stroke="#E6E6E6" stroke-miterlimit="10" points="348.639,335.391 348.639,308.725 265.639,308.725 
		265.639,335.391 298.639,335.391 	"/>
	<polygon fill="#003D7D" stroke="#E6E6E6" stroke-miterlimit="10" points="237.223,351.726 237.223,335.726 236.973,335.726 
		236.973,351.391 236.973,351.392 217.639,351.392 217.639,450.725 217.889,450.725 217.889,351.726 	"/>
	<rect x="236.973" y="451.059" fill="#003D7D" stroke="#E6E6E6" stroke-miterlimit="10" width="0.25" height="15.666"/>
	<polygon fill="#003D7D" stroke="#E6E6E6" stroke-miterlimit="10" points="298.639,432.058 298.639,429.892 298.639,429.558 
		298.639,393.558 298.639,335.391 265.639,335.391 236.973,335.391 236.973,335.392 236.973,335.726 237.223,335.726 
		237.223,351.726 217.889,351.726 217.889,450.725 236.973,450.725 236.973,451.059 237.223,451.059 237.223,466.725 
		298.639,466.725 	"/>
	<rect x="298.639" y="335.391" fill="#003D7D" stroke="#E6E6E6" stroke-miterlimit="10" width="50" height="58.167"/>
	<polygon fill="#003D7D" stroke="#E6E6E6" stroke-miterlimit="10" points="237.223,467.059 155.889,467.059 155.889,591.059 
		343.889,591.059 343.889,538.392 343.889,467.059 	"/>
	<polygon fill="none" stroke="#333333" stroke-width="2" stroke-miterlimit="10" points="371.339,509.392 371.339,533.392 
		371.339,556.392 442.889,556.392 442.889,509.392 	"/>
	<rect x="468.264" y="384.06" fill="#003D7D" stroke="#E6E6E6" stroke-miterlimit="10" width="39.625" height="60.332"/>
	<rect x="36.556" y="270.858" fill="#003D7D" stroke="#E6E6E6" stroke-miterlimit="10" width="57.333" height="64.868"/>
	<rect x="36.556" y="211.142" fill="#003D7D" stroke="#E6E6E6" stroke-miterlimit="10" width="57.333" height="32.25"/>
	<rect x="36.556" y="174.392" fill="#003D7D" stroke="#E6E6E6" stroke-miterlimit="10" width="57.333" height="36.75"/>
	<rect x="36.556" y="108.392" fill="#003D7D" stroke="#E6E6E6" stroke-miterlimit="10" width="57.333" height="66"/>
	<polygon fill="#003D7D" stroke="#E6E6E6" stroke-miterlimit="10" points="490.389,128.892 576.556,128.892 576.556,108.392 
		104.389,108.392 104.389,128.892 	"/>
	<polygon fill="#003D7D" stroke="#E6E6E6" stroke-miterlimit="10" points="298.639,466.725 354.389,466.725 354.389,429.892 
		298.639,429.892 298.639,432.058 	"/>
	<polygon fill="#003D7D" stroke="#E6E6E6" stroke-miterlimit="10" points="533.389,215.142 490.389,215.142 490.389,240.642 
		523.389,240.642 524.256,240.642 533.389,240.642 576.556,240.642 576.556,204.142 533.389,204.142 	"/>
	<polygon fill="#003D7D" stroke="#E6E6E6" stroke-miterlimit="10" points="533.389,204.142 533.389,189.142 490.389,189.142 
		490.389,215.142 533.389,215.142 	"/>
	<polygon fill="#003D7D" stroke="#E6E6E6" stroke-miterlimit="10" points="533.389,162.142 490.389,162.142 490.389,189.142 
		533.389,189.142 533.389,204.142 576.556,204.142 576.556,174.142 533.389,174.142 	"/>
	<rect x="524.256" y="337.392" fill="#003D7D" stroke="#E6E6E6" stroke-miterlimit="10" width="56.633" height="25.25"/>
	<polygon fill="#003D7D" stroke="#E6E6E6" stroke-miterlimit="10" points="713.889,434.392 672.389,434.392 672.389,451.059 
		738.889,451.059 738.889,434.392 	"/>
	<polygon fill="#003D7D" stroke="#E6E6E6" stroke-miterlimit="10" points="524.256,307.059 580.889,307.059 580.889,271.725 
		576.556,271.725 524.256,271.725 	"/>
	<polygon fill="#003D7D" stroke="#E6E6E6" stroke-miterlimit="10" points="618.223,307.059 648.889,307.059 648.889,271.725 
		580.889,271.725 580.889,307.059 	"/>
	<rect x="618.223" y="307.059" fill="#003D7D" stroke="#E6E6E6" stroke-miterlimit="10" width="30.666" height="35"/>
	<polygon fill="#003D7D" stroke="#E6E6E6" stroke-miterlimit="10" points="618.223,362.642 618.223,379.726 648.889,379.726 
		648.889,342.059 618.223,342.059 	"/>
	<polygon fill="#003D7D" stroke="#E6E6E6" stroke-miterlimit="10" points="618.223,399.726 618.223,414.226 648.889,414.226 
		648.889,379.726 618.223,379.726 	"/>
	<rect x="618.223" y="414.226" fill="#003D7D" stroke="#E6E6E6" stroke-miterlimit="10" width="30.666" height="36.833"/>
	<polygon fill="#003D7D" stroke="#E6E6E6" stroke-miterlimit="10" points="618.223,399.726 524.256,399.726 524.256,451.059 
		618.223,451.059 618.223,414.226 	"/>
	<polygon fill="#003D7D" stroke="#E6E6E6" stroke-miterlimit="10" points="618.223,379.726 618.223,362.642 580.889,362.642 
		524.256,362.642 524.256,399.726 618.223,399.726 	"/>
	<polygon fill="#003D7D" stroke="#E6E6E6" stroke-miterlimit="10" points="580.889,362.642 618.223,362.642 618.223,342.059 
		618.223,307.059 580.889,307.059 580.889,337.392 	"/>
	<rect x="524.256" y="307.059" fill="#003D7D" stroke="#E6E6E6" stroke-miterlimit="10" width="56.633" height="30.333"/>
	<polygon fill="#003D7D" stroke="#E6E6E6" stroke-miterlimit="10" points="442.889,471.259 442.889,509.392 442.889,532.481 
		442.889,556.392 442.889,567.725 442.889,583.725 645.889,583.725 738.889,583.725 738.889,471.259 	"/>
	<polygon fill="#E6E6E6" points="371.339,509.392 371.339,533.392 371.339,556.392 442.889,556.392 442.889,509.392 	"/>
	<polygon fill="none" stroke="#333333" stroke-width="3" stroke-miterlimit="10" points="738.889,272.058 576.556,272.058 
		576.556,108.725 36.556,108.725 36.556,336.059 237.223,336.059 237.223,352.059 217.889,352.059 217.889,451.392 237.223,451.392 
		237.223,467.392 155.889,467.392 155.889,591.392 442.889,591.725 442.889,583.725 738.889,584.058 	"/>
	<g>
		<rect x="395.106" y="286.308" fill="none" width="30.665" height="31.333"/>
		<rect x="468.147" y="383.976" fill="none" width="39.625" height="60.332"/>
		<polygon fill="none" points="104.272,145.433 104.272,299.308 317.272,299.308 359.772,299.308 359.772,255.358 425.772,255.358 
			425.772,145.433 317.272,145.433 		"/>
		<path fill="#E6E6E6" d="M738.771,434.308v-36.5h-66.5h-23.5v53.168h-30.666h-93.967v-51.334v-37.083v-25.25v-30.333v-35.333
			h52.301v-31.083h-43.168h-9.133h-0.867h-33v-25.5v-26v-27h-13.5v39.135h-35.5v-72.385h-337v-20.5h-10.5v66v36.75v32.25H36.438
			v27.466h57.333v64.868h143.083v-0.334l0,0h28.667v-26.667h83v84.833h-50v35.999v0.334h55.75v36.834l-10.5,0.334v124h98.998
			v-81.668h0.002v-38.133h296v-4.199v-16h-66.5v-16.668L738.771,434.308L738.771,434.308z M425.772,317.641h-30.666v-31.333h30.666
			V317.641L425.772,317.641z M425.772,255.358h-66v43.95h-42.5h-213V145.433h213h108.5V255.358z M507.772,444.308h-39.625v-60.332
			h39.625V444.308z"/>
	</g>
</g>
<g id="Key_-_2nd_Floor">
	<polygon fill="#003D7D" stroke="#E6E6E6" stroke-miterlimit="10" points="317.639,145.641 317.639,145.517 104.639,145.517 
		104.639,299.392 309.931,299.392 317.639,299.392 360.139,299.392 360.139,145.641 	"/>
	<rect x="360.222" y="145.508" fill="#003D7D" stroke="#E6E6E6" stroke-miterlimit="10" width="65.667" height="109.925"/>
	<rect x="861.674" y="85.73" fill="none" width="26.386" height="16.734"/>
	<text transform="matrix(1 0 0 1 876.3848 95.7266)" fill="#333333" font-family="'HelveticaNeue'" font-size="14">1.</text>
	<rect x="861.674" y="122.007" fill="none" width="26.386" height="16.734"/>
	<text transform="matrix(1 0 0 1 876.3848 132.0039)" fill="#333333" font-family="'HelveticaNeue'" font-size="14">3.</text>
	<rect x="861.674" y="140.146" fill="none" width="26.386" height="16.734"/>
	<text transform="matrix(1 0 0 1 876.3848 150.1416)" fill="#333333" font-family="'HelveticaNeue'" font-size="14">4. </text>
	<rect x="861.674" y="158.284" fill="none" width="26.386" height="16.734"/>
	<text transform="matrix(1 0 0 1 876.3848 168.2803)" fill="#333333" font-family="'HelveticaNeue'" font-size="14">5.</text>
	<rect x="861.674" y="176.423" fill="none" width="26.386" height="16.734"/>
	<text transform="matrix(1 0 0 1 876.3848 186.4189)" fill="#333333" font-family="'HelveticaNeue'" font-size="14">6.</text>
	<rect x="861.674" y="194.562" fill="none" width="26.386" height="16.734"/>
	<text transform="matrix(1 0 0 1 876.3848 204.5576)" fill="#333333" font-family="'HelveticaNeue'" font-size="14">7.</text>
	<rect x="861.674" y="212.7" fill="none" width="26.386" height="16.734"/>
	<text transform="matrix(1 0 0 1 876.3848 222.6963)" fill="#333333" font-family="'HelveticaNeue'" font-size="14">8. </text>
	<rect x="861.674" y="103.869" fill="none" width="26.386" height="16.734"/>
	<text transform="matrix(1 0 0 1 876.3848 113.8643)" fill="#333333" font-family="'HelveticaNeue'" font-size="14">2.</text>
	<rect x="861.674" y="230.838" fill="none" width="26.386" height="16.734"/>
	<text transform="matrix(1 0 0 1 876.3848 240.834)" fill="#333333" font-family="'HelveticaNeue'" font-size="14">9.</text>
	<rect x="861.674" y="248.977" fill="none" width="26.386" height="16.734"/>
	<text transform="matrix(1 0 0 1 868.5996 258.9727)" fill="#333333" font-family="'HelveticaNeue'" font-size="14">10.</text>
	<rect x="861.674" y="267.116" fill="none" width="26.386" height="16.734"/>
	<text transform="matrix(1 0 0 1 868.5996 277.1113)" fill="#333333" font-family="'HelveticaNeue'" font-size="14">11.</text>
	<rect x="861.674" y="285.254" fill="none" width="26.523" height="16.734"/>
	<text transform="matrix(1 0 0 1 868.7383 295.25)" fill="#333333" font-family="'HelveticaNeue'" font-size="14">12.</text>
	<rect x="861.674" y="303.393" fill="none" width="26.386" height="16.734"/>
	<text transform="matrix(1 0 0 1 868.5996 313.3896)" fill="#333333" font-family="'HelveticaNeue'" font-size="14">13.</text>
	<rect x="861.674" y="339.67" fill="none" width="26.386" height="16.734"/>
	<text transform="matrix(1 0 0 1 868.5996 349.666)" fill="#333333" font-family="'HelveticaNeue'" font-size="14">15.</text>
	<rect x="861.674" y="321.531" fill="none" width="26.386" height="16.734"/>
	<text transform="matrix(1 0 0 1 868.5996 331.5273)" fill="#333333" font-family="'HelveticaNeue'" font-size="14">14.</text>
	<rect x="861.674" y="357.809" fill="none" width="26.386" height="16.734"/>
	<text transform="matrix(1 0 0 1 868.5996 367.8047)" fill="#333333" font-family="'HelveticaNeue'" font-size="14">16.</text>
	<rect x="896.909" y="85.73" fill="none" width="194.321" height="16.734"/>
	<text transform="matrix(1 0 0 1 896.9082 95.7266)" fill="#333333" font-family="'HelveticaNeue'" font-size="14">Group Study 207</text>
	<rect x="896.909" y="122.007" fill="none" width="194.321" height="16.734"/>
	<text transform="matrix(1 0 0 1 896.9082 132.0039)" fill="#333333" font-family="'HelveticaNeue'" font-size="14">Group Study 209</text>
	<rect x="896.909" y="140.146" fill="none" width="194.321" height="16.734"/>
	<text transform="matrix(1 0 0 1 896.9082 150.1416)" fill="#333333" font-family="'HelveticaNeue'" font-size="14">Group Study 210</text>
	<rect x="896.909" y="158.284" fill="none" width="194.321" height="16.734"/>
	<text transform="matrix(1 0 0 1 896.9082 168.2803)" fill="#333333" font-family="'HelveticaNeue'" font-size="14">Books P-PS</text>
	<rect x="896.909" y="176.423" fill="none" width="194.321" height="16.734"/>
	<text transform="matrix(1 0 0 1 896.9082 186.4189)" fill="#333333" font-family="'HelveticaNeue'" font-size="14">Reference Collection</text>
	<rect x="896.909" y="212.7" fill="none" width="194.321" height="16.734"/>
	<text transform="matrix(1 0 0 1 896.9082 222.6963)" fill="#333333" font-family="'HelveticaNeue'" font-size="14">Library Administration Office</text>
	<rect x="896.909" y="103.869" fill="none" width="194.321" height="16.734"/>
	<text transform="matrix(1 0 0 1 896.9082 113.8643)" fill="#333333" font-family="'HelveticaNeue'" font-size="14">Group Study 208</text>
	<rect x="896.909" y="230.838" fill="none" width="194.321" height="16.734"/>
	<text transform="matrix(1 0 0 1 896.9082 240.834)" fill="#333333" font-family="'HelveticaNeue'" font-size="14">Videos P-Z</text>
	<rect x="896.909" y="248.977" fill="none" width="194.321" height="16.734"/>
	<text transform="matrix(1 0 0 1 896.9082 258.9727)" fill="#333333" font-family="'HelveticaNeue'" font-size="14">Technology Support</text>
	<rect x="896.909" y="267.116" fill="none" width="194.321" height="16.734"/>
	<text transform="matrix(1 0 0 1 896.9082 277.1113)" fill="#333333" font-family="'HelveticaNeue'" font-size="14">Office 215</text>
	<rect x="896.909" y="285.254" fill="none" width="195.335" height="16.734"/>
	<text transform="matrix(1 0 0 1 896.9082 295.25)" fill="#333333" font-family="'HelveticaNeue'" font-size="14">Office 217</text>
	<rect x="896.909" y="303.393" fill="none" width="194.321" height="16.734"/>
	<text transform="matrix(1 0 0 1 896.9082 313.3896)" fill="#333333" font-family="'HelveticaNeue'" font-size="14">Library Conference Room</text>
	<rect x="896.909" y="339.67" fill="none" width="194.321" height="16.734"/>
	<text transform="matrix(1 0 0 1 896.9082 349.666)" fill="#333333" font-family="'HelveticaNeue'" font-size="14">Office 219</text>
	<rect x="896.909" y="321.531" fill="none" width="194.321" height="16.734"/>
	<text transform="matrix(1 0 0 1 896.9082 331.5273)" fill="#333333" font-family="'HelveticaNeue'" font-size="14">Fitzpatrick Reading Room</text>
	<rect x="896.909" y="357.809" fill="none" width="194.321" height="16.734"/>
	<text transform="matrix(1 0 0 1 896.9082 367.8047)" fill="#333333" font-family="'HelveticaNeue'" font-size="14">Circulation Office</text>
	<rect x="861.674" y="375.691" fill="none" width="26.386" height="16.734"/>
	<text transform="matrix(1 0 0 1 868.5996 385.6875)" fill="#333333" font-family="'HelveticaNeue'" font-size="14">17.</text>
	<rect x="896.909" y="375.691" fill="none" width="194.321" height="16.734"/>
	<text transform="matrix(1 0 0 1 896.9082 385.6875)" fill="#333333" font-family="'HelveticaNeue'" font-size="14">Office 222</text>
	<rect x="861.674" y="394.065" fill="none" width="26.386" height="16.733"/>
	<text transform="matrix(1 0 0 1 868.5996 404.0615)" fill="#333333" font-family="'HelveticaNeue'" font-size="14">18.</text>
	<rect x="896.909" y="394.065" fill="none" width="194.321" height="16.733"/>
	<text transform="matrix(1 0 0 1 896.9082 404.0615)" fill="#333333" font-family="'HelveticaNeue'" font-size="14">Allen Reading Room</text>
	<rect x="861.674" y="411.815" fill="none" width="26.386" height="16.733"/>
	<text transform="matrix(1 0 0 1 868.5996 421.8115)" fill="#333333" font-family="'HelveticaNeue'" font-size="14">19.</text>
	<rect x="861.674" y="430.315" fill="none" width="26.386" height="16.733"/>
	<text transform="matrix(1 0 0 1 868.5996 440.3115)" fill="#333333" font-family="'HelveticaNeue'" font-size="14">20.</text>
	<rect x="896.909" y="412.3" fill="none" width="194.321" height="16.734"/>
	<text transform="matrix(1 0 0 1 896.9082 422.2959)" fill="#333333" font-family="'HelveticaNeue'" font-size="14">Circulation Desk</text>
	<rect x="896.909" y="194.774" fill="none" width="194.321" height="16.734"/>
	<text transform="matrix(1 0 0 1 896.9082 204.7705)" fill="#333333" font-family="'HelveticaNeue'" font-size="14">Learning Commons</text>
	<rect x="896.909" y="430.293" fill="none" width="194.321" height="16.757"/>
	<text transform="matrix(1 0 0 1 896.9082 440.2891)" fill="#333333" font-family="'HelveticaNeue'" font-size="14">Books PS-PT</text>
	<rect x="845.555" y="41.334" fill="none" width="249.813" height="26.474"/>
	<text transform="matrix(1 0 0 1 845.5547 62.7549)" fill="#333333" font-family="'HelveticaNeue'" font-size="30">Second Floor</text>
	<rect x="845.555" y="18.334" fill="none" width="249.813" height="15.808"/>
	<text transform="matrix(1 0 0 1 845.5547 32.6133)" fill="#CCCCCC" font-family="'HelveticaNeue'" font-size="20">Penrose Library</text>
	<rect x="845.555" y="85.73" fill="#003D7D" width="14" height="361.32"/>
	<g>
		<g>
			<path fill="#FFFFFF" stroke="#003D7D" stroke-miterlimit="10" d="M323.889,349.1c-8.676,0-15.709,7.033-15.709,15.709
				c0,8.676,7.033,15.709,15.709,15.709c8.677,0,15.709-7.033,15.709-15.709C339.598,356.133,332.565,349.1,323.889,349.1z"/>
		</g>
		<path fill="#003D7D" d="M332.67,368.598c0-0.547-0.443-0.99-0.99-0.99h-4.716v-4.709c0-0.002,0-0.004,0-0.008
			c0-0.547-0.442-0.99-0.99-0.99h-4.715v-4.707c0-0.002,0-0.004,0-0.008c0-0.547-0.442-0.99-0.989-0.99h-5.706
			c-0.548,0-0.99,0.443-0.99,0.99c0,0.549,0.442,0.992,0.99,0.992h4.715v4.707c0,0.002,0,0.004,0,0.006
			c0,0.139,0.027,0.268,0.078,0.387c0.149,0.355,0.503,0.605,0.913,0.605c0.006,0,0.011,0,0.016,0h4.699v4.715l0,0l0,0
			c0,0.547,0.442,0.99,0.989,0.99h4.716v4.717c0,0.547,0.442,0.99,0.989,0.99s0.99-0.443,0.99-0.99v-5.699
			C332.669,368.602,332.67,368.6,332.67,368.598z"/>
	</g>
	<g>
		<g>
			<path fill="#FFFFFF" stroke="#003D7D" stroke-miterlimit="10" d="M53.794,241.716c-8.676,0-15.709,7.033-15.709,15.709
				c0,8.676,7.033,15.709,15.709,15.709c8.676,0,15.709-7.033,15.709-15.709C69.503,248.749,62.47,241.716,53.794,241.716z"/>
		</g>
		<path fill="#003D7D" d="M62.576,261.214c0-0.547-0.443-0.99-0.99-0.99H56.87v-4.709c0-0.002,0-0.004,0-0.008
			c0-0.547-0.443-0.99-0.99-0.99h-4.715v-4.707c0-0.002,0-0.004,0-0.008c0-0.547-0.443-0.99-0.99-0.99h-5.706
			c-0.547,0-0.99,0.443-0.99,0.99c0,0.549,0.443,0.992,0.99,0.992h4.715v4.707c0,0.002,0,0.004,0,0.006
			c0,0.139,0.028,0.268,0.078,0.387c0.15,0.355,0.503,0.605,0.913,0.605c0.006,0,0.011,0,0.016,0h4.699v4.715l0,0l0,0
			c0,0.547,0.443,0.99,0.99,0.99h4.715v4.717c0,0.547,0.443,0.99,0.99,0.99s0.99-0.443,0.99-0.99v-5.699
			C62.575,261.218,62.576,261.216,62.576,261.214z"/>
	</g>
	<g>
		<g>
			<path fill="#FFFFFF" stroke="#003D7D" stroke-miterlimit="10" d="M554.837,240.716c-8.676,0-15.709,7.033-15.709,15.709
				c0,8.676,7.033,15.709,15.709,15.709s15.709-7.033,15.709-15.709C570.546,247.749,563.513,240.716,554.837,240.716z"/>
		</g>
		<path fill="#003D7D" d="M563.619,260.214c0-0.547-0.443-0.99-0.99-0.99h-4.716v-4.709c0-0.002,0-0.004,0-0.008
			c0-0.547-0.443-0.99-0.99-0.99h-4.715v-4.707c0-0.002,0-0.004,0-0.008c0-0.547-0.443-0.99-0.99-0.99h-5.706
			c-0.547,0-0.989,0.443-0.989,0.99c0,0.549,0.442,0.992,0.989,0.992h4.715v4.707c0,0.002,0,0.004,0,0.006
			c0,0.139,0.028,0.268,0.078,0.387c0.15,0.355,0.503,0.605,0.913,0.605c0.006,0,0.012,0,0.017,0h4.698v4.715l0,0l0,0
			c0,0.547,0.443,0.99,0.99,0.99h4.715v4.717c0,0.547,0.443,0.99,0.99,0.99s0.99-0.443,0.99-0.99v-5.699
			C563.618,260.218,563.619,260.216,563.619,260.214z"/>
	</g>
	<g>
		<g>
			<path fill="#FFFFFF" stroke="#003D7D" stroke-miterlimit="10" d="M720.535,400.433c-8.676,0-15.709,7.033-15.709,15.709
				c0,8.677,7.033,15.709,15.709,15.709s15.709-7.032,15.709-15.709C736.244,407.466,729.21,400.433,720.535,400.433z"/>
		</g>
		<path fill="#003D7D" d="M729.316,419.931c0-0.547-0.443-0.989-0.99-0.989h-4.716v-4.709c0-0.002,0-0.005,0-0.009
			c0-0.547-0.443-0.989-0.99-0.989h-4.715v-4.707c0-0.002,0-0.004,0-0.009c0-0.547-0.443-0.989-0.99-0.989h-5.706
			c-0.547,0-0.99,0.442-0.99,0.989c0,0.55,0.443,0.992,0.99,0.992h4.715v4.707c0,0.002,0,0.004,0,0.006
			c0,0.14,0.028,0.269,0.078,0.388c0.15,0.354,0.503,0.604,0.913,0.604c0.006,0,0.011,0,0.016,0h4.699v4.715l0,0l0,0
			c0,0.548,0.443,0.99,0.99,0.99h4.715v4.717c0,0.547,0.443,0.99,0.99,0.99s0.99-0.443,0.99-0.99v-5.698
			C729.315,419.935,729.316,419.933,729.316,419.931z"/>
	</g>
	<g>
		<g>
			<path fill="#FFFFFF" stroke="#003D7D" stroke-miterlimit="10" d="M511.89,186.683c-8.676,0-15.71,7.033-15.71,15.709
				c0,8.676,7.034,15.709,15.71,15.709c8.677,0,15.709-7.033,15.709-15.709C527.599,193.716,520.566,186.683,511.89,186.683z"/>
		</g>
		<g>
			<circle fill="#003D7D" cx="508.98" cy="202.331" r="1.055"/>
			<path fill="#003D7D" d="M507.655,207.062c0,0.236-0.19,0.426-0.427,0.426h-0.068c-0.235,0-0.426-0.189-0.426-0.426v-2.842
				c0-0.035,0.004-0.066,0.012-0.098c0.048-0.252,0.242-0.439,0.476-0.439h3.585c0.271,0,0.488,0.25,0.488,0.559
				c0,0.02-0.001,0.041-0.003,0.059v2.762c0,0.236-0.191,0.426-0.427,0.426h-0.068c-0.234,0-0.427-0.189-0.427-0.426v3.174
				c0,0.334-0.271,0.607-0.606,0.607h-0.099c-0.335,0-0.607-0.273-0.607-0.607v-2.916h-0.087v2.916c0,0.334-0.271,0.607-0.606,0.607
				h-0.099c-0.336,0-0.606-0.273-0.606-0.607L507.655,207.062z"/>
		</g>
		<g>
			<circle fill="#003D7D" cx="514.732" cy="202.331" r="1.055"/>
			<path fill="#003D7D" d="M513.407,207.062c0,0.236-0.19,0.426-0.427,0.426h-0.068c-0.235,0-0.426-0.189-0.426-0.426v-2.842
				c0-0.035,0.004-0.066,0.012-0.098c0.048-0.252,0.242-0.439,0.476-0.439h3.585c0.271,0,0.487,0.25,0.487,0.559
				c0,0.02,0,0.041-0.002,0.059v2.762c0,0.236-0.19,0.426-0.427,0.426h-0.068c-0.234,0-0.427-0.189-0.427-0.426v3.174
				c0,0.334-0.271,0.607-0.607,0.607h-0.098c-0.335,0-0.607-0.273-0.607-0.607v-2.916h-0.087v2.916c0,0.334-0.271,0.607-0.606,0.607
				h-0.099c-0.336,0-0.606-0.273-0.606-0.607L513.407,207.062z"/>
		</g>
		<path fill="#003D7D" d="M518.426,197.337h-13.072c-0.761,0-1.377,0.615-1.377,1.375v13.074c0,0.76,0.616,1.375,1.377,1.375h13.072
			c0.76,0,1.376-0.615,1.376-1.375v-13.074C519.802,197.952,519.186,197.337,518.426,197.337z M518.083,211.442h-12.385v-12.385
			h12.385V211.442z"/>
		<path fill="#003D7D" d="M515.146,196.247c0.009,0.008,0.017,0.012,0.023,0.02c0.024,0.021,0.049,0.043,0.075,0.061
			c0.02,0.014,0.042,0.023,0.062,0.035c0.018,0.008,0.031,0.018,0.05,0.025c0.025,0.012,0.053,0.018,0.078,0.025
			c0.016,0.004,0.028,0.01,0.045,0.012c0.036,0.008,0.073,0.012,0.111,0.012c0.006,0,0.011,0.002,0.018,0.002
			c0.006,0,0.011-0.002,0.017-0.002c0.038,0,0.075-0.004,0.112-0.012c0.016-0.002,0.026-0.008,0.042-0.012
			c0.026-0.008,0.055-0.014,0.08-0.025c0.019-0.008,0.032-0.018,0.051-0.027c0.021-0.01,0.042-0.02,0.062-0.033
			c0.031-0.02,0.06-0.043,0.086-0.068c0.005-0.004,0.011-0.008,0.015-0.012l0,0l0,0l2.379-2.379
			c0.256-0.258,0.256-0.672,0.001-0.928c-0.257-0.256-0.672-0.256-0.928,0l-1.261,1.26v-3.439c0-0.361-0.294-0.656-0.654-0.656
			c-0.361,0.002-0.655,0.295-0.655,0.656v3.439l-1.261-1.26c-0.256-0.256-0.671-0.256-0.929,0c-0.255,0.256-0.255,0.67,0.002,0.928
			L515.146,196.247L515.146,196.247L515.146,196.247z"/>
		<path fill="#003D7D" d="M508.632,190.298c-0.007-0.008-0.017-0.014-0.022-0.021c-0.024-0.021-0.049-0.043-0.075-0.061
			c-0.021-0.014-0.042-0.023-0.063-0.035c-0.017-0.008-0.031-0.018-0.049-0.025c-0.026-0.012-0.053-0.018-0.079-0.023
			c-0.015-0.004-0.028-0.01-0.043-0.014c-0.038-0.008-0.075-0.01-0.113-0.012c-0.006,0-0.012-0.002-0.017-0.002
			s-0.011,0.002-0.017,0.002c-0.037,0.002-0.075,0.004-0.112,0.012c-0.015,0.004-0.027,0.01-0.042,0.014
			c-0.027,0.006-0.055,0.014-0.08,0.023c-0.018,0.008-0.033,0.018-0.051,0.027c-0.021,0.01-0.042,0.02-0.062,0.033
			c-0.029,0.021-0.059,0.045-0.085,0.07c-0.005,0.004-0.009,0.006-0.014,0.012l0,0l0,0l-2.379,2.379
			c-0.257,0.256-0.257,0.67-0.001,0.926c0.257,0.256,0.672,0.256,0.928,0l1.26-1.26v3.441c0,0.361,0.293,0.654,0.655,0.654
			s0.655-0.293,0.655-0.656v-3.439l1.261,1.26c0.256,0.256,0.671,0.258,0.928,0c0.255-0.256,0.255-0.67-0.001-0.926L508.632,190.298
			L508.632,190.298L508.632,190.298z"/>
	</g>
	<g>
		<g>
			<g>
				<path fill="#FFFFFF" stroke="#003D7D" stroke-miterlimit="10" d="M571.24,413.194c-6.08,0-11.01,4.93-11.01,11.01
					s4.93,11.01,11.01,11.01s11.01-4.93,11.01-11.01S577.32,413.194,571.24,413.194z"/>
			</g>
		</g>
		<rect x="560.457" y="419.276" fill="none" width="21.297" height="11.258"/>
		<text transform="matrix(1 0 0 1 563.4805 429.0664)" fill="#003D7D" font-family="'HelveticaNeue'" font-size="13.7123">16</text>
	</g>
	<g>
		<g>
			<g>
				<path fill="#FFFFFF" stroke="#003D7D" stroke-miterlimit="10" d="M633.556,421.204c-6.08,0-11.01,4.93-11.01,11.01
					s4.93,11.01,11.01,11.01s11.011-4.93,11.011-11.01S639.636,421.204,633.556,421.204z"/>
			</g>
		</g>
		<rect x="622.773" y="427.286" fill="none" width="21.297" height="11.258"/>
		<text transform="matrix(1 0 0 1 625.7969 437.0762)" fill="#003D7D" font-family="'HelveticaNeue'" font-size="13.7123">17</text>
	</g>
	<g>
		<g>
			<g>
				<path fill="#FFFFFF" stroke="#003D7D" stroke-miterlimit="10" d="M249.889,519.472c-6.08,0-11.01,4.931-11.01,11.011
					s4.93,11.01,11.01,11.01s11.01-4.93,11.01-11.01S255.969,519.472,249.889,519.472z"/>
			</g>
		</g>
		<rect x="239.106" y="525.554" fill="none" width="21.297" height="11.259"/>
		<text transform="matrix(1 0 0 1 242.1304 535.3438)" fill="#003D7D" font-family="'HelveticaNeue'" font-size="13.7123">18</text>
	</g>
	<g>
		<g>
			<g>
				<path fill="#FFFFFF" stroke="#003D7D" stroke-miterlimit="10" d="M488.077,403.215c-6.08,0-11.01,4.93-11.01,11.01
					s4.93,11.011,11.01,11.011s11.01-4.931,11.01-11.011S494.157,403.215,488.077,403.215z"/>
			</g>
		</g>
		<rect x="477.293" y="409.297" fill="none" width="21.297" height="11.258"/>
		<text transform="matrix(1 0 0 1 480.3179 419.0869)" fill="#003D7D" font-family="'HelveticaNeue'" font-size="13.7123">19</text>
	</g>
	<g>
		<g>
			<g>
				<path fill="#FFFFFF" stroke="#003D7D" stroke-miterlimit="10" d="M590.421,520.173c-6.08,0-11.01,4.93-11.01,11.01
					s4.93,11.011,11.01,11.011s11.01-4.931,11.01-11.011S596.501,520.173,590.421,520.173z"/>
			</g>
		</g>
		<rect x="579.638" y="526.255" fill="none" width="21.297" height="11.258"/>
		<text transform="matrix(1 0 0 1 582.6621 536.0449)" fill="#003D7D" font-family="'HelveticaNeue'" font-size="13.7123">20</text>
	</g>
	<g>
		<g>
			<g>
				<path fill="#FFFFFF" stroke="#003D7D" stroke-miterlimit="10" d="M511.89,134.507c-6.08,0-11.01,4.93-11.01,11.01
					s4.93,11.01,11.01,11.01s11.011-4.93,11.011-11.01S517.97,134.507,511.89,134.507z"/>
			</g>
		</g>
		<rect x="501.107" y="140.589" fill="none" width="21.297" height="11.258"/>
		<text transform="matrix(1 0 0 1 507.9438 150.3789)" fill="#003D7D" font-family="'HelveticaNeue'" font-size="13.7123">7</text>
	</g>
	<g>
		<g>
			<g>
				<path fill="#FFFFFF" stroke="#003D7D" stroke-miterlimit="10" d="M63.472,125.791c-6.08,0-11.01,4.93-11.01,11.01
					c0,6.08,4.93,11.01,11.01,11.01c6.08,0,11.01-4.93,11.01-11.01C74.482,130.721,69.552,125.791,63.472,125.791z"/>
			</g>
		</g>
		<rect x="52.689" y="131.873" fill="none" width="21.297" height="11.258"/>
		<text transform="matrix(1 0 0 1 59.5259 141.6621)" fill="#003D7D" font-family="'HelveticaNeue'" font-size="13.7123">1</text>
	</g>
	<g>
		<g>
			<g>
				<path fill="#FFFFFF" stroke="#003D7D" stroke-miterlimit="10" d="M63.337,181.757c-6.08,0-11.01,4.93-11.01,11.01
					s4.93,11.01,11.01,11.01s11.01-4.93,11.01-11.01S69.417,181.757,63.337,181.757z"/>
			</g>
		</g>
		<rect x="52.554" y="187.839" fill="none" width="21.297" height="11.258"/>
		<text transform="matrix(1 0 0 1 59.3911 197.6289)" fill="#003D7D" font-family="'HelveticaNeue'" font-size="13.7123">2</text>
	</g>
	<g>
		<g>
			<g>
				<path fill="#FFFFFF" stroke="#003D7D" stroke-miterlimit="10" d="M63.203,215.079c-6.08,0-11.01,4.93-11.01,11.01
					s4.93,11.01,11.01,11.01s11.01-4.93,11.01-11.01S69.283,215.079,63.203,215.079z"/>
			</g>
		</g>
		<rect x="52.419" y="221.161" fill="none" width="21.297" height="11.258"/>
		<text transform="matrix(1 0 0 1 59.2563 230.9512)" fill="#003D7D" font-family="'HelveticaNeue'" font-size="13.7123">3</text>
	</g>
	<g>
		<g>
			<g>
				<path fill="#FFFFFF" stroke="#003D7D" stroke-miterlimit="10" d="M65.223,291.75c-6.08,0-11.01,4.93-11.01,11.01
					c0,6.08,4.93,11.01,11.01,11.01s11.01-4.93,11.01-11.01C76.233,296.68,71.303,291.75,65.223,291.75z"/>
			</g>
		</g>
		<rect x="54.439" y="297.832" fill="none" width="21.297" height="11.258"/>
		<text transform="matrix(1 0 0 1 61.2764 307.6221)" fill="#003D7D" font-family="'HelveticaNeue'" font-size="13.7123">4</text>
	</g>
	<g>
		<g>
			<g>
				<path fill="#FFFFFF" stroke="#003D7D" stroke-miterlimit="10" d="M233.389,195.62c-6.08,0-11.01,4.93-11.01,11.01
					s4.93,11.01,11.01,11.01s11.01-4.93,11.01-11.01S239.469,195.62,233.389,195.62z"/>
			</g>
		</g>
		<rect x="222.606" y="201.702" fill="none" width="21.297" height="11.258"/>
		<text transform="matrix(1 0 0 1 229.4429 211.4922)" fill="#003D7D" font-family="'HelveticaNeue'" font-size="13.7123">5</text>
	</g>
	<g>
		<g>
			<g>
				<path fill="#FFFFFF" stroke="#003D7D" stroke-miterlimit="10" d="M393.056,195.62c-6.08,0-11.01,4.93-11.01,11.01
					s4.93,11.01,11.01,11.01s11.011-4.93,11.011-11.01S399.136,195.62,393.056,195.62z"/>
			</g>
		</g>
		<rect x="382.272" y="201.702" fill="none" width="21.297" height="11.258"/>
		<text transform="matrix(1 0 0 1 389.1094 211.4922)" fill="#003D7D" font-family="'HelveticaNeue'" font-size="13.7123">6</text>
	</g>
	<g>
		<g>
			<g>
				<path fill="#FFFFFF" stroke="#003D7D" stroke-miterlimit="10" d="M580.889,278.382c-6.08,0-11.01,4.93-11.01,11.01
					s4.93,11.01,11.01,11.01c6.081,0,11.012-4.93,11.012-11.01S586.97,278.382,580.889,278.382z"/>
			</g>
		</g>
		<rect x="570.106" y="284.464" fill="none" width="21.298" height="11.258"/>
		<text transform="matrix(1 0 0 1 576.9434 294.2539)" fill="#003D7D" font-family="'HelveticaNeue'" font-size="13.7123">8</text>
	</g>
	<g>
		<g>
			<g>
				<path fill="#FFFFFF" stroke="#003D7D" stroke-miterlimit="10" d="M258.264,390.048c-6.08,0-11.01,4.93-11.01,11.01
					s4.93,11.011,11.01,11.011c6.081,0,11.011-4.931,11.011-11.011S264.345,390.048,258.264,390.048z"/>
			</g>
		</g>
		<rect x="247.48" y="396.13" fill="none" width="21.298" height="11.258"/>
		<text transform="matrix(1 0 0 1 254.3179 405.9199)" fill="#003D7D" font-family="'HelveticaNeue'" font-size="13.7123">9</text>
	</g>
	<g>
		<g>
			<g>
				<path fill="#FFFFFF" stroke="#003D7D" stroke-miterlimit="10" d="M410.556,291.048c-6.08,0-11.01,4.93-11.01,11.01
					s4.93,11.01,11.01,11.01c6.081,0,11.012-4.93,11.012-11.01S416.637,291.048,410.556,291.048z"/>
			</g>
		</g>
		<rect x="399.773" y="297.13" fill="none" width="21.298" height="11.258"/>
		<text transform="matrix(1 0 0 1 402.7979 306.9199)" fill="#003D7D" font-family="'HelveticaNeue'" font-size="13.7123">10</text>
	</g>
	<g>
		<g>
			<g>
				<path fill="#FFFFFF" stroke="#003D7D" stroke-miterlimit="10" d="M552.438,338.715c-6.079,0-11.01,4.93-11.01,11.01
					s4.931,11.01,11.01,11.01c6.08,0,11.011-4.93,11.011-11.01S558.518,338.715,552.438,338.715z"/>
			</g>
		</g>
		<rect x="541.655" y="344.797" fill="none" width="21.297" height="11.258"/>
		<text transform="matrix(1 0 0 1 544.6782 354.5869)" fill="#003D7D" font-family="'HelveticaNeue'" font-size="13.7123">12</text>
	</g>
	<g>
		<g>
			<g>
				<path fill="#FFFFFF" stroke="#003D7D" stroke-miterlimit="10" d="M599.556,324.381c-6.08,0-11.01,4.93-11.01,11.01
					s4.93,11.01,11.01,11.01s11.011-4.93,11.011-11.01S605.636,324.381,599.556,324.381z"/>
			</g>
		</g>
		<rect x="588.773" y="330.463" fill="none" width="21.297" height="11.258"/>
		<text transform="matrix(1 0 0 1 591.7969 340.2529)" fill="#003D7D" font-family="'HelveticaNeue'" font-size="13.7123">13</text>
	</g>
	<g>
		<g>
			<g>
				<path fill="#FFFFFF" stroke="#003D7D" stroke-miterlimit="10" d="M693.139,325.083c-6.08,0-11.01,4.93-11.01,11.01
					c0,6.08,4.93,11.01,11.01,11.01s11.011-4.93,11.011-11.01C704.149,330.013,699.219,325.083,693.139,325.083z"/>
			</g>
		</g>
		<rect x="682.356" y="331.165" fill="none" width="21.297" height="11.258"/>
		<text transform="matrix(1 0 0 1 685.3809 340.9551)" fill="#003D7D" font-family="'HelveticaNeue'" font-size="13.7123">14</text>
	</g>
	<g>
		<g>
			<g>
				<path fill="#FFFFFF" stroke="#003D7D" stroke-miterlimit="10" d="M571.24,370.716c-6.08,0-11.01,4.93-11.01,11.01
					c0,6.08,4.93,11.009,11.01,11.009s11.01-4.93,11.01-11.009C582.25,375.646,577.32,370.716,571.24,370.716z"/>
			</g>
		</g>
		<rect x="560.457" y="376.798" fill="none" width="21.297" height="11.258"/>
		<text transform="matrix(1 0 0 1 563.4805 386.5879)" fill="#003D7D" font-family="'HelveticaNeue'" font-size="13.7123">15</text>
	</g>
	<g>
		<g>
			<g>
				<path fill="#FFFFFF" stroke="#003D7D" stroke-miterlimit="10" d="M552.573,311.048c-6.08,0-11.011,4.93-11.011,11.01
					s4.931,11.01,11.011,11.01s11.01-4.93,11.01-11.01S558.653,311.048,552.573,311.048z"/>
			</g>
		</g>
		<rect x="541.79" y="317.13" fill="none" width="21.297" height="11.258"/>
		<text transform="matrix(1 0 0 1 544.814 326.9199)" fill="#003D7D" font-family="'HelveticaNeue'" font-size="13.7123">11</text>
	</g>
	<g>
		<g>
			<path fill="#FFFFFF" stroke="#003D7D" stroke-miterlimit="10" d="M365.731,361.277c-8.562,0-15.5,6.939-15.5,15.5
				s6.938,15.5,15.5,15.5c8.561,0,15.5-6.938,15.5-15.5S374.292,361.277,365.731,361.277z"/>
		</g>
		<g>
			<path fill="#003D7D" d="M373.043,370.166l-7.503-0.011v-1.565l5.034-1.583v-1.227l-12.537,1.677
				c-0.596,0-1.079,0.482-1.079,1.079v4.615h17.165v-1.906C374.124,370.648,373.64,370.166,373.043,370.166z"/>
			<polygon fill="#003D7D" points="377.901,373.271 374.085,374.229 374.085,374.23 368.51,374.23 368.51,375.391 362.512,375.391 
				362.512,374.23 356.958,374.23 356.958,379.925 374.124,379.925 374.124,375.92 377.901,374.172 			"/>
			<path fill="#003D7D" d="M377.865,380.12l-3.741,0.938v-0.027h-5.613v1.161h-5.998v-1.161h-5.554v4.617
				c0,0.596,0.483,1.078,1.079,1.078h15.006c0.597,0,1.08-0.482,1.08-1.078v-2.896l3.741-1.731V380.12L377.865,380.12z"/>
		</g>
	</g>
	<g>
		<g>
			<path fill="#FFFFFF" stroke="#003D7D" stroke-miterlimit="10" d="M365.731,321.892c-8.562,0-15.5,6.939-15.5,15.5
				s6.938,15.5,15.5,15.5c8.561,0,15.5-6.939,15.5-15.5S374.292,321.892,365.731,321.892z"/>
		</g>
		<g>
			<path fill="#003D7D" d="M354.551,343.03c0,0.955,0.774,1.73,1.73,1.73h18.726c0.956,0,1.73-0.775,1.73-1.73v-3.31H354.55
				L354.551,343.03L354.551,343.03z M371.005,341.213h3.548c0.347,0,0.627,0.281,0.627,0.628c0,0.346-0.28,0.627-0.627,0.627h-3.548
				c-0.347,0-0.627-0.281-0.627-0.627C370.378,341.494,370.659,341.213,371.005,341.213z M368.569,341.213
				c0.346,0,0.627,0.281,0.627,0.628c0,0.346-0.281,0.627-0.627,0.627c-0.348,0-0.628-0.281-0.628-0.627
				C367.941,341.494,368.222,341.213,368.569,341.213z"/>
			<path fill="#003D7D" d="M375.874,336.992l-17.155-7.507c-0.876-0.383-1.896,0.017-2.278,0.892l20.325,8.895
				C377.148,338.396,376.749,337.376,375.874,336.992z"/>
		</g>
	</g>
	<g>
		<g>
			<path fill="#FFFFFF" stroke="#003D7D" stroke-miterlimit="10" d="M217.889,101.757c-8.56,0-15.5,6.939-15.5,15.5
				s6.94,15.5,15.5,15.5c8.561,0,15.5-6.939,15.5-15.5S226.45,101.757,217.889,101.757z"/>
		</g>
		<path fill="#003D7D" d="M225.313,107.083h-14.7c-0.634,0-1.147,0.514-1.147,1.147v9.237c0,0.634,0.514,1.147,1.147,1.147h5.512
			v1.505h-2.584v1.124h8.845v-1.124h-2.583v-1.505h5.511c0.634,0,1.148-0.514,1.148-1.147v-9.237
			C226.461,107.596,225.947,107.083,225.313,107.083z M225.311,116.867c0,0.317-0.257,0.574-0.573,0.574h-13.549
			c-0.316,0-0.574-0.257-0.574-0.574v-8.037c0-0.316,0.258-0.573,0.574-0.573h13.549c0.316,0,0.573,0.257,0.573,0.573V116.867z"/>
		<path fill="#003D7D" d="M227.697,125.501c0.336,0.277-0.293,0.489-0.655,0.489h-18.29c-0.362,0-1.028-0.098-0.655-0.489
			l2.618-2.686c0.303-0.327,0.608-0.489,1.176-0.489h11.78c0.895,0,1.047,0.162,1.408,0.489L227.697,125.501z"/>
	</g>
	<g>
		<g>
			<path fill="#FFFFFF" stroke="#003D7D" stroke-miterlimit="10" d="M468.264,286.558c-8.56,0-15.5,6.939-15.5,15.5
				s6.94,15.5,15.5,15.5c8.562,0,15.5-6.939,15.5-15.5S476.825,286.558,468.264,286.558z"/>
		</g>
		<path fill="#003D7D" d="M475.688,291.883h-14.699c-0.635,0-1.147,0.514-1.147,1.147v9.237c0,0.634,0.515,1.147,1.147,1.147h5.512
			v1.505h-2.584v1.124h8.845v-1.124h-2.583v-1.505h5.511c0.635,0,1.148-0.514,1.148-1.147v-9.237
			C476.836,292.397,476.322,291.883,475.688,291.883z M475.686,301.667c0,0.317-0.257,0.574-0.572,0.574h-13.549
			c-0.316,0-0.574-0.257-0.574-0.574v-8.037c0-0.316,0.258-0.573,0.574-0.573h13.549c0.315,0,0.572,0.257,0.572,0.573V301.667z"/>
		<path fill="#003D7D" d="M478.072,310.302c0.336,0.277-0.293,0.489-0.655,0.489h-18.29c-0.362,0-1.028-0.098-0.655-0.489
			l2.618-2.686c0.303-0.327,0.608-0.489,1.176-0.489h11.78c0.896,0,1.047,0.162,1.408,0.489L478.072,310.302z"/>
	</g>
	<rect x="870.015" y="473.202" fill="none" width="190.668" height="16.733"/>
	<text transform="matrix(1 0 0 1 870.0156 483.1982)" fill="#333333" font-family="'HelveticaNeue'" font-size="14">Limited Access Areas</text>
	<rect x="1007.37" y="593.186" fill="none" width="84.001" height="16.734"/>
	<text transform="matrix(1 0 0 1 1007.3691 603.1816)" fill="#333333" font-family="'HelveticaNeue'" font-size="14">Stairs</text>
	<rect x="878.782" y="594.641" fill="none" width="84.001" height="16.734"/>
	<text transform="matrix(1 0 0 1 878.7812 604.6367)" fill="#333333" font-family="'HelveticaNeue'" font-size="14">Elevator</text>
	<rect x="1007.161" y="629.553" fill="none" width="84.001" height="16.734"/>
	<text transform="matrix(1 0 0 1 1007.1602 639.5479)" fill="#333333" font-family="'HelveticaNeue'" font-size="14">Printer</text>
	<rect x="845.695" y="472.202" fill="#333333" width="14" height="14.211"/>
	<g>
		<g>
			<path fill="#FFFFFF" stroke="#003D7D" stroke-miterlimit="10" d="M985.002,585.387c-8.676,0-15.709,7.033-15.709,15.709
				s7.033,15.709,15.709,15.709s15.709-7.033,15.709-15.709S993.678,585.387,985.002,585.387z"/>
		</g>
		<path fill="#003D7D" d="M993.784,604.885c0-0.547-0.443-0.99-0.99-0.99h-4.716v-4.709c0-0.002,0-0.004,0-0.008
			c0-0.547-0.443-0.989-0.99-0.989h-4.715v-4.707c0-0.002,0-0.005,0-0.009c0-0.547-0.443-0.989-0.99-0.989h-5.706
			c-0.547,0-0.989,0.442-0.989,0.989c0,0.55,0.442,0.992,0.989,0.992h4.715v4.707c0,0.002,0,0.004,0,0.006
			c0,0.14,0.028,0.269,0.078,0.388c0.15,0.354,0.503,0.604,0.913,0.604c0.006,0,0.012,0,0.017,0h4.698v4.715l0,0l0,0
			c0,0.547,0.443,0.99,0.99,0.99h4.715v4.717c0,0.547,0.443,0.99,0.99,0.99s0.99-0.443,0.99-0.99v-5.699
			C993.783,604.889,993.784,604.887,993.784,604.885z"/>
	</g>
	<g>
		<g>
			<path fill="#FFFFFF" stroke="#003D7D" stroke-miterlimit="10" d="M856.416,585.774c-8.676,0-15.71,7.032-15.71,15.709
				c0,8.676,7.034,15.709,15.71,15.709s15.709-7.033,15.709-15.709C872.125,592.807,865.091,585.774,856.416,585.774z"/>
		</g>
		<g>
			<circle fill="#003D7D" cx="853.506" cy="601.423" r="1.055"/>
			<path fill="#003D7D" d="M852.18,606.153c0,0.235-0.189,0.426-0.426,0.426h-0.069c-0.234,0-0.426-0.189-0.426-0.426v-2.843
				c0-0.034,0.004-0.065,0.013-0.098c0.048-0.252,0.241-0.438,0.476-0.438h3.585c0.27,0,0.488,0.25,0.488,0.559
				c0,0.021-0.001,0.041-0.003,0.059v2.763c0,0.235-0.191,0.426-0.428,0.426h-0.067c-0.235,0-0.428-0.189-0.428-0.426v3.174
				c0,0.334-0.271,0.607-0.605,0.607h-0.099c-0.335,0-0.607-0.273-0.607-0.607v-2.916h-0.087v2.916c0,0.334-0.272,0.607-0.607,0.607
				h-0.098c-0.336,0-0.607-0.273-0.607-0.607L852.18,606.153z"/>
		</g>
		<g>
			<circle fill="#003D7D" cx="859.258" cy="601.423" r="1.055"/>
			<path fill="#003D7D" d="M857.932,606.153c0,0.235-0.189,0.426-0.426,0.426h-0.068c-0.235,0-0.427-0.189-0.427-0.426v-2.843
				c0-0.034,0.004-0.065,0.013-0.098c0.048-0.252,0.241-0.438,0.476-0.438h3.585c0.271,0,0.487,0.25,0.487,0.559
				c0,0.021,0,0.041-0.002,0.059v2.763c0,0.235-0.191,0.426-0.428,0.426h-0.067c-0.235,0-0.427-0.189-0.427-0.426v3.174
				c0,0.334-0.271,0.607-0.607,0.607h-0.098c-0.335,0-0.607-0.273-0.607-0.607v-2.916h-0.087v2.916c0,0.334-0.271,0.607-0.607,0.607
				h-0.098c-0.336,0-0.607-0.273-0.607-0.607L857.932,606.153z"/>
		</g>
		<path fill="#003D7D" d="M862.952,596.429h-13.073c-0.76,0-1.376,0.615-1.376,1.375v13.074c0,0.76,0.616,1.375,1.376,1.375h13.073
			c0.76,0,1.376-0.615,1.376-1.375v-13.074C864.328,597.044,863.711,596.429,862.952,596.429z M862.608,610.534h-12.386v-12.385
			h12.386V610.534z"/>
		<path fill="#003D7D" d="M859.672,595.339c0.008,0.008,0.016,0.012,0.023,0.021c0.023,0.021,0.049,0.043,0.074,0.061
			c0.021,0.014,0.043,0.023,0.063,0.035c0.017,0.008,0.031,0.018,0.049,0.025c0.026,0.012,0.053,0.018,0.079,0.024
			c0.015,0.004,0.028,0.01,0.044,0.012c0.037,0.009,0.074,0.013,0.112,0.013c0.006,0,0.011,0.002,0.017,0.002
			s0.011-0.002,0.018-0.002c0.038,0,0.075-0.004,0.111-0.013c0.017-0.002,0.027-0.008,0.042-0.012
			c0.027-0.008,0.056-0.014,0.08-0.024c0.02-0.009,0.033-0.019,0.052-0.027c0.021-0.01,0.042-0.021,0.062-0.033
			c0.031-0.02,0.059-0.043,0.086-0.068c0.004-0.004,0.01-0.008,0.014-0.012l0,0l0,0l2.38-2.379c0.256-0.258,0.256-0.672,0.001-0.928
			c-0.258-0.256-0.673-0.256-0.929,0l-1.26,1.26v-3.439c0-0.36-0.294-0.655-0.655-0.655c-0.36,0.002-0.654,0.295-0.654,0.655v3.439
			l-1.262-1.26c-0.256-0.256-0.671-0.256-0.928,0c-0.255,0.256-0.255,0.67,0.002,0.928L859.672,595.339L859.672,595.339
			L859.672,595.339z"/>
		<path fill="#003D7D" d="M853.158,589.39c-0.007-0.008-0.018-0.014-0.023-0.021c-0.023-0.021-0.048-0.043-0.075-0.062
			c-0.02-0.014-0.042-0.022-0.062-0.034c-0.017-0.009-0.032-0.019-0.049-0.025c-0.026-0.012-0.054-0.018-0.079-0.023
			c-0.016-0.004-0.028-0.01-0.043-0.014c-0.038-0.008-0.075-0.01-0.113-0.012c-0.006,0-0.012-0.002-0.017-0.002
			s-0.012,0.002-0.018,0.002c-0.037,0.002-0.075,0.004-0.111,0.012c-0.016,0.004-0.027,0.01-0.042,0.014
			c-0.027,0.007-0.056,0.015-0.08,0.023c-0.019,0.008-0.033,0.018-0.052,0.027c-0.021,0.01-0.042,0.02-0.062,0.032
			c-0.03,0.021-0.06,0.046-0.085,0.07c-0.005,0.004-0.009,0.006-0.015,0.012l0,0l0,0l-2.379,2.38
			c-0.257,0.256-0.257,0.67-0.001,0.926c0.258,0.256,0.673,0.256,0.929,0l1.26-1.26v3.44c0,0.361,0.293,0.654,0.655,0.654
			c0.361,0,0.654-0.293,0.654-0.656v-3.438l1.262,1.26c0.256,0.256,0.671,0.258,0.928,0c0.255-0.256,0.255-0.67-0.001-0.926
			L853.158,589.39L853.158,589.39L853.158,589.39z"/>
	</g>
	<g>
		<g>
			<path fill="#FFFFFF" stroke="#003D7D" stroke-miterlimit="10" d="M984.793,621.009c-8.561,0-15.5,6.939-15.5,15.5
				c0,8.562,6.939,15.5,15.5,15.5s15.5-6.938,15.5-15.5C1000.293,627.948,993.354,621.009,984.793,621.009z"/>
		</g>
		<rect x="977.502" y="625.991" fill="#FFFFFF" stroke="#003D7D" stroke-miterlimit="10" width="14.498" height="10.342"/>
		<path fill="#003D7D" d="M996.273,640.062c0,0.636-0.515,1.148-1.147,1.148H974c-0.635,0-1.148-0.514-1.148-1.148v-7.459
			c0-0.635,0.515-1.147,1.148-1.147h21.126c0.634,0,1.147,0.514,1.147,1.147V640.062L996.273,640.062z"/>
		<rect x="974.803" y="633.116" fill="#FFFFFF" width="2.984" height="1.319"/>
		<rect x="977.502" y="636.509" fill="#FFFFFF" stroke="#003D7D" stroke-miterlimit="10" width="14.498" height="10.344"/>
		<rect x="979.53" y="638.294" fill="#003D7D" width="10.18" height="2.285"/>
		<rect x="979.53" y="642.255" fill="#003D7D" width="5.229" height="2.285"/>
	</g>
	<rect x="878.782" y="630.747" fill="none" width="84.001" height="16.734"/>
	<text transform="matrix(1 0 0 1 878.7812 640.7432)" fill="#333333" font-family="'HelveticaNeue'" font-size="14">Copier</text>
	<rect x="1007.37" y="665.92" fill="none" width="84.001" height="16.734"/>
	<text transform="matrix(1 0 0 1 1007.3691 675.916)" fill="#333333" font-family="'HelveticaNeue'" font-size="14">Scanner</text>
	<g>
		<g>
			<path fill="#FFFFFF" stroke="#003D7D" stroke-miterlimit="10" d="M856.415,621.64c-8.562,0-15.5,6.939-15.5,15.5
				c0,8.562,6.938,15.5,15.5,15.5c8.561,0,15.5-6.938,15.5-15.5C871.915,628.579,864.975,621.64,856.415,621.64z"/>
		</g>
		<g>
			<path fill="#003D7D" d="M863.727,630.528l-7.503-0.012v-1.564l5.034-1.583v-1.228l-12.537,1.678
				c-0.596,0-1.079,0.481-1.079,1.079v4.614h17.165v-1.905C864.807,631.011,864.324,630.528,863.727,630.528z"/>
			<polygon fill="#003D7D" points="868.584,633.633 864.769,634.591 864.769,634.593 859.194,634.593 859.194,635.753 
				853.196,635.753 853.196,634.593 847.642,634.593 847.642,640.287 864.807,640.287 864.807,636.282 868.584,634.534 			"/>
			<path fill="#003D7D" d="M868.548,640.482l-3.741,0.938v-0.027h-5.612v1.161h-5.998v-1.161h-5.555v4.616
				c0,0.597,0.483,1.079,1.079,1.079h15.006c0.598,0,1.08-0.482,1.08-1.079v-2.895l3.741-1.731V640.482z"/>
		</g>
	</g>
	<rect x="878.782" y="666.854" fill="none" width="84.001" height="16.734"/>
	<text transform="matrix(1 0 0 1 878.7812 676.8496)" fill="#333333" font-family="'HelveticaNeue'" font-size="14">Computers</text>
	<g>
		<g>
			<path fill="#FFFFFF" stroke="#003D7D" stroke-miterlimit="10" d="M984.793,656.422c-8.561,0-15.5,6.939-15.5,15.5
				c0,8.562,6.939,15.5,15.5,15.5s15.5-6.938,15.5-15.5C1000.293,663.361,993.354,656.422,984.793,656.422z"/>
		</g>
		<g>
			<path fill="#003D7D" d="M973.614,677.561c0,0.955,0.773,1.73,1.729,1.73h18.727c0.956,0,1.729-0.775,1.729-1.73v-3.31h-22.187
				L973.614,677.561L973.614,677.561z M990.068,675.743h3.548c0.346,0,0.627,0.281,0.627,0.628c0,0.346-0.281,0.627-0.627,0.627
				h-3.548c-0.348,0-0.627-0.281-0.627-0.627C989.441,676.024,989.721,675.743,990.068,675.743z M987.631,675.743
				c0.346,0,0.627,0.281,0.627,0.628c0,0.346-0.281,0.627-0.627,0.627c-0.347,0-0.628-0.281-0.628-0.627
				C987.003,676.024,987.285,675.743,987.631,675.743z"/>
			<path fill="#003D7D" d="M994.936,671.521l-17.154-7.507c-0.876-0.383-1.896,0.018-2.279,0.893l20.326,8.895
				C996.21,672.926,995.811,671.906,994.936,671.521z"/>
		</g>
	</g>
	<g>
		<g>
			<path fill="#FFFFFF" stroke="#003D7D" stroke-miterlimit="10" d="M856.415,657.295c-8.56,0-15.5,6.939-15.5,15.5
				s6.94,15.5,15.5,15.5c8.561,0,15.5-6.939,15.5-15.5S864.975,657.295,856.415,657.295z"/>
		</g>
		<path fill="#003D7D" d="M863.838,662.62h-14.7c-0.634,0-1.146,0.514-1.146,1.146v9.237c0,0.634,0.514,1.147,1.146,1.147h5.513
			v1.505h-2.584v1.124h8.845v-1.124h-2.583v-1.505h5.511c0.634,0,1.148-0.515,1.148-1.147v-9.237
			C864.987,663.134,864.472,662.62,863.838,662.62z M863.836,672.404c0,0.316-0.257,0.573-0.573,0.573h-13.549
			c-0.315,0-0.574-0.257-0.574-0.573v-8.037c0-0.316,0.259-0.573,0.574-0.573h13.549c0.316,0,0.573,0.257,0.573,0.573V672.404z"/>
		<path fill="#003D7D" d="M866.222,681.039c0.336,0.277-0.293,0.489-0.654,0.489h-18.29c-0.362,0-1.028-0.099-0.655-0.489
			l2.618-2.686c0.303-0.327,0.607-0.489,1.176-0.489h11.78c0.895,0,1.047,0.162,1.407,0.489L866.222,681.039z"/>
	</g>
	<rect x="878.782" y="559.462" fill="none" width="143.001" height="16.734"/>
	<text transform="matrix(1 0 0 1 878.7812 569.458)" fill="#333333" font-family="'HelveticaNeue'" font-size="14">Emergency Exit</text>
	<g>
		<g>
			<g>
				<g>
					<path fill="#FFFFFF" stroke="#003D7D" stroke-miterlimit="10" d="M892.136,514.674c-8.561,0-15.5,6.939-15.5,15.5
						c0,8.562,6.939,15.5,15.5,15.5s15.5-6.938,15.5-15.5C907.636,521.613,900.696,514.674,892.136,514.674z"/>
				</g>
			</g>
		</g>
		<g>
			<circle fill="#003D7D" cx="892.021" cy="521.527" r="2.474"/>
			<path fill="#003D7D" d="M896.36,524.675c-0.135,0-0.262,0.025-0.38,0.068c-0.088-0.043-0.186-0.068-0.289-0.068h-1.007
				c-0.028-0.004-0.06-0.01-0.092-0.01h-4.989c-0.032,0-0.062,0.006-0.094,0.01h-1.005c-0.104,0-0.202,0.025-0.291,0.068
				c-0.117-0.043-0.245-0.068-0.379-0.068c-0.604,0-1.097,0.491-1.097,1.099v6.731c0,0.606,0.49,1.099,1.097,1.099
				c0.311,0,0.589-0.13,0.789-0.334l-1.828,4.131h2.404v2.756c0,0.702,0.567,1.271,1.27,1.271s1.271-0.567,1.271-1.271V537.4h0.714
				v2.756c0,0.702,0.568,1.271,1.271,1.271s1.271-0.567,1.271-1.271V537.4h2.365l-1.789-4.131c0.2,0.204,0.479,0.334,0.788,0.334
				c0.605,0,1.097-0.491,1.097-1.099v-6.731C897.457,525.166,896.966,524.675,896.36,524.675z"/>
		</g>
	</g>
	<g>
		<g>
			<g>
				<g>
					<path fill="#FFFFFF" stroke="#003D7D" stroke-miterlimit="10" d="M856.074,514.673c-8.561,0-15.5,6.939-15.5,15.5
						c0,8.562,6.939,15.5,15.5,15.5s15.5-6.938,15.5-15.5C871.574,521.612,864.634,514.673,856.074,514.673z"/>
				</g>
			</g>
		</g>
		<g>
			<circle fill="#003D7D" cx="855.997" cy="521.455" r="2.474"/>
			<path fill="#003D7D" d="M860.336,524.604c-0.134,0-0.261,0.024-0.38,0.067c-0.088-0.042-0.187-0.067-0.289-0.067h-1.006
				c-0.029-0.005-0.062-0.011-0.092-0.011h-4.991c-0.032,0-0.062,0.006-0.092,0.011h-1.005c-0.105,0-0.203,0.025-0.291,0.067
				c-0.118-0.043-0.245-0.067-0.38-0.067c-0.604,0-1.097,0.491-1.097,1.098v6.732c0,0.606,0.491,1.098,1.097,1.098
				c0.606,0,1.099-0.49,1.099-1.098V531.7c0,0.219,0.106,0.412,0.271,0.534c-0.001,0.019-0.003,0.037-0.003,0.056v7.794
				c0,0.701,0.568,1.271,1.271,1.271s1.271-0.569,1.271-1.271v-5.903h0.714v5.903c0,0.701,0.568,1.271,1.271,1.271
				c0.701,0,1.27-0.569,1.27-1.271v-7.794c0-0.019-0.002-0.037-0.003-0.056c0.164-0.122,0.271-0.315,0.271-0.534v0.732
				c0,0.606,0.491,1.098,1.098,1.098c0.607,0,1.097-0.49,1.097-1.098V525.7C861.433,525.095,860.943,524.604,860.336,524.604z"/>
		</g>
	</g>
	<g>
		<g>
			<g>
				<g>
					<path fill="#FFFFFF" stroke="#003D7D" stroke-miterlimit="10" d="M554.071,207.079c-8.562,0-15.5,6.939-15.5,15.5
						s6.938,15.5,15.5,15.5c8.56,0,15.5-6.939,15.5-15.5S562.63,207.079,554.071,207.079z"/>
				</g>
			</g>
		</g>
		<g>
			<circle fill="#003D7D" cx="553.956" cy="213.932" r="2.474"/>
			<path fill="#003D7D" d="M558.294,217.08c-0.134,0-0.261,0.025-0.379,0.068c-0.088-0.043-0.187-0.068-0.29-0.068h-1.006
				c-0.029-0.004-0.061-0.01-0.092-0.01h-4.99c-0.032,0-0.062,0.006-0.093,0.01h-1.005c-0.104,0-0.202,0.025-0.291,0.068
				c-0.117-0.043-0.245-0.068-0.38-0.068c-0.604,0-1.097,0.491-1.097,1.098v6.732c0,0.606,0.491,1.098,1.097,1.098
				c0.312,0,0.59-0.129,0.789-0.334l-1.827,4.131h2.403v2.756c0,0.702,0.568,1.271,1.271,1.271s1.271-0.568,1.271-1.271v-2.756
				h0.714v2.756c0,0.702,0.569,1.271,1.271,1.271s1.271-0.568,1.271-1.271v-2.756h2.365l-1.789-4.131
				c0.2,0.205,0.479,0.334,0.788,0.334c0.606,0,1.097-0.491,1.097-1.098v-6.732C559.391,217.571,558.901,217.08,558.294,217.08z"/>
		</g>
	</g>
	<g>
		<g>
			<g>
				<g>
					<path fill="#FFFFFF" stroke="#003D7D" stroke-miterlimit="10" d="M554.04,173.966c-8.56,0-15.5,6.939-15.5,15.5
						c0,8.561,6.94,15.5,15.5,15.5c8.561,0,15.5-6.939,15.5-15.5C569.54,180.905,562.6,173.966,554.04,173.966z"/>
				</g>
			</g>
		</g>
		<g>
			<circle fill="#003D7D" cx="553.962" cy="180.748" r="2.474"/>
			<path fill="#003D7D" d="M558.302,183.896c-0.134,0-0.261,0.025-0.38,0.068c-0.088-0.042-0.186-0.068-0.289-0.068h-1.006
				c-0.029-0.004-0.061-0.01-0.092-0.01h-4.991c-0.032,0-0.062,0.006-0.092,0.01h-1.005c-0.105,0-0.203,0.026-0.291,0.068
				c-0.118-0.043-0.245-0.068-0.379-0.068c-0.605,0-1.098,0.492-1.098,1.098v6.733c0,0.606,0.491,1.097,1.098,1.097
				c0.605,0,1.098-0.49,1.098-1.097v-0.733c0,0.219,0.107,0.412,0.271,0.534c-0.002,0.019-0.004,0.037-0.004,0.056v7.794
				c0,0.701,0.568,1.271,1.271,1.271s1.271-0.569,1.271-1.271v-5.903h0.715v5.903c0,0.701,0.567,1.271,1.271,1.271
				c0.701,0,1.271-0.569,1.271-1.271v-7.794c0-0.019-0.002-0.037-0.004-0.056c0.164-0.122,0.271-0.315,0.271-0.534v0.733
				c0,0.606,0.491,1.097,1.098,1.097c0.607,0,1.098-0.49,1.098-1.097v-6.733C559.399,184.388,558.909,183.896,558.302,183.896z"/>
		</g>
	</g>
	<rect x="949.724" y="523.051" fill="none" width="140.359" height="16.734"/>
	<text transform="matrix(1 0 0 1 949.7246 533.0469)" fill="#333333" font-family="'HelveticaNeue'" font-size="14">Restrooms</text>
	<g>
		<g>
			<path fill="#FFFFFF" stroke="#003D7D" stroke-miterlimit="10" d="M927.7,514.674c-8.562,0-15.501,6.939-15.501,15.5
				c0,8.562,6.939,15.5,15.501,15.5c8.561,0,15.5-6.938,15.5-15.5C943.2,521.613,936.26,514.674,927.7,514.674z"/>
		</g>
		<g>
			<rect x="926.762" y="518.802" fill="#003D7D" width="1.924" height="22.618"/>
		</g>
		<g>
			<circle fill="#003D7D" cx="934.115" cy="522.333" r="2.143"/>
			<path fill="#003D7D" d="M937.875,525.061c-0.115,0-0.226,0.021-0.328,0.06c-0.076-0.037-0.161-0.06-0.252-0.06h-0.87
				c-0.025-0.004-0.053-0.008-0.08-0.008h-4.323c-0.027,0-0.054,0.004-0.079,0.008h-0.871c-0.09,0-0.175,0.021-0.251,0.06
				c-0.104-0.037-0.213-0.06-0.328-0.06c-0.525,0-0.951,0.427-0.951,0.95v5.833c0,0.525,0.426,0.951,0.951,0.951
				c0.523,0,0.95-0.426,0.95-0.951v-0.635c0,0.189,0.093,0.357,0.233,0.463c-0.001,0.016-0.003,0.031-0.003,0.049v6.751
				c0,0.607,0.493,1.102,1.102,1.102c0.607,0,1.1-0.493,1.1-1.102v-6.684h0.619v6.684c0,0.607,0.493,1.102,1.101,1.102
				c0.608,0,1.101-0.493,1.101-1.102v-6.751c0-0.018-0.001-0.033-0.002-0.049c0.142-0.104,0.233-0.272,0.233-0.463v0.635
				c0,0.525,0.427,0.951,0.95,0.951c0.525,0,0.951-0.426,0.951-0.951v-5.833C938.826,525.486,938.4,525.061,937.875,525.061z"/>
		</g>
		<g>
			<circle fill="#003D7D" cx="921.026" cy="522.341" r="2.143"/>
			<path fill="#003D7D" d="M924.786,525.068c-0.115,0-0.227,0.021-0.328,0.059c-0.076-0.037-0.161-0.059-0.251-0.059h-0.871
				c-0.025-0.004-0.053-0.01-0.08-0.01h-4.324c-0.026,0-0.053,0.006-0.078,0.01h-0.871c-0.092,0-0.176,0.021-0.251,0.059
				c-0.104-0.037-0.213-0.059-0.328-0.059c-0.525,0-0.951,0.426-0.951,0.949v5.833c0,0.525,0.426,0.951,0.951,0.951
				c0.268,0,0.51-0.11,0.682-0.29l-0.717,3.579h1.217v2.388c0,0.607,0.493,1.101,1.102,1.101c0.607,0,1.1-0.492,1.1-1.101v-2.388
				h0.619v2.388c0,0.607,0.493,1.101,1.101,1.101c0.608,0,1.101-0.492,1.101-1.101v-2.388h1.183l-0.683-3.579
				c0.173,0.18,0.415,0.29,0.683,0.29c0.525,0,0.95-0.426,0.95-0.951v-5.833C925.736,525.494,925.311,525.068,924.786,525.068z"/>
		</g>
	</g>
	<g>
		<g>
			<path fill="#FFFFFF" stroke="#003D7D" stroke-miterlimit="10" d="M411.557,256.225c-8.561,0-15.5,6.939-15.5,15.5
				s6.939,15.5,15.5,15.5c8.562,0,15.5-6.939,15.5-15.5S420.118,256.225,411.557,256.225z"/>
		</g>
		<rect x="404.266" y="261.208" fill="#FFFFFF" stroke="#003D7D" stroke-miterlimit="10" width="14.498" height="10.342"/>
		<path fill="#003D7D" d="M423.037,275.28c0,0.635-0.514,1.147-1.147,1.147h-21.126c-0.635,0-1.147-0.514-1.147-1.147v-7.459
			c0-0.635,0.514-1.148,1.147-1.148h21.126c0.635,0,1.147,0.514,1.147,1.148V275.28z"/>
		<rect x="401.567" y="268.333" fill="#FFFFFF" width="2.983" height="1.32"/>
		<rect x="404.266" y="271.725" fill="#FFFFFF" stroke="#003D7D" stroke-miterlimit="10" width="14.498" height="10.344"/>
		<rect x="406.293" y="273.51" fill="#003D7D" width="10.18" height="2.285"/>
		<rect x="406.293" y="277.471" fill="#003D7D" width="5.23" height="2.285"/>
	</g>
	<g>
		<path fill="#FFFFFF" stroke="#003D7D" stroke-miterlimit="10" d="M438.389,574.491c0,2.762-2.237,5-5,5h-54.266
			c-2.761,0-5-2.238-5-5v-12.021c0-2.762,2.239-5,5-5h54.266c2.763,0,5,2.238,5,5V574.491z"/>
		<rect x="376.465" y="565.059" fill="none" width="59.297" height="7.666"/>
		<text transform="matrix(1 0 0 1 380.4009 571.9932)" fill="#003D7D" font-family="'HelveticaNeue'" font-size="9.7123">ENTRANCE</text>
	</g>
	<g>
		<g>
			<g>
				<g>
					<path fill="#FFFFFF" stroke="#003D7D" stroke-miterlimit="10" d="M856.1,550.328c-8.56,0-15.5,6.938-15.5,15.5
						c0,8.561,6.94,15.5,15.5,15.5c8.562,0,15.5-6.939,15.5-15.5C871.6,557.267,864.661,550.328,856.1,550.328z"/>
				</g>
			</g>
		</g>
		<g>
			<g>
				<circle fill="none" cx="851.448" cy="560.47" r="2.192"/>
				<path fill="#003D7D" d="M866.566,572.037l-6.202-6.202v-2.459c-0.054,0.112-0.125,0.22-0.22,0.312
					c-0.432,0.434-1.133,0.434-1.563,0l-1.71-1.71l-0.788,0.789l9.904,9.904c0.434,0.433,0.434,1.133,0,1.565
					c-0.433,0.433-1.134,0.433-1.564,0l-6.262-6.262l-1.688,1.688l2.548,2.548c0.433,0.432,0.433,1.133,0,1.564
					c-0.433,0.433-1.133,0.433-1.565,0l-3.295-3.295c-0.226-0.226-0.331-0.521-0.322-0.816c-0.009-0.295,0.098-0.593,0.322-0.818
					l1.688-1.688l-2.078-2.078l-1.745,1.744c-0.025,0.034-0.055,0.065-0.086,0.098c-0.218,0.218-0.503,0.326-0.788,0.324
					c-0.284,0.001-0.569-0.107-0.789-0.324c-0.029-0.031-0.059-0.062-0.085-0.097l-2.333-2.333c-0.432-0.434-0.432-1.133,0-1.565
					c0.433-0.432,1.134-0.433,1.564,0l1.643,1.643l4.937-4.937c0.424-0.424,1.104-0.432,1.539-0.022
					c0.032,0.024,0.062,0.053,0.092,0.082l2.43,2.43c0.095,0.094,0.166,0.199,0.22,0.312v-6.908H847.12v20.273h13.244v-4.283
					l3.359,3.361c0.785,0.784,2.059,0.784,2.843,0C867.35,574.094,867.35,572.822,866.566,572.037z M851.448,558.278
					c1.211,0,2.191,0.98,2.191,2.191c0,1.21-0.98,2.191-2.191,2.191c-1.21,0-2.191-0.981-2.191-2.191
					C849.256,559.26,850.238,558.278,851.448,558.278z"/>
			</g>
		</g>
	</g>
	<g>
		<g>
			<g>
				<g>
					<path fill="#FFFFFF" stroke="#003D7D" stroke-miterlimit="10" d="M86.003,241.925c-8.561,0-15.5,6.939-15.5,15.5
						c0,8.561,6.939,15.5,15.5,15.5s15.5-6.939,15.5-15.5C101.503,248.864,94.564,241.925,86.003,241.925z"/>
				</g>
			</g>
		</g>
		<g>
			<g>
				<circle fill="none" cx="81.351" cy="252.067" r="2.192"/>
				<path fill="#003D7D" d="M96.468,263.634l-6.201-6.202v-2.459c-0.054,0.113-0.125,0.219-0.219,0.312
					c-0.432,0.432-1.133,0.432-1.565,0l-1.71-1.71l-0.787,0.789l9.904,9.905c0.433,0.432,0.433,1.133,0,1.565
					c-0.432,0.432-1.133,0.432-1.564,0l-6.262-6.261l-1.689,1.689l2.548,2.548c0.433,0.432,0.433,1.133,0,1.565
					s-1.133,0.432-1.565,0l-3.295-3.295c-0.225-0.225-0.332-0.522-0.322-0.817c-0.01-0.295,0.098-0.593,0.322-0.818l1.688-1.688
					l-2.078-2.079l-1.746,1.745c-0.026,0.034-0.055,0.066-0.086,0.097c-0.217,0.218-0.503,0.326-0.788,0.324
					c-0.285,0.001-0.57-0.105-0.788-0.324c-0.031-0.031-0.059-0.063-0.086-0.097l-2.332-2.333c-0.433-0.432-0.433-1.133,0-1.565
					c0.432-0.432,1.133-0.432,1.564,0l1.643,1.642l4.936-4.936c0.424-0.424,1.105-0.431,1.539-0.023
					c0.031,0.025,0.062,0.052,0.092,0.082l2.43,2.43c0.094,0.094,0.165,0.2,0.219,0.313v-6.91H77.023v20.274h13.244v-4.282
					l3.359,3.36c0.785,0.785,2.059,0.785,2.842,0C97.253,265.691,97.253,264.419,96.468,263.634z M81.351,249.875
					c1.211,0,2.191,0.981,2.191,2.192s-0.98,2.192-2.191,2.192s-2.191-0.981-2.191-2.192S80.14,249.875,81.351,249.875z"/>
			</g>
		</g>
	</g>
	<g>
		<g>
			<g>
				<g>
					<path fill="#FFFFFF" stroke="#003D7D" stroke-miterlimit="10" d="M688.326,401.586c-8.561,0-15.5,6.939-15.5,15.5
						c0,8.562,6.939,15.5,15.5,15.5s15.5-6.938,15.5-15.5C703.826,408.525,696.886,401.586,688.326,401.586z"/>
				</g>
			</g>
		</g>
		<g>
			<g>
				<circle fill="none" cx="683.673" cy="411.728" r="2.192"/>
				<path fill="#003D7D" d="M698.792,423.295l-6.202-6.202v-2.459c-0.053,0.112-0.125,0.22-0.219,0.312
					c-0.432,0.433-1.133,0.433-1.564,0l-1.71-1.71l-0.788,0.789l9.904,9.903c0.434,0.434,0.434,1.134,0,1.565
					c-0.432,0.433-1.133,0.433-1.564,0l-6.262-6.261l-1.688,1.688l2.548,2.548c0.432,0.433,0.432,1.133,0,1.564
					c-0.434,0.433-1.133,0.433-1.566,0l-3.295-3.295c-0.225-0.226-0.331-0.521-0.322-0.816c-0.009-0.295,0.099-0.593,0.322-0.818
					l1.688-1.688l-2.078-2.078l-1.745,1.744c-0.026,0.034-0.055,0.066-0.086,0.098c-0.218,0.219-0.503,0.326-0.788,0.324
					c-0.285,0.001-0.57-0.106-0.789-0.324c-0.03-0.03-0.059-0.062-0.085-0.097l-2.333-2.333c-0.432-0.433-0.432-1.133,0-1.565
					c0.432-0.432,1.133-0.433,1.563,0l1.644,1.643l4.936-4.937c0.424-0.424,1.105-0.432,1.539-0.022
					c0.032,0.024,0.062,0.053,0.092,0.082l2.431,2.43c0.094,0.094,0.166,0.199,0.219,0.312v-6.909h-13.244v20.273h13.244v-4.282
					l3.36,3.36c0.784,0.784,2.058,0.784,2.842,0C699.576,425.352,699.576,424.08,698.792,423.295z M683.673,409.536
					c1.211,0,2.192,0.98,2.192,2.191c0,1.21-0.981,2.191-2.192,2.191c-1.21,0-2.19-0.98-2.19-2.191
					C681.482,410.518,682.463,409.536,683.673,409.536z"/>
			</g>
		</g>
	</g>
	<path fill="#003D7D" stroke="#E6E6E6" stroke-miterlimit="10" d="M317.389,67.809"/>
	<g>
		<g>
			<path fill="#FFFFFF" stroke="#003D7D" stroke-miterlimit="10" d="M431.889,101.757c-8.56,0-15.5,6.939-15.5,15.5
				s6.94,15.5,15.5,15.5c8.562,0,15.5-6.939,15.5-15.5S440.45,101.757,431.889,101.757z"/>
		</g>
		<path fill="#003D7D" d="M439.312,107.083h-14.699c-0.635,0-1.147,0.514-1.147,1.147v9.237c0,0.634,0.515,1.147,1.147,1.147h5.512
			v1.505h-2.584v1.124h8.845v-1.124h-2.583v-1.505h5.511c0.635,0,1.148-0.514,1.148-1.147v-9.237
			C440.461,107.596,439.947,107.083,439.312,107.083z M439.311,116.867c0,0.317-0.257,0.574-0.572,0.574h-13.549
			c-0.316,0-0.574-0.257-0.574-0.574v-8.037c0-0.316,0.258-0.573,0.574-0.573h13.549c0.315,0,0.572,0.257,0.572,0.573V116.867z"/>
		<path fill="#003D7D" d="M441.697,125.501c0.336,0.277-0.293,0.489-0.655,0.489h-18.29c-0.362,0-1.028-0.098-0.655-0.489
			l2.618-2.686c0.303-0.327,0.608-0.489,1.176-0.489h11.78c0.896,0,1.047,0.162,1.408,0.489L441.697,125.501z"/>
	</g>
</g>
</svg>
