<?xml version="1.0" encoding="utf-8"?>
<!-- Generator: Adobe Illustrator 15.1.0, SVG Export Plug-In . SVG Version: 6.00 Build 0)  -->
<!DOCTYPE svg PUBLIC "-//W3C//DTD SVG 1.1//EN" "http://www.w3.org/Graphics/SVG/1.1/DTD/svg11.dtd">
<svg version="1.1" id="Layer_1" xmlns="http://www.w3.org/2000/svg" xmlns:xlink="http://www.w3.org/1999/xlink" x="0px" y="0px"
	 width="1105.445px" height="766.725px" viewBox="0 0 1105.445 766.725" enable-background="new 0 0 1105.445 766.725"
	 xml:space="preserve">
<g id="_x33_rd_Floor_-Vector">
	<polygon fill="#003D7D" stroke="#E6E6E6" stroke-miterlimit="10" points="217.963,451.056 217.963,352.057 237.297,352.057 
		237.297,336.057 237.223,336.057 237.223,351.726 217.889,351.726 217.889,451.059 237.047,451.059 237.047,451.056 	"/>
	<polygon fill="#003D7D" stroke="#E6E6E6" stroke-miterlimit="10" points="348.713,335.722 348.713,309.056 265.713,309.056 
		265.713,335.722 298.713,335.722 	"/>
	<rect x="237.047" y="335.726" fill="#003D7D" stroke="#E6E6E6" stroke-miterlimit="10" width="0.175" height="0.331"/>
	<rect x="237.047" y="451.059" fill="#003D7D" stroke="#E6E6E6" stroke-miterlimit="10" width="0.175" height="0.331"/>
	<polygon fill="#003D7D" stroke="#E6E6E6" stroke-miterlimit="10" points="237.297,467.056 298.713,467.056 298.713,432.389 
		298.713,430.223 298.713,429.892 298.713,429.889 298.713,393.89 298.713,335.722 265.713,335.722 237.047,335.722 
		237.047,335.723 237.047,335.726 237.223,335.726 237.223,336.057 237.297,336.057 237.297,352.057 217.963,352.057 
		217.963,451.056 237.047,451.056 237.047,451.059 237.223,451.059 237.223,451.39 237.297,451.39 	"/>
	<rect x="298.713" y="335.722" fill="#003D7D" stroke="#E6E6E6" stroke-miterlimit="10" width="50" height="58.167"/>
	<polygon fill="#333333" stroke="#E6E6E6" stroke-miterlimit="10" points="237.223,467.059 155.889,467.059 155.889,591.059 
		304.555,591.059 304.555,467.059 	"/>
	<polygon fill="#003D7D" stroke="#E6E6E6" stroke-miterlimit="10" points="304.555,467.059 304.555,591.059 343.889,591.059 
		343.889,538.392 343.889,467.059 	"/>
	<polygon fill="#003D7D" stroke="#E6E6E6" stroke-miterlimit="10" points="298.713,432.389 298.713,467.056 354.389,467.056 
		354.389,429.892 298.713,429.892 298.713,430.223 	"/>
	<polygon fill="#003D7D" stroke="#E6E6E6" stroke-miterlimit="10" points="576.421,271.854 524.122,271.854 524.122,271.725 
		482.912,271.725 482.912,293.725 482.912,314.725 482.912,341.721 580.889,341.721 580.889,297.13 580.889,271.725 
		576.556,271.725 576.421,271.725 	"/>
	<polygon fill="#003D7D" stroke="#E6E6E6" stroke-miterlimit="10" points="608.167,342.241 648.889,342.241 648.889,341.721 
		648.889,272.134 608.167,272.134 608.167,297.13 	"/>
	<rect x="648.889" y="272.134" fill="#333333" stroke="#E6E6E6" stroke-miterlimit="10" width="90" height="69.587"/>
	<rect x="378.185" y="381.031" fill="#333333" stroke="#E6E6E6" stroke-miterlimit="10" width="63.607" height="64.37"/>
	<rect x="441.792" y="271.725" fill="#003D7D" stroke="#E6E6E6" stroke-miterlimit="10" width="41.119" height="22"/>
	<rect x="441.792" y="293.725" fill="#003D7D" stroke="#E6E6E6" stroke-miterlimit="10" width="41.119" height="21"/>
	<rect x="441.792" y="314.725" fill="#003D7D" stroke="#E6E6E6" stroke-miterlimit="10" width="41.119" height="26.996"/>
	<polygon fill="#003D7D" stroke="#E6E6E6" stroke-miterlimit="10" points="608.167,297.13 608.167,272.134 608.167,271.725 
		580.889,271.725 580.889,297.13 	"/>
	<polygon fill="#003D7D" stroke="#E6E6E6" stroke-miterlimit="10" points="576.421,240.771 576.421,204.271 533.254,204.271 
		533.254,215.271 490.254,215.271 490.254,240.771 523.254,240.771 524.122,240.771 533.254,240.771 	"/>
	<polygon fill="#003D7D" stroke="#E6E6E6" stroke-miterlimit="10" points="533.254,204.271 533.254,189.271 490.254,189.271 
		490.254,215.271 533.254,215.271 	"/>
	<polygon fill="#003D7D" stroke="#E6E6E6" stroke-miterlimit="10" points="533.254,204.271 576.421,204.271 576.421,174.271 
		533.254,174.271 533.254,162.271 490.254,162.271 490.254,189.271 533.254,189.271 	"/>
	<rect x="36.556" y="108.392" fill="#003D7D" stroke="#E6E6E6" stroke-miterlimit="10" width="57.333" height="66"/>
	<rect x="36.556" y="174.392" fill="#003D7D" stroke="#E6E6E6" stroke-miterlimit="10" width="57.333" height="36.75"/>
	<rect x="36.556" y="211.142" fill="#003D7D" stroke="#E6E6E6" stroke-miterlimit="10" width="57.333" height="32.25"/>
	<rect x="36.556" y="270.858" fill="#003D7D" stroke="#E6E6E6" stroke-miterlimit="10" width="57.333" height="64.868"/>
	<rect x="104.389" y="108.392" fill="#003D7D" stroke="#E6E6E6" stroke-miterlimit="10" width="472.167" height="20.5"/>
	<polygon fill="#003D7D" stroke="#E6E6E6" stroke-miterlimit="10" points="416.389,248.573 472.577,248.573 472.577,146.517 
		104.389,146.517 104.389,247.812 104.389,248.573 104.389,295.722 416.389,295.722 	"/>
	<rect x="468.264" y="401.022" fill="#003D7D" stroke="#E6E6E6" stroke-miterlimit="10" width="194.959" height="134.467"/>
	<rect x="468.264" y="401.022" fill="none" width="194.959" height="134.467"/>
	<rect x="378.185" y="381.031" fill="none" width="63.607" height="64.37"/>
	<polygon fill="none" points="416.389,248.573 472.577,248.573 472.577,146.517 104.389,146.517 104.389,247.812 104.389,248.573 
		104.389,295.722 416.389,295.722 	"/>
	<polygon fill="#E6E6E6" points="576.421,204.271 576.421,240.771 576.421,271.725 576.556,271.725 576.556,174.271 
		576.421,174.271 	"/>
	<polygon fill="#003D7D" stroke="#E6E6E6" stroke-miterlimit="10" points="533.254,174.271 576.421,174.271 576.556,174.271 
		576.556,162.392 533.254,162.392 	"/>
	<line fill="none" stroke="#E6E6E6" stroke-miterlimit="10" x1="155.889" y1="467.059" x2="304.555" y2="591.059"/>
	<line fill="none" stroke="#E6E6E6" stroke-miterlimit="10" x1="304.555" y1="467.059" x2="155.889" y2="591.059"/>
	<line fill="none" stroke="#E6E6E6" stroke-miterlimit="10" x1="378.185" y1="381.031" x2="441.792" y2="445.401"/>
	<line fill="none" stroke="#E6E6E6" stroke-miterlimit="10" x1="441.792" y1="381.031" x2="378.185" y2="445.401"/>
	<g>
		<path fill="#E6E6E6" d="M648.889,342.241h-40.723v-45.11h-27.277v44.591h-97.978h-41.119v-26.996v-21v-22h41.119h41.21h52.3
			v-30.955h-43.167h-9.133h-0.867h-33v-25.5v-26v-27h43v0.121h43.302v-33.5H104.389v-20.5h-10.5v66v36.75v32.25H36.556v27.466
			h57.333v64.868h143.158v-0.003l0,0h28.666v-26.667h83v26.667v58.167h-50v36v0.003h55.676v37.164h-55.676h-61.416V451.39h-0.075
			v15.669h67.333h39.333v116.666h395V341.721h-90V342.241L648.889,342.241z M104.389,295.722v-47.149v-0.761V146.517h368.188
			v102.056h-56.188v47.149H104.389z M441.792,445.401h-63.607v-64.37h63.607V445.401z M663.223,535.489H468.264V401.022h194.959
			V535.489z"/>
		<polygon fill="#E6E6E6" points="608.167,271.725 608.167,272.134 648.889,272.134 738.889,272.134 738.889,271.725 		"/>
	</g>
	<polygon fill="none" stroke="#333333" stroke-width="3" stroke-miterlimit="10" points="580.862,271.725 576.529,271.725 
		576.529,174.271 576.529,128.892 576.529,108.392 36.528,108.392 36.528,335.726 237.02,335.726 237.02,336.057 237.196,336.057 
		237.196,351.726 217.862,351.726 217.862,451.059 237.02,451.059 237.02,451.39 237.196,451.39 237.196,467.059 155.862,467.059 
		155.862,591.059 304.528,591.059 343.862,591.059 343.862,583.725 738.862,583.725 738.862,272.134 738.862,271.725 	"/>
</g>
<g id="Key_-_3rd_Floor">
	<rect x="861.674" y="85.73" fill="none" width="26.386" height="16.734"/>
	<text transform="matrix(1 0 0 1 876.3848 95.7266)" fill="#333333" font-family="'HelveticaNeue'" font-size="14">1.</text>
	<rect x="861.674" y="122.007" fill="none" width="26.386" height="16.734"/>
	<text transform="matrix(1 0 0 1 876.3848 132.0039)" fill="#333333" font-family="'HelveticaNeue'" font-size="14">3.</text>
	<rect x="861.674" y="140.146" fill="none" width="26.386" height="16.734"/>
	<text transform="matrix(1 0 0 1 876.3848 150.1416)" fill="#333333" font-family="'HelveticaNeue'" font-size="14">4. </text>
	<rect x="861.674" y="158.284" fill="none" width="26.386" height="16.734"/>
	<text transform="matrix(1 0 0 1 876.3848 168.2803)" fill="#333333" font-family="'HelveticaNeue'" font-size="14">5.</text>
	<rect x="861.674" y="176.423" fill="none" width="26.386" height="16.734"/>
	<text transform="matrix(1 0 0 1 876.3848 186.4189)" fill="#333333" font-family="'HelveticaNeue'" font-size="14">6.</text>
	<rect x="861.674" y="194.562" fill="none" width="26.386" height="16.734"/>
	<text transform="matrix(1 0 0 1 876.3848 204.5576)" fill="#333333" font-family="'HelveticaNeue'" font-size="14">7.</text>
	<rect x="861.674" y="212.7" fill="none" width="26.386" height="16.734"/>
	<text transform="matrix(1 0 0 1 876.3848 222.6963)" fill="#333333" font-family="'HelveticaNeue'" font-size="14">8. </text>
	<rect x="861.674" y="103.869" fill="none" width="26.386" height="16.734"/>
	<text transform="matrix(1 0 0 1 876.3848 113.8643)" fill="#333333" font-family="'HelveticaNeue'" font-size="14">2.</text>
	<rect x="861.674" y="230.838" fill="none" width="26.386" height="16.734"/>
	<text transform="matrix(1 0 0 1 876.3848 240.834)" fill="#333333" font-family="'HelveticaNeue'" font-size="14">9.</text>
	<rect x="861.674" y="248.977" fill="none" width="26.386" height="16.734"/>
	<text transform="matrix(1 0 0 1 868.5996 258.9727)" fill="#333333" font-family="'HelveticaNeue'" font-size="14">10.</text>
	<rect x="861.674" y="267.116" fill="none" width="26.386" height="16.734"/>
	<text transform="matrix(1 0 0 1 868.5996 277.1113)" fill="#333333" font-family="'HelveticaNeue'" font-size="14">11.</text>
	<rect x="861.674" y="285.254" fill="none" width="26.523" height="16.734"/>
	<text transform="matrix(1 0 0 1 868.7383 295.25)" fill="#333333" font-family="'HelveticaNeue'" font-size="14">12.</text>
	<rect x="861.674" y="303.76" fill="none" width="26.386" height="16.734"/>
	<text transform="matrix(1 0 0 1 868.5996 313.7559)" fill="#333333" font-family="'HelveticaNeue'" font-size="14">13.</text>
	<rect x="896.909" y="85.73" fill="none" width="198.96" height="16.734"/>
	<text transform="matrix(1 0 0 1 896.9082 95.7266)" fill="#333333" font-family="'HelveticaNeue'" font-size="14">Group Study 307</text>
	<rect x="896.909" y="122.007" fill="none" width="198.96" height="16.734"/>
	<text transform="matrix(1 0 0 1 896.9082 132.0039)" fill="#333333" font-family="'HelveticaNeue'" font-size="14">Group Study 309</text>
	<rect x="896.909" y="140.146" fill="none" width="198.96" height="16.734"/>
	<text transform="matrix(1 0 0 1 896.9082 150.1416)" fill="#333333" font-family="'HelveticaNeue'" font-size="14">Group Study 310</text>
	<rect x="896.909" y="158.284" fill="none" width="198.96" height="16.734"/>
	<text transform="matrix(1 0 0 1 896.9082 168.2803)" fill="#333333" font-family="'HelveticaNeue'" font-size="14">Books BR-HN</text>
	<rect x="896.909" y="176.423" fill="none" width="198.96" height="16.734"/>
	<text transform="matrix(1 0 0 1 896.9082 186.4189)" fill="#333333" font-family="'HelveticaNeue'" font-size="14">Individual Study 314</text>
	<rect x="896.909" y="194.562" fill="none" width="198.96" height="16.734"/>
	<text transform="matrix(1 0 0 1 896.9082 204.5576)" fill="#333333" font-family="'HelveticaNeue'" font-size="14">Individual Study 315</text>
	<rect x="896.909" y="212.7" fill="none" width="198.96" height="16.734"/>
	<text transform="matrix(1 0 0 1 896.9082 222.6963)" fill="#333333" font-family="'HelveticaNeue'" font-size="14">Individual Study 316</text>
	<rect x="896.909" y="103.869" fill="none" width="198.96" height="16.734"/>
	<text transform="matrix(1 0 0 1 896.9082 113.8643)" fill="#333333" font-family="'HelveticaNeue'" font-size="14">Group Study 308</text>
	<rect x="896.909" y="230.838" fill="none" width="198.96" height="16.734"/>
	<text transform="matrix(1 0 0 1 896.9082 240.834)" fill="#333333" font-family="'HelveticaNeue'" font-size="14">Center for Teaching &amp; Learning</text>
	<rect x="896.909" y="248.977" fill="none" width="198.96" height="16.734"/>
	<text transform="matrix(1 0 0 1 896.9082 258.9727)" fill="#333333" font-family="'HelveticaNeue'" font-size="14">Staff Lounge</text>
	<rect x="896.909" y="267.116" fill="none" width="198.96" height="16.734"/>
	<text transform="matrix(1 0 0 1 896.9082 277.1113)" fill="#333333" font-family="'HelveticaNeue'" font-size="14">Video B-NX</text>
	<rect x="896.909" y="285.254" fill="none" width="198.96" height="16.734"/>
	<text transform="matrix(1 0 0 1 896.9082 295.25)" fill="#333333" font-family="'HelveticaNeue'" font-size="14">Books HN-NX</text>
	<rect x="896.909" y="303.76" fill="none" width="198.96" height="16.734"/>
	<text transform="matrix(1 0 0 1 896.9082 313.7559)" fill="#333333" font-family="'HelveticaNeue'" font-size="14">Reading Balcony</text>
	<rect x="861.674" y="321.919" fill="none" width="26.386" height="16.734"/>
	<text transform="matrix(1 0 0 1 868.5996 331.915)" fill="#333333" font-family="'HelveticaNeue'" font-size="14">14.</text>
	<rect x="896.909" y="321.919" fill="none" width="198.96" height="16.734"/>
	<text transform="matrix(1 0 0 1 896.9082 331.915)" fill="#333333" font-family="'HelveticaNeue'" font-size="14">Office 317</text>
	<rect x="845.555" y="41.334" fill="none" width="249.813" height="26.474"/>
	<text transform="matrix(1 0 0 1 845.5547 62.7549)" fill="#333333" font-family="'HelveticaNeue'" font-size="30">Third Floor</text>
	<rect x="845.555" y="18.334" fill="none" width="249.813" height="15.808"/>
	<text transform="matrix(1 0 0 1 845.5547 32.6133)" fill="#CCCCCC" font-family="'HelveticaNeue'" font-size="20">Penrose Library</text>
	<rect x="845.555" y="85.73" fill="#003D7D" width="14" height="252.923"/>
	<g>
		<g>
			<path fill="#FFFFFF" stroke="#003D7D" stroke-miterlimit="10" d="M323.889,349.1c-8.676,0-15.709,7.033-15.709,15.709
				c0,8.676,7.033,15.709,15.709,15.709c8.677,0,15.709-7.033,15.709-15.709C339.598,356.133,332.565,349.1,323.889,349.1z"/>
		</g>
		<path fill="#003D7D" d="M332.67,368.598c0-0.547-0.443-0.99-0.99-0.99h-4.716v-4.709c0-0.002,0-0.004,0-0.008
			c0-0.547-0.442-0.99-0.99-0.99h-4.715v-4.707c0-0.002,0-0.004,0-0.008c0-0.547-0.442-0.99-0.989-0.99h-5.706
			c-0.548,0-0.99,0.443-0.99,0.99c0,0.549,0.442,0.992,0.99,0.992h4.715v4.707c0,0.002,0,0.004,0,0.006
			c0,0.139,0.027,0.268,0.078,0.387c0.149,0.355,0.503,0.605,0.913,0.605c0.006,0,0.011,0,0.016,0h4.699v4.715l0,0l0,0
			c0,0.547,0.442,0.99,0.989,0.99h4.716v4.717c0,0.547,0.442,0.99,0.989,0.99s0.99-0.443,0.99-0.99v-5.699
			C332.669,368.602,332.67,368.6,332.67,368.598z"/>
	</g>
	<g>
		<g>
			<path fill="#FFFFFF" stroke="#003D7D" stroke-miterlimit="10" d="M554.837,240.716c-8.676,0-15.709,7.033-15.709,15.709
				c0,8.676,7.033,15.709,15.709,15.709s15.709-7.033,15.709-15.709C570.546,247.749,563.513,240.716,554.837,240.716z"/>
		</g>
		<path fill="#003D7D" d="M563.619,260.214c0-0.547-0.443-0.99-0.99-0.99h-4.716v-4.709c0-0.002,0-0.004,0-0.008
			c0-0.547-0.443-0.99-0.99-0.99h-4.715v-4.707c0-0.002,0-0.004,0-0.008c0-0.547-0.443-0.99-0.99-0.99h-5.706
			c-0.547,0-0.989,0.443-0.989,0.99c0,0.549,0.442,0.992,0.989,0.992h4.715v4.707c0,0.002,0,0.004,0,0.006
			c0,0.139,0.028,0.268,0.078,0.387c0.15,0.355,0.503,0.605,0.913,0.605c0.006,0,0.012,0,0.017,0h4.698v4.715l0,0l0,0
			c0,0.547,0.443,0.99,0.99,0.99h4.715v4.717c0,0.547,0.443,0.99,0.99,0.99s0.99-0.443,0.99-0.99v-5.699
			C563.618,260.218,563.619,260.216,563.619,260.214z"/>
	</g>
	<g>
		<g>
			<path fill="#FFFFFF" stroke="#003D7D" stroke-miterlimit="10" d="M720.535,400.44c-8.676,0-15.709,7.032-15.709,15.709
				c0,8.676,7.033,15.709,15.709,15.709s15.709-7.033,15.709-15.709C736.244,407.473,729.21,400.44,720.535,400.44z"/>
		</g>
		<path fill="#003D7D" d="M729.316,419.938c0-0.547-0.443-0.989-0.99-0.989h-4.716v-4.709c0-0.002,0-0.004,0-0.008
			c0-0.548-0.443-0.99-0.99-0.99h-4.715v-4.707c0-0.002,0-0.004,0-0.008c0-0.548-0.443-0.99-0.99-0.99h-5.706
			c-0.547,0-0.99,0.442-0.99,0.99c0,0.549,0.443,0.991,0.99,0.991h4.715v4.707c0,0.002,0,0.004,0,0.007
			c0,0.139,0.028,0.268,0.078,0.387c0.15,0.354,0.503,0.604,0.913,0.604c0.006,0,0.011,0,0.016,0h4.699v4.716l0,0l0,0
			c0,0.547,0.443,0.989,0.99,0.989h4.715v4.717c0,0.548,0.443,0.99,0.99,0.99s0.99-0.442,0.99-0.99v-5.698
			C729.315,419.942,729.316,419.94,729.316,419.938z"/>
	</g>
	<g>
		<g>
			<path fill="#FFFFFF" stroke="#003D7D" stroke-miterlimit="10" d="M511.89,186.683c-8.676,0-15.71,7.033-15.71,15.709
				c0,8.676,7.034,15.709,15.71,15.709c8.677,0,15.709-7.033,15.709-15.709C527.599,193.716,520.566,186.683,511.89,186.683z"/>
		</g>
		<g>
			<circle fill="#003D7D" cx="508.98" cy="202.331" r="1.055"/>
			<path fill="#003D7D" d="M507.655,207.062c0,0.236-0.19,0.426-0.427,0.426h-0.068c-0.235,0-0.426-0.189-0.426-0.426v-2.842
				c0-0.035,0.004-0.066,0.012-0.098c0.048-0.252,0.242-0.439,0.476-0.439h3.585c0.271,0,0.488,0.25,0.488,0.559
				c0,0.02-0.001,0.041-0.003,0.059v2.762c0,0.236-0.191,0.426-0.427,0.426h-0.068c-0.234,0-0.427-0.189-0.427-0.426v3.174
				c0,0.334-0.271,0.607-0.606,0.607h-0.099c-0.335,0-0.607-0.273-0.607-0.607v-2.916h-0.087v2.916c0,0.334-0.271,0.607-0.606,0.607
				h-0.099c-0.336,0-0.606-0.273-0.606-0.607L507.655,207.062z"/>
		</g>
		<g>
			<circle fill="#003D7D" cx="514.732" cy="202.331" r="1.055"/>
			<path fill="#003D7D" d="M513.407,207.062c0,0.236-0.19,0.426-0.427,0.426h-0.068c-0.235,0-0.426-0.189-0.426-0.426v-2.842
				c0-0.035,0.004-0.066,0.012-0.098c0.048-0.252,0.242-0.439,0.476-0.439h3.585c0.271,0,0.487,0.25,0.487,0.559
				c0,0.02,0,0.041-0.002,0.059v2.762c0,0.236-0.19,0.426-0.427,0.426h-0.068c-0.234,0-0.427-0.189-0.427-0.426v3.174
				c0,0.334-0.271,0.607-0.607,0.607h-0.098c-0.335,0-0.607-0.273-0.607-0.607v-2.916h-0.087v2.916c0,0.334-0.271,0.607-0.606,0.607
				h-0.099c-0.336,0-0.606-0.273-0.606-0.607L513.407,207.062z"/>
		</g>
		<path fill="#003D7D" d="M518.426,197.337h-13.072c-0.761,0-1.377,0.615-1.377,1.375v13.074c0,0.76,0.616,1.375,1.377,1.375h13.072
			c0.76,0,1.376-0.615,1.376-1.375v-13.074C519.802,197.952,519.186,197.337,518.426,197.337z M518.083,211.442h-12.385v-12.385
			h12.385V211.442z"/>
		<path fill="#003D7D" d="M515.146,196.247c0.009,0.008,0.017,0.012,0.023,0.02c0.024,0.021,0.049,0.043,0.075,0.061
			c0.02,0.014,0.042,0.023,0.062,0.035c0.018,0.008,0.031,0.018,0.05,0.025c0.025,0.012,0.053,0.018,0.078,0.025
			c0.016,0.004,0.028,0.01,0.045,0.012c0.036,0.008,0.073,0.012,0.111,0.012c0.006,0,0.011,0.002,0.018,0.002
			c0.006,0,0.011-0.002,0.017-0.002c0.038,0,0.075-0.004,0.112-0.012c0.016-0.002,0.026-0.008,0.042-0.012
			c0.026-0.008,0.055-0.014,0.08-0.025c0.019-0.008,0.032-0.018,0.051-0.027c0.021-0.01,0.042-0.02,0.062-0.033
			c0.031-0.02,0.06-0.043,0.086-0.068c0.005-0.004,0.011-0.008,0.015-0.012l0,0l0,0l2.379-2.379
			c0.256-0.258,0.256-0.672,0.001-0.928c-0.257-0.256-0.672-0.256-0.928,0l-1.261,1.26v-3.439c0-0.361-0.294-0.656-0.654-0.656
			c-0.361,0.002-0.655,0.295-0.655,0.656v3.439l-1.261-1.26c-0.256-0.256-0.671-0.256-0.929,0c-0.255,0.256-0.255,0.67,0.002,0.928
			L515.146,196.247L515.146,196.247L515.146,196.247z"/>
		<path fill="#003D7D" d="M508.632,190.298c-0.007-0.008-0.017-0.014-0.022-0.021c-0.024-0.021-0.049-0.043-0.075-0.061
			c-0.021-0.014-0.042-0.023-0.063-0.035c-0.017-0.008-0.031-0.018-0.049-0.025c-0.026-0.012-0.053-0.018-0.079-0.023
			c-0.015-0.004-0.028-0.01-0.043-0.014c-0.038-0.008-0.075-0.01-0.113-0.012c-0.006,0-0.012-0.002-0.017-0.002
			s-0.011,0.002-0.017,0.002c-0.037,0.002-0.075,0.004-0.112,0.012c-0.015,0.004-0.027,0.01-0.042,0.014
			c-0.027,0.006-0.055,0.014-0.08,0.023c-0.018,0.008-0.033,0.018-0.051,0.027c-0.021,0.01-0.042,0.02-0.062,0.033
			c-0.029,0.021-0.059,0.045-0.085,0.07c-0.005,0.004-0.009,0.006-0.014,0.012l0,0l0,0l-2.379,2.379
			c-0.257,0.256-0.257,0.67-0.001,0.926c0.257,0.256,0.672,0.256,0.928,0l1.26-1.26v3.441c0,0.361,0.293,0.654,0.655,0.654
			s0.655-0.293,0.655-0.656v-3.439l1.261,1.26c0.256,0.256,0.671,0.258,0.928,0c0.255-0.256,0.255-0.67-0.001-0.926L508.632,190.298
			L508.632,190.298L508.632,190.298z"/>
	</g>
	<g>
		<g>
			<path fill="#FFFFFF" stroke="#003D7D" stroke-miterlimit="10" d="M506.734,240.748c-8.562,0-15.5,6.939-15.5,15.5
				s6.938,15.5,15.5,15.5c8.561,0,15.5-6.939,15.5-15.5S515.294,240.748,506.734,240.748z"/>
		</g>
		<rect x="499.443" y="245.729" fill="#FFFFFF" stroke="#003D7D" stroke-miterlimit="10" width="14.498" height="10.343"/>
		<path fill="#003D7D" d="M518.213,259.802c0,0.635-0.514,1.148-1.146,1.148H495.94c-0.636,0-1.148-0.514-1.148-1.148v-7.459
			c0-0.635,0.514-1.148,1.148-1.148h21.126c0.634,0,1.146,0.514,1.146,1.148V259.802L518.213,259.802z"/>
		<rect x="496.744" y="252.855" fill="#FFFFFF" width="2.983" height="1.32"/>
		<rect x="499.443" y="256.248" fill="#FFFFFF" stroke="#003D7D" stroke-miterlimit="10" width="14.498" height="10.343"/>
		<rect x="501.47" y="258.032" fill="#003D7D" width="10.181" height="2.286"/>
		<rect x="501.47" y="261.993" fill="#003D7D" width="5.23" height="2.286"/>
	</g>
	<g>
		<g>
			<g>
				<path fill="#FFFFFF" stroke="#003D7D" stroke-miterlimit="10" d="M63.472,125.791c-6.08,0-11.01,4.93-11.01,11.01
					c0,6.08,4.93,11.01,11.01,11.01c6.08,0,11.01-4.93,11.01-11.01C74.482,130.721,69.552,125.791,63.472,125.791z"/>
			</g>
		</g>
		<rect x="52.689" y="131.873" fill="none" width="21.297" height="11.258"/>
		<text transform="matrix(1 0 0 1 59.5259 141.6621)" fill="#003D7D" font-family="'HelveticaNeue'" font-size="13.7123">1</text>
	</g>
	<g>
		<g>
			<g>
				<path fill="#FFFFFF" stroke="#003D7D" stroke-miterlimit="10" d="M63.337,181.757c-6.08,0-11.01,4.93-11.01,11.01
					s4.93,11.01,11.01,11.01s11.01-4.93,11.01-11.01S69.417,181.757,63.337,181.757z"/>
			</g>
		</g>
		<rect x="52.554" y="187.839" fill="none" width="21.297" height="11.258"/>
		<text transform="matrix(1 0 0 1 59.3911 197.6289)" fill="#003D7D" font-family="'HelveticaNeue'" font-size="13.7123">2</text>
	</g>
	<g>
		<g>
			<g>
				<path fill="#FFFFFF" stroke="#003D7D" stroke-miterlimit="10" d="M63.203,215.079c-6.08,0-11.01,4.93-11.01,11.01
					s4.93,11.01,11.01,11.01s11.01-4.93,11.01-11.01S69.283,215.079,63.203,215.079z"/>
			</g>
		</g>
		<rect x="52.419" y="221.161" fill="none" width="21.297" height="11.258"/>
		<text transform="matrix(1 0 0 1 59.2563 230.9512)" fill="#003D7D" font-family="'HelveticaNeue'" font-size="13.7123">3</text>
	</g>
	<g>
		<g>
			<g>
				<path fill="#FFFFFF" stroke="#003D7D" stroke-miterlimit="10" d="M65.223,291.75c-6.08,0-11.01,4.93-11.01,11.01
					c0,6.08,4.93,11.01,11.01,11.01s11.01-4.93,11.01-11.01C76.233,296.68,71.303,291.75,65.223,291.75z"/>
			</g>
		</g>
		<rect x="54.439" y="297.832" fill="none" width="21.297" height="11.258"/>
		<text transform="matrix(1 0 0 1 61.2764 307.6221)" fill="#003D7D" font-family="'HelveticaNeue'" font-size="13.7123">4</text>
	</g>
	<g>
		<g>
			<g>
				<path fill="#FFFFFF" stroke="#003D7D" stroke-miterlimit="10" d="M287.704,206.257c-6.08,0-11.01,4.93-11.01,11.01
					s4.93,11.01,11.01,11.01s11.01-4.93,11.01-11.01S293.784,206.257,287.704,206.257z"/>
			</g>
		</g>
		<rect x="276.92" y="212.339" fill="none" width="21.297" height="11.258"/>
		<text transform="matrix(1 0 0 1 283.7573 222.1289)" fill="#003D7D" font-family="'HelveticaNeue'" font-size="13.7123">5</text>
	</g>
	<g>
		<g>
			<g>
				<path fill="#FFFFFF" stroke="#003D7D" stroke-miterlimit="10" d="M462.352,270.418c-6.079,0-11.01,4.93-11.01,11.01
					c0,6.08,4.93,11.01,11.01,11.01s11.011-4.93,11.011-11.01C473.362,275.348,468.432,270.418,462.352,270.418z"/>
			</g>
		</g>
		<rect x="451.569" y="276.5" fill="none" width="21.297" height="11.258"/>
		<text transform="matrix(1 0 0 1 458.4058 286.29)" fill="#003D7D" font-family="'HelveticaNeue'" font-size="13.7123">6</text>
	</g>
	<g>
		<g>
			<g>
				<path fill="#FFFFFF" stroke="#003D7D" stroke-miterlimit="10" d="M462.351,294.035c-6.079,0-11.01,4.93-11.01,11.01
					s4.931,11.01,11.01,11.01c6.081,0,11.012-4.93,11.012-11.01S468.432,294.035,462.351,294.035z"/>
			</g>
		</g>
		<rect x="451.568" y="300.117" fill="none" width="21.298" height="11.258"/>
		<text transform="matrix(1 0 0 1 458.4048 309.9062)" fill="#003D7D" font-family="'HelveticaNeue'" font-size="13.7123">7</text>
	</g>
	<g>
		<g>
			<g>
				<path fill="#FFFFFF" stroke="#003D7D" stroke-miterlimit="10" d="M462.216,317.081c-6.08,0-11.01,4.93-11.01,11.01
					s4.93,11.01,11.01,11.01c6.081,0,11.011-4.93,11.011-11.01S468.297,317.081,462.216,317.081z"/>
			</g>
		</g>
		<rect x="451.433" y="323.163" fill="none" width="21.299" height="11.258"/>
		<text transform="matrix(1 0 0 1 458.27 332.9531)" fill="#003D7D" font-family="'HelveticaNeue'" font-size="13.7123">8</text>
	</g>
	<g>
		<g>
			<g>
				<path fill="#FFFFFF" stroke="#003D7D" stroke-miterlimit="10" d="M531.9,296.178c-6.08,0-11.011,4.93-11.011,11.01
					s4.931,11.01,11.011,11.01c6.081,0,11.011-4.93,11.011-11.01S537.981,296.178,531.9,296.178z"/>
			</g>
		</g>
		<rect x="521.117" y="302.26" fill="none" width="21.298" height="11.258"/>
		<text transform="matrix(1 0 0 1 527.9536 312.0498)" fill="#003D7D" font-family="'HelveticaNeue'" font-size="13.7123">9</text>
	</g>
	<g>
		<g>
			<g>
				<path fill="#FFFFFF" stroke="#003D7D" stroke-miterlimit="10" d="M628.527,296.178c-6.08,0-11.011,4.93-11.011,11.01
					s4.931,11.01,11.011,11.01c6.081,0,11.011-4.93,11.011-11.01S634.608,296.178,628.527,296.178z"/>
			</g>
		</g>
		<rect x="617.744" y="302.26" fill="none" width="21.298" height="11.258"/>
		<text transform="matrix(1 0 0 1 620.7676 312.0498)" fill="#003D7D" font-family="'HelveticaNeue'" font-size="13.7123">14</text>
	</g>
	<g>
		<g>
			<g>
				<path fill="#FFFFFF" stroke="#003D7D" stroke-miterlimit="10" d="M693.889,296.178c-6.08,0-11.01,4.93-11.01,11.01
					s4.93,11.01,11.01,11.01s11.011-4.93,11.011-11.01S699.969,296.178,693.889,296.178z"/>
			</g>
		</g>
		<rect x="683.106" y="302.26" fill="none" width="21.297" height="11.258"/>
		<text transform="matrix(1 0 0 1 686.1309 312.0498)" fill="#003D7D" font-family="'HelveticaNeue'" font-size="13.7123">10</text>
	</g>
	<g>
		<g>
			<g>
				<path fill="#FFFFFF" stroke="#003D7D" stroke-miterlimit="10" d="M569.57,456.985c-6.08,0-11.011,4.93-11.011,11.01
					s4.931,11.01,11.011,11.01s11.01-4.93,11.01-11.01S575.65,456.985,569.57,456.985z"/>
			</g>
		</g>
		<rect x="558.787" y="463.067" fill="none" width="21.297" height="11.258"/>
		<text transform="matrix(1 0 0 1 561.8105 472.8574)" fill="#003D7D" font-family="'HelveticaNeue'" font-size="13.7123">12</text>
	</g>
	<g>
		<g>
			<g>
				<path fill="#FFFFFF" stroke="#003D7D" stroke-miterlimit="10" d="M323.122,511.049c-6.08,0-11.01,4.93-11.01,11.01
					s4.93,11.011,11.01,11.011s11.01-4.931,11.01-11.011S329.202,511.049,323.122,511.049z"/>
			</g>
		</g>
		<rect x="312.338" y="517.131" fill="none" width="21.297" height="11.258"/>
		<text transform="matrix(1 0 0 1 315.3628 526.9209)" fill="#003D7D" font-family="'HelveticaNeue'" font-size="13.7123">13</text>
	</g>
	<g>
		<g>
			<g>
				<path fill="#FFFFFF" stroke="#003D7D" stroke-miterlimit="10" d="M258.129,390.048c-6.08,0-11.01,4.93-11.01,11.01
					s4.93,11.011,11.01,11.011s11.01-4.931,11.01-11.011S264.209,390.048,258.129,390.048z"/>
			</g>
		</g>
		<rect x="247.346" y="396.13" fill="none" width="21.297" height="11.258"/>
		<text transform="matrix(1 0 0 1 250.3706 405.9199)" fill="#003D7D" font-family="'HelveticaNeue'" font-size="13.7123">11</text>
	</g>
	<g>
		<g>
			<path fill="#FFFFFF" stroke="#003D7D" stroke-miterlimit="10" d="M217.889,101.757c-8.56,0-15.5,6.939-15.5,15.5
				s6.94,15.5,15.5,15.5c8.561,0,15.5-6.939,15.5-15.5S226.45,101.757,217.889,101.757z"/>
		</g>
		<path fill="#003D7D" d="M225.313,107.083h-14.7c-0.634,0-1.147,0.514-1.147,1.147v9.237c0,0.634,0.514,1.147,1.147,1.147h5.512
			v1.505h-2.584v1.124h8.845v-1.124h-2.583v-1.505h5.511c0.634,0,1.148-0.514,1.148-1.147v-9.237
			C226.461,107.596,225.947,107.083,225.313,107.083z M225.311,116.867c0,0.317-0.257,0.574-0.573,0.574h-13.549
			c-0.316,0-0.574-0.257-0.574-0.574v-8.037c0-0.316,0.258-0.573,0.574-0.573h13.549c0.316,0,0.573,0.257,0.573,0.573V116.867z"/>
		<path fill="#003D7D" d="M227.697,125.501c0.336,0.277-0.293,0.489-0.655,0.489h-18.29c-0.362,0-1.028-0.098-0.655-0.489
			l2.618-2.686c0.303-0.327,0.608-0.489,1.176-0.489h11.78c0.895,0,1.047,0.162,1.408,0.489L227.697,125.501z"/>
	</g>
	<g>
		<g>
			<path fill="#FFFFFF" stroke="#003D7D" stroke-miterlimit="10" d="M431.889,101.757c-8.56,0-15.5,6.939-15.5,15.5
				s6.94,15.5,15.5,15.5c8.562,0,15.5-6.939,15.5-15.5S440.45,101.757,431.889,101.757z"/>
		</g>
		<path fill="#003D7D" d="M439.312,107.083h-14.699c-0.635,0-1.147,0.514-1.147,1.147v9.237c0,0.634,0.515,1.147,1.147,1.147h5.512
			v1.505h-2.584v1.124h8.845v-1.124h-2.583v-1.505h5.511c0.635,0,1.148-0.514,1.148-1.147v-9.237
			C440.461,107.596,439.947,107.083,439.312,107.083z M439.311,116.867c0,0.317-0.257,0.574-0.572,0.574h-13.549
			c-0.316,0-0.574-0.257-0.574-0.574v-8.037c0-0.316,0.258-0.573,0.574-0.573h13.549c0.315,0,0.572,0.257,0.572,0.573V116.867z"/>
		<path fill="#003D7D" d="M441.697,125.501c0.336,0.277-0.293,0.489-0.655,0.489h-18.29c-0.362,0-1.028-0.098-0.655-0.489
			l2.618-2.686c0.303-0.327,0.608-0.489,1.176-0.489h11.78c0.896,0,1.047,0.162,1.408,0.489L441.697,125.501z"/>
	</g>
	<rect x="870.007" y="364.653" fill="none" width="190.668" height="16.734"/>
	<text transform="matrix(1 0 0 1 870.0078 374.6494)" fill="#333333" font-family="'HelveticaNeue'" font-size="14">Limited Access Areas</text>
	<rect x="845.688" y="363.653" fill="#333333" width="14" height="14.211"/>
	<g>
		<g>
			<g>
				<g>
					<path fill="#FFFFFF" stroke="#003D7D" stroke-miterlimit="10" d="M554.07,173.892c-8.562,0-15.5,6.939-15.5,15.5
						s6.938,15.5,15.5,15.5c8.56,0,15.5-6.939,15.5-15.5S562.629,173.892,554.07,173.892z"/>
				</g>
			</g>
		</g>
		<g>
			<circle fill="#003D7D" cx="553.955" cy="180.744" r="2.474"/>
			<path fill="#003D7D" d="M558.293,183.892c-0.134,0-0.261,0.025-0.379,0.068c-0.088-0.043-0.186-0.068-0.29-0.068h-1.006
				c-0.029-0.004-0.061-0.01-0.092-0.01h-4.99c-0.032,0-0.062,0.006-0.093,0.01h-1.005c-0.104,0-0.202,0.025-0.291,0.068
				c-0.117-0.043-0.245-0.068-0.38-0.068c-0.604,0-1.097,0.492-1.097,1.098v6.732c0,0.607,0.491,1.098,1.097,1.098
				c0.312,0,0.59-0.129,0.789-0.334l-1.828,4.131h2.404v2.756c0,0.703,0.568,1.271,1.271,1.271s1.271-0.568,1.271-1.271v-2.756
				h0.714v2.756c0,0.703,0.569,1.271,1.271,1.271s1.271-0.568,1.271-1.271v-2.756h2.365l-1.789-4.131
				c0.2,0.205,0.479,0.334,0.788,0.334c0.606,0,1.097-0.49,1.097-1.098v-6.732C559.39,184.384,558.9,183.892,558.293,183.892z"/>
		</g>
	</g>
	<g>
		<g>
			<g>
				<g>
					<path fill="#FFFFFF" stroke="#003D7D" stroke-miterlimit="10" d="M554.071,207.079c-8.561,0-15.5,6.939-15.5,15.5
						s6.939,15.5,15.5,15.5s15.5-6.939,15.5-15.5S562.631,207.079,554.071,207.079z"/>
				</g>
			</g>
		</g>
		<g>
			<circle fill="#003D7D" cx="553.994" cy="213.861" r="2.474"/>
			<path fill="#003D7D" d="M558.333,217.008c-0.134,0-0.261,0.025-0.38,0.068c-0.088-0.041-0.187-0.068-0.289-0.068h-1.006
				c-0.029-0.004-0.062-0.01-0.092-0.01h-4.991c-0.032,0-0.062,0.006-0.092,0.01h-1.005c-0.105,0-0.203,0.027-0.291,0.068
				c-0.118-0.043-0.245-0.068-0.38-0.068c-0.604,0-1.097,0.492-1.097,1.098v6.734c0,0.605,0.491,1.096,1.097,1.096
				c0.606,0,1.099-0.49,1.099-1.096v-0.734c0,0.219,0.106,0.412,0.271,0.535c-0.001,0.018-0.003,0.037-0.003,0.055v7.795
				c0,0.701,0.568,1.27,1.271,1.27s1.271-0.568,1.271-1.27v-5.904h0.714v5.904c0,0.701,0.568,1.27,1.271,1.27
				c0.701,0,1.27-0.568,1.27-1.27v-7.795c0-0.018-0.002-0.037-0.003-0.055c0.164-0.123,0.271-0.316,0.271-0.535v0.734
				c0,0.605,0.491,1.096,1.098,1.096c0.607,0,1.097-0.49,1.097-1.096v-6.734C559.43,217.5,558.94,217.008,558.333,217.008z"/>
		</g>
	</g>
	<rect x="1007.398" y="474.637" fill="none" width="84.001" height="16.734"/>
	<text transform="matrix(1 0 0 1 1007.3984 484.6328)" fill="#333333" font-family="'HelveticaNeue'" font-size="14">Stairs</text>
	<rect x="878.81" y="476.092" fill="none" width="84.001" height="16.734"/>
	<text transform="matrix(1 0 0 1 878.8105 486.0879)" fill="#333333" font-family="'HelveticaNeue'" font-size="14">Elevator</text>
	<rect x="1007.189" y="511.004" fill="none" width="84.001" height="16.734"/>
	<text transform="matrix(1 0 0 1 1007.1895 521.001)" fill="#333333" font-family="'HelveticaNeue'" font-size="14">Printer</text>
	<g>
		<g>
			<path fill="#FFFFFF" stroke="#003D7D" stroke-miterlimit="10" d="M985.031,466.838c-8.676,0-15.709,7.033-15.709,15.709
				s7.033,15.709,15.709,15.709s15.709-7.033,15.709-15.709S993.707,466.838,985.031,466.838z"/>
		</g>
		<path fill="#003D7D" d="M993.812,486.336c0-0.547-0.443-0.99-0.99-0.99h-4.716v-4.709c0-0.002,0-0.004,0-0.008
			c0-0.547-0.443-0.99-0.99-0.99h-4.715v-4.707c0-0.002,0-0.004,0-0.008c0-0.547-0.443-0.99-0.99-0.99h-5.706
			c-0.547,0-0.99,0.443-0.99,0.99c0,0.549,0.443,0.992,0.99,0.992h4.715v4.707c0,0.002,0,0.004,0,0.006
			c0,0.139,0.028,0.269,0.078,0.387c0.15,0.355,0.503,0.605,0.913,0.605c0.006,0,0.011,0,0.016,0h4.699v4.715l0,0l0,0
			c0,0.547,0.443,0.99,0.99,0.99h4.715v4.717c0,0.547,0.443,0.99,0.99,0.99s0.989-0.443,0.989-0.99v-5.699
			C993.811,486.34,993.812,486.338,993.812,486.336z"/>
	</g>
	<g>
		<g>
			<path fill="#FFFFFF" stroke="#003D7D" stroke-miterlimit="10" d="M856.444,467.226c-8.677,0-15.71,7.033-15.71,15.709
				c0,8.677,7.033,15.709,15.71,15.709c8.676,0,15.709-7.032,15.709-15.709C872.153,474.259,865.12,467.226,856.444,467.226z"/>
		</g>
		<g>
			<circle fill="#003D7D" cx="853.534" cy="482.874" r="1.055"/>
			<path fill="#003D7D" d="M852.208,487.604c0,0.236-0.19,0.427-0.426,0.427h-0.069c-0.234,0-0.426-0.189-0.426-0.427v-2.842
				c0-0.035,0.004-0.065,0.012-0.098c0.048-0.252,0.242-0.439,0.477-0.439h3.585c0.27,0,0.487,0.25,0.487,0.56
				c0,0.02-0.001,0.041-0.003,0.059v2.763c0,0.235-0.19,0.426-0.427,0.426h-0.068c-0.234,0-0.427-0.189-0.427-0.426v3.174
				c0,0.334-0.271,0.606-0.605,0.606h-0.1c-0.335,0-0.606-0.272-0.606-0.606v-2.916h-0.087v2.916c0,0.334-0.272,0.606-0.607,0.606
				h-0.098c-0.336,0-0.607-0.272-0.607-0.606L852.208,487.604z"/>
		</g>
		<g>
			<circle fill="#003D7D" cx="859.286" cy="482.874" r="1.055"/>
			<path fill="#003D7D" d="M857.96,487.604c0,0.236-0.19,0.427-0.426,0.427h-0.069c-0.234,0-0.426-0.189-0.426-0.427v-2.842
				c0-0.035,0.004-0.065,0.012-0.098c0.048-0.252,0.242-0.439,0.477-0.439h3.585c0.27,0,0.486,0.25,0.486,0.56
				c0,0.02,0,0.041-0.002,0.059v2.763c0,0.235-0.19,0.426-0.427,0.426h-0.068c-0.234,0-0.427-0.189-0.427-0.426v3.174
				c0,0.334-0.271,0.606-0.606,0.606h-0.099c-0.335,0-0.606-0.272-0.606-0.606v-2.916h-0.087v2.916c0,0.334-0.272,0.606-0.607,0.606
				h-0.098c-0.336,0-0.607-0.272-0.607-0.606L857.96,487.604z"/>
		</g>
		<path fill="#003D7D" d="M862.98,477.88h-13.073c-0.761,0-1.376,0.615-1.376,1.375v13.074c0,0.76,0.616,1.375,1.376,1.375h13.073
			c0.76,0,1.375-0.615,1.375-1.375v-13.074C864.356,478.495,863.74,477.88,862.98,477.88z M862.636,491.985h-12.385V479.6h12.385
			V491.985z"/>
		<path fill="#003D7D" d="M859.701,476.79c0.008,0.008,0.016,0.012,0.022,0.02c0.024,0.021,0.05,0.043,0.075,0.062
			c0.021,0.014,0.042,0.022,0.063,0.035c0.017,0.008,0.03,0.018,0.049,0.024c0.026,0.013,0.053,0.019,0.079,0.025
			c0.015,0.004,0.027,0.01,0.044,0.012c0.037,0.008,0.074,0.013,0.112,0.013c0.006,0,0.011,0.002,0.017,0.002
			s0.011-0.002,0.017-0.002c0.038,0,0.075-0.005,0.112-0.013c0.016-0.002,0.027-0.008,0.042-0.012
			c0.027-0.008,0.055-0.014,0.08-0.025c0.019-0.008,0.033-0.018,0.051-0.026c0.021-0.011,0.042-0.021,0.062-0.033
			c0.031-0.021,0.059-0.043,0.086-0.068c0.004-0.004,0.01-0.008,0.014-0.012l0,0l0,0l2.379-2.379
			c0.256-0.258,0.256-0.672,0.001-0.928c-0.257-0.257-0.672-0.257-0.928,0l-1.26,1.26v-3.439c0-0.36-0.294-0.655-0.655-0.655
			c-0.361,0.002-0.655,0.295-0.655,0.655v3.439l-1.261-1.26c-0.256-0.257-0.671-0.257-0.928,0c-0.255,0.256-0.255,0.67,0.002,0.928
			L859.701,476.79L859.701,476.79L859.701,476.79z"/>
		<path fill="#003D7D" d="M853.186,470.841c-0.007-0.008-0.017-0.014-0.022-0.021c-0.024-0.021-0.048-0.043-0.075-0.062
			c-0.02-0.014-0.042-0.022-0.062-0.035c-0.018-0.008-0.032-0.018-0.05-0.024c-0.025-0.012-0.053-0.019-0.079-0.023
			c-0.015-0.004-0.027-0.01-0.043-0.014c-0.037-0.008-0.074-0.01-0.112-0.012c-0.006,0-0.013-0.002-0.018-0.002
			s-0.011,0.002-0.017,0.002c-0.037,0.002-0.075,0.004-0.112,0.012c-0.015,0.004-0.026,0.01-0.042,0.014
			c-0.026,0.006-0.055,0.015-0.08,0.023c-0.018,0.008-0.033,0.018-0.051,0.026c-0.021,0.011-0.042,0.021-0.062,0.033
			c-0.029,0.021-0.059,0.045-0.085,0.07c-0.005,0.004-0.009,0.006-0.014,0.012l0,0l0,0l-2.379,2.379
			c-0.257,0.256-0.257,0.67-0.001,0.927c0.257,0.256,0.672,0.256,0.928,0l1.26-1.261v3.441c0,0.36,0.294,0.654,0.655,0.654
			c0.362,0,0.655-0.294,0.655-0.656v-3.439l1.261,1.261c0.256,0.256,0.671,0.258,0.929,0c0.255-0.257,0.255-0.671-0.002-0.927
			L853.186,470.841L853.186,470.841L853.186,470.841z"/>
	</g>
	<g>
		<g>
			<path fill="#FFFFFF" stroke="#003D7D" stroke-miterlimit="10" d="M984.822,502.46c-8.562,0-15.5,6.939-15.5,15.5
				s6.938,15.5,15.5,15.5c8.561,0,15.5-6.939,15.5-15.5S993.382,502.46,984.822,502.46z"/>
		</g>
		<rect x="977.531" y="507.442" fill="#FFFFFF" stroke="#003D7D" stroke-miterlimit="10" width="14.498" height="10.342"/>
		<path fill="#003D7D" d="M996.301,521.515c0,0.636-0.514,1.148-1.146,1.148h-21.126c-0.636,0-1.148-0.514-1.148-1.148v-7.459
			c0-0.635,0.515-1.147,1.148-1.147h21.126c0.634,0,1.146,0.514,1.146,1.147V521.515z"/>
		<rect x="974.832" y="514.567" fill="#FFFFFF" width="2.984" height="1.319"/>
		<rect x="977.531" y="517.96" fill="#FFFFFF" stroke="#003D7D" stroke-miterlimit="10" width="14.498" height="10.344"/>
		<rect x="979.558" y="519.745" fill="#003D7D" width="10.181" height="2.285"/>
		<rect x="979.558" y="523.706" fill="#003D7D" width="5.23" height="2.285"/>
	</g>
	<rect x="878.81" y="512.198" fill="none" width="84.001" height="16.733"/>
	<text transform="matrix(1 0 0 1 878.8105 522.1943)" fill="#333333" font-family="'HelveticaNeue'" font-size="14">Copier</text>
	<rect x="1007.398" y="547.371" fill="none" width="84.001" height="16.734"/>
	<text transform="matrix(1 0 0 1 1007.3984 557.3672)" fill="#333333" font-family="'HelveticaNeue'" font-size="14">Scanner</text>
	<g>
		<g>
			<path fill="#FFFFFF" stroke="#003D7D" stroke-miterlimit="10" d="M856.443,503.091c-8.562,0-15.5,6.939-15.5,15.5
				c0,8.562,6.938,15.5,15.5,15.5c8.561,0,15.5-6.938,15.5-15.5C871.943,510.03,865.003,503.091,856.443,503.091z"/>
		</g>
		<g>
			<path fill="#003D7D" d="M863.755,511.979l-7.503-0.011v-1.564l5.034-1.583v-1.228l-12.537,1.677
				c-0.596,0-1.079,0.482-1.079,1.079v4.615h17.165v-1.906C864.835,512.462,864.352,511.979,863.755,511.979z"/>
			<polygon fill="#003D7D" points="868.613,515.084 864.797,516.042 864.797,516.044 859.222,516.044 859.222,517.204 
				853.224,517.204 853.224,516.044 847.67,516.044 847.67,521.738 864.835,521.738 864.835,517.733 868.613,515.985 			"/>
			<path fill="#003D7D" d="M868.577,521.934l-3.741,0.938v-0.027h-5.613v1.161h-5.998v-1.161h-5.554v4.616
				c0,0.596,0.483,1.079,1.079,1.079h15.006c0.597,0,1.08-0.483,1.08-1.079v-2.895l3.741-1.731V521.934z"/>
		</g>
	</g>
	<rect x="878.81" y="548.305" fill="none" width="84.001" height="16.734"/>
	<text transform="matrix(1 0 0 1 878.8105 558.3008)" fill="#333333" font-family="'HelveticaNeue'" font-size="14">Computers</text>
	<g>
		<g>
			<path fill="#FFFFFF" stroke="#003D7D" stroke-miterlimit="10" d="M984.822,537.873c-8.562,0-15.5,6.939-15.5,15.5
				s6.938,15.5,15.5,15.5c8.561,0,15.5-6.939,15.5-15.5S993.382,537.873,984.822,537.873z"/>
		</g>
		<g>
			<path fill="#003D7D" d="M973.642,559.012c0,0.955,0.774,1.73,1.73,1.73h18.726c0.956,0,1.73-0.775,1.73-1.73v-3.31h-22.188
				L973.642,559.012L973.642,559.012z M990.096,557.194h3.548c0.347,0,0.628,0.28,0.628,0.628c0,0.346-0.281,0.627-0.628,0.627
				h-3.548c-0.347,0-0.627-0.281-0.627-0.627C989.469,557.476,989.75,557.194,990.096,557.194z M987.66,557.194
				c0.346,0,0.627,0.28,0.627,0.628c0,0.346-0.281,0.627-0.627,0.627c-0.348,0-0.628-0.281-0.628-0.627
				C987.032,557.476,987.312,557.194,987.66,557.194z"/>
			<path fill="#003D7D" d="M994.964,552.974l-17.155-7.507c-0.876-0.383-1.896,0.018-2.278,0.893l20.325,8.895
				C996.239,554.377,995.839,553.357,994.964,552.974z"/>
		</g>
	</g>
	<g>
		<g>
			<path fill="#FFFFFF" stroke="#003D7D" stroke-miterlimit="10" d="M856.443,538.746c-8.561,0-15.5,6.938-15.5,15.5
				c0,8.561,6.939,15.5,15.5,15.5s15.5-6.939,15.5-15.5C871.943,545.685,865.003,538.746,856.443,538.746z"/>
		</g>
		<path fill="#003D7D" d="M863.867,544.071h-14.7c-0.634,0-1.147,0.514-1.147,1.146v9.237c0,0.634,0.515,1.146,1.147,1.146h5.512
			v1.506h-2.584v1.123h8.846v-1.123h-2.583v-1.506h5.511c0.634,0,1.147-0.514,1.147-1.146v-9.237
			C865.015,544.585,864.5,544.071,863.867,544.071z M863.865,553.855c0,0.316-0.257,0.573-0.573,0.573h-13.549
			c-0.316,0-0.574-0.257-0.574-0.573v-8.037c0-0.316,0.258-0.573,0.574-0.573h13.549c0.316,0,0.573,0.257,0.573,0.573V553.855z"/>
		<path fill="#003D7D" d="M866.25,562.49c0.336,0.276-0.293,0.488-0.655,0.488h-18.29c-0.361,0-1.027-0.098-0.654-0.488l2.617-2.687
			c0.304-0.327,0.608-0.488,1.177-0.488h11.779c0.896,0,1.048,0.161,1.408,0.488L866.25,562.49z"/>
	</g>
	<rect x="878.81" y="440.913" fill="none" width="143.001" height="16.734"/>
	<text transform="matrix(1 0 0 1 878.8105 450.9092)" fill="#333333" font-family="'HelveticaNeue'" font-size="14">Emergency Exit</text>
	<g>
		<g>
			<g>
				<g>
					<path fill="#FFFFFF" stroke="#003D7D" stroke-miterlimit="10" d="M892.165,396.125c-8.562,0-15.5,6.939-15.5,15.5
						s6.938,15.5,15.5,15.5c8.56,0,15.5-6.939,15.5-15.5S900.724,396.125,892.165,396.125z"/>
				</g>
			</g>
		</g>
		<g>
			<circle fill="#003D7D" cx="892.049" cy="402.979" r="2.474"/>
			<path fill="#003D7D" d="M896.388,406.126c-0.134,0-0.261,0.025-0.379,0.068c-0.088-0.043-0.186-0.068-0.29-0.068h-1.006
				c-0.029-0.004-0.06-0.01-0.092-0.01h-4.99c-0.032,0-0.062,0.006-0.093,0.01h-1.005c-0.104,0-0.202,0.025-0.291,0.068
				c-0.117-0.043-0.245-0.068-0.379-0.068c-0.605,0-1.098,0.491-1.098,1.098v6.732c0,0.605,0.491,1.098,1.098,1.098
				c0.311,0,0.589-0.129,0.789-0.334l-1.828,4.131h2.403v2.757c0,0.701,0.568,1.271,1.271,1.271s1.271-0.568,1.271-1.271v-2.757
				h0.715v2.757c0,0.701,0.568,1.271,1.271,1.271s1.271-0.568,1.271-1.271v-2.757h2.364l-1.789-4.131
				c0.2,0.205,0.479,0.334,0.788,0.334c0.606,0,1.098-0.491,1.098-1.098v-6.732C897.485,406.617,896.995,406.126,896.388,406.126z"
				/>
		</g>
	</g>
	<g>
		<g>
			<g>
				<g>
					<path fill="#FFFFFF" stroke="#003D7D" stroke-miterlimit="10" d="M856.102,396.124c-8.56,0-15.5,6.938-15.5,15.5
						c0,8.561,6.94,15.5,15.5,15.5c8.562,0,15.5-6.939,15.5-15.5C871.602,403.062,864.663,396.124,856.102,396.124z"/>
				</g>
			</g>
		</g>
		<g>
			<circle fill="#003D7D" cx="856.025" cy="402.906" r="2.474"/>
			<path fill="#003D7D" d="M860.365,406.054c-0.134,0-0.262,0.025-0.38,0.068c-0.089-0.042-0.187-0.068-0.289-0.068h-1.006
				c-0.029-0.004-0.062-0.01-0.093-0.01h-4.99c-0.032,0-0.062,0.006-0.093,0.01h-1.005c-0.104,0-0.203,0.026-0.291,0.068
				c-0.118-0.043-0.245-0.068-0.379-0.068c-0.604,0-1.097,0.492-1.097,1.099v6.732c0,0.606,0.491,1.098,1.097,1.098
				c0.606,0,1.098-0.49,1.098-1.098v-0.732c0,0.219,0.107,0.412,0.271,0.533c-0.001,0.02-0.003,0.037-0.003,0.057v7.794
				c0,0.701,0.568,1.271,1.27,1.271c0.702,0,1.271-0.568,1.271-1.271v-5.903h0.714v5.903c0,0.701,0.568,1.271,1.271,1.271
				c0.7,0,1.27-0.568,1.27-1.271v-7.794c0-0.02-0.002-0.037-0.003-0.057c0.164-0.121,0.271-0.314,0.271-0.533v0.732
				c0,0.606,0.491,1.098,1.099,1.098c0.606,0,1.097-0.49,1.097-1.098v-6.732C861.461,406.546,860.971,406.054,860.365,406.054z"/>
		</g>
	</g>
	<rect x="949.752" y="404.502" fill="none" width="140.359" height="16.734"/>
	<text transform="matrix(1 0 0 1 949.752 414.498)" fill="#333333" font-family="'HelveticaNeue'" font-size="14">Restrooms</text>
	<g>
		<g>
			<path fill="#FFFFFF" stroke="#003D7D" stroke-miterlimit="10" d="M927.729,396.125c-8.562,0-15.502,6.939-15.502,15.5
				s6.94,15.5,15.502,15.5c8.561,0,15.5-6.939,15.5-15.5S936.289,396.125,927.729,396.125z"/>
		</g>
		<g>
			<rect x="926.791" y="400.253" fill="#003D7D" width="1.924" height="22.618"/>
		</g>
		<g>
			<circle fill="#003D7D" cx="934.143" cy="403.785" r="2.143"/>
			<path fill="#003D7D" d="M937.903,406.512c-0.115,0-0.227,0.021-0.328,0.06c-0.076-0.037-0.161-0.06-0.252-0.06h-0.87
				c-0.026-0.004-0.053-0.008-0.08-0.008h-4.324c-0.026,0-0.053,0.004-0.079,0.008h-0.871c-0.09,0-0.175,0.021-0.251,0.06
				c-0.103-0.037-0.213-0.06-0.327-0.06c-0.525,0-0.951,0.426-0.951,0.95v5.833c0,0.525,0.426,0.951,0.951,0.951
				c0.523,0,0.949-0.426,0.949-0.951v-0.635c0,0.188,0.094,0.356,0.234,0.463c-0.001,0.016-0.003,0.031-0.003,0.049v6.751
				c0,0.607,0.493,1.102,1.101,1.102c0.608,0,1.101-0.493,1.101-1.102v-6.684h0.619v6.684c0,0.607,0.492,1.102,1.101,1.102
				s1.1-0.493,1.1-1.102v-6.751c0-0.018-0.001-0.033-0.002-0.049c0.143-0.105,0.234-0.273,0.234-0.463v0.635
				c0,0.525,0.426,0.951,0.95,0.951s0.951-0.426,0.951-0.951v-5.833C938.854,406.938,938.428,406.512,937.903,406.512z"/>
		</g>
		<g>
			<circle fill="#003D7D" cx="921.054" cy="403.792" r="2.143"/>
			<path fill="#003D7D" d="M924.814,406.52c-0.115,0-0.227,0.021-0.328,0.06c-0.076-0.037-0.161-0.06-0.251-0.06h-0.871
				c-0.026-0.004-0.053-0.009-0.08-0.009h-4.324c-0.026,0-0.053,0.005-0.079,0.009h-0.871c-0.091,0-0.175,0.021-0.251,0.06
				c-0.103-0.037-0.213-0.06-0.327-0.06c-0.525,0-0.951,0.427-0.951,0.95v5.833c0,0.525,0.426,0.951,0.951,0.951
				c0.268,0,0.51-0.111,0.682-0.29l-0.717,3.579h1.217v2.387c0,0.608,0.493,1.102,1.101,1.102c0.608,0,1.101-0.492,1.101-1.102
				v-2.387h0.619v2.387c0,0.608,0.492,1.102,1.101,1.102s1.1-0.492,1.1-1.102v-2.387h1.184l-0.684-3.579
				c0.173,0.179,0.415,0.29,0.684,0.29c0.524,0,0.95-0.426,0.95-0.951v-5.833C925.764,406.945,925.339,406.52,924.814,406.52z"/>
		</g>
	</g>
	<g>
		<g>
			<g>
				<g>
					<path fill="#FFFFFF" stroke="#003D7D" stroke-miterlimit="10" d="M856.128,431.779c-8.56,0-15.5,6.938-15.5,15.5
						c0,8.561,6.94,15.5,15.5,15.5c8.562,0,15.5-6.939,15.5-15.5C871.628,438.718,864.689,431.779,856.128,431.779z"/>
				</g>
			</g>
		</g>
		<g>
			<g>
				<circle fill="none" cx="851.476" cy="441.921" r="2.192"/>
				<path fill="#003D7D" d="M866.594,453.488l-6.202-6.202v-2.459c-0.053,0.112-0.125,0.22-0.219,0.312
					c-0.432,0.434-1.133,0.434-1.563,0l-1.711-1.71l-0.787,0.789l9.903,9.904c0.435,0.433,0.435,1.133,0,1.565
					c-0.432,0.433-1.133,0.433-1.563,0l-6.263-6.262l-1.688,1.688l2.548,2.548c0.432,0.432,0.432,1.133,0,1.563
					c-0.433,0.434-1.133,0.434-1.566,0l-3.295-3.295c-0.225-0.225-0.331-0.521-0.321-0.815c-0.01-0.295,0.098-0.593,0.321-0.818
					l1.688-1.688l-2.078-2.078l-1.745,1.744c-0.025,0.033-0.055,0.065-0.086,0.098c-0.218,0.218-0.503,0.326-0.788,0.324
					c-0.285,0.001-0.57-0.107-0.789-0.324c-0.03-0.031-0.059-0.063-0.085-0.097l-2.333-2.333c-0.432-0.434-0.432-1.134,0-1.565
					c0.433-0.432,1.133-0.433,1.564,0l1.643,1.642l4.937-4.936c0.424-0.424,1.104-0.432,1.539-0.023
					c0.031,0.025,0.062,0.054,0.092,0.082l2.43,2.431c0.094,0.094,0.166,0.198,0.219,0.312v-6.909H847.15v20.274h13.244v-4.283
					l3.36,3.361c0.785,0.784,2.058,0.784,2.842,0C867.378,455.545,867.378,454.273,866.594,453.488z M851.476,439.729
					c1.212,0,2.192,0.981,2.192,2.192c0,1.21-0.98,2.191-2.192,2.191c-1.21,0-2.19-0.981-2.19-2.191
					S850.266,439.729,851.476,439.729z"/>
			</g>
		</g>
	</g>
	<g>
		<g>
			<g>
				<g>
					<path fill="#FFFFFF" stroke="#003D7D" stroke-miterlimit="10" d="M688.326,401.586c-8.561,0-15.5,6.939-15.5,15.5
						c0,8.562,6.939,15.5,15.5,15.5s15.5-6.938,15.5-15.5C703.826,408.525,696.886,401.586,688.326,401.586z"/>
				</g>
			</g>
		</g>
		<g>
			<g>
				<circle fill="none" cx="683.673" cy="411.728" r="2.192"/>
				<path fill="#003D7D" d="M698.792,423.295l-6.202-6.202v-2.459c-0.053,0.112-0.125,0.22-0.219,0.312
					c-0.432,0.433-1.133,0.433-1.564,0l-1.71-1.71l-0.788,0.789l9.904,9.903c0.434,0.434,0.434,1.134,0,1.565
					c-0.432,0.433-1.133,0.433-1.564,0l-6.262-6.261l-1.688,1.688l2.548,2.548c0.432,0.433,0.432,1.133,0,1.564
					c-0.434,0.433-1.133,0.433-1.566,0l-3.295-3.295c-0.225-0.226-0.331-0.521-0.322-0.816c-0.009-0.295,0.099-0.593,0.322-0.818
					l1.688-1.688l-2.078-2.078l-1.745,1.744c-0.026,0.034-0.055,0.066-0.086,0.098c-0.218,0.219-0.503,0.326-0.788,0.324
					c-0.285,0.001-0.57-0.106-0.789-0.324c-0.03-0.03-0.059-0.062-0.085-0.097l-2.333-2.333c-0.432-0.433-0.432-1.133,0-1.565
					c0.432-0.432,1.133-0.433,1.563,0l1.644,1.643l4.936-4.937c0.424-0.424,1.105-0.432,1.539-0.022
					c0.032,0.024,0.062,0.053,0.092,0.082l2.431,2.43c0.094,0.094,0.166,0.199,0.219,0.312v-6.909h-13.244v20.273h13.244v-4.282
					l3.36,3.36c0.784,0.784,2.058,0.784,2.842,0C699.576,425.352,699.576,424.08,698.792,423.295z M683.673,409.536
					c1.211,0,2.192,0.98,2.192,2.191c0,1.21-0.981,2.191-2.192,2.191c-1.21,0-2.19-0.98-2.19-2.191
					C681.482,410.518,682.463,409.536,683.673,409.536z"/>
			</g>
		</g>
	</g>
	<g>
		<g>
			<path fill="#FFFFFF" stroke="#003D7D" stroke-miterlimit="10" d="M53.794,241.716c-8.676,0-15.709,7.033-15.709,15.709
				c0,8.676,7.033,15.709,15.709,15.709c8.676,0,15.709-7.033,15.709-15.709C69.503,248.749,62.47,241.716,53.794,241.716z"/>
		</g>
		<path fill="#003D7D" d="M62.576,261.214c0-0.547-0.443-0.99-0.99-0.99H56.87v-4.709c0-0.002,0-0.004,0-0.008
			c0-0.547-0.443-0.99-0.99-0.99h-4.715v-4.707c0-0.002,0-0.004,0-0.008c0-0.547-0.443-0.99-0.99-0.99h-5.706
			c-0.547,0-0.99,0.443-0.99,0.99c0,0.549,0.443,0.992,0.99,0.992h4.715v4.707c0,0.002,0,0.004,0,0.006
			c0,0.139,0.028,0.268,0.078,0.387c0.15,0.355,0.503,0.605,0.913,0.605c0.006,0,0.011,0,0.016,0h4.699v4.715l0,0l0,0
			c0,0.547,0.443,0.99,0.99,0.99h4.715v4.717c0,0.547,0.443,0.99,0.99,0.99s0.99-0.443,0.99-0.99v-5.699
			C62.575,261.218,62.576,261.216,62.576,261.214z"/>
	</g>
	<g>
		<g>
			<g>
				<g>
					<path fill="#FFFFFF" stroke="#003D7D" stroke-miterlimit="10" d="M86.003,241.925c-8.561,0-15.5,6.939-15.5,15.5
						c0,8.561,6.939,15.5,15.5,15.5s15.5-6.939,15.5-15.5C101.503,248.864,94.564,241.925,86.003,241.925z"/>
				</g>
			</g>
		</g>
		<g>
			<g>
				<circle fill="none" cx="81.351" cy="252.067" r="2.192"/>
				<path fill="#003D7D" d="M96.468,263.634l-6.201-6.202v-2.459c-0.054,0.113-0.125,0.219-0.219,0.312
					c-0.432,0.432-1.133,0.432-1.565,0l-1.71-1.71l-0.787,0.789l9.904,9.905c0.433,0.432,0.433,1.133,0,1.565
					c-0.432,0.432-1.133,0.432-1.564,0l-6.262-6.261l-1.689,1.689l2.548,2.548c0.433,0.432,0.433,1.133,0,1.565
					s-1.133,0.432-1.565,0l-3.295-3.295c-0.225-0.225-0.332-0.522-0.322-0.817c-0.01-0.295,0.098-0.593,0.322-0.818l1.688-1.688
					l-2.078-2.079l-1.746,1.745c-0.026,0.034-0.055,0.066-0.086,0.097c-0.217,0.218-0.503,0.326-0.788,0.324
					c-0.285,0.001-0.57-0.105-0.788-0.324c-0.031-0.031-0.059-0.063-0.086-0.097l-2.332-2.333c-0.433-0.432-0.433-1.133,0-1.565
					c0.432-0.432,1.133-0.432,1.564,0l1.643,1.642l4.936-4.936c0.424-0.424,1.105-0.431,1.539-0.023
					c0.031,0.025,0.062,0.052,0.092,0.082l2.43,2.43c0.094,0.094,0.165,0.2,0.219,0.313v-6.91H77.023v20.274h13.244v-4.282
					l3.359,3.36c0.785,0.785,2.059,0.785,2.842,0C97.253,265.691,97.253,264.419,96.468,263.634z M81.351,249.875
					c1.211,0,2.191,0.981,2.191,2.192s-0.98,2.192-2.191,2.192s-2.191-0.981-2.191-2.192S80.14,249.875,81.351,249.875z"/>
			</g>
		</g>
	</g>
</g>
</svg>
