<?xml version="1.0" encoding="utf-8"?>
<!-- Generator: Adobe Illustrator 15.1.0, SVG Export Plug-In . SVG Version: 6.00 Build 0)  -->
<!DOCTYPE svg PUBLIC "-//W3C//DTD SVG 1.1//EN" "http://www.w3.org/Graphics/SVG/1.1/DTD/svg11.dtd">
<svg version="1.1" id="Layer_1" xmlns="http://www.w3.org/2000/svg" xmlns:xlink="http://www.w3.org/1999/xlink" x="0px" y="0px"
	 width="1105.445px" height="766.725px" viewBox="0 0 1105.445 766.725" enable-background="new 0 0 1105.445 766.725"
	 xml:space="preserve">
<g id="_x31_st_Floor_-_Vector">
	<polygon fill="#003D7D" points="351.889,467.059 351.889,517.392 351.91,517.392 351.936,462.392 351.91,467.059 	"/>
	<polygon fill="#333333" stroke="#E6E6E6" stroke-miterlimit="10" points="738.889,249.058 738.889,271.725 738.889,375.059 
		777.889,375.059 789.889,375.059 789.889,249.058 	"/>
	<rect x="738.889" y="375.059" fill="#333333" stroke="#E6E6E6" stroke-miterlimit="10" width="39" height="76"/>
	<polygon fill="#333333" stroke="#E6E6E6" stroke-miterlimit="10" points="738.889,271.725 576.556,271.725 576.556,335.725 
		576.556,378.392 576.556,432.392 576.556,439.892 576.556,467.059 577.056,467.059 738.889,467.059 738.889,451.059 
		738.889,375.059 	"/>
	<polygon fill="#333333" stroke="#E6E6E6" stroke-miterlimit="10" points="576.556,467.059 576.556,496.892 549.389,496.892 
		549.389,583.312 646.389,583.725 739.389,583.725 739.389,467.059 738.889,467.059 577.056,467.059 	"/>
	<polygon fill="#333333" stroke="#E6E6E6" stroke-miterlimit="10" points="298.889,467.059 237.223,467.059 155.889,467.059 
		155.889,591.059 343.889,591.059 343.889,538.392 343.889,467.059 	"/>
	<polygon fill="#333333" stroke="#E6E6E6" stroke-miterlimit="10" points="351.91,517.392 351.889,517.392 351.889,467.059 
		343.889,467.059 343.889,583.226 371.339,583.249 371.339,517.392 	"/>
	<polygon fill="#333333" stroke="#E6E6E6" stroke-miterlimit="10" points="493.139,496.892 493.139,539.892 493.139,539.892 
		493.139,567.643 493.139,567.643 493.139,583.312 511.056,583.229 549.389,583.229 549.389,496.892 	"/>
	<rect x="535.889" y="335.725" fill="#333333" stroke="#E6E6E6" stroke-miterlimit="10" width="40.667" height="42.667"/>
	<polygon fill="#003D7D" stroke="#E6E6E6" stroke-miterlimit="10" points="533.389,162.392 533.389,174.392 576.556,174.392 
		576.556,150.392 533.389,150.392 	"/>
	<rect x="533.389" y="128.892" fill="#003D7D" stroke="#E6E6E6" stroke-miterlimit="10" width="43.167" height="21.5"/>
	<rect x="533.389" y="108.392" fill="#003D7D" stroke="#E6E6E6" stroke-miterlimit="10" width="43.167" height="20.5"/>
	<polygon fill="#003D7D" stroke="#E6E6E6" stroke-miterlimit="10" points="533.389,204.392 533.389,215.392 490.389,215.392 
		490.389,240.892 523.389,240.892 533.389,240.892 576.556,240.892 576.556,204.392 	"/>
	<polygon fill="#003D7D" stroke="#E6E6E6" stroke-miterlimit="10" points="533.389,204.392 533.389,189.392 490.389,189.392 
		490.389,215.392 533.389,215.392 	"/>
	<polygon fill="#003D7D" stroke="#E6E6E6" stroke-miterlimit="10" points="533.389,174.392 533.389,162.392 490.389,162.392 
		490.389,189.392 533.389,189.392 533.389,204.392 576.556,204.392 576.556,174.392 	"/>
	<polygon fill="#003D7D" stroke="#E6E6E6" stroke-miterlimit="10" points="420.889,295.892 471.389,295.892 471.389,271.725 
		471.389,136.392 420.889,136.392 420.889,271.725 	"/>
	<polygon fill="#003D7D" stroke="#E6E6E6" stroke-miterlimit="10" points="385.889,295.892 420.889,295.892 420.889,271.725 
		420.889,136.392 385.889,136.392 385.889,142.392 385.889,271.725 	"/>
	<polygon fill="#003D7D" stroke="#E6E6E6" stroke-miterlimit="10" points="292.389,160.809 292.389,274.625 292.389,295.892 
		385.889,295.892 385.889,274.625 385.889,160.809 374.389,160.809 303.889,160.809 	"/>
	<polygon fill="#003D7D" stroke="#E6E6E6" stroke-miterlimit="10" points="292.389,161.045 175.389,161.045 175.389,295.892 
		237.223,295.892 292.389,295.892 292.389,274.662 	"/>
	<polygon fill="#003D7D" stroke="#E6E6E6" stroke-miterlimit="10" points="303.889,135.392 374.389,135.392 374.389,125.392 
		374.389,108.392 303.889,108.392 303.889,125.392 	"/>
	<rect x="97.889" y="108.392" fill="#003D7D" stroke="#E6E6E6" stroke-miterlimit="10" width="206" height="17"/>
	<rect x="374.389" y="108.392" fill="#003D7D" stroke="#E6E6E6" stroke-miterlimit="10" width="139.5" height="17"/>
	<rect x="36.556" y="211.142" fill="#003D7D" stroke="#E6E6E6" stroke-miterlimit="10" width="30.833" height="34.25"/>
	<polygon fill="#003D7D" stroke="#E6E6E6" stroke-miterlimit="10" points="348.889,309.059 265.889,309.059 265.889,335.725 
		298.889,335.725 348.889,335.725 	"/>
	<rect x="535.889" y="271.725" fill="#003D7D" stroke="#E6E6E6" stroke-miterlimit="10" width="40.667" height="64"/>
	<polygon fill="#E6E6E6" points="385.889,335.725 369.389,335.725 348.889,335.725 348.889,393.892 298.889,393.892 
		298.889,429.892 298.889,432.392 385.889,432.392 	"/>
	<polygon fill="#003D7D" stroke="#E6E6E6" stroke-miterlimit="10" points="298.889,432.392 298.889,429.892 298.889,393.892 
		298.889,335.725 265.889,335.725 237.223,335.725 237.223,335.726 237.223,351.725 237.223,351.726 217.889,351.726 
		217.889,451.059 237.223,451.059 237.223,467.059 298.889,467.059 	"/>
	<rect x="298.889" y="335.725" fill="#003D7D" stroke="#E6E6E6" stroke-miterlimit="10" width="50" height="58.167"/>
	<polygon fill="#333333" stroke="#E6E6E6" stroke-miterlimit="10" points="298.889,432.392 298.889,467.059 343.889,467.059 
		351.889,467.059 351.91,467.059 351.936,462.392 371.723,462.392 374.389,462.392 374.389,432.392 	"/>
	<polygon fill="#003D7D" stroke="#E6E6E6" stroke-miterlimit="10" points="385.889,369.079 385.889,439.828 535.889,439.828 
		535.889,400.307 535.889,369.079 	"/>
	<rect x="443.389" y="583.229" fill="#003D7D" width="49.75" height="0.082"/>
	<polygon fill="#333333" stroke="#E6E6E6" stroke-miterlimit="10" points="493.139,539.892 443.389,539.892 443.389,556.392 
		443.389,583.249 493.139,583.249 	"/>
	<polygon fill="#E6E6E6" points="535.889,433.892 535.889,439.828 374.389,439.828 374.389,462.392 443.389,462.392 
		463.723,462.392 463.723,467.059 576.556,467.059 576.556,439.892 535.889,439.892 	"/>
	<rect x="535.889" y="378.392" fill="#003D7D" stroke="#E6E6E6" stroke-miterlimit="10" width="40.667" height="61.5"/>
	<polygon fill="#003D7D" stroke="#E6E6E6" stroke-miterlimit="10" points="351.936,462.392 351.91,517.392 371.339,517.392 
		371.339,533.392 371.339,583.271 443.389,583.271 443.389,539.892 443.389,517.059 463.723,517.059 463.723,496.892 
		463.723,467.059 463.723,462.392 	"/>
	<polygon fill="#003D7D" stroke="#E6E6E6" stroke-miterlimit="10" points="463.723,451.059 463.723,496.892 463.723,517.059 
		443.389,517.059 443.389,539.892 493.139,539.892 493.139,496.892 549.389,496.892 576.556,496.892 576.556,451.059 	"/>
	<polygon fill="none" points="385.889,160.808 292.389,160.808 98.389,161.045 175.389,161.045 175.389,295.892 237.223,295.892 
		292.389,295.892 385.889,295.892 420.889,295.892 471.389,295.892 471.389,271.725 471.389,136.392 385.889,136.392 	"/>
	<path fill="#E6E6E6" stroke="#E6E6E6" stroke-miterlimit="10" d="M533.33,240.833h-9.94v0.058h-33v-25.5v-26v-27h43v-12v-21.5
		v-20.5h-19.5v17h-139.5v10h-70.5v-10h-206v-17H36.556v102.75h30.833v34.25H36.556v27.333v63h200.667h28.667v-26.667h83v26.667h25.5
		v33.354h161.5v-97.12h40.349v-31.126L533.33,240.833L533.33,240.833z M471.389,271.725v24.167h-50.5h-35h-93.5h-55.167h-61.833
		v15.5h-77v-15.5V161.045l194-0.237h93.5v-24.417h85.5V271.725z"/>
	<polygon fill="#003D7D" stroke="#E6E6E6" stroke-miterlimit="10" points="98.389,161.045 98.389,311.392 175.389,311.392 
		175.389,295.892 175.389,161.045 	"/>
	<rect x="348.889" y="309.059" fill="#003D7D" stroke="#E6E6E6" stroke-miterlimit="10" width="16.5" height="84.833"/>
	<rect x="374.389" y="432.392" fill="#E6E6E6" width="11.5" height="7.438"/>
	<path fill="none" stroke="#333333" stroke-width="3" stroke-miterlimit="10" d="M567.222,578.593"/>
	<polygon fill="none" stroke="#333333" stroke-width="3" stroke-miterlimit="10" points="738.57,248.641 738.57,271.309 
		576.237,271.309 576.237,107.975 36.236,107.975 36.236,335.309 236.903,335.309 236.903,351.309 217.57,351.309 217.57,450.642 
		236.903,450.642 236.903,466.642 155.57,466.642 155.57,590.642 343.57,590.642 343.57,582.809 738.987,583.308 738.986,450.642 
		777.57,450.642 777.57,374.642 789.57,374.642 789.57,248.641 	"/>
</g>
<g id="Key_-_1st_Floor">
	<rect x="861.674" y="85.73" fill="none" width="26.386" height="16.734"/>
	<text transform="matrix(1 0 0 1 876.3848 95.7266)" fill="#333333" font-family="'HelveticaNeue'" font-size="14">1.</text>
	<rect x="861.674" y="122.007" fill="none" width="26.386" height="16.734"/>
	<text transform="matrix(1 0 0 1 876.3848 132.0039)" fill="#333333" font-family="'HelveticaNeue'" font-size="14">3.</text>
	<rect x="861.674" y="140.146" fill="none" width="26.386" height="16.734"/>
	<text transform="matrix(1 0 0 1 876.3848 150.1416)" fill="#333333" font-family="'HelveticaNeue'" font-size="14">4. </text>
	<rect x="861.674" y="158.284" fill="none" width="26.386" height="16.734"/>
	<text transform="matrix(1 0 0 1 876.3848 168.2803)" fill="#333333" font-family="'HelveticaNeue'" font-size="14">5.</text>
	<rect x="861.674" y="176.423" fill="none" width="26.386" height="16.734"/>
	<text transform="matrix(1 0 0 1 876.3848 186.4189)" fill="#333333" font-family="'HelveticaNeue'" font-size="14">6.</text>
	<rect x="861.674" y="194.562" fill="none" width="26.386" height="16.734"/>
	<text transform="matrix(1 0 0 1 876.3848 204.5576)" fill="#333333" font-family="'HelveticaNeue'" font-size="14">7.</text>
	<rect x="861.674" y="212.7" fill="none" width="26.386" height="16.734"/>
	<text transform="matrix(1 0 0 1 876.3848 222.6963)" fill="#333333" font-family="'HelveticaNeue'" font-size="14">8. </text>
	<rect x="861.674" y="103.869" fill="none" width="26.386" height="16.734"/>
	<text transform="matrix(1 0 0 1 876.3848 113.8643)" fill="#333333" font-family="'HelveticaNeue'" font-size="14">2.</text>
	<rect x="861.674" y="230.838" fill="none" width="26.386" height="16.734"/>
	<text transform="matrix(1 0 0 1 876.3848 240.834)" fill="#333333" font-family="'HelveticaNeue'" font-size="14">9.</text>
	<rect x="861.674" y="248.977" fill="none" width="26.386" height="16.734"/>
	<text transform="matrix(1 0 0 1 868.5996 258.9727)" fill="#333333" font-family="'HelveticaNeue'" font-size="14">10.</text>
	<rect x="861.674" y="267.116" fill="none" width="26.386" height="32.087"/>
	<text transform="matrix(1 0 0 1 868.5996 277.1113)" fill="#333333" font-family="'HelveticaNeue'" font-size="14">11.</text>
	<rect x="861.674" y="301.15" fill="none" width="26.523" height="16.734"/>
	<text transform="matrix(1 0 0 1 868.7383 311.1465)" fill="#333333" font-family="'HelveticaNeue'" font-size="14">12.</text>
	<rect x="861.674" y="319.289" fill="none" width="26.386" height="16.734"/>
	<text transform="matrix(1 0 0 1 868.5996 329.2852)" fill="#333333" font-family="'HelveticaNeue'" font-size="14">13.</text>
	<rect x="861.674" y="355.566" fill="none" width="26.386" height="16.734"/>
	<text transform="matrix(1 0 0 1 868.5996 365.5615)" fill="#333333" font-family="'HelveticaNeue'" font-size="14">15.</text>
	<rect x="861.674" y="391.433" fill="none" width="26.386" height="16.733"/>
	<text transform="matrix(1 0 0 1 868.5996 401.4277)" fill="#333333" font-family="'HelveticaNeue'" font-size="14">16.</text>
	<rect x="861.674" y="337.427" fill="none" width="26.386" height="16.735"/>
	<text transform="matrix(1 0 0 1 868.5996 347.4229)" fill="#333333" font-family="'HelveticaNeue'" font-size="14">14.</text>
	<rect x="896.909" y="103.869" fill="none" width="194.321" height="16.734"/>
	<text transform="matrix(1 0 0 1 896.9082 113.8643)" fill="#333333" font-family="'HelveticaNeue'" font-size="14">Government Documents</text>
	<rect x="896.909" y="122.007" fill="none" width="194.321" height="16.734"/>
	<text transform="matrix(1 0 0 1 896.9082 132.0029)" fill="#333333" font-family="'HelveticaNeue'" font-size="14">Journals</text>
	<rect x="896.909" y="140.146" fill="none" width="194.321" height="16.734"/>
	<text transform="matrix(1 0 0 1 896.9082 150.1416)" fill="#333333" font-family="'HelveticaNeue'" font-size="14">Books Q-Z</text>
	<rect x="896.909" y="158.284" fill="none" width="194.321" height="16.734"/>
	<text transform="matrix(1 0 0 1 896.9082 168.2803)" fill="#333333" font-family="'HelveticaNeue'" font-size="14">Oversized Books / Journals</text>
	<rect x="896.909" y="176.423" fill="none" width="194.321" height="16.734"/>
	<text transform="matrix(1 0 0 1 896.9082 186.4189)" fill="#333333" font-family="'HelveticaNeue'" font-size="14">Juvenile Collection</text>
	<rect x="896.909" y="194.562" fill="none" width="194.321" height="16.734"/>
	<text transform="matrix(1 0 0 1 896.9082 204.5576)" fill="#333333" font-family="'HelveticaNeue'" font-size="14">Video Viewing Room 107</text>
	<rect x="896.909" y="85.73" fill="none" width="194.321" height="16.734"/>
	<text transform="matrix(1 0 0 1 896.9082 95.7266)" fill="#333333" font-family="'HelveticaNeue'" font-size="14">Video Viewing Room 111</text>
	<rect x="896.909" y="212.7" fill="none" width="194.321" height="16.734"/>
	<text transform="matrix(1 0 0 1 896.9082 222.6953)" fill="#333333" font-family="'HelveticaNeue'" font-size="14">Video Viewing Room 108</text>
	<rect x="896.909" y="230.838" fill="none" width="194.321" height="16.734"/>
	<text transform="matrix(1 0 0 1 896.9082 240.834)" fill="#333333" font-family="'HelveticaNeue'" font-size="14">Cafe ‘41</text>
	<rect x="896.909" y="248.977" fill="none" width="194.321" height="16.734"/>
	<text transform="matrix(1 0 0 1 896.9082 258.9727)" fill="#333333" font-family="'HelveticaNeue'" font-size="14">Maps / Microfilm</text>
	<rect x="896.909" y="267.116" fill="none" width="195.335" height="32.087"/>
	<text transform="matrix(1 0 0 1 896.9082 277.1113)" fill="#333333" font-family="'HelveticaNeue'" font-size="14">Eells Library of Northwest </text>
	<text transform="matrix(1 0 0 1 896.9082 293.9121)" fill="#333333" font-family="'HelveticaNeue'" font-size="14">History</text>
	<rect x="896.909" y="301.15" fill="none" width="194.321" height="16.734"/>
	<text transform="matrix(1 0 0 1 896.9082 311.1465)" fill="#333333" font-family="'HelveticaNeue'" font-size="14">Office 115</text>
	<rect x="896.909" y="337.427" fill="none" width="194.321" height="16.735"/>
	<text transform="matrix(1 0 0 1 896.9082 347.4229)" fill="#333333" font-family="'HelveticaNeue'" font-size="14">Stuart Room 131</text>
	<rect x="896.909" y="319.288" fill="none" width="194.321" height="16.734"/>
	<text transform="matrix(1 0 0 1 896.9082 329.2842)" fill="#333333" font-family="'HelveticaNeue'" font-size="14">Office 126</text>
	<rect x="896.909" y="355.566" fill="none" width="194.321" height="35.468"/>
	<text transform="matrix(1 0 0 1 896.9082 365.5625)" fill="#333333" font-family="'HelveticaNeue'" font-size="14">Archives and Special </text>
	<text transform="matrix(1 0 0 1 896.9082 382.3623)" fill="#333333" font-family="'HelveticaNeue'" font-size="14">Collections</text>
	<rect x="896.909" y="391.433" fill="none" width="194.321" height="16.733"/>
	<text transform="matrix(1 0 0 1 896.9082 401.4277)" fill="#333333" font-family="'HelveticaNeue'" font-size="14">Current Newspapers</text>
	<rect x="869.875" y="434.166" fill="none" width="190.668" height="16.734"/>
	<text transform="matrix(1 0 0 1 869.875 444.1611)" fill="#333333" font-family="'HelveticaNeue'" font-size="14">Limited Access Areas</text>
	<rect x="845.555" y="41.334" fill="none" width="249.813" height="26.474"/>
	<text transform="matrix(1 0 0 1 845.5547 62.7549)" fill="#333333" font-family="'HelveticaNeue'" font-size="30">First Floor</text>
	<rect x="845.555" y="18.334" fill="none" width="249.813" height="15.808"/>
	<text transform="matrix(1 0 0 1 845.5547 32.6133)" fill="#CCCCCC" font-family="'HelveticaNeue'" font-size="20">Penrose Library</text>
	<rect x="845.555" y="85.73" fill="#003D7D" width="14" height="322.436"/>
	<rect x="845.555" y="433.166" fill="#333333" width="14" height="14.211"/>
	<g>
		<g>
			<path fill="#FFFFFF" stroke="#003D7D" stroke-miterlimit="10" d="M323.889,349.1c-8.676,0-15.709,7.033-15.709,15.709
				c0,8.676,7.033,15.709,15.709,15.709c8.677,0,15.709-7.033,15.709-15.709C339.598,356.133,332.565,349.1,323.889,349.1z"/>
		</g>
		<path fill="#003D7D" d="M332.67,368.598c0-0.547-0.443-0.99-0.99-0.99h-4.716v-4.709c0-0.002,0-0.004,0-0.008
			c0-0.547-0.442-0.99-0.99-0.99h-4.715v-4.707c0-0.002,0-0.004,0-0.008c0-0.547-0.442-0.99-0.989-0.99h-5.706
			c-0.548,0-0.99,0.443-0.99,0.99c0,0.549,0.442,0.992,0.99,0.992h4.715v4.707c0,0.002,0,0.004,0,0.006
			c0,0.139,0.027,0.268,0.078,0.387c0.149,0.355,0.503,0.605,0.913,0.605c0.006,0,0.011,0,0.016,0h4.699v4.715l0,0l0,0
			c0,0.547,0.442,0.99,0.989,0.99h4.716v4.717c0,0.547,0.442,0.99,0.989,0.99s0.99-0.443,0.99-0.99v-5.699
			C332.669,368.602,332.67,368.6,332.67,368.598z"/>
	</g>
	<g>
		<g>
			<path fill="#FFFFFF" stroke="#003D7D" stroke-miterlimit="10" d="M554.837,240.716c-8.676,0-15.709,7.033-15.709,15.709
				c0,8.676,7.033,15.709,15.709,15.709s15.709-7.033,15.709-15.709C570.546,247.749,563.513,240.716,554.837,240.716z"/>
		</g>
		<path fill="#003D7D" d="M563.619,260.214c0-0.547-0.443-0.99-0.99-0.99h-4.716v-4.709c0-0.002,0-0.004,0-0.008
			c0-0.547-0.443-0.99-0.99-0.99h-4.715v-4.707c0-0.002,0-0.004,0-0.008c0-0.547-0.443-0.99-0.99-0.99h-5.706
			c-0.547,0-0.989,0.443-0.989,0.99c0,0.549,0.442,0.992,0.989,0.992h4.715v4.707c0,0.002,0,0.004,0,0.006
			c0,0.139,0.028,0.268,0.078,0.387c0.15,0.355,0.503,0.605,0.913,0.605c0.006,0,0.012,0,0.017,0h4.698v4.715l0,0l0,0
			c0,0.547,0.443,0.99,0.99,0.99h4.715v4.717c0,0.547,0.443,0.99,0.99,0.99s0.99-0.443,0.99-0.99v-5.699
			C563.618,260.218,563.619,260.216,563.619,260.214z"/>
	</g>
	<g>
		<g>
			<path fill="#FFFFFF" stroke="#003D7D" stroke-miterlimit="10" d="M511.89,186.683c-8.676,0-15.71,7.033-15.71,15.709
				c0,8.676,7.034,15.709,15.71,15.709c8.677,0,15.709-7.033,15.709-15.709C527.599,193.716,520.566,186.683,511.89,186.683z"/>
		</g>
		<g>
			<circle fill="#003D7D" cx="508.98" cy="202.331" r="1.055"/>
			<path fill="#003D7D" d="M507.655,207.062c0,0.236-0.19,0.426-0.427,0.426h-0.068c-0.235,0-0.426-0.189-0.426-0.426v-2.842
				c0-0.035,0.004-0.066,0.012-0.098c0.048-0.252,0.242-0.439,0.476-0.439h3.585c0.271,0,0.488,0.25,0.488,0.559
				c0,0.02-0.001,0.041-0.003,0.059v2.762c0,0.236-0.191,0.426-0.427,0.426h-0.068c-0.234,0-0.427-0.189-0.427-0.426v3.174
				c0,0.334-0.271,0.607-0.606,0.607h-0.099c-0.335,0-0.607-0.273-0.607-0.607v-2.916h-0.087v2.916c0,0.334-0.271,0.607-0.606,0.607
				h-0.099c-0.336,0-0.606-0.273-0.606-0.607L507.655,207.062z"/>
		</g>
		<g>
			<circle fill="#003D7D" cx="514.732" cy="202.331" r="1.055"/>
			<path fill="#003D7D" d="M513.407,207.062c0,0.236-0.19,0.426-0.427,0.426h-0.068c-0.235,0-0.426-0.189-0.426-0.426v-2.842
				c0-0.035,0.004-0.066,0.012-0.098c0.048-0.252,0.242-0.439,0.476-0.439h3.585c0.271,0,0.487,0.25,0.487,0.559
				c0,0.02,0,0.041-0.002,0.059v2.762c0,0.236-0.19,0.426-0.427,0.426h-0.068c-0.234,0-0.427-0.189-0.427-0.426v3.174
				c0,0.334-0.271,0.607-0.607,0.607h-0.098c-0.335,0-0.607-0.273-0.607-0.607v-2.916h-0.087v2.916c0,0.334-0.271,0.607-0.606,0.607
				h-0.099c-0.336,0-0.606-0.273-0.606-0.607L513.407,207.062z"/>
		</g>
		<path fill="#003D7D" d="M518.426,197.337h-13.072c-0.761,0-1.377,0.615-1.377,1.375v13.074c0,0.76,0.616,1.375,1.377,1.375h13.072
			c0.76,0,1.376-0.615,1.376-1.375v-13.074C519.802,197.952,519.186,197.337,518.426,197.337z M518.083,211.442h-12.385v-12.385
			h12.385V211.442z"/>
		<path fill="#003D7D" d="M515.146,196.247c0.009,0.008,0.017,0.012,0.023,0.02c0.024,0.021,0.049,0.043,0.075,0.061
			c0.02,0.014,0.042,0.023,0.062,0.035c0.018,0.008,0.031,0.018,0.05,0.025c0.025,0.012,0.053,0.018,0.078,0.025
			c0.016,0.004,0.028,0.01,0.045,0.012c0.036,0.008,0.073,0.012,0.111,0.012c0.006,0,0.011,0.002,0.018,0.002
			c0.006,0,0.011-0.002,0.017-0.002c0.038,0,0.075-0.004,0.112-0.012c0.016-0.002,0.026-0.008,0.042-0.012
			c0.026-0.008,0.055-0.014,0.08-0.025c0.019-0.008,0.032-0.018,0.051-0.027c0.021-0.01,0.042-0.02,0.062-0.033
			c0.031-0.02,0.06-0.043,0.086-0.068c0.005-0.004,0.011-0.008,0.015-0.012l0,0l0,0l2.379-2.379
			c0.256-0.258,0.256-0.672,0.001-0.928c-0.257-0.256-0.672-0.256-0.928,0l-1.261,1.26v-3.439c0-0.361-0.294-0.656-0.654-0.656
			c-0.361,0.002-0.655,0.295-0.655,0.656v3.439l-1.261-1.26c-0.256-0.256-0.671-0.256-0.929,0c-0.255,0.256-0.255,0.67,0.002,0.928
			L515.146,196.247L515.146,196.247L515.146,196.247z"/>
		<path fill="#003D7D" d="M508.632,190.298c-0.007-0.008-0.017-0.014-0.022-0.021c-0.024-0.021-0.049-0.043-0.075-0.061
			c-0.021-0.014-0.042-0.023-0.063-0.035c-0.017-0.008-0.031-0.018-0.049-0.025c-0.026-0.012-0.053-0.018-0.079-0.023
			c-0.015-0.004-0.028-0.01-0.043-0.014c-0.038-0.008-0.075-0.01-0.113-0.012c-0.006,0-0.012-0.002-0.017-0.002
			s-0.011,0.002-0.017,0.002c-0.037,0.002-0.075,0.004-0.112,0.012c-0.015,0.004-0.027,0.01-0.042,0.014
			c-0.027,0.006-0.055,0.014-0.08,0.023c-0.018,0.008-0.033,0.018-0.051,0.027c-0.021,0.01-0.042,0.02-0.062,0.033
			c-0.029,0.021-0.059,0.045-0.085,0.07c-0.005,0.004-0.009,0.006-0.014,0.012l0,0l0,0l-2.379,2.379
			c-0.257,0.256-0.257,0.67-0.001,0.926c0.257,0.256,0.672,0.256,0.928,0l1.26-1.26v3.441c0,0.361,0.293,0.654,0.655,0.654
			s0.655-0.293,0.655-0.656v-3.439l1.261,1.26c0.256,0.256,0.671,0.258,0.928,0c0.255-0.256,0.255-0.67-0.001-0.926L508.632,190.298
			L508.632,190.298L508.632,190.298z"/>
	</g>
	<g>
		<g>
			<path fill="#FFFFFF" stroke="#003D7D" stroke-miterlimit="10" d="M502.472,126.892c-8.561,0-15.5,6.939-15.5,15.5
				s6.939,15.5,15.5,15.5c8.562,0,15.5-6.939,15.5-15.5S511.033,126.892,502.472,126.892z"/>
		</g>
		<rect x="495.181" y="131.873" fill="#FFFFFF" stroke="#003D7D" stroke-miterlimit="10" width="14.498" height="10.343"/>
		<path fill="#003D7D" d="M513.952,145.945c0,0.635-0.514,1.148-1.147,1.148h-21.126c-0.635,0-1.147-0.514-1.147-1.148v-7.459
			c0-0.635,0.514-1.148,1.147-1.148h21.126c0.635,0,1.147,0.514,1.147,1.148V145.945z"/>
		<rect x="492.482" y="138.999" fill="#FFFFFF" width="2.983" height="1.32"/>
		<rect x="495.181" y="142.392" fill="#FFFFFF" stroke="#003D7D" stroke-miterlimit="10" width="14.498" height="10.343"/>
		<rect x="497.208" y="144.176" fill="#003D7D" width="10.18" height="2.286"/>
		<rect x="497.208" y="148.137" fill="#003D7D" width="5.23" height="2.286"/>
	</g>
	<g>
		<g>
			<g>
				<path fill="#FFFFFF" stroke="#003D7D" stroke-miterlimit="10" d="M517.045,471.269c-6.08,0-11.01,4.931-11.01,11.011
					s4.93,11.01,11.01,11.01s11.01-4.93,11.01-11.01S523.125,471.269,517.045,471.269z"/>
			</g>
		</g>
		<rect x="506.262" y="477.351" fill="none" width="21.297" height="11.259"/>
		<text transform="matrix(1 0 0 1 509.2866 487.1406)" fill="#003D7D" font-family="'HelveticaNeue'" font-size="13.7123">15</text>
	</g>
	<g>
		<g>
			<g>
				<path fill="#FFFFFF" stroke="#003D7D" stroke-miterlimit="10" d="M50.478,217.257c-6.08,0-11.01,4.93-11.01,11.01
					s4.93,11.01,11.01,11.01s11.01-4.93,11.01-11.01S56.558,217.257,50.478,217.257z"/>
			</g>
		</g>
		<rect x="39.695" y="223.339" fill="none" width="21.297" height="11.258"/>
		<text transform="matrix(1 0 0 1 46.5317 233.1289)" fill="#003D7D" font-family="'HelveticaNeue'" font-size="13.7123">1</text>
	</g>
	<g>
		<g>
			<g>
				<path fill="#FFFFFF" stroke="#003D7D" stroke-miterlimit="10" d="M136.889,217.257c-6.08,0-11.01,4.93-11.01,11.01
					s4.93,11.01,11.01,11.01s11.01-4.93,11.01-11.01S142.969,217.257,136.889,217.257z"/>
			</g>
		</g>
		<rect x="126.106" y="223.339" fill="none" width="21.297" height="11.258"/>
		<text transform="matrix(1 0 0 1 132.9429 233.1289)" fill="#003D7D" font-family="'HelveticaNeue'" font-size="13.7123">2</text>
	</g>
	<g>
		<g>
			<g>
				<path fill="#FFFFFF" stroke="#003D7D" stroke-miterlimit="10" d="M233.889,217.257c-6.08,0-11.01,4.93-11.01,11.01
					s4.93,11.01,11.01,11.01s11.01-4.93,11.01-11.01S239.969,217.257,233.889,217.257z"/>
			</g>
		</g>
		<rect x="223.106" y="223.339" fill="none" width="21.297" height="11.258"/>
		<text transform="matrix(1 0 0 1 229.9429 233.1289)" fill="#003D7D" font-family="'HelveticaNeue'" font-size="13.7123">3</text>
	</g>
	<g>
		<g>
			<g>
				<path fill="#FFFFFF" stroke="#003D7D" stroke-miterlimit="10" d="M340.667,217.257c-6.08,0-11.01,4.93-11.01,11.01
					s4.93,11.01,11.01,11.01s11.01-4.93,11.01-11.01S346.748,217.257,340.667,217.257z"/>
			</g>
		</g>
		<rect x="329.884" y="223.339" fill="none" width="21.297" height="11.258"/>
		<text transform="matrix(1 0 0 1 336.7212 233.1289)" fill="#003D7D" font-family="'HelveticaNeue'" font-size="13.7123">4</text>
	</g>
	<g>
		<g>
			<g>
				<path fill="#FFFFFF" stroke="#003D7D" stroke-miterlimit="10" d="M403.389,217.257c-6.08,0-11.01,4.93-11.01,11.01
					s4.93,11.01,11.01,11.01c6.081,0,11.011-4.93,11.011-11.01S409.469,217.257,403.389,217.257z"/>
			</g>
		</g>
		<rect x="392.605" y="223.339" fill="none" width="21.297" height="11.258"/>
		<text transform="matrix(1 0 0 1 399.4424 233.1289)" fill="#003D7D" font-family="'HelveticaNeue'" font-size="13.7123">5</text>
	</g>
	<g>
		<g>
			<g>
				<path fill="#FFFFFF" stroke="#003D7D" stroke-miterlimit="10" d="M449.629,217.257c-6.08,0-11.01,4.93-11.01,11.01
					s4.93,11.01,11.01,11.01c6.081,0,11.011-4.93,11.011-11.01S455.71,217.257,449.629,217.257z"/>
			</g>
		</g>
		<rect x="438.846" y="223.339" fill="none" width="21.298" height="11.258"/>
		<text transform="matrix(1 0 0 1 445.6841 233.1289)" fill="#003D7D" font-family="'HelveticaNeue'" font-size="13.7123">6</text>
	</g>
	<g>
		<g>
			<g>
				<path fill="#FFFFFF" stroke="#003D7D" stroke-miterlimit="10" d="M556.86,106.632c-6.08,0-11.011,4.93-11.011,11.01
					s4.931,11.01,11.011,11.01c6.081,0,11.011-4.93,11.011-11.01S562.941,106.632,556.86,106.632z"/>
			</g>
		</g>
		<rect x="546.077" y="112.714" fill="none" width="21.298" height="11.258"/>
		<text transform="matrix(1 0 0 1 552.9146 122.5039)" fill="#003D7D" font-family="'HelveticaNeue'" font-size="13.7123">7</text>
	</g>
	<g>
		<g>
			<g>
				<path fill="#FFFFFF" stroke="#003D7D" stroke-miterlimit="10" d="M556.86,129.153c-6.08,0-11.011,4.93-11.011,11.01
					s4.931,11.01,11.011,11.01c6.081,0,11.011-4.93,11.011-11.01S562.941,129.153,556.86,129.153z"/>
			</g>
		</g>
		<rect x="546.077" y="135.235" fill="none" width="21.298" height="11.258"/>
		<text transform="matrix(1 0 0 1 552.9146 145.0254)" fill="#003D7D" font-family="'HelveticaNeue'" font-size="13.7123">8</text>
	</g>
	<g>
		<g>
			<g>
				<path fill="#FFFFFF" stroke="#003D7D" stroke-miterlimit="10" d="M258.129,390.048c-6.08,0-11.01,4.93-11.01,11.01
					s4.93,11.011,11.01,11.011c6.081,0,11.011-4.931,11.011-11.011S264.21,390.048,258.129,390.048z"/>
			</g>
		</g>
		<rect x="247.346" y="396.13" fill="none" width="21.298" height="11.258"/>
		<text transform="matrix(1 0 0 1 254.1831 405.9199)" fill="#003D7D" font-family="'HelveticaNeue'" font-size="13.7123">9</text>
	</g>
	<g>
		<g>
			<g>
				<path fill="#FFFFFF" stroke="#003D7D" stroke-miterlimit="10" d="M460.889,393.442c-6.08,0-11.01,4.931-11.01,11.011
					s4.93,11.01,11.01,11.01s11.011-4.93,11.011-11.01S466.969,393.442,460.889,393.442z"/>
			</g>
		</g>
		<rect x="450.106" y="399.525" fill="none" width="21.297" height="11.258"/>
		<text transform="matrix(1 0 0 1 453.1304 409.3154)" fill="#003D7D" font-family="'HelveticaNeue'" font-size="13.7123">11</text>
	</g>
	<g>
		<g>
			<g>
				<path fill="#FFFFFF" stroke="#003D7D" stroke-miterlimit="10" d="M554.972,293.121c-6.08,0-11.01,4.93-11.01,11.01
					s4.93,11.01,11.01,11.01s11.011-4.93,11.011-11.01S561.052,293.121,554.972,293.121z"/>
			</g>
		</g>
		<rect x="544.189" y="299.203" fill="none" width="21.297" height="11.258"/>
		<text transform="matrix(1 0 0 1 547.2134 308.9932)" fill="#003D7D" font-family="'HelveticaNeue'" font-size="13.7123">12</text>
	</g>
	<g>
		<g>
			<g>
				<path fill="#FFFFFF" stroke="#003D7D" stroke-miterlimit="10" d="M523.792,293.121c-6.08,0-11.01,4.93-11.01,11.01
					s4.93,11.01,11.01,11.01s11.01-4.93,11.01-11.01S529.872,293.121,523.792,293.121z"/>
			</g>
		</g>
		<rect x="513.008" y="299.203" fill="none" width="21.297" height="11.258"/>
		<text transform="matrix(1 0 0 1 516.0327 308.9932)" fill="#003D7D" font-family="'HelveticaNeue'" font-size="13.7123">16</text>
	</g>
	<g>
		<g>
			<g>
				<path fill="#FFFFFF" stroke="#003D7D" stroke-miterlimit="10" d="M554.972,399.799c-6.08,0-11.01,4.93-11.01,11.01
					s4.93,11.011,11.01,11.011s11.011-4.931,11.011-11.011S561.052,399.799,554.972,399.799z"/>
			</g>
		</g>
		<rect x="544.189" y="405.881" fill="none" width="21.297" height="11.258"/>
		<text transform="matrix(1 0 0 1 547.2134 415.6709)" fill="#003D7D" font-family="'HelveticaNeue'" font-size="13.7123">13</text>
	</g>
	<g>
		<g>
			<g>
				<path fill="#FFFFFF" stroke="#003D7D" stroke-miterlimit="10" d="M405.889,489.864c-6.08,0-11.01,4.93-11.01,11.01
					s4.93,11.01,11.01,11.01s11.011-4.93,11.011-11.01S411.969,489.864,405.889,489.864z"/>
			</g>
		</g>
		<rect x="395.106" y="495.946" fill="none" width="21.297" height="11.258"/>
		<text transform="matrix(1 0 0 1 398.1304 505.7363)" fill="#003D7D" font-family="'HelveticaNeue'" font-size="13.7123">14</text>
	</g>
	<g>
		<g>
			<g>
				<path fill="#FFFFFF" stroke="#003D7D" stroke-miterlimit="10" d="M362.056,340.299c-6.08,0-11.01,4.93-11.01,11.01
					s4.93,11.01,11.01,11.01s11.011-4.93,11.011-11.01S368.136,340.299,362.056,340.299z"/>
			</g>
		</g>
		<rect x="351.273" y="346.381" fill="none" width="21.297" height="11.258"/>
		<text transform="matrix(1 0 0 1 354.2974 356.1709)" fill="#003D7D" font-family="'HelveticaNeue'" font-size="13.7123">10</text>
	</g>
	<g>
		<g>
			<path fill="#FFFFFF" stroke="#003D7D" stroke-miterlimit="10" d="M217.889,101.757c-8.56,0-15.5,6.939-15.5,15.5
				s6.94,15.5,15.5,15.5c8.561,0,15.5-6.939,15.5-15.5S226.45,101.757,217.889,101.757z"/>
		</g>
		<path fill="#003D7D" d="M225.313,107.083h-14.7c-0.634,0-1.147,0.514-1.147,1.147v9.237c0,0.634,0.514,1.147,1.147,1.147h5.512
			v1.505h-2.584v1.124h8.845v-1.124h-2.583v-1.505h5.511c0.634,0,1.148-0.514,1.148-1.147v-9.237
			C226.461,107.596,225.947,107.083,225.313,107.083z M225.311,116.867c0,0.317-0.257,0.574-0.573,0.574h-13.549
			c-0.316,0-0.574-0.257-0.574-0.574v-8.037c0-0.316,0.258-0.573,0.574-0.573h13.549c0.316,0,0.573,0.257,0.573,0.573V116.867z"/>
		<path fill="#003D7D" d="M227.697,125.501c0.336,0.277-0.293,0.489-0.655,0.489h-18.29c-0.362,0-1.028-0.098-0.655-0.489
			l2.618-2.686c0.303-0.327,0.608-0.489,1.176-0.489h11.78c0.895,0,1.047,0.162,1.408,0.489L227.697,125.501z"/>
	</g>
	<g>
		<g>
			<path fill="#FFFFFF" stroke="#003D7D" stroke-miterlimit="10" d="M431.889,101.757c-8.56,0-15.5,6.939-15.5,15.5
				s6.94,15.5,15.5,15.5c8.562,0,15.5-6.939,15.5-15.5S440.45,101.757,431.889,101.757z"/>
		</g>
		<path fill="#003D7D" d="M439.312,107.083h-14.699c-0.635,0-1.147,0.514-1.147,1.147v9.237c0,0.634,0.515,1.147,1.147,1.147h5.512
			v1.505h-2.584v1.124h8.845v-1.124h-2.583v-1.505h5.511c0.635,0,1.148-0.514,1.148-1.147v-9.237
			C440.461,107.596,439.947,107.083,439.312,107.083z M439.311,116.867c0,0.317-0.257,0.574-0.572,0.574h-13.549
			c-0.316,0-0.574-0.257-0.574-0.574v-8.037c0-0.316,0.258-0.573,0.574-0.573h13.549c0.315,0,0.572,0.257,0.572,0.573V116.867z"/>
		<path fill="#003D7D" d="M441.697,125.501c0.336,0.277-0.293,0.489-0.655,0.489h-18.29c-0.362,0-1.028-0.098-0.655-0.489
			l2.618-2.686c0.303-0.327,0.608-0.489,1.176-0.489h11.78c0.896,0,1.047,0.162,1.408,0.489L441.697,125.501z"/>
	</g>
	<g>
		<g>
			<g>
				<g>
					<path fill="#FFFFFF" stroke="#003D7D" stroke-miterlimit="10" d="M554.07,173.892c-8.562,0-15.5,6.939-15.5,15.5
						s6.938,15.5,15.5,15.5c8.56,0,15.5-6.939,15.5-15.5S562.629,173.892,554.07,173.892z"/>
				</g>
			</g>
		</g>
		<g>
			<circle fill="#003D7D" cx="553.955" cy="180.745" r="2.473"/>
			<path fill="#003D7D" d="M558.293,183.893c-0.134,0-0.261,0.025-0.379,0.069c-0.088-0.043-0.186-0.069-0.29-0.069h-1.006
				c-0.029-0.004-0.061-0.009-0.092-0.009h-4.99c-0.032,0-0.062,0.005-0.093,0.009h-1.005c-0.104,0-0.202,0.026-0.291,0.069
				c-0.117-0.044-0.245-0.069-0.38-0.069c-0.604,0-1.097,0.491-1.097,1.097v6.733c0,0.606,0.491,1.097,1.097,1.097
				c0.312,0,0.59-0.128,0.789-0.334l-1.828,4.131h2.404v2.756c0,0.702,0.568,1.27,1.271,1.27s1.271-0.568,1.271-1.27v-2.756h0.714
				v2.756c0,0.702,0.569,1.27,1.271,1.27s1.271-0.568,1.271-1.27v-2.756h2.365l-1.789-4.131c0.2,0.206,0.479,0.334,0.788,0.334
				c0.606,0,1.097-0.491,1.097-1.097v-6.733C559.39,184.384,558.9,183.893,558.293,183.893z"/>
		</g>
	</g>
	<g>
		<g>
			<g>
				<g>
					<path fill="#FFFFFF" stroke="#003D7D" stroke-miterlimit="10" d="M554.07,207.079c-8.561,0-15.5,6.939-15.5,15.5
						s6.939,15.5,15.5,15.5s15.5-6.939,15.5-15.5S562.63,207.079,554.07,207.079z"/>
				</g>
			</g>
		</g>
		<g>
			<circle fill="#003D7D" cx="553.993" cy="213.86" r="2.473"/>
			<path fill="#003D7D" d="M558.333,217.008c-0.134,0-0.261,0.025-0.38,0.068c-0.088-0.042-0.187-0.068-0.289-0.068h-1.006
				c-0.029-0.004-0.062-0.01-0.092-0.01h-4.991c-0.032,0-0.062,0.005-0.092,0.01h-1.005c-0.105,0-0.203,0.026-0.291,0.068
				c-0.118-0.043-0.245-0.068-0.38-0.068c-0.604,0-1.097,0.491-1.097,1.097v6.733c0,0.606,0.491,1.097,1.097,1.097
				c0.606,0,1.099-0.491,1.099-1.097v-0.734c0,0.22,0.106,0.413,0.271,0.535c-0.001,0.019-0.003,0.037-0.003,0.056v7.793
				c0,0.701,0.568,1.27,1.271,1.27s1.271-0.569,1.271-1.27v-5.904h0.714v5.904c0,0.701,0.568,1.27,1.271,1.27
				c0.701,0,1.27-0.569,1.27-1.27v-7.793c0-0.019-0.002-0.038-0.003-0.056c0.164-0.122,0.271-0.315,0.271-0.535v0.734
				c0,0.606,0.491,1.097,1.098,1.097c0.607,0,1.097-0.491,1.097-1.097v-6.733C559.429,217.5,558.939,217.008,558.333,217.008z"/>
		</g>
	</g>
	<g>
		<g>
			<g>
				<g>
					<path fill="#FFFFFF" stroke="#003D7D" stroke-miterlimit="10" d="M856.044,500.867c-8.56,0-15.5,6.938-15.5,15.5
						c0,8.561,6.94,15.5,15.5,15.5c8.562,0,15.5-6.939,15.5-15.5C871.544,507.806,864.605,500.867,856.044,500.867z"/>
				</g>
			</g>
		</g>
		<g>
			<g>
				<circle fill="none" cx="851.392" cy="511.009" r="2.192"/>
				<path fill="#003D7D" d="M866.51,522.576l-6.202-6.202v-2.459c-0.053,0.112-0.125,0.22-0.219,0.312
					c-0.432,0.434-1.133,0.434-1.563,0l-1.711-1.71l-0.787,0.789l9.903,9.904c0.435,0.433,0.435,1.133,0,1.565
					c-0.432,0.433-1.133,0.433-1.563,0l-6.263-6.262l-1.688,1.688l2.548,2.548c0.432,0.432,0.432,1.133,0,1.564
					c-0.433,0.433-1.133,0.433-1.566,0l-3.295-3.296c-0.225-0.225-0.331-0.521-0.321-0.815c-0.01-0.295,0.098-0.593,0.321-0.818
					l1.688-1.688l-2.078-2.078l-1.745,1.744c-0.025,0.034-0.055,0.065-0.086,0.098c-0.218,0.218-0.503,0.326-0.788,0.324
					c-0.285,0.001-0.57-0.107-0.789-0.324c-0.03-0.031-0.059-0.062-0.085-0.097l-2.333-2.333c-0.432-0.434-0.432-1.133,0-1.565
					c0.433-0.432,1.133-0.433,1.564,0l1.643,1.643l4.937-4.937c0.424-0.424,1.104-0.432,1.539-0.022
					c0.031,0.024,0.062,0.053,0.092,0.082l2.43,2.43c0.094,0.094,0.166,0.199,0.219,0.312v-6.908h-13.244v20.273h13.244v-4.283
					l3.36,3.361c0.785,0.784,2.058,0.784,2.842,0C867.294,524.633,867.294,523.361,866.51,522.576z M851.392,508.817
					c1.212,0,2.192,0.98,2.192,2.191c0,1.21-0.98,2.191-2.192,2.191c-1.21,0-2.19-0.981-2.19-2.191S850.182,508.817,851.392,508.817
					z"/>
			</g>
		</g>
	</g>
	<rect x="1007.189" y="544.149" fill="none" width="84.001" height="16.733"/>
	<text transform="matrix(1 0 0 1 1007.1895 554.1455)" fill="#333333" font-family="'HelveticaNeue'" font-size="14">Stairs</text>
	<rect x="878.601" y="545.604" fill="none" width="84.001" height="16.734"/>
	<text transform="matrix(1 0 0 1 878.6016 555.6006)" fill="#333333" font-family="'HelveticaNeue'" font-size="14">Elevator</text>
	<rect x="1006.98" y="580.517" fill="none" width="84" height="16.734"/>
	<text transform="matrix(1 0 0 1 1006.9805 590.5127)" fill="#333333" font-family="'HelveticaNeue'" font-size="14">Printer</text>
	<g>
		<g>
			<path fill="#FFFFFF" stroke="#003D7D" stroke-miterlimit="10" d="M984.822,536.351c-8.676,0-15.709,7.033-15.709,15.709
				c0,8.677,7.033,15.709,15.709,15.709s15.709-7.032,15.709-15.709C1000.531,543.384,993.498,536.351,984.822,536.351z"/>
		</g>
		<path fill="#003D7D" d="M993.604,555.849c0-0.547-0.443-0.989-0.99-0.989h-4.716v-4.709c0-0.002,0-0.004,0-0.009
			c0-0.547-0.443-0.989-0.99-0.989h-4.715v-4.707c0-0.002,0-0.004,0-0.008c0-0.548-0.443-0.99-0.99-0.99h-5.706
			c-0.547,0-0.99,0.442-0.99,0.99c0,0.549,0.443,0.991,0.99,0.991h4.715v4.707c0,0.002,0,0.004,0,0.006
			c0,0.14,0.028,0.269,0.078,0.388c0.15,0.354,0.503,0.604,0.913,0.604c0.006,0,0.011,0,0.016,0h4.699v4.715l0,0l0,0
			c0,0.548,0.443,0.99,0.99,0.99h4.715v4.717c0,0.548,0.443,0.99,0.99,0.99s0.989-0.442,0.989-0.99v-5.698
			C993.602,555.854,993.604,555.851,993.604,555.849z"/>
	</g>
	<g>
		<g>
			<path fill="#FFFFFF" stroke="#003D7D" stroke-miterlimit="10" d="M856.235,536.625c-8.677,0-15.71,7.033-15.71,15.709
				s7.033,15.709,15.71,15.709c8.676,0,15.709-7.033,15.709-15.709S864.911,536.625,856.235,536.625z"/>
		</g>
		<g>
			<circle fill="#003D7D" cx="853.325" cy="552.273" r="1.055"/>
			<path fill="#003D7D" d="M852,557.004c0,0.236-0.19,0.426-0.426,0.426h-0.069c-0.235,0-0.426-0.188-0.426-0.426v-2.842
				c0-0.035,0.004-0.066,0.012-0.098c0.048-0.252,0.242-0.439,0.477-0.439h3.585c0.27,0,0.487,0.25,0.487,0.559
				c0,0.021-0.001,0.041-0.003,0.06v2.762c0,0.236-0.19,0.426-0.427,0.426h-0.068c-0.234,0-0.427-0.188-0.427-0.426v3.174
				c0,0.334-0.271,0.607-0.605,0.607h-0.1c-0.335,0-0.606-0.273-0.606-0.607v-2.916h-0.087v2.916c0,0.334-0.272,0.607-0.607,0.607
				h-0.098c-0.336,0-0.607-0.273-0.607-0.607L852,557.004z"/>
		</g>
		<g>
			<circle fill="#003D7D" cx="859.077" cy="552.273" r="1.055"/>
			<path fill="#003D7D" d="M857.751,557.004c0,0.236-0.19,0.426-0.426,0.426h-0.069c-0.234,0-0.426-0.188-0.426-0.426v-2.842
				c0-0.035,0.004-0.066,0.012-0.098c0.048-0.252,0.242-0.439,0.477-0.439h3.585c0.27,0,0.486,0.25,0.486,0.559
				c0,0.021,0,0.041-0.002,0.06v2.762c0,0.236-0.19,0.426-0.427,0.426h-0.068c-0.234,0-0.427-0.188-0.427-0.426v3.174
				c0,0.334-0.271,0.607-0.606,0.607h-0.099c-0.335,0-0.606-0.273-0.606-0.607v-2.916h-0.087v2.916c0,0.334-0.272,0.607-0.607,0.607
				h-0.098c-0.336,0-0.607-0.273-0.607-0.607L857.751,557.004z"/>
		</g>
		<path fill="#003D7D" d="M862.771,547.279h-13.073c-0.761,0-1.376,0.614-1.376,1.375v13.073c0,0.761,0.616,1.375,1.376,1.375
			h13.073c0.76,0,1.375-0.614,1.375-1.375v-13.073C864.146,547.895,863.531,547.279,862.771,547.279z M862.427,561.385h-12.385V549
			h12.385V561.385z"/>
		<path fill="#003D7D" d="M859.492,546.189c0.008,0.008,0.016,0.012,0.022,0.02c0.024,0.021,0.05,0.043,0.075,0.061
			c0.021,0.015,0.042,0.023,0.063,0.035c0.017,0.008,0.03,0.019,0.049,0.025c0.026,0.012,0.053,0.018,0.079,0.025
			c0.015,0.004,0.027,0.01,0.044,0.012c0.037,0.008,0.074,0.012,0.112,0.012c0.006,0,0.011,0.002,0.017,0.002
			s0.011-0.002,0.017-0.002c0.038,0,0.075-0.004,0.112-0.012c0.016-0.002,0.027-0.008,0.042-0.012
			c0.027-0.009,0.055-0.015,0.08-0.025c0.019-0.008,0.033-0.018,0.051-0.027c0.021-0.01,0.042-0.02,0.062-0.033
			c0.031-0.02,0.059-0.043,0.086-0.067c0.004-0.004,0.01-0.008,0.014-0.012l0,0l0,0l2.379-2.38c0.256-0.258,0.256-0.672,0.001-0.928
			c-0.257-0.256-0.672-0.256-0.928,0l-1.26,1.26v-3.438c0-0.361-0.294-0.656-0.655-0.656c-0.361,0.002-0.655,0.295-0.655,0.656
			v3.438l-1.261-1.26c-0.256-0.256-0.671-0.256-0.928,0c-0.255,0.256-0.255,0.67,0.002,0.928L859.492,546.189L859.492,546.189
			L859.492,546.189z"/>
		<path fill="#003D7D" d="M852.977,540.24c-0.007-0.008-0.017-0.015-0.022-0.021c-0.024-0.021-0.048-0.043-0.075-0.061
			c-0.02-0.014-0.042-0.023-0.062-0.035c-0.018-0.008-0.032-0.018-0.05-0.025c-0.025-0.012-0.053-0.018-0.079-0.022
			c-0.015-0.004-0.027-0.01-0.043-0.015c-0.037-0.008-0.074-0.01-0.112-0.012c-0.006,0-0.013-0.002-0.018-0.002
			s-0.011,0.002-0.017,0.002c-0.037,0.002-0.075,0.004-0.112,0.012c-0.015,0.005-0.026,0.011-0.042,0.015
			c-0.026,0.006-0.055,0.014-0.08,0.022c-0.018,0.009-0.033,0.019-0.051,0.027c-0.021,0.01-0.042,0.02-0.062,0.033
			c-0.029,0.021-0.059,0.045-0.085,0.07c-0.005,0.004-0.009,0.006-0.014,0.012l0,0l0,0l-2.379,2.379
			c-0.257,0.256-0.257,0.67-0.001,0.926c0.257,0.256,0.672,0.256,0.928,0l1.26-1.26v3.441c0,0.36,0.294,0.653,0.655,0.653
			c0.362,0,0.655-0.293,0.655-0.656v-3.438l1.261,1.26c0.256,0.256,0.671,0.258,0.929,0c0.255-0.256,0.255-0.67-0.002-0.926
			L852.977,540.24L852.977,540.24L852.977,540.24z"/>
	</g>
	<g>
		<g>
			<path fill="#FFFFFF" stroke="#003D7D" stroke-miterlimit="10" d="M984.613,571.973c-8.562,0-15.5,6.939-15.5,15.5
				c0,8.562,6.938,15.5,15.5,15.5c8.561,0,15.5-6.938,15.5-15.5C1000.113,578.912,993.173,571.973,984.613,571.973z"/>
		</g>
		<rect x="977.322" y="576.955" fill="#FFFFFF" stroke="#003D7D" stroke-miterlimit="10" width="14.498" height="10.342"/>
		<path fill="#003D7D" d="M996.092,591.027c0,0.635-0.514,1.147-1.146,1.147h-21.126c-0.636,0-1.148-0.514-1.148-1.147v-7.459
			c0-0.636,0.514-1.148,1.148-1.148h21.126c0.634,0,1.146,0.514,1.146,1.148V591.027z"/>
		<rect x="974.623" y="584.08" fill="#FFFFFF" width="2.984" height="1.32"/>
		<rect x="977.322" y="587.473" fill="#FFFFFF" stroke="#003D7D" stroke-miterlimit="10" width="14.498" height="10.345"/>
		<rect x="979.349" y="589.258" fill="#003D7D" width="10.181" height="2.285"/>
		<rect x="979.349" y="593.219" fill="#003D7D" width="5.23" height="2.285"/>
	</g>
	<rect x="878.601" y="581.711" fill="none" width="84.001" height="16.734"/>
	<text transform="matrix(1 0 0 1 878.6016 591.707)" fill="#333333" font-family="'HelveticaNeue'" font-size="14">Copier</text>
	<rect x="1007.189" y="616.884" fill="none" width="84.001" height="16.734"/>
	<text transform="matrix(1 0 0 1 1007.1895 626.8799)" fill="#333333" font-family="'HelveticaNeue'" font-size="14">Scanner</text>
	<g>
		<g>
			<path fill="#FFFFFF" stroke="#003D7D" stroke-miterlimit="10" d="M856.234,572.546c-8.562,0-15.5,6.939-15.5,15.5
				c0,8.562,6.938,15.5,15.5,15.5c8.561,0,15.5-6.938,15.5-15.5C871.734,579.485,864.794,572.546,856.234,572.546z"/>
		</g>
		<g>
			<path fill="#003D7D" d="M863.546,581.435l-7.503-0.011v-1.564l5.034-1.583v-1.228l-12.537,1.677
				c-0.596,0-1.079,0.482-1.079,1.079v4.615h17.165v-1.906C864.626,581.917,864.143,581.435,863.546,581.435z"/>
			<polygon fill="#003D7D" points="868.404,584.539 864.588,585.497 864.588,585.499 859.013,585.499 859.013,586.659 
				853.015,586.659 853.015,585.499 847.461,585.499 847.461,591.193 864.626,591.193 864.626,587.188 868.404,585.44 			"/>
			<path fill="#003D7D" d="M868.368,591.389l-3.741,0.938V592.3h-5.613v1.161h-5.998V592.3h-5.554v4.616
				c0,0.596,0.483,1.079,1.079,1.079h15.006c0.597,0,1.08-0.483,1.08-1.079v-2.895l3.741-1.731V591.389z"/>
		</g>
	</g>
	<rect x="878.601" y="617.817" fill="none" width="84.001" height="16.733"/>
	<text transform="matrix(1 0 0 1 878.6016 627.8135)" fill="#333333" font-family="'HelveticaNeue'" font-size="14">Computers</text>
	<g>
		<g>
			<path fill="#FFFFFF" stroke="#003D7D" stroke-miterlimit="10" d="M984.613,607.386c-8.562,0-15.5,6.939-15.5,15.5
				c0,8.562,6.938,15.5,15.5,15.5c8.561,0,15.5-6.938,15.5-15.5C1000.113,614.325,993.173,607.386,984.613,607.386z"/>
		</g>
		<g>
			<path fill="#003D7D" d="M973.433,628.524c0,0.954,0.774,1.729,1.73,1.729h18.726c0.956,0,1.73-0.775,1.73-1.729v-3.311h-22.188
				L973.433,628.524L973.433,628.524z M989.887,626.707h3.548c0.347,0,0.628,0.281,0.628,0.628c0,0.346-0.281,0.627-0.628,0.627
				h-3.548c-0.347,0-0.627-0.281-0.627-0.627C989.26,626.988,989.541,626.707,989.887,626.707z M987.451,626.707
				c0.346,0,0.627,0.281,0.627,0.628c0,0.346-0.281,0.627-0.627,0.627c-0.348,0-0.628-0.281-0.628-0.627
				C986.823,626.988,987.104,626.707,987.451,626.707z"/>
			<path fill="#003D7D" d="M994.755,622.486l-17.155-7.508c-0.876-0.383-1.896,0.018-2.278,0.893l20.325,8.895
				C996.03,623.89,995.63,622.87,994.755,622.486z"/>
		</g>
	</g>
	<g>
		<g>
			<path fill="#FFFFFF" stroke="#003D7D" stroke-miterlimit="10" d="M856.234,608.259c-8.561,0-15.5,6.939-15.5,15.5
				c0,8.562,6.939,15.5,15.5,15.5s15.5-6.938,15.5-15.5C871.734,615.198,864.794,608.259,856.234,608.259z"/>
		</g>
		<path fill="#003D7D" d="M863.658,613.584h-14.7c-0.634,0-1.147,0.514-1.147,1.146v9.237c0,0.634,0.515,1.147,1.147,1.147h5.512
			v1.505h-2.584v1.124h8.846v-1.124h-2.583v-1.505h5.511c0.634,0,1.147-0.515,1.147-1.147v-9.237
			C864.806,614.098,864.292,613.584,863.658,613.584z M863.656,623.368c0,0.316-0.257,0.574-0.573,0.574h-13.549
			c-0.316,0-0.574-0.258-0.574-0.574v-8.037c0-0.316,0.258-0.573,0.574-0.573h13.549c0.316,0,0.573,0.257,0.573,0.573V623.368z"/>
		<path fill="#003D7D" d="M866.042,632.003c0.336,0.277-0.293,0.489-0.655,0.489h-18.29c-0.361,0-1.027-0.099-0.654-0.489
			l2.617-2.686c0.304-0.327,0.608-0.489,1.177-0.489h11.779c0.896,0,1.047,0.162,1.408,0.489L866.042,632.003z"/>
	</g>
	<rect x="878.601" y="510.426" fill="none" width="143.001" height="16.734"/>
	<text transform="matrix(1 0 0 1 878.6016 520.4219)" fill="#333333" font-family="'HelveticaNeue'" font-size="14">Emergency Exit</text>
	<g>
		<g>
			<g>
				<g>
					<path fill="#FFFFFF" stroke="#003D7D" stroke-miterlimit="10" d="M891.956,465.638c-8.562,0-15.5,6.939-15.5,15.5
						c0,8.562,6.938,15.5,15.5,15.5c8.56,0,15.5-6.938,15.5-15.5C907.456,472.577,900.515,465.638,891.956,465.638z"/>
				</g>
			</g>
		</g>
		<g>
			<circle fill="#003D7D" cx="891.84" cy="472.491" r="2.474"/>
			<path fill="#003D7D" d="M896.179,475.639c-0.134,0-0.261,0.025-0.379,0.068c-0.088-0.043-0.186-0.068-0.29-0.068h-1.006
				c-0.029-0.004-0.06-0.01-0.092-0.01h-4.99c-0.032,0-0.062,0.006-0.093,0.01h-1.005c-0.104,0-0.202,0.025-0.291,0.068
				c-0.117-0.043-0.245-0.068-0.379-0.068c-0.605,0-1.098,0.491-1.098,1.099v6.731c0,0.606,0.491,1.099,1.098,1.099
				c0.311,0,0.589-0.13,0.789-0.334l-1.828,4.131h2.403v2.756c0,0.702,0.568,1.271,1.271,1.271s1.271-0.567,1.271-1.271v-2.756
				h0.715v2.756c0,0.702,0.568,1.271,1.271,1.271s1.271-0.567,1.271-1.271v-2.756h2.364l-1.789-4.131
				c0.2,0.204,0.479,0.334,0.788,0.334c0.606,0,1.098-0.491,1.098-1.099v-6.731C897.276,476.13,896.786,475.639,896.179,475.639z"/>
		</g>
	</g>
	<g>
		<g>
			<g>
				<g>
					<path fill="#FFFFFF" stroke="#003D7D" stroke-miterlimit="10" d="M855.893,465.637c-8.56,0-15.5,6.939-15.5,15.5
						c0,8.562,6.94,15.5,15.5,15.5c8.562,0,15.5-6.938,15.5-15.5C871.393,472.576,864.454,465.637,855.893,465.637z"/>
				</g>
			</g>
		</g>
		<g>
			<circle fill="#003D7D" cx="855.816" cy="472.419" r="2.474"/>
			<path fill="#003D7D" d="M860.156,475.566c-0.134,0-0.262,0.024-0.38,0.067c-0.089-0.042-0.187-0.067-0.289-0.067h-1.006
				c-0.029-0.004-0.062-0.011-0.093-0.011h-4.99c-0.032,0-0.062,0.007-0.093,0.011h-1.005c-0.104,0-0.203,0.025-0.291,0.067
				c-0.118-0.043-0.245-0.067-0.379-0.067c-0.604,0-1.097,0.491-1.097,1.098v6.733c0,0.605,0.491,1.097,1.097,1.097
				c0.606,0,1.098-0.49,1.098-1.097v-0.733c0,0.219,0.107,0.412,0.271,0.534c-0.001,0.019-0.003,0.037-0.003,0.056v7.794
				c0,0.701,0.568,1.271,1.27,1.271c0.702,0,1.271-0.569,1.271-1.271v-5.903h0.714v5.903c0,0.701,0.568,1.271,1.271,1.271
				c0.7,0,1.27-0.569,1.27-1.271v-7.794c0-0.019-0.002-0.037-0.003-0.056c0.164-0.122,0.271-0.315,0.271-0.534v0.733
				c0,0.605,0.491,1.097,1.099,1.097c0.606,0,1.097-0.49,1.097-1.097v-6.733C861.252,476.059,860.762,475.566,860.156,475.566z"/>
		</g>
	</g>
	<rect x="949.543" y="474.015" fill="none" width="140.359" height="16.734"/>
	<text transform="matrix(1 0 0 1 949.543 484.0107)" fill="#333333" font-family="'HelveticaNeue'" font-size="14">Restrooms</text>
	<g>
		<g>
			<path fill="#FFFFFF" stroke="#003D7D" stroke-miterlimit="10" d="M927.519,465.638c-8.561,0-15.501,6.939-15.501,15.5
				c0,8.562,6.94,15.5,15.501,15.5c8.562,0,15.5-6.938,15.5-15.5C943.019,472.577,936.08,465.638,927.519,465.638z"/>
		</g>
		<g>
			<rect x="926.582" y="469.766" fill="#003D7D" width="1.924" height="22.618"/>
		</g>
		<g>
			<circle fill="#003D7D" cx="933.934" cy="473.297" r="2.143"/>
			<path fill="#003D7D" d="M937.694,476.024c-0.115,0-0.227,0.021-0.328,0.059c-0.076-0.037-0.161-0.059-0.252-0.059h-0.87
				c-0.026-0.005-0.053-0.009-0.08-0.009h-4.324c-0.027,0-0.053,0.004-0.079,0.009h-0.871c-0.09,0-0.175,0.021-0.251,0.059
				c-0.103-0.037-0.213-0.059-0.328-0.059c-0.524,0-0.95,0.426-0.95,0.949v5.833c0,0.525,0.426,0.951,0.95,0.951
				s0.95-0.426,0.95-0.951v-0.635c0,0.189,0.094,0.357,0.234,0.463c-0.001,0.017-0.003,0.031-0.003,0.049v6.751
				c0,0.607,0.493,1.102,1.101,1.102c0.608,0,1.101-0.493,1.101-1.102v-6.684h0.619v6.684c0,0.607,0.492,1.102,1.101,1.102
				s1.1-0.493,1.1-1.102v-6.751c0-0.018-0.001-0.032-0.002-0.049c0.143-0.104,0.234-0.272,0.234-0.463v0.635
				c0,0.525,0.426,0.951,0.95,0.951s0.951-0.426,0.951-0.951v-5.833C938.645,476.45,938.219,476.024,937.694,476.024z"/>
		</g>
		<g>
			<circle fill="#003D7D" cx="920.845" cy="473.305" r="2.143"/>
			<path fill="#003D7D" d="M924.605,476.032c-0.115,0-0.227,0.021-0.328,0.059c-0.076-0.037-0.161-0.059-0.251-0.059h-0.871
				c-0.026-0.004-0.054-0.009-0.08-0.009h-4.324c-0.027,0-0.053,0.005-0.079,0.009H917.8c-0.091,0-0.175,0.021-0.251,0.059
				c-0.103-0.037-0.213-0.059-0.328-0.059c-0.524,0-0.951,0.426-0.951,0.95v5.833c0,0.524,0.427,0.95,0.951,0.95
				c0.269,0,0.511-0.11,0.683-0.29l-0.718,3.579h1.218v2.388c0,0.607,0.493,1.101,1.101,1.101c0.608,0,1.1-0.492,1.1-1.101v-2.388
				h0.619v2.388c0,0.607,0.493,1.101,1.102,1.101c0.607,0,1.1-0.492,1.1-1.101v-2.388h1.184l-0.684-3.579
				c0.173,0.18,0.415,0.29,0.684,0.29c0.524,0,0.949-0.426,0.949-0.95v-5.833C925.555,476.458,925.13,476.032,924.605,476.032z"/>
		</g>
	</g>
	<g>
		<g>
			<path fill="#FFFFFF" stroke="#003D7D" stroke-miterlimit="10" d="M53.794,241.716c-8.676,0-15.709,7.033-15.709,15.709
				c0,8.676,7.033,15.709,15.709,15.709c8.676,0,15.709-7.033,15.709-15.709C69.503,248.749,62.47,241.716,53.794,241.716z"/>
		</g>
		<path fill="#003D7D" d="M62.576,261.214c0-0.547-0.443-0.99-0.99-0.99H56.87v-4.709c0-0.002,0-0.004,0-0.008
			c0-0.547-0.443-0.99-0.99-0.99h-4.715v-4.707c0-0.002,0-0.004,0-0.008c0-0.547-0.443-0.99-0.99-0.99h-5.706
			c-0.547,0-0.99,0.443-0.99,0.99c0,0.549,0.443,0.992,0.99,0.992h4.715v4.707c0,0.002,0,0.004,0,0.006
			c0,0.139,0.028,0.268,0.078,0.387c0.15,0.355,0.503,0.605,0.913,0.605c0.006,0,0.011,0,0.016,0h4.699v4.715l0,0l0,0
			c0,0.547,0.443,0.99,0.99,0.99h4.715v4.717c0,0.547,0.443,0.99,0.99,0.99s0.99-0.443,0.99-0.99v-5.699
			C62.575,261.218,62.576,261.216,62.576,261.214z"/>
	</g>
	<g>
		<g>
			<g>
				<g>
					<path fill="#FFFFFF" stroke="#003D7D" stroke-miterlimit="10" d="M86.003,241.925c-8.561,0-15.5,6.939-15.5,15.5
						c0,8.561,6.939,15.5,15.5,15.5s15.5-6.939,15.5-15.5C101.503,248.864,94.564,241.925,86.003,241.925z"/>
				</g>
			</g>
		</g>
		<g>
			<g>
				<circle fill="none" cx="81.351" cy="252.067" r="2.192"/>
				<path fill="#003D7D" d="M96.468,263.634l-6.201-6.202v-2.459c-0.054,0.113-0.125,0.219-0.219,0.312
					c-0.432,0.432-1.133,0.432-1.565,0l-1.71-1.71l-0.787,0.789l9.904,9.905c0.433,0.432,0.433,1.133,0,1.565
					c-0.432,0.432-1.133,0.432-1.564,0l-6.262-6.261l-1.689,1.689l2.548,2.548c0.433,0.432,0.433,1.133,0,1.565
					s-1.133,0.432-1.565,0l-3.295-3.295c-0.225-0.225-0.332-0.522-0.322-0.817c-0.01-0.295,0.098-0.593,0.322-0.818l1.688-1.688
					l-2.078-2.079l-1.746,1.745c-0.026,0.034-0.055,0.066-0.086,0.097c-0.217,0.218-0.503,0.326-0.788,0.324
					c-0.285,0.001-0.57-0.105-0.788-0.324c-0.031-0.031-0.059-0.063-0.086-0.097l-2.332-2.333c-0.433-0.432-0.433-1.133,0-1.565
					c0.432-0.432,1.133-0.432,1.564,0l1.643,1.642l4.936-4.936c0.424-0.424,1.105-0.431,1.539-0.023
					c0.031,0.025,0.062,0.052,0.092,0.082l2.43,2.43c0.094,0.094,0.165,0.2,0.219,0.313v-6.91H77.023v20.274h13.244v-4.282
					l3.359,3.36c0.785,0.785,2.059,0.785,2.842,0C97.253,265.691,97.253,264.419,96.468,263.634z M81.351,249.875
					c1.211,0,2.191,0.981,2.191,2.192s-0.98,2.192-2.191,2.192s-2.191-0.981-2.191-2.192S80.14,249.875,81.351,249.875z"/>
			</g>
		</g>
	</g>
</g>
</svg>
