<?xml version="1.0" encoding="utf-8"?>
<!-- Generator: Adobe Illustrator 15.1.0, SVG Export Plug-In . SVG Version: 6.00 Build 0)  -->
<!DOCTYPE svg PUBLIC "-//W3C//DTD SVG 1.1//EN" "http://www.w3.org/Graphics/SVG/1.1/DTD/svg11.dtd">
<svg version="1.1" xmlns="http://www.w3.org/2000/svg" xmlns:xlink="http://www.w3.org/1999/xlink" x="0px" y="0px" width="360px"
	 height="63px" viewBox="0 0 360 63" enable-background="new 0 0 360 63" xml:space="preserve">
<g id="Layer_1" display="none">
	<g id="Layer_2">
		<rect x="-85.385" y="-46.961" display="inline" fill="#1A1A1A" width="530.77" height="153.461"/>
	</g>
	<g id="Layer_1_1_" display="inline">
		<path fill="#FFFFFF" d="M34.655,9.102L32.39,6.913c0.317-0.406,0-0.685,0-0.685l-3.782-4.111l0.23-1.282
			c-1.133-0.956-2.299,0-2.299,0v1.391l-4.112,4.694c-0.466,0.55-0.002,0.958-0.002,0.958l-0.848,1.146
			C9.697,11.904,0.827,22.603,0.827,35.367c0,14.975,12.117,27.115,27.092,27.115c14.975,0,27.104-12.141,27.104-27.115
			C55.023,22.726,46.359,12.105,34.655,9.102z"/>
		<g>
			<path fill="#FFFFFF" d="M93.807,25.912l-7.668,21.382h-0.664l-5.419-15.263l-5.677,15.264h-0.663l-7.706-21.531l-2.176-0.295
				v-1.178h8.297v1.178l-3.061,0.295l5.641,16.035l4.46-12.2l-1.402-3.834l-2.249-0.295v-1.178h8.479v1.178l-3.06,0.295v0.369
				l5.457,15.666l5.641-15.924l-2.949-0.407V24.29h6.894v1.178L93.807,25.912z"/>
			<path fill="#FFFFFF" d="M106.664,47.001v-1.032l2.654-0.296v-6.342h-8.406v6.342l2.654,0.296v1.032h-7.963v-1.032l2.654-0.296
				V32.4l-2.654-0.296v-1.031h7.963v1.031l-2.654,0.296v5.605h8.406V32.4l-2.654-0.296v-1.031h7.926v1.031l-2.654,0.296v13.272
				l2.654,0.296v1.032H106.664z"/>
			<path fill="#FFFFFF" d="M119.016,47.001v-1.032l2.656-0.296V32.4l-2.656-0.296v-1.031h7.964v1.031l-2.652,0.296v13.272
				l2.652,0.296v1.032H119.016z"/>
			<path fill="#FFFFFF" d="M144.272,35.497l-0.406-3.097h-4.459v13.272l2.655,0.296v1.032h-7.964v-1.032l2.654-0.296V32.4h-4.497
				l-0.407,3.097h-1.179v-4.424h14.784v4.423L144.272,35.497L144.272,35.497z"/>
			<path fill="#FFFFFF" d="M163.397,47.001v-1.032l2.655-0.296l-0.737-11.099l-6.047,12.427h-0.589l-5.936-12.13l-0.665,10.655
				l2.655,0.442v1.032h-6.858v-1.032l2.656-0.442l0.884-13.126l-2.654-0.296v-1.031h5.015l5.825,12.056l5.861-12.056h4.978v1.031
				l-2.655,0.221l0.922,13.347l2.654,0.295V47L163.397,47.001L163.397,47.001z"/>
			<path fill="#FFFFFF" d="M183.531,47.001v-1.032l2.766-0.296l-1.511-3.505h-6.417l-1.475,3.469l2.765,0.332v1.032h-6.343v-1.032
				l2.027-0.367l6.304-14.823h1.179l6.378,14.894l1.995,0.296v1.032H183.531z M181.613,34.574h-0.074l-2.617,6.269h5.311
				L181.613,34.574z"/>
			<path fill="#FFFFFF" d="M209.783,32.547v14.602h-0.848l-11.43-12.426v10.804l2.619,0.442v1.032h-6.784v-1.032l2.618-0.442V33.063
				l-0.698-0.738l-1.919-0.221v-1.031h4.352l10.545,11.538V32.545l-2.621-0.44v-1.031h6.784v1.031L209.783,32.547z"/>
			<path fill="#FFFFFF" d="M238.619,47.588c-6.562,0-11.504-4.605-11.504-11.795c0-7.19,4.793-12.095,11.983-12.095
				c3.058,0,4.904,0.518,6.267,1.106l0.479-1.106h1.179l-0.294,6.675h-1.179l-0.591-2.911c-1.768-1.475-3.432-2.288-6.488-2.288
				c-4.425,0-8.109,3.798-8.109,10.067c0,5.603,3.06,10.691,8.515,10.691c2.95,0,5.496-1.218,7.45-3.245l0.883,1.179
				C244.774,46.336,241.973,47.588,238.619,47.588z"/>
			<path fill="#FFFFFF" d="M257.67,47.588c-4.865,0-8.664-3.39-8.664-8.404c0-5.014,3.945-8.701,8.814-8.701
				c4.865,0,8.662,3.391,8.662,8.406S262.538,47.588,257.67,47.588z M257.67,31.812c-3.244,0-5.643,2.653-5.643,7.079
				c0,4.422,2.545,7.371,5.793,7.371c3.244,0,5.64-2.652,5.64-7.077S260.916,31.812,257.67,31.812z"/>
			<path fill="#FFFFFF" d="M268.496,47.001v-1.032l2.653-0.296V32.4l-2.653-0.296v-1.031h7.961v1.031l-2.652,0.296v13.272h6.268
				l0.553-3.353h1.253v4.681H268.496z"/>
			<path fill="#FFFFFF" d="M284.924,47.001v-1.032l2.655-0.296V32.4l-2.655-0.296v-1.031h7.961v1.031l-2.652,0.296v13.272h6.266
				l0.554-3.353h1.251v4.681H284.924z"/>
			<path fill="#FFFFFF" d="M300.675,47.001v-1.032l2.656-0.296V32.4l-2.656-0.296v-1.031h13.239v4.167h-1.182l-0.406-2.84h-6.339
				v5.605h4.351l0.293-1.773h1.105v4.865h-1.105l-0.293-1.767h-4.351v6.342h6.56l0.482-2.987h1.252V47L300.675,47.001
				L300.675,47.001z"/>
			<path fill="#FFFFFF" d="M333.576,41.691v4.129c-1.218,0.775-3.613,1.768-6.818,1.768c-5.015,0-8.847-3.43-8.847-8.44
				c0-5.017,3.535-8.665,9.067-8.665c2.508,0,4.053,0.553,5.121,0.884l0.297-0.884h1.105l-0.221,5.015h-1.105l-0.406-2.214
				c-1.623-1.07-3.025-1.472-5.088-1.472c-3.391,0-5.748,2.689-5.748,7.043c0,4.31,2.32,7.407,6.082,7.407
				c1.916,0,3.098-0.406,3.907-1.031v-3.539l-2.874-0.296v-1.03h6.635v0.959L333.576,41.691z"/>
			<path fill="#FFFFFF" d="M338.113,47.001v-1.032l2.652-0.296V32.4l-2.652-0.296v-1.031h13.235v4.167h-1.181l-0.404-2.84h-6.341
				v5.605h4.35l0.297-1.773h1.106v4.865h-1.106l-0.297-1.767h-4.35v6.342h6.563l0.477-2.987h1.255V47L338.113,47.001L338.113,47.001
				z"/>
		</g>
		<g>
			<g>
				<path fill="#003D7D" d="M30.733,22.83l-0.006,0.002c-0.199,0-0.395,0.02-0.587,0.046c-2.313,0.207-4.117,2.297-4.117,4.831l0,0
					c0,0.008,0,0.014,0,0.021c0.008,2.524,1.808,4.604,4.116,4.809c0.195,0.025,0.392,0.049,0.594,0.049h0.002
					c2.504-0.002,4.506-2.198,4.512-4.878v-0.002C35.244,25.026,33.238,22.833,30.733,22.83z M31.393,32.096
					c-0.214,0.039-0.433,0.062-0.656,0.062l-0.002-0.002c-2.242-0.003-4.083-1.976-4.084-4.445v-0.016
					c0.007-2.462,1.847-4.43,4.085-4.435h0.05c0.113,0.001,0.224,0.012,0.336,0.023c1.868,0.489,3.247,2.265,3.248,4.422
					C34.369,29.813,33.295,31.538,31.393,32.096z M29.209,38.523c0,0,1.493-0.023,1.957,1.564c0,0,0.279-1.261,1.849-1.202
					C33.015,38.886,31.417,37.072,29.209,38.523z M31.196,39.337c-0.167-0.24-0.52-0.688-0.976-0.894
					c0.187-0.06,0.456-0.121,0.765-0.121c0.363,0.005,0.782,0.082,1.2,0.344C31.895,38.733,31.44,38.898,31.196,39.337z
					 M19.951,48.954c-0.057-0.034-0.128-0.036-0.185-0.006l-1.884,0.996c-0.068,0.036-0.104,0.106-0.098,0.177l0.007,4.844
					c0,0.064,0.035,0.125,0.091,0.162c0.029,0.017,0.063,0.024,0.097,0.024c0.03,0,0.06-0.005,0.088-0.022l1.883-1.003
					c0.06-0.036,0.098-0.101,0.098-0.17l-0.005-4.844C20.041,49.048,20.005,48.986,19.951,48.954z M18.693,54.368l-0.528,0.285
					l-0.008-4.429l0.537-0.287V54.368z M19.068,54.168v-4.427l0.597-0.316l0.006,4.422L19.068,54.168z M32.698,26.892
					c-0.083,0.002-0.159,0.041-0.254,0.08c-0.14,0.058-0.331,0.125-0.457,0.203c-0.131,0.082-0.21,0.2-0.249,0.276
					c-0.051,0.059-0.454,0.3-0.545,0.369c-0.036,0.026-0.075,0.035-0.121,0.042c0-0.008,0.002-0.019,0.005-0.026
					c-0.002-0.006-0.002-0.009-0.002-0.012l0.002-0.011l-0.002-0.016c-0.028-0.141-0.077-0.185-0.08-0.272v-0.023
					c0-0.011,0-0.012,0-0.012c0-0.16-0.035-0.928-0.035-1.325c0-0.063,0.002-0.119,0.003-0.155c0.001-0.017,0.002-0.03,0.003-0.039
					c0.041-0.098,0.09-0.251,0.091-0.433c0-0.02-0.001-0.037-0.001-0.052c-0.013-0.2-0.12-0.882-0.138-1.064
					c-0.008-0.097-0.024-0.193-0.046-0.276c-0.027-0.061-0.03-0.144-0.118-0.185c0.002,0-0.006,0.005-0.006,0.005l0.001-0.007
					c0.001,0.002,0.003,0.002,0.005,0.002c-0.003-0.002-0.003,0-0.005-0.002H30.75c-0.009-0.003-0.022-0.008-0.034-0.011v-0.001
					c0,0-0.001,0-0.003,0v-0.001c0-0.001-0.007-0.002-0.029,0.002c-0.008,0.001-0.022,0.004-0.043,0.022
					c-0.083,0.047-0.08,0.128-0.102,0.188c-0.018,0.078-0.029,0.174-0.038,0.267c-0.022,0.199-0.112,0.87-0.122,1.066
					c0,0.01-0.002,0.025-0.002,0.044c0.002,0.19,0.054,0.351,0.097,0.445c0.005,0.038,0.008,0.184,0.008,0.351
					c0,0.394-0.015,0.961-0.015,1.139c0,0.016,0,0.026,0.002,0.042c0,0.002-0.001,0.005-0.001,0.009
					c0.003,0.095-0.048,0.137-0.075,0.289c0-0.002-0.002,0.011-0.002,0.03c0.002,0.051,0.015,0.107,0.028,0.161
					c-0.052,0.073-0.089,0.157-0.089,0.254c0,0.247,0.202,0.448,0.449,0.448c0.18,0,0.334-0.109,0.406-0.262
					c0.045-0.015,0.087-0.029,0.134-0.067l-0.064-0.068l0.065,0.068c0.075-0.086,0.073-0.142,0.136-0.182
					c0.057-0.036,0.175-0.133,0.295-0.226c0.059-0.046,0.118-0.089,0.162-0.122c0.023-0.017,0.042-0.03,0.057-0.036
					c0.008-0.003,0.011-0.006,0.014-0.008c0.084-0.009,0.222-0.045,0.342-0.141c0.118-0.096,0.233-0.252,0.338-0.367
					c0.077-0.096,0.152-0.152,0.167-0.273c0-0.023-0.006-0.047-0.019-0.068C32.775,26.898,32.727,26.891,32.698,26.892z
					 M18.006,28.553L18.006,28.553c-0.003-2.396,0.834-4.268,1.955-4.357c0.039-0.003,0.071-0.038,0.071-0.081
					c0-0.039-0.031-0.076-0.07-0.08c-0.023-0.001-0.208-0.06-0.278-0.063v0.002c-0.001,0-0.003,0-0.003-0.002
					c-1.35,0.02-2.354,2.072-2.36,4.562c0.003,2.965,1.01,4.568,2.159,4.584c0.072,0,0.145-0.005,0.216-0.021
					c0.028-0.003,0.19-0.014,0.229-0.02c0.042-0.003,0.073-0.037,0.073-0.078c0.001-0.041-0.028-0.076-0.07-0.08
					C18.658,32.79,18.002,30.948,18.006,28.553z M20.419,28.03c-0.049,0.002-0.091,0.037-0.148,0.075
					c-0.079,0.054-0.188,0.114-0.263,0.189c-0.074,0.076-0.12,0.188-0.142,0.259c-0.029,0.055-0.26,0.281-0.312,0.345
					c-0.021,0.027-0.043,0.034-0.069,0.042c0.001-0.008,0.002-0.017,0.002-0.025c-0.001-0.005-0.001-0.009-0.001-0.013v-0.008
					l-0.001-0.015c-0.018-0.133-0.045-0.176-0.046-0.258v-0.023c0-0.011,0-0.011,0-0.011c0-0.151-0.02-0.874-0.021-1.252
					c0-0.059,0.002-0.111,0.003-0.146c-0.001-0.016,0.001-0.029,0.001-0.037c0.023-0.091,0.05-0.238,0.052-0.406
					c0.001-0.017-0.001-0.036-0.001-0.048c-0.007-0.19-0.07-0.832-0.08-1.007c-0.004-0.091-0.014-0.183-0.026-0.262
					c-0.016-0.057-0.02-0.136-0.068-0.174c0.001,0.001-0.003,0.004-0.003,0.004l0.001-0.005c0,0,0,0,0.002,0.001
					c-0.002-0.001-0.002-0.001-0.001-0.002h-0.002c-0.005-0.004-0.014-0.007-0.02-0.009v-0.003c0,0,0,0-0.001,0
					c0,0-0.003-0.001-0.018,0c-0.003,0.003-0.011,0.006-0.024,0.021c-0.047,0.045-0.046,0.125-0.057,0.176
					c-0.012,0.075-0.019,0.165-0.023,0.254c-0.012,0.188-0.063,0.82-0.07,1.008c-0.001,0.008-0.001,0.023-0.001,0.04
					c0,0.178,0.032,0.33,0.058,0.421c0.003,0.034,0.006,0.171,0.006,0.332c0,0.37-0.008,0.909-0.008,1.074
					c-0.001,0.016-0.001,0.026,0.001,0.04v0.009c0,0.09-0.028,0.13-0.044,0.272c0-0.002-0.001,0.012-0.001,0.029
					c0.001,0.048,0.008,0.102,0.015,0.151c-0.029,0.068-0.051,0.148-0.051,0.236c0,0.236,0.12,0.427,0.261,0.427
					c0.104,0.003,0.192-0.098,0.233-0.246c0.025-0.013,0.051-0.024,0.077-0.06l-0.038-0.068l0.038,0.065
					c0.043-0.081,0.042-0.132,0.076-0.168c0.034-0.037,0.1-0.129,0.17-0.214c0.035-0.043,0.07-0.083,0.094-0.114
					c0.015-0.016,0.025-0.028,0.033-0.035c0.003-0.002,0.004-0.002,0.005-0.007c0.05-0.01,0.129-0.043,0.197-0.13
					c0.067-0.091,0.135-0.24,0.194-0.346c0.046-0.088,0.089-0.145,0.096-0.257c0-0.021-0.002-0.045-0.012-0.066
					C20.462,28.039,20.436,28.03,20.419,28.03z M34.3,10.568l-1.22-1.231c0.008-0.012,0.02-0.019,0.024-0.03
					c0.029-0.067,0.013-0.145-0.041-0.198l-1.552-1.568c0.002-0.006,0.009-0.009,0.012-0.016c0.027-0.068,0.013-0.146-0.038-0.197
					l-1.079-0.974c0.054-0.029,0.039-0.018,0.084-0.068c0.047-0.053,0.06-0.164,0.023-0.225c-0.074-0.122-2.302-2.426-2.302-2.426
					c0.043-0.075,0.078-0.171,0.082-0.293c0.005-0.172-0.071-0.321-0.071-0.321l-0.479-0.067V1.438l-0.081-0.053
					c-0.016-0.011-0.203-0.134-0.489-0.134c-0.157,0-0.345,0.039-0.53,0.157l-0.085,0.052v1.531l-0.513,0.456l-0.027,0.028
					l-2.705,3.359c-0.046,0.056-0.062,0.132-0.042,0.201c0.003,0.015,0.013,0.091,0.061,0.165c0.041,0.065,0.085,0.099,0.224,0.117
					c-0.112,0.121-0.21,0.238-0.281,0.339l-0.453,0.529l-0.016,0.019v0.002l-1.216,1.421c-0.029,0.032-0.038,0.082-0.014,0.118
					c0.043,0.063,0.098,0.052,0.121,0.061l-0.72,0.879C10.18,13.695,2.257,23.595,2.257,35.355
					c0,14.143,11.467,25.607,25.613,25.607c14.144,0,25.611-11.467,25.611-25.607C53.481,23.429,45.328,13.424,34.3,10.568z
					 M30.892,7.371l0.017,0.188l1.551,1.657l0.022,0.208l1.433,1.474l0.003,0.181l1.532,1.566l0.02,0.183l1.619,1.689l0.036,0.163
					l1.501,1.597l0.029,0.194l1.508,1.588l0.004,0.16l1.474,1.58c-0.236,0.022-0.403,0.203-0.403,0.203L29.003,6.168
					c0.418,0.234,1.01,0.311,1.01,0.311L30.892,7.371z M34.278,50.179l-0.017,6.843l-6.21-0.973l0.017-6.807L34.278,50.179z
					 M30.353,47.359l1.585-0.602c0,0-0.098,1.766-1.569,2.238L30.353,47.359z M31.178,49.17c0.925-0.33,1.366-1.059,1.57-1.643
					l0.854,0.119v0.035l0.034,1.857L31.178,49.17z M28.213,45.844l-0.004-1.225l8.053,1.195l0.008,1.182L28.213,45.844z
					 M34.429,45.19l-2.671-0.397l0.001-2.735l0.268-0.015c0.008,0,0.015-0.01,0.023-0.011h0.007c0.083,0,0.16-0.058,0.181-0.138
					l0.208-0.807c0.014-0.053,0.005-0.109-0.025-0.154c-0.03-0.043-0.077-0.074-0.131-0.079l-0.409-0.052
					c0.134-0.462,0.413-0.842,1.234-0.852c0.054,0,0.116,0.006,0.175,0.01c1.116,0.371,1.06,1.841,1.06,1.841L34.429,45.19z
					 M33.373,39.534c-0.089-0.009-0.175-0.011-0.258-0.011c-1.072-0.012-1.497,0.621-1.671,1.225l-0.538-0.068
					c-0.126-0.604-0.493-1.473-1.579-1.616c-0.096-0.009-0.188-0.014-0.277-0.014c-0.572,0-0.969,0.203-1.246,0.487
					c0.01-0.031,0.015-0.062,0.024-0.09c0.272-0.609,1.186-2.207,3.23-1.948c1.61,0.203,2.44,1.216,2.9,2.21
					C33.792,39.622,33.599,39.557,33.373,39.534z M32.054,41.197l-0.115,0.443l-1.513-0.178l-0.046-0.48L32.054,41.197z
					 M31.331,42.035v2.692l-0.279-0.039l-0.062-2.692L31.331,42.035z M34.329,39.08c-0.429-0.68-1.017-1.25-1.704-1.623l0.525-0.945
					c0.864,0.498,1.597,1.24,2.128,2.125L34.329,39.08z M35.511,39.063c0.351,0.702,0.579,1.478,0.638,2.289L35.061,41.2
					c-0.056-0.598-0.226-1.173-0.489-1.698L35.511,39.063z M32.196,37.259c-0.323-0.133-0.66-0.224-1.01-0.265
					c-0.475-0.057-0.932-0.021-1.354,0.09l-0.458-1.071c0.566-0.165,1.179-0.223,1.821-0.155c0.537,0.062,1.052,0.215,1.537,0.438
					L32.196,37.259z M29.394,37.23c-0.549,0.224-1.025,0.587-1.391,1.051l-1.027-0.553c0.488-0.699,1.169-1.236,1.965-1.562
					L29.394,37.23z M27.744,38.658c-0.255,0.432-0.428,0.924-0.489,1.463l-1.09-0.149c0.064-0.679,0.266-1.302,0.57-1.85
					L27.744,38.658z M27.708,40.922c0.097-0.646,0.332-1.445,1.343-1.445c0.072,0,0.149,0.006,0.229,0.014
					c0.029,0.002,0.057,0.011,0.084,0.013c0.511,0.22,0.745,0.686,0.856,1.087l-0.046-0.007c-0.044-0.003-0.083,0.007-0.119,0.03
					l-0.063,0.015l-0.224,0.164c-0.042,0.03-0.063,0.083-0.054,0.135l0.149,0.835c0.011,0.059,0.06,0.105,0.121,0.111l0.34,0.041
					l0.062,2.678l-2.411-0.36c-0.035-0.005-0.068,0.003-0.098,0.017c-0.003,0.002-0.007,0-0.01,0.002l-0.163,0.064v-3.393H27.708z
					 M27.724,44.756v1.142l-0.993,0.384l-0.008-1.127L27.724,44.756z M28.327,46.248c0,0-0.097,1.765-1.569,2.238l-0.016-1.636
					L28.327,46.248z M29.135,47.028l0.866,0.12v0.025l0.035,1.824l-2.154-0.323v-0.078c0-0.026-0.005-0.048-0.013-0.067
					C28.585,48.165,28.952,47.543,29.135,47.028z M27.883,56.564l6.565,1.026v0.079c-2.083,0.611-4.283,0.95-6.565,0.95V56.564z
					 M33.984,49.505l-0.015-1.634l1.584-0.602C35.554,47.269,35.457,49.033,33.984,49.505z M34.875,49.645
					c1.289-0.516,1.58-1.811,1.636-2.277c0.042-0.037,0.064-0.088,0.063-0.139l-0.012-1.562c0-0.089-0.067-0.169-0.158-0.181
					l-1.297-0.193l-0.083-3.561c-0.002,0-0.003-0.05-0.011-0.126l1.558,0.147l-0.013-0.139c-0.042-1.131-0.378-2.205-0.927-3.137
					l-0.003-0.005l0,0c-0.626-1.062-1.526-1.933-2.584-2.467c0,0-0.974-0.481-1.848-0.56c-0.355-0.033-1.047-0.021-1.047-0.021
					c-3.722,0.188-4.611,3.615-4.696,3.869c-0.084,0.252-0.254,0.826-0.095,0.983c0.146,0.146,1.639,0.233,1.888,0.248l0.069,0.009
					c-0.022,0.123-0.035,0.239-0.036,0.35l-0.001,3.6l-0.786,0.314c-0.071,0.027-0.119,0.101-0.118,0.176l0.01,1.521
					c0,0.012,0.005,0.02,0.006,0.027c-0.001,0.006-0.004,0.014-0.004,0.02c0,0.004,0.004,0.01,0.004,0.014L26.39,46.66l0.039,2.127
					c0,0.021,0.009,0.039,0.024,0.053c0.006,0.006,0.014,0.006,0.023,0.01c0.001,0.002,0.001,0.002,0.003,0.006
					c0.012,0.006,0.029,0.015,0.047,0.015h0.009l0.579-0.085c0.121-0.025,0.231-0.059,0.339-0.09v9.916
					c-1.643-0.029-3.245-0.226-4.787-0.578V19.935c0.339,0.033,1.151,0.125,1.549,0.246c0.177,0.053,0.285,0.137,0.355,0.225
					c0.024,0.064,0.028,0.125,0.031,0.159c0,0.02,0.004,0.117,0.004,0.117v12.566l0.003,0.002L24.6,33.607l12.631,1.906
					l-0.002-0.238V22.542c0.033-0.001,0.061-0.004,0.094-0.004c0.419-0.006,1.152,0.067,1.649,0.141v0.008l-0.008-0.001v33.127
					c-1.293,0.702-2.662,1.282-4.089,1.731V49.645z M24.972,32.938V20.826l11.344,1.938v11.917L24.972,32.938z M36.16,22.086
					l-10.982-1.915c0-0.694-1.888-0.925-2.639-0.99v0.009c0,0-1.417,0.616-1.246,1.425l-4.584,2.974c0,0-0.658-0.457-2.43,0.878
					v-0.524c0,0,0.016-0.011,0.039-0.03c-0.039,0.014-0.076,0.024-0.107,0.024c-0.187,0.005-0.362-0.046-0.362-0.046
					s0.001-0.005,0.002-0.006c-0.01-0.003-0.02-0.003-0.03-0.008c-0.197-0.095-0.233-0.133-0.322-0.409
					c-0.007-0.022-0.013-0.05-0.02-0.077l0.361-0.239c0.007,0.039,0.018,0.078,0.028,0.113c0.059,0.178,0.195,0.264,0.309,0.318
					c0.139,0.05,0.377,0.066,0.496,0.072c0.52-0.351,1.435-0.87,1.994-0.622l4.578-2.942c0,0-0.153-0.493,0.534-1.074
					c-0.027,0.006-0.055,0.011-0.078,0.008c-0.183-0.006-0.601,0.046-0.782-0.306c-0.03-0.057-0.053-0.138-0.068-0.201l0.355-0.235
					c0.02,0.072,0.047,0.164,0.08,0.233c0.096,0.202,0.647,0.205,0.896,0.216c0.081-0.049,0.167-0.1,0.262-0.148l0.001,0.013
					l0.02-0.013c0,0,0.486,0.032,0.698,0.054c0.167-0.098,0.35-0.248,0.35-0.436c0-0.148-0.004-0.409-0.004-0.409l0.889,0.15
					c0,0,0.013,0.237,0.015,0.364c0.007,0.271-0.121,0.346-0.329,0.485c1.246,0.306,1.195,0.818,1.195,0.818l10.822,1.883
					c0.491-0.241,1.452-0.218,2.298-0.134c0.165-0.087,0.322-0.196,0.322-0.421c0-0.147-0.005-0.408-0.005-0.408l0.901,0.146
					c0,0,0.014,0.24,0.017,0.366c0.005,0.242-0.096,0.328-0.265,0.44c0.179,0.028,0.327,0.055,0.439,0.074l-0.004,0.583
					C36.461,21.598,36.16,22.086,36.16,22.086z M17.428,55.863V49.84l2.895-1.602v6.127L17.428,55.863z M20.323,54.789v2.579
					c-0.947-0.327-1.867-0.711-2.755-1.151L20.323,54.789z M15.792,47.596l0.006-1.01l3.083-1.623v1.054L15.792,47.596z
					 M16.911,48.191l-0.003,1.127c-0.902-0.164-0.961-0.703-0.983-1.049c0-0.027,0.001-0.059,0.002-0.079L16.911,48.191z
					 M17.954,39.414c0.174-0.385,0.388-0.643,0.569-0.664c0.058-0.014,0.103-0.018,0.147-0.018c0.014-0.004,0.021-0.004,0.026-0.004
					c0.379-0.016,0.746,0.641,0.921,1.453c0.013,0.055,0.022,0.111,0.032,0.167c-0.072-0.039-0.153-0.063-0.25-0.063
					c-0.051,0-0.102,0.005-0.152,0.02c-0.464,0.15-0.571,0.684-0.664,1.15l-0.001,0.004c-0.002-0.007-0.002-0.016-0.004-0.023
					c-0.09-0.334-0.294-0.686-0.703-0.689c-0.045,0-0.091,0.004-0.137,0.014c-0.051,0.018-0.095,0.035-0.137,0.059
					C17.649,40.5,17.759,39.908,17.954,39.414z M17.74,38.426c0,0,0.302-0.643,0.818-0.792c0.518-0.151,0.809,0.279,0.809,0.279
					l-0.24,0.503c-0.737-0.387-1.229,0.254-1.229,0.254L17.74,38.426z M19.96,39.757c-0.196-0.782-0.56-1.122-0.56-1.122
					l0.191-0.403c0.278,0.4,0.527,1.438,0.527,1.438L19.96,39.757z M20.193,40.02c0.096,0.318,0.228,1.658,0.228,1.658l-0.146,0.048
					c0.02-0.431-0.225-1.627-0.225-1.627L20.193,40.02z M19.207,46.604c0-0.039,0.002-0.074,0.004-0.109l1.11,0.002l-0.003,1.273
					C19.303,47.596,19.229,46.986,19.207,46.604z M19.875,48.051l-1.034,0.574l0.005-1.362l0.104-0.051
					C19.084,47.539,19.358,47.873,19.875,48.051z M19.182,44.484c-0.02,0-0.037,0.004-0.053,0.008c-0.028-0.004-0.057-0.004-0.084,0
					l0.02-2.02c0,0,0.021-1.367,0.378-1.803c0.087,0.023,0.191,0.15,0.27,0.412c0.063,0.213,0.103,0.475,0.125,0.722
					c0.007,0.11,0.011,0.194,0.012,0.233c0,0.01,0.007,0.021,0.008,0.029c0,0.01,0,0.016,0,0.023v2.395H19.182L19.182,44.484z
					 M18.347,42.546v2.3l-0.737,0.393l0.021-2.335c0,0,0.02-1.282,0.345-1.761c0.096,0.047,0.174,0.172,0.244,0.398
					C18.302,41.829,18.331,42.223,18.347,42.546z M17.206,40.191c0.058-0.517,0.369-1.395,0.369-1.395l0.107,0.164
					C17.516,39.179,17.206,40.191,17.206,40.191z M18.471,47.326l-0.003,1.272c-1.013-0.174-1.089-0.786-1.11-1.169
					c0-0.039,0.001-0.076,0.003-0.108L18.471,47.326z M17.281,49.455l0.002-1.086c0.196,0.253,0.514,0.467,0.989,0.572l-0.991,0.549
					V49.455z M19.351,45.953v-1.112h0.994v1.112H19.351z M20.231,44.484v-2.167l0.865-0.288c0.027-0.011,0.044-0.035,0.04-0.066
					c0-0.004,0-0.006-0.001-0.012c0.001-0.006,0.004-0.016,0.001-0.022c-0.242-3.483-1.205-4.436-1.878-4.718
					c-0.031-0.011-0.377-0.049-0.479-0.053c-0.109,0-0.224,0.014-0.337,0.049c-1.808,0.598-1.815,4.183-1.852,5.459
					c0,0.141,0.001,0.26,0.003,0.336c0,0.039,0,0.07,0.001,0.092c0,0.01,0.001,0.019,0.001,0.024v0.008
					c0.003,0.075,0.046,0.146,0.111,0.183c0.035,0.021,0.072,0.029,0.11,0.029c0.037,0,0.071-0.009,0.105-0.027l0.048-0.023
					l-0.024,2.295l-1.404,0.742c-0.061,0.027-0.1,0.092-0.102,0.16l-0.005,1.434c-0.001,0.066,0.033,0.123,0.087,0.16
					c0.013,0.008,0.025,0.005,0.039,0.011c-0.005,0.052-0.01,0.109-0.01,0.179c-0.022,0.441,0.24,1.312,1.454,1.439v6.22
					c-0.585-0.31-1.158-0.646-1.712-0.999V24.512c0,0,0.735-0.563,1.105-0.324v12.068h-0.005l-0.383,0.605
					c0,0-0.066,0.045,0.013,0.121c0.077,0.071,0.219-0.039,0.219-0.039l5.079-2.597c0,0-0.037-12.762-0.037-12.9
					c0-0.485,0.674-1.042,0.674-1.042v37.458c-0.397-0.104-0.787-0.223-1.174-0.344l-0.045-12.851c0-0.048-0.019-0.095-0.054-0.13
					c-0.036-0.036-0.083-0.057-0.132-0.057h-0.321V44.484z M16.782,36.064l0.004-11.731l4.128-2.586v12.122L16.782,36.064z
					 M11.279,41.324c-0.216-0.242-1.896-1.41-2.658-1.606c-0.297-0.07-0.26-0.108-0.974-0.223c0.375-0.169,0.877-0.347,1.373-0.362
					c0.028-0.004,0.054-0.004,0.083-0.004c1.069-0.004,3.877,0.768,5.644,1.287V54.57c-1.195-0.819-2.313-1.74-3.334-2.763
					c-3.258-3.259-5.549-7.48-6.421-12.203c0.622,0.116,0.915,0.149,0.915,0.149l0.596,0.088c0.453,0.096,0.648,0.161,0.997,0.233
					c0.531,0.11,1.395,0.496,2.126,0.852c0.368,0.179,0.704,0.353,0.961,0.479c0.279,0.129,0.368,0.206,0.541,0.23
					c0.022,0,0.059,0,0.112-0.032c0.053-0.037,0.087-0.116,0.082-0.158C11.317,41.377,11.298,41.355,11.279,41.324z M13.014,39.374
					c-1.659-0.333-2.887-0.874-3.983-0.877c-0.095,0-0.189,0.002-0.283,0.013c-0.72,0.076-1.826,0.68-2.065,0.779
					c-0.246-0.036-0.943-0.142-1.793-0.256c-0.192-1.199-0.293-2.428-0.293-3.678c0-6.43,2.604-12.246,6.816-16.458
					c2.001-2,4.37-3.627,6.987-4.796l-0.011,0.185l-1.466,1.713c-0.028,0.033-0.034,0.079-0.014,0.117
					c0.009,0.02,0.031,0.024,0.05,0.034l-1.621,1.945c-0.024,0.027-0.031,0.098,0.007,0.147c0.04,0.049,0.064,0.063,0.064,0.063
					l-1.688,1.991c-0.028,0.033-0.032,0.08-0.013,0.119c0.015,0.028,0.044,0.042,0.075,0.05l-1.59,1.866
					c-0.099,0.116-0.091,0.355-0.091,0.373c0.002,0.216,0.125,0.427,0.322,0.584c0.156,0.123,0.337,0.192,0.511,0.194
					c0.005,0,0.008-0.002,0.014-0.002c0.057,0.052,0.151,0.098,0.3,0.12v0.803h0.708v0.539h0.792v14.855
					C14.233,39.654,13.642,39.502,13.014,39.374z M12.832,22.689c0.14,0.109,0.211,0.258,0.208,0.351c0,0.042-0.01,0.07-0.029,0.095
					c-0.024,0.03-0.07,0.054-0.146,0.054c-0.09,0.001-0.216-0.041-0.325-0.128c-0.14-0.107-0.209-0.255-0.207-0.35
					c0-0.042,0.011-0.071,0.026-0.092c0.028-0.035,0.073-0.056,0.149-0.058c0.001,0,0.002,0,0.002,0
					C12.603,22.56,12.722,22.603,12.832,22.689z M37.408,19.5c-0.673-0.374-1.347-0.075-1.347-0.075l-2.196-6.801l2.115,2.45
					L37.408,19.5z M36.699,15.919l2.019,2.375l0.514,1.524c-0.62-0.337-1.306-0.047-1.306-0.047L36.699,15.919z M36.492,20.141
					l0.884,0.142c0,0,0.013,0.24,0.017,0.365c0.005,0.233-0.085,0.317-0.241,0.424l-0.917-0.159
					c0.135-0.092,0.262-0.211,0.262-0.364C36.495,20.401,36.492,20.141,36.492,20.141z M35.53,19.163
					c-0.586-0.337-1.313-0.067-1.313-0.067l-3.093-9.598l2.08,2.367L35.53,19.163z M34.314,19.723l0.872,0.143
					c0,0,0.015,0.24,0.016,0.367c0.006,0.25-0.103,0.331-0.284,0.452l-0.887-0.155c0.146-0.105,0.287-0.247,0.287-0.398
					C34.319,19.983,34.314,19.723,34.314,19.723z M33.705,18.861c-0.62-0.372-1.37-0.094-1.37-0.094l-4.07-12.485l2.139,2.388
					L33.705,18.861z M32.076,19.343l0.887,0.137c0,0,0.014,0.239,0.018,0.365c0.006,0.25-0.103,0.332-0.283,0.452l-0.883-0.153
					c0.142-0.083,0.266-0.193,0.266-0.393C32.079,19.604,32.076,19.343,32.076,19.343z M31.827,18.482
					c-0.815-0.29-1.337-0.044-1.337-0.044l-3.941-12.14l0.247-0.62l0.133-0.082c0.344,0.328,0.878,0.505,0.878,0.505L31.827,18.482z
					 M29.965,18.948l0.876,0.148c0,0,0.013,0.24,0.016,0.366c0.006,0.258-0.11,0.337-0.3,0.463l-0.893-0.155
					c0.158-0.085,0.305-0.194,0.305-0.412C29.969,19.21,29.965,18.948,29.965,18.948z M30.021,18.255
					c-0.691-0.462-1.514-0.165-1.514-0.165l-2.973-9.227l0.793-2.016L30.021,18.255z M23.392,14.025l0.834-2.075l1.741,5.608
					c-0.725-0.488-1.516-0.166-1.516-0.166L23.392,14.025z M23.983,17.213c-0.741-0.497-1.517-0.166-1.517-0.166l-0.153-0.455
					l0.797-1.913L23.983,17.213z M25.667,18.584c0-0.149-0.005-0.409-0.005-0.409l0.883,0.128c0,0,0.014,0.24,0.017,0.366
					c0.005,0.281-0.13,0.348-0.353,0.5l-0.884-0.153C25.497,18.928,25.667,18.818,25.667,18.584z M26.492,17.771l-2.054-6.334
					l0.868-2.126l2.702,8.626C27.362,17.473,26.492,17.771,26.492,17.771z M27.821,18.957c0-0.15-0.003-0.409-0.003-0.409
					l0.885,0.141c0,0,0.014,0.239,0.016,0.363c0.007,0.279-0.126,0.349-0.341,0.494l-0.894-0.155
					C27.646,19.294,27.821,19.147,27.821,18.957z M21.775,16.954l-0.206-0.065l4.628-11.133l0.195-0.002L21.775,16.954z
					 M22.062,17.562c0,0.02-0.002,0.036-0.007,0.057c-0.025,0.092-0.145,0.174-0.327,0.175c-0.06,0-0.122-0.01-0.186-0.028
					c-0.223-0.069-0.349-0.243-0.343-0.356c0-0.021,0.002-0.039,0.007-0.054c0.029-0.097,0.144-0.179,0.327-0.18
					c0.059,0,0.121,0.011,0.185,0.03C21.941,17.272,22.066,17.447,22.062,17.562z M21.136,16.987
					c-0.844,0.072-1.018,1.023-1.018,1.023c-0.523-0.049-0.88,0.132-0.88,0.132l4.763-9.604l1.357-1.866L21.136,16.987z
					 M20.678,19.873l-0.37,0.244c-0.235-0.11-0.592-0.255-0.663-0.478c-0.024-0.076-0.059-0.195-0.081-0.268l0.353-0.234
					c0.024,0.081,0.067,0.21,0.096,0.299C20.075,19.619,20.475,19.79,20.678,19.873z M19.402,20.711l-0.376,0.247
					c-0.218-0.113-0.672-0.267-0.751-0.519c-0.016-0.05-0.037-0.118-0.055-0.179l0.355-0.235c0.023,0.072,0.048,0.15,0.069,0.21
					C18.715,20.454,19.281,20.66,19.402,20.711z M18.3,19.267c-0.819,0.051-1.154,0.356-1.154,0.356l2.831-5.596l2.851-3.887
					L18.3,19.267z M18.18,21.514l-0.373,0.246c-0.227-0.112-0.65-0.264-0.729-0.508c-0.018-0.054-0.042-0.13-0.061-0.196
					l0.354-0.235c0.024,0.074,0.053,0.164,0.075,0.229C17.517,21.255,18.025,21.45,18.18,21.514z M16.132,20.874
					c-1.033-0.024-1.466,0.399-1.466,0.399l4.079-5.565L16.132,20.874z M16.905,22.35l-0.37,0.245
					c-0.233-0.11-0.613-0.259-0.687-0.488c-0.021-0.064-0.048-0.159-0.072-0.232l0.355-0.234c0.025,0.08,0.06,0.186,0.085,0.264
					C16.281,22.093,16.712,22.271,16.905,22.35z M15.384,22.818l-0.365,0.242c-0.149-0.063-0.164-0.071-0.272-0.309
					c-0.02-0.042-0.043-0.097-0.068-0.152l0.347-0.229c0.022,0.047,0.044,0.095,0.062,0.134
					C15.179,22.697,15.272,22.778,15.384,22.818z M39.445,19.064l0.852,0.95c-0.095-0.004-0.525,0.104-0.525,0.104L39.445,19.064z
					 M39.655,39.594c0.35-0.099,0.772-0.178,1.245-0.178c0.133,0,0.268,0.006,0.406,0.02c1.537,0.148,2.97,0.859,3.285,0.976
					c0.643,0.228,1.498,0.397,1.88,0.46c0.356,0.062,1.723,0.518,2.068,0.53c0.025,0,0.053,0,0.097-0.021
					c0.043-0.005,0.131-0.088,0.128-0.183c-0.001-0.052-0.018-0.088-0.042-0.125c-0.188-0.243-0.523-0.366-1.18-0.552
					c-0.265-0.072-0.265-0.111-0.764-0.217c0.404-0.113,0.898-0.227,1.354-0.275c0.413-0.041,0.809-0.059,1.184-0.059
					c0.482,0,0.928,0.031,1.348,0.088c-0.932,4.537-3.185,8.595-6.339,11.749c-1.392,1.396-2.962,2.603-4.667,3.606v-15.82H39.655z
					 M50.129,39.264c-0.933,0-1.732,0.111-2.259,0.161c-0.705,0.069-1.966,0.507-2.247,0.592c-0.487-0.132-2.836-1.306-4.439-1.306
					c-0.073,0-0.144,0-0.218,0.004c-0.371,0.029-1.072,0.208-1.146,0.214c-0.051,0.005-0.109,0.017-0.165,0.033V22.82l0.25,0.029
					l0.007-0.411l0.258-0.256l0.005-0.501c0.247-0.124,0.247-0.444,0.247-0.444l0.594-0.42c0.011,0,0.023,0.002,0.033,0.005
					c0.054,0.021,0.111,0.029,0.164,0.029h0.001c0.007,0,0.013,0.002,0.021,0.002c0.002,0,0.002,0,0.003,0
					c0.194-0.002,0.392-0.089,0.582-0.235l-0.003-0.004l0,0l0.004,0.005c0.034-0.028,0.062-0.057,0.092-0.084
					c0.199-0.174,0.339-0.363,0.35-0.587c0-0.027-0.006-0.059-0.015-0.087c0.001-0.047-0.008-0.093-0.042-0.128l-1.435-1.507
					c0.009-0.013,0.023-0.02,0.027-0.033c0.028-0.069,0.014-0.148-0.038-0.198l-1.576-1.59c0.015-0.017,0.034-0.031,0.042-0.052
					c0.029-0.068,0.014-0.146-0.037-0.199l-1.516-1.53c0.004-0.008,0.014-0.012,0.017-0.021c0.028-0.068,0.014-0.145-0.037-0.197
					l-0.278-0.28c2.602,1.167,4.956,2.789,6.945,4.779c4.212,4.21,6.817,10.027,6.817,16.457c0,1.341-0.12,2.656-0.338,3.938
					C50.574,39.277,50.345,39.264,50.129,39.264z M41.256,20.562c-0.072-0.09,0.016-0.228,0.19-0.366
					c0.172-0.139,0.364-0.224,0.435-0.135c0.071,0.089-0.011,0.273-0.184,0.411C41.524,20.61,41.326,20.65,41.256,20.562z
					 M27.189,1.617c0.076,0.001,0.143,0.017,0.191,0.036v1.227c-0.06-0.006-0.126-0.01-0.191-0.016V1.617z M26.998,3.139
					c0,0,0.001,0,0.002,0l0.985,0.14c-0.001,0.07-0.032,0.119-0.074,0.161c-0.013,0.014-0.025,0.024-0.038,0.036l-0.802-0.106
					c-0.063-0.095-0.074-0.159-0.074-0.202C26.997,3.158,26.998,3.147,26.998,3.139z M26.859,3.792l0.924,0.125l2.052,2.152
					c-0.161-0.056-0.361-0.16-0.529-0.269c-0.263-0.165-0.471-0.33-0.471-0.33l-0.157-0.125l-0.091,0.176
					c-0.089,0.161-0.17,0.193-0.308,0.197c-0.201,0.005-0.499-0.139-0.728-0.293c-0.23-0.153-0.398-0.307-0.398-0.307l-0.144-0.132
					l-0.103,0.165c-0.145,0.218-0.299,0.263-0.469,0.269c-0.121,0-0.243-0.034-0.334-0.07c-0.003-0.001-0.007-0.004-0.01-0.004
					L26.859,3.792z M25.898,4.315l0.609-0.448l-0.68,1.38c0,0-0.28,0.289-0.265-0.132c0,0-1.683,2.342-1.714,1.61L25.898,4.315z
					 M20.166,12.352l1.432-1.75l0.025-0.162l1.537-1.874l0.026-0.185l2.06-2.406c0.126-0.08,0.215-0.109,0.254-0.116v0.008
					c0.001,0.025-0.004,0.052-0.008,0.07L13.306,22.56l-0.391-0.378l1.252-1.542l0.026-0.181l1.441-1.782l0.026-0.217l1.536-1.899
					l0.009-0.185l1.486-1.897l0.029-0.164l1.441-1.829L20.166,12.352z M45.223,52.705c-4.444,4.442-10.576,7.188-17.354,7.188
					c-6.779,0-12.91-2.746-17.355-7.188c-4.441-4.443-7.188-10.574-7.188-17.35c0-6.782,2.746-12.914,7.188-17.356
					c2.614-2.611,5.817-4.629,9.384-5.854l-0.894,1.116C10.247,16.779,4.062,25.34,4.062,35.355
					c0.001,10.27,6.506,19.02,15.622,22.357c2.552,0.935,5.31,1.445,8.187,1.445v0.002c10.271,0,19.024-6.509,22.361-15.619
					c0.935-2.555,1.445-5.312,1.445-8.186c0-10.144-6.345-18.794-15.277-22.226l-0.343-0.346c0.014-0.017,0.031-0.028,0.039-0.049
					c0.029-0.068,0.014-0.146-0.038-0.198l-0.472-0.477c3.671,1.216,6.962,3.265,9.638,5.939c4.442,4.442,7.188,10.575,7.188,17.356
					C52.41,42.131,49.665,48.262,45.223,52.705z M28.965,55.191l4.424,0.696c0.015,0.003,0.029,0.006,0.043,0.006
					c0.063,0,0.125-0.025,0.174-0.067c0.059-0.049,0.093-0.127,0.092-0.204l-0.02-4.468c0.007-0.121-0.065-0.232-0.176-0.27
					c-0.019-0.01-0.038-0.013-0.06-0.016l-4.389-0.674c-0.077-0.01-0.156,0.012-0.216,0.062c-0.06,0.05-0.093,0.124-0.093,0.203
					l-0.007,4.469C28.738,55.059,28.834,55.172,28.965,55.191z M31.589,51.126l1.555,0.239l0.018,3.944l-1.573-0.245V51.126
					L31.589,51.126z M29.279,50.771l1.778,0.274v3.934l-1.783-0.283L29.279,50.771z"/>
			</g>
		</g>
	</g>
	<g id="Layer_3">
		<g display="inline">
			<path fill="#FFFFFF" d="M92.326,93.846l-7.724,21.537h-0.668l-5.458-15.375l-5.718,15.375H72.09l-7.762-21.686l-2.19-0.299
				v-1.187h8.355v1.187l-3.082,0.299l5.682,16.15l4.493-12.289l-1.411-3.861l-2.265-0.299v-1.187h8.54v1.187l-3.082,0.299v0.371
				l5.496,15.779l5.681-16.039l-2.97-0.409v-1.187h6.944v1.187L92.326,93.846z"/>
			<path fill="#FFFFFF" d="M105.276,115.084v-1.037l2.673-0.299v-6.387h-8.466v6.387l2.673,0.299v1.037h-8.02v-1.037l2.673-0.299
				V100.38l-2.673-0.296v-1.04h8.02v1.04l-2.673,0.296v5.646h8.466v-5.646l-2.673-0.296v-1.04h7.982v1.04l-2.672,0.296v13.368
				l2.672,0.299v1.037H105.276z"/>
			<path fill="#FFFFFF" d="M117.716,115.084v-1.037l2.675-0.299V100.38l-2.675-0.296v-1.04h8.021v1.04l-2.672,0.296v13.368
				l2.672,0.299v1.037H117.716z"/>
			<path fill="#FFFFFF" d="M143.153,103.499l-0.409-3.119h-4.493v13.368l2.675,0.299v1.037h-8.021v-1.037l2.673-0.299V100.38h-4.53
				l-0.408,3.119h-1.188v-4.455h14.891v4.455H143.153z"/>
			<path fill="#FFFFFF" d="M162.416,115.084v-1.037l2.673-0.299l-0.743-11.178l-6.09,12.514h-0.594l-5.978-12.217l-0.669,10.732
				l2.673,0.447v1.037h-6.906v-1.037l2.675-0.447l0.891-13.22l-2.673-0.296v-1.04h5.049l5.866,12.142l5.904-12.142h5.013v1.04
				l-2.673,0.221l0.929,13.442l2.672,0.298v1.039H162.416L162.416,115.084z"/>
			<path fill="#FFFFFF" d="M182.694,115.084v-1.037l2.784-0.299l-1.521-3.529h-6.461l-1.486,3.49l2.786,0.336v1.039h-6.388v-1.039
				l2.042-0.371l6.351-14.929h1.188l6.424,15.002l2.006,0.298v1.039H182.694L182.694,115.084z M180.763,102.571h-0.073l-2.637,6.312
				h5.347L180.763,102.571z"/>
			<path fill="#FFFFFF" d="M209.133,100.529v14.704h-0.854l-11.51-12.515V113.6l2.636,0.447v1.037h-6.833v-1.037l2.637-0.447
				v-12.551l-0.705-0.744l-1.932-0.221v-1.04h4.383l10.619,11.622v-10.137l-2.637-0.445v-1.04h6.832v1.04L209.133,100.529z"/>
			<path fill="#FFFFFF" d="M238.175,115.678c-6.608,0-11.585-4.64-11.585-11.881c0-7.242,4.828-12.182,12.068-12.182
				c3.082,0,4.938,0.521,6.312,1.115l0.482-1.115h1.188l-0.297,6.723h-1.188l-0.596-2.932c-1.781-1.486-3.454-2.306-6.533-2.306
				c-4.457,0-8.168,3.826-8.168,10.139c0,5.644,3.08,10.768,8.576,10.768c2.97,0,5.533-1.226,7.502-3.268l0.89,1.188
				C244.375,114.416,241.555,115.678,238.175,115.678z"/>
			<path fill="#FFFFFF" d="M257.365,115.678c-4.901,0-8.725-3.414-8.725-8.465s3.971-8.765,8.875-8.765
				c4.898,0,8.725,3.417,8.725,8.468C266.24,111.966,262.268,115.678,257.365,115.678z M257.365,99.788
				c-3.27,0-5.683,2.673-5.683,7.128c0,4.457,2.562,7.427,5.833,7.427c3.268,0,5.68-2.673,5.68-7.128
				C263.195,102.758,260.632,99.788,257.365,99.788z"/>
			<path fill="#FFFFFF" d="M268.268,115.084v-1.037l2.672-0.299V100.38l-2.672-0.296v-1.04h8.019v1.04l-2.673,0.296v13.368h6.314
				l0.557-3.378h1.261v4.714H268.268z"/>
			<path fill="#FFFFFF" d="M284.812,115.084v-1.037l2.673-0.299V100.38l-2.673-0.296v-1.04h8.018v1.04l-2.67,0.296v13.368h6.312
				l0.558-3.378h1.261v4.714H284.812z"/>
			<path fill="#FFFFFF" d="M300.676,115.084v-1.037l2.674-0.299V100.38l-2.674-0.296v-1.04h13.333v4.196h-1.188l-0.409-2.86h-6.386
				v5.646h4.382l0.296-1.782h1.114v4.899h-1.114l-0.296-1.781h-4.382v6.387h6.609l0.483-3.008h1.262v4.346h-13.705V115.084z"/>
			<path fill="#FFFFFF" d="M333.813,109.738v4.159c-1.226,0.78-3.64,1.78-6.868,1.78c-5.05,0-8.91-3.452-8.91-8.503
				c0-5.05,3.562-8.726,9.133-8.726c2.525,0,4.084,0.559,5.159,0.891l0.299-0.891h1.114l-0.223,5.051h-1.114l-0.408-2.229
				c-1.634-1.078-3.046-1.483-5.124-1.483c-3.417,0-5.791,2.709-5.791,7.091c0,4.344,2.338,7.463,6.125,7.463
				c1.932,0,3.119-0.408,3.936-1.039v-3.564l-2.896-0.299v-1.038h6.683v0.968L333.813,109.738z"/>
			<path fill="#FFFFFF" d="M338.384,115.084v-1.037l2.671-0.299V100.38l-2.671-0.296v-1.04h13.331v4.196h-1.189l-0.408-2.86h-6.387
				v5.646h4.381l0.299-1.782h1.114v4.899h-1.114l-0.299-1.781h-4.381v6.387h6.611l0.48-3.008h1.264v4.346h-13.702V115.084z"/>
		</g>
		<g display="inline">
			<g>
				<path fill="#FFFFFF" d="M28.8,90.743l-0.005,0.001c-0.201,0-0.398,0.021-0.592,0.047c-2.331,0.208-4.148,2.312-4.147,4.865
					l-0.001,0.001c0,0.007,0,0.015,0.001,0.021c0.008,2.543,1.822,4.637,4.146,4.844c0.195,0.023,0.394,0.047,0.598,0.047h0.002
					c2.522-0.002,4.539-2.213,4.544-4.912v-0.002C33.345,92.954,31.323,90.746,28.8,90.743z M29.465,100.072
					c-0.216,0.04-0.435,0.065-0.661,0.065l-0.002-0.003c-2.257-0.002-4.112-1.99-4.114-4.477l-0.001-0.018
					c0.007-2.479,1.86-4.461,4.115-4.465h0.048l0.002-0.001c0.114,0.002,0.226,0.011,0.337,0.022
					c1.882,0.494,3.27,2.283,3.272,4.455C32.461,97.774,31.381,99.512,29.465,100.072z M17.941,117.053
					c-0.056-0.033-0.128-0.035-0.186-0.004l-1.898,1.002c-0.068,0.036-0.105,0.106-0.101,0.178l0.008,4.88
					c0,0.065,0.035,0.126,0.091,0.163c0.03,0.016,0.065,0.023,0.097,0.023c0.03,0,0.061-0.006,0.089-0.022l1.897-1.013
					c0.061-0.033,0.098-0.099,0.098-0.168l-0.006-4.879C18.032,117.147,17.998,117.086,17.941,117.053z M16.675,122.506
					l-0.533,0.287l-0.007-4.461l0.54-0.287V122.506z M17.053,122.303v-4.457l0.601-0.317l0.006,4.45L17.053,122.303z M15.982,96.506
					L15.982,96.506c-0.003-2.413,0.841-4.3,1.97-4.389c0.04-0.004,0.073-0.038,0.073-0.08c0-0.04-0.031-0.076-0.072-0.08
					c-0.023,0-0.209-0.061-0.279-0.063v0.003c-0.002,0-0.003,0-0.003-0.003c-1.361,0.021-2.371,2.087-2.377,4.595
					c0.002,2.986,1.017,4.602,2.174,4.617c0.072,0,0.145-0.007,0.217-0.021c0.028-0.005,0.193-0.017,0.23-0.021
					c0.042-0.002,0.074-0.036,0.074-0.078c0.001-0.041-0.029-0.076-0.07-0.082C16.639,100.772,15.978,98.918,15.982,96.506z
					 M27.267,106.549c0,0,1.503-0.023,1.972,1.574c0,0,0.281-1.27,1.86-1.21C31.099,106.913,29.489,105.086,27.267,106.549z
					 M29.267,107.367c-0.168-0.242-0.525-0.695-0.982-0.902c0.187-0.059,0.457-0.119,0.77-0.119
					c0.367,0.004,0.788,0.083,1.208,0.348C29.971,106.758,29.513,106.925,29.267,107.367z M32.393,78.393l-1.228-1.24
					c0.008-0.012,0.021-0.02,0.025-0.03c0.029-0.068,0.013-0.146-0.041-0.198l-1.563-1.581c0.002-0.007,0.009-0.009,0.012-0.015
					c0.029-0.07,0.013-0.146-0.038-0.201l-1.086-0.98c0.055-0.029,0.039-0.019,0.084-0.068c0.047-0.055,0.06-0.165,0.023-0.228
					c-0.073-0.122-2.318-2.442-2.318-2.442c0.045-0.076,0.08-0.172,0.083-0.295c0.005-0.174-0.071-0.324-0.071-0.324l-0.482-0.066
					v-1.525l-0.083-0.055c-0.017-0.012-0.204-0.133-0.493-0.135c-0.159,0-0.347,0.041-0.534,0.158l-0.085,0.053v1.543l-0.518,0.457
					l-0.026,0.029l-2.725,3.383c-0.047,0.058-0.062,0.133-0.043,0.203c0.003,0.016,0.013,0.092,0.062,0.167
					c0.042,0.065,0.085,0.1,0.225,0.116c-0.113,0.123-0.211,0.239-0.283,0.342l-0.457,0.535l-0.016,0.018v0.002l-1.225,1.434
					c-0.028,0.032-0.038,0.081-0.014,0.117c0.044,0.064,0.1,0.055,0.123,0.062l-0.725,0.887C8.101,81.543,0.12,91.513,0.12,103.354
					c0,14.245,11.55,25.793,25.796,25.794c14.247-0.002,25.794-11.55,25.794-25.794C51.711,91.346,43.501,81.268,32.393,78.393z
					 M28.96,75.173l0.017,0.19l1.562,1.668l0.022,0.209l1.442,1.485l0.003,0.183l1.542,1.576l0.02,0.185l1.632,1.702l0.037,0.164
					l1.512,1.609l0.03,0.195l1.519,1.602l0.005,0.16l1.484,1.592c-0.238,0.021-0.406,0.204-0.406,0.204L27.058,73.961
					c0.421,0.236,1.017,0.312,1.017,0.312L28.96,75.173z M32.371,118.285l-0.019,6.893l-6.254-0.979l0.018-6.855L32.371,118.285z
					 M28.417,115.448l1.597-0.606c0,0-0.098,1.779-1.581,2.254L28.417,115.448z M29.25,117.271c0.932-0.334,1.375-1.066,1.582-1.654
					l0.862,0.119v0.036l0.035,1.87L29.25,117.271z M26.262,113.92l-0.002-1.232l8.109,1.207l0.008,1.189L26.262,113.92z
					 M32.523,113.262l-2.691-0.399l0.001-2.757l0.27-0.014c0.008,0,0.014-0.01,0.023-0.012h0.007c0.084,0,0.162-0.057,0.184-0.139
					l0.209-0.812c0.013-0.051,0.004-0.107-0.027-0.152c-0.03-0.045-0.079-0.074-0.133-0.081l-0.411-0.054
					c0.135-0.465,0.418-0.848,1.244-0.857c0.054,0,0.116,0.006,0.176,0.01c1.124,0.374,1.067,1.854,1.067,1.854L32.523,113.262z
					 M31.459,107.567c-0.089-0.009-0.178-0.012-0.261-0.012c-1.08-0.011-1.508,0.626-1.683,1.232l-0.542-0.07
					c-0.127-0.608-0.496-1.483-1.589-1.627c-0.097-0.009-0.19-0.014-0.28-0.014c-0.576,0-0.975,0.202-1.254,0.491
					c0.011-0.031,0.015-0.063,0.025-0.09c0.275-0.615,1.194-2.225,3.254-1.965c1.621,0.205,2.457,1.225,2.92,2.227
					C31.881,107.654,31.687,107.592,31.459,107.567z M30.13,109.242l-0.115,0.445l-1.523-0.178l-0.046-0.484L30.13,109.242z
					 M29.402,110.084v2.714l-0.282-0.04l-0.062-2.715L29.402,110.084z M32.423,107.109c-0.433-0.686-1.024-1.26-1.715-1.637
					l0.528-0.95c0.871,0.501,1.609,1.249,2.143,2.14L32.423,107.109z M33.613,107.092c0.353,0.707,0.583,1.487,0.643,2.306
					l-1.096-0.151c-0.057-0.604-0.229-1.183-0.493-1.71L33.613,107.092z M30.273,105.273c-0.325-0.133-0.666-0.225-1.018-0.266
					c-0.48-0.057-0.938-0.021-1.365,0.09l-0.46-1.08c0.57-0.164,1.188-0.223,1.833-0.152c0.542,0.061,1.06,0.214,1.547,0.439
					L30.273,105.273z M27.452,105.246c-0.553,0.225-1.034,0.59-1.4,1.057l-1.034-0.554c0.492-0.705,1.177-1.246,1.979-1.573
					L27.452,105.246z M25.791,106.684c-0.257,0.436-0.432,0.932-0.494,1.473l-1.097-0.15c0.064-0.684,0.267-1.312,0.573-1.863
					L25.791,106.684z M25.753,108.965c0.098-0.653,0.334-1.457,1.351-1.457c0.071,0,0.15,0.006,0.233,0.015
					c0.03,0.002,0.057,0.009,0.084,0.014c0.513,0.22,0.751,0.688,0.862,1.093l-0.046-0.007c-0.042-0.005-0.083,0.007-0.12,0.028
					l-0.064,0.017l-0.225,0.165c-0.043,0.031-0.063,0.086-0.054,0.137l0.15,0.842c0.012,0.059,0.062,0.105,0.123,0.113l0.344,0.04
					l0.063,2.695l-2.428-0.36c-0.036-0.004-0.069,0.003-0.099,0.017c-0.003,0.003-0.007,0-0.01,0.003l-0.164,0.064v-3.418H25.753z
					 M25.769,112.826v1.147l-1,0.388l-0.009-1.133L25.769,112.826z M26.378,114.328c0,0-0.098,1.777-1.581,2.253l-0.016-1.647
					L26.378,114.328z M27.191,115.115l0.873,0.119v0.024l0.035,1.839l-2.168-0.326v-0.08c0-0.025-0.007-0.045-0.013-0.066
					C26.638,116.257,27.008,115.633,27.191,115.115z M25.929,124.717l6.613,1.034v0.078c-2.098,0.618-4.315,0.96-6.613,0.96V124.717
					z M32.075,117.607l-0.016-1.646l1.596-0.605C33.655,115.355,33.557,117.134,32.075,117.607z M32.972,117.746
					c1.298-0.518,1.59-1.822,1.648-2.291c0.042-0.038,0.064-0.088,0.063-0.143l-0.012-1.567c0-0.093-0.068-0.171-0.159-0.185
					l-1.305-0.193l-0.084-3.586c-0.002,0-0.003-0.049-0.012-0.128l1.57,0.149l-0.014-0.141c-0.042-1.137-0.382-2.219-0.934-3.156
					l-0.003-0.007l0,0c-0.631-1.069-1.537-1.945-2.602-2.483c0,0-0.98-0.484-1.86-0.562c-0.357-0.033-1.055-0.023-1.055-0.023
					c-3.75,0.189-4.644,3.642-4.729,3.898c-0.085,0.256-0.256,0.832-0.096,0.989c0.147,0.146,1.65,0.236,1.899,0.251l0.07,0.009
					c-0.022,0.121-0.035,0.239-0.036,0.352l-0.001,3.626l-0.792,0.318c-0.072,0.026-0.12,0.099-0.119,0.175l0.01,1.534
					c0,0.01,0.004,0.017,0.006,0.025c-0.002,0.006-0.005,0.014-0.005,0.021c0,0.005,0.005,0.009,0.005,0.014l-0.001,0.106
					l0.04,2.141c0,0.02,0.009,0.037,0.024,0.051c0.006,0.006,0.015,0.006,0.023,0.01c0.001,0.002,0.001,0.002,0.003,0.005
					c0.011,0.009,0.029,0.017,0.046,0.017h0.009l0.584-0.086c0.121-0.024,0.232-0.057,0.341-0.09v9.987
					c-1.656-0.028-3.269-0.228-4.822-0.581V87.825c0.343,0.033,1.16,0.126,1.561,0.248c0.178,0.054,0.288,0.138,0.359,0.228
					c0.024,0.065,0.029,0.125,0.031,0.16c0,0.021,0.006,0.119,0.006,0.119v12.654l0.003,0.003l-0.012,0.36l12.721,1.92l-0.002-0.241
					V90.451c0.033,0,0.062-0.004,0.096-0.004c0.422-0.008,1.159,0.066,1.66,0.141v0.008l-0.008-0.002v33.366
					c-1.302,0.708-2.681,1.291-4.118,1.745v-7.959H32.972z M22.999,100.922V88.723l11.425,1.952v12.001L22.999,100.922z
					 M34.268,89.993l-11.062-1.929c0-0.699-1.901-0.934-2.657-0.998v0.011c0,0-1.428,0.62-1.255,1.435l-4.617,2.995
					c0,0-0.662-0.459-2.448,0.886l0.001-0.527c0,0,0.016-0.015,0.04-0.031c-0.04,0.015-0.076,0.025-0.107,0.025
					c-0.188,0.003-0.365-0.048-0.365-0.048s0.001-0.003,0.002-0.006c-0.01-0.003-0.02-0.002-0.029-0.008
					c-0.199-0.096-0.234-0.133-0.324-0.411c-0.007-0.023-0.014-0.051-0.021-0.078l0.364-0.241c0.007,0.04,0.017,0.081,0.027,0.115
					c0.06,0.181,0.196,0.267,0.312,0.321c0.139,0.051,0.378,0.066,0.5,0.072c0.523-0.354,1.444-0.877,2.009-0.627l4.61-2.963
					c0,0-0.154-0.496,0.538-1.082c-0.028,0.006-0.056,0.01-0.079,0.008c-0.184-0.008-0.606,0.047-0.788-0.309
					c-0.03-0.057-0.053-0.139-0.068-0.203l0.357-0.236c0.02,0.072,0.048,0.166,0.081,0.234c0.097,0.203,0.65,0.205,0.902,0.217
					c0.081-0.049,0.168-0.099,0.263-0.148l0.002,0.012l0.02-0.012c0,0,0.489,0.031,0.703,0.055c0.167-0.1,0.352-0.25,0.352-0.441
					c0-0.147-0.004-0.41-0.004-0.41l0.894,0.15c0,0,0.013,0.239,0.015,0.367c0.007,0.275-0.121,0.35-0.33,0.488
					c1.255,0.309,1.203,0.824,1.203,0.824l10.899,1.897c0.495-0.243,1.463-0.22,2.316-0.135c0.166-0.087,0.323-0.198,0.323-0.423
					c0-0.149-0.004-0.412-0.004-0.412l0.908,0.148c0,0,0.015,0.241,0.017,0.369c0.005,0.244-0.096,0.329-0.268,0.444
					c0.181,0.026,0.33,0.054,0.443,0.073l-0.005,0.588C34.569,89.502,34.268,89.993,34.268,89.993z M15.401,124.012v-6.066
					l2.915-1.613v6.173L15.401,124.012z M18.316,122.93v2.599c-0.954-0.329-1.879-0.717-2.775-1.161L18.316,122.93z M13.751,115.685
					l0.006-1.017l3.105-1.634v1.062L13.751,115.685z M14.88,116.283l-0.003,1.136c-0.909-0.165-0.968-0.71-0.99-1.058
					c0-0.028,0.001-0.059,0.002-0.08L14.88,116.283z M15.929,107.445c0.175-0.389,0.391-0.647,0.574-0.67
					c0.058-0.014,0.104-0.018,0.147-0.018c0.013-0.003,0.021-0.003,0.027-0.003c0.383-0.017,0.75,0.646,0.926,1.464
					c0.013,0.054,0.023,0.11,0.035,0.166c-0.073-0.037-0.156-0.062-0.253-0.062c-0.051,0-0.103,0.004-0.153,0.018
					c-0.468,0.154-0.576,0.69-0.669,1.161v0.005c-0.002-0.007-0.002-0.016-0.005-0.023c-0.09-0.338-0.296-0.691-0.708-0.697
					c-0.046,0-0.092,0.006-0.138,0.015c-0.052,0.017-0.096,0.036-0.139,0.062C15.623,108.539,15.734,107.941,15.929,107.445z
					 M15.715,106.449c0,0,0.305-0.647,0.825-0.797c0.521-0.151,0.814,0.281,0.814,0.281l-0.241,0.506
					c-0.742-0.39-1.238,0.256-1.238,0.256L15.715,106.449z M17.95,107.79c-0.197-0.789-0.563-1.13-0.563-1.13l0.193-0.406
					c0.28,0.402,0.531,1.447,0.531,1.447L17.95,107.79z M18.186,108.055c0.096,0.319,0.228,1.669,0.228,1.669l-0.146,0.048
					c0.019-0.434-0.226-1.639-0.226-1.639L18.186,108.055z M17.192,114.687c0-0.04,0.001-0.076,0.004-0.11l1.118,0.004l-0.003,1.279
					C17.288,115.685,17.213,115.072,17.192,114.687z M17.864,116.145l-1.042,0.576l0.005-1.371l0.105-0.054
					C17.069,115.626,17.345,115.964,17.864,116.145z M17.166,112.552c-0.02,0-0.037,0.005-0.056,0.009
					c-0.026-0.004-0.055-0.004-0.083-0.002l0.02-2.033c0,0,0.021-1.376,0.381-1.818c0.089,0.023,0.193,0.154,0.272,0.419
					c0.063,0.212,0.103,0.476,0.125,0.726c0.007,0.109,0.009,0.194,0.012,0.234c0,0.012,0.007,0.021,0.008,0.029
					c0,0.009,0.001,0.016,0.001,0.023v2.413H17.166z M16.327,110.601v2.317l-0.745,0.393l0.021-2.352c0,0,0.021-1.291,0.347-1.773
					c0.097,0.048,0.175,0.174,0.246,0.402C16.281,109.877,16.31,110.271,16.327,110.601z M15.177,108.228
					c0.059-0.521,0.373-1.404,0.373-1.404l0.107,0.165C15.488,107.209,15.177,108.228,15.177,108.228z M16.45,115.414l-0.004,1.28
					c-1.02-0.175-1.096-0.792-1.118-1.177c0-0.041,0.001-0.076,0.003-0.109L16.45,115.414z M15.251,117.557l0.003-1.094
					c0.197,0.254,0.517,0.471,0.996,0.576l-1,0.553V117.557z M17.338,114.029v-1.119h1.001v1.119H17.338z M18.224,112.552v-2.185
					l0.87-0.29c0.027-0.012,0.045-0.036,0.041-0.065c0-0.006-0.001-0.008-0.002-0.012c0.002-0.008,0.003-0.017,0.002-0.023
					c-0.245-3.506-1.214-4.467-1.894-4.75c-0.03-0.012-0.378-0.05-0.481-0.055c-0.111,0-0.224,0.016-0.339,0.05
					c-1.821,0.601-1.828,4.212-1.865,5.499c0,0.143,0.001,0.26,0.003,0.338c0,0.039,0,0.07,0.001,0.093
					c0,0.009,0.001,0.019,0.001,0.024v0.006c0.003,0.076,0.046,0.147,0.112,0.186c0.035,0.021,0.073,0.029,0.11,0.029
					c0.038,0,0.074-0.01,0.106-0.027l0.047-0.023l-0.024,2.312l-1.412,0.747c-0.062,0.029-0.101,0.096-0.102,0.166l-0.006,1.441
					c-0.001,0.066,0.034,0.127,0.089,0.161c0.012,0.009,0.025,0.007,0.038,0.011c-0.004,0.053-0.01,0.111-0.01,0.181
					c-0.022,0.446,0.241,1.321,1.464,1.449v6.265c-0.59-0.312-1.166-0.648-1.725-1.007V92.438c0,0,0.741-0.566,1.112-0.327v12.155
					c0,0-0.003,0-0.005,0l-0.385,0.608c0,0-0.066,0.048,0.013,0.12c0.077,0.072,0.22-0.038,0.22-0.038l5.116-2.616
					c0,0-0.038-12.852-0.038-12.99c0-0.49,0.677-1.051,0.677-1.051v37.728c-0.399-0.104-0.792-0.223-1.181-0.347l-0.044-12.941
					c0-0.049-0.02-0.096-0.055-0.133c-0.036-0.035-0.083-0.054-0.133-0.054H18.224L18.224,112.552z M14.749,104.072l0.004-11.815
					l4.159-2.603v12.207L14.749,104.072z M9.207,109.367c-0.217-0.243-1.909-1.419-2.677-1.617c-0.299-0.07-0.262-0.109-0.98-0.223
					c0.376-0.169,0.883-0.35,1.382-0.367c0.028-0.002,0.056-0.002,0.084-0.002c1.077-0.005,3.905,0.772,5.684,1.295v14.256
					c-1.205-0.824-2.331-1.754-3.359-2.783c-3.283-3.281-5.589-7.533-6.467-12.288c0.625,0.115,0.921,0.149,0.921,0.149l0.601,0.09
					c0.457,0.094,0.652,0.16,1.004,0.234c0.534,0.11,1.405,0.498,2.143,0.857c0.371,0.181,0.71,0.354,0.967,0.482
					c0.283,0.131,0.372,0.208,0.547,0.232c0.022,0,0.059,0,0.111-0.033c0.054-0.036,0.087-0.115,0.083-0.158
					C9.246,109.422,9.228,109.399,9.207,109.367z M10.955,107.404c-1.672-0.336-2.907-0.879-4.013-0.883
					c-0.095,0-0.19,0.002-0.285,0.014c-0.725,0.073-1.838,0.683-2.08,0.784c-0.247-0.038-0.949-0.145-1.806-0.257
					c-0.193-1.209-0.294-2.445-0.294-3.708c0-6.474,2.623-12.332,6.864-16.573c2.016-2.016,4.4-3.653,7.038-4.832l-0.012,0.188
					l-1.476,1.725c-0.028,0.033-0.034,0.078-0.014,0.117c0.009,0.021,0.031,0.025,0.051,0.034l-1.634,1.96
					c-0.024,0.025-0.031,0.099,0.008,0.148c0.039,0.049,0.064,0.062,0.064,0.062l-1.701,2.006c-0.028,0.031-0.033,0.078-0.014,0.117
					c0.015,0.029,0.045,0.046,0.075,0.053l-1.602,1.877c-0.1,0.117-0.092,0.359-0.091,0.375c0.002,0.217,0.125,0.431,0.323,0.59
					c0.158,0.123,0.339,0.193,0.515,0.193c0.005,0,0.009-0.002,0.015-0.002c0.057,0.053,0.152,0.1,0.302,0.121v0.808h0.713v0.545
					h0.796v14.964C12.184,107.686,11.587,107.533,10.955,107.404z M10.771,90.6c0.142,0.111,0.212,0.262,0.21,0.354
					c-0.001,0.042-0.01,0.07-0.029,0.095c-0.024,0.03-0.07,0.055-0.147,0.055c-0.091,0.002-0.218-0.041-0.328-0.129
					c-0.141-0.107-0.211-0.258-0.209-0.352c0-0.043,0.012-0.071,0.028-0.092c0.027-0.036,0.073-0.06,0.15-0.06
					c0.001,0,0.003,0,0.003,0C10.541,90.471,10.662,90.514,10.771,90.6z M35.524,87.388c-0.678-0.375-1.355-0.075-1.355-0.075
					l-2.212-6.85l2.13,2.467L35.524,87.388z M34.809,83.783l2.034,2.391l0.518,1.535c-0.625-0.341-1.316-0.048-1.316-0.048
					L34.809,83.783z M34.601,88.033l0.89,0.144c0,0,0.014,0.241,0.017,0.367c0.004,0.234-0.085,0.319-0.242,0.427l-0.924-0.162
					c0.136-0.092,0.264-0.211,0.264-0.363C34.605,88.296,34.601,88.033,34.601,88.033z M33.632,87.049
					c-0.59-0.338-1.322-0.068-1.322-0.068l-3.115-9.666l2.094,2.384L33.632,87.049z M32.407,87.613l0.878,0.144
					c0,0,0.014,0.241,0.016,0.368c0.006,0.253-0.103,0.334-0.286,0.455l-0.895-0.155c0.149-0.106,0.29-0.248,0.29-0.401
					C32.412,87.875,32.407,87.613,32.407,87.613z M31.794,86.745c-0.625-0.375-1.38-0.094-1.38-0.094l-4.097-12.577l2.155,2.407
					L31.794,86.745z M30.152,87.23l0.893,0.138c0,0,0.013,0.241,0.016,0.366c0.007,0.254-0.103,0.336-0.284,0.457l-0.89-0.154
					c0.143-0.083,0.268-0.193,0.268-0.396C30.157,87.492,30.152,87.23,30.152,87.23z M29.902,86.363
					c-0.82-0.291-1.348-0.043-1.348-0.043l-3.969-12.229l0.249-0.624l0.134-0.081c0.346,0.329,0.884,0.51,0.884,0.51L29.902,86.363z
					 M28.027,86.832l0.882,0.15c0,0,0.013,0.241,0.017,0.367c0.006,0.262-0.109,0.34-0.301,0.467l-0.9-0.156
					c0.16-0.086,0.307-0.196,0.307-0.416C28.03,87.097,28.027,86.832,28.027,86.832z M28.083,86.135
					c-0.696-0.467-1.524-0.166-1.524-0.166l-2.996-9.295l0.8-2.027L28.083,86.135z M21.407,81.873l0.84-2.09l1.754,5.648
					c-0.728-0.491-1.527-0.167-1.527-0.167L21.407,81.873z M22.001,85.084c-0.745-0.5-1.526-0.166-1.526-0.166l-0.155-0.457
					l0.803-1.928L22.001,85.084z M23.699,86.466c0-0.149-0.004-0.411-0.004-0.411l0.89,0.129c0,0,0.014,0.242,0.017,0.369
					c0.006,0.283-0.131,0.352-0.355,0.502l-0.89-0.154C23.528,86.812,23.699,86.701,23.699,86.466z M24.53,85.646l-2.068-6.379
					l0.875-2.141l2.721,8.688C25.405,85.347,24.53,85.646,24.53,85.646z M25.868,86.841c0-0.151-0.003-0.412-0.003-0.412l0.89,0.142
					c0,0,0.014,0.242,0.016,0.367c0.007,0.281-0.126,0.352-0.344,0.498l-0.899-0.156C25.691,87.182,25.868,87.032,25.868,86.841z
					 M19.778,84.824l-0.206-0.066l4.662-11.214l0.196-0.003L19.778,84.824z M20.066,85.436c0,0.02-0.001,0.037-0.007,0.058
					c-0.025,0.093-0.144,0.175-0.328,0.175c-0.06,0-0.124-0.009-0.187-0.027c-0.224-0.068-0.352-0.244-0.345-0.359
					c0-0.021,0.002-0.039,0.007-0.054c0.029-0.098,0.146-0.181,0.33-0.181c0.059,0,0.122,0.009,0.186,0.028
					C19.945,85.145,20.072,85.322,20.066,85.436z M19.135,84.857c-0.85,0.071-1.026,1.03-1.026,1.03
					c-0.527-0.05-0.887,0.134-0.887,0.134l4.798-9.673l1.367-1.878L19.135,84.857z M18.675,87.766l-0.373,0.242
					c-0.236-0.11-0.597-0.256-0.668-0.479c-0.024-0.076-0.06-0.196-0.082-0.271l0.356-0.234c0.025,0.08,0.068,0.212,0.097,0.301
					C18.067,87.508,18.47,87.68,18.675,87.766z M17.387,88.608l-0.378,0.249c-0.219-0.115-0.675-0.269-0.757-0.523
					c-0.016-0.05-0.037-0.119-0.056-0.18l0.359-0.238c0.023,0.072,0.049,0.152,0.069,0.213
					C16.697,88.35,17.266,88.555,17.387,88.608z M16.278,87.153c-0.825,0.052-1.162,0.36-1.162,0.36l2.851-5.637l2.871-3.918
					L16.278,87.153z M16.157,89.416l-0.375,0.247c-0.229-0.114-0.655-0.266-0.735-0.513c-0.018-0.054-0.042-0.13-0.061-0.197
					l0.357-0.237c0.024,0.076,0.053,0.165,0.075,0.23C15.489,89.156,16,89.352,16.157,89.416z M14.095,88.772
					c-1.04-0.024-1.477,0.402-1.477,0.402l4.109-5.604L14.095,88.772z M14.874,90.26L14.5,90.506
					c-0.235-0.111-0.617-0.26-0.691-0.492c-0.021-0.065-0.048-0.161-0.071-0.234l0.356-0.236c0.026,0.081,0.061,0.188,0.086,0.266
					C14.244,90,14.68,90.18,14.874,90.26z M13.341,90.73l-0.368,0.246c-0.15-0.066-0.164-0.072-0.274-0.312
					c-0.02-0.043-0.045-0.099-0.069-0.152l0.35-0.231c0.022,0.048,0.044,0.095,0.063,0.134
					C13.135,90.609,13.229,90.689,13.341,90.73z M37.575,86.949l0.858,0.955c-0.095-0.003-0.529,0.106-0.529,0.106L37.575,86.949z
					 M37.787,107.626c0.354-0.099,0.778-0.18,1.254-0.18c0.134,0,0.269,0.007,0.409,0.021c1.546,0.148,2.991,0.865,3.309,0.98
					c0.647,0.23,1.509,0.402,1.892,0.467c0.359,0.061,1.735,0.52,2.083,0.531c0.025,0,0.053,0,0.098-0.018
					c0.042-0.008,0.132-0.09,0.128-0.186c-0.001-0.051-0.018-0.09-0.043-0.125c-0.189-0.246-0.526-0.369-1.189-0.557
					c-0.265-0.071-0.264-0.11-0.77-0.218c0.407-0.113,0.905-0.228,1.365-0.274c0.417-0.043,0.815-0.062,1.192-0.062
					c0.485,0,0.935,0.031,1.356,0.09c-0.938,4.571-3.208,8.656-6.384,11.831c-1.402,1.404-2.984,2.623-4.702,3.635L37.787,107.626
					L37.787,107.626z M48.336,107.293c-0.939,0-1.745,0.113-2.274,0.162c-0.711,0.07-1.981,0.512-2.263,0.596
					c-0.492-0.131-2.858-1.314-4.471-1.316c-0.073,0-0.146,0-0.22,0.007c-0.373,0.028-1.079,0.208-1.154,0.214
					c-0.052,0.006-0.11,0.017-0.167,0.031V90.729l0.253,0.03l0.008-0.414l0.26-0.26l0.006-0.506
					c0.248-0.123,0.248-0.447,0.248-0.447l0.599-0.423c0.012,0.003,0.023,0.005,0.035,0.007c0.054,0.021,0.112,0.027,0.165,0.027
					h0.002c0.007,0,0.013,0.004,0.02,0.004c0.002,0,0.002,0,0.004,0c0.195-0.002,0.396-0.09,0.585-0.236l-0.003-0.005l0.005,0.005
					c0.033-0.027,0.062-0.059,0.092-0.086c0.201-0.175,0.341-0.367,0.353-0.592c0-0.027-0.006-0.06-0.015-0.088
					c0-0.048-0.009-0.093-0.042-0.129l-1.446-1.519c0.009-0.011,0.023-0.021,0.029-0.033c0.028-0.069,0.013-0.149-0.039-0.2
					l-1.588-1.604c0.016-0.018,0.033-0.031,0.042-0.052c0.03-0.067,0.014-0.146-0.037-0.198l-1.526-1.541
					c0.004-0.01,0.014-0.012,0.017-0.021c0.028-0.069,0.014-0.147-0.038-0.199l-0.28-0.283c2.621,1.176,4.991,2.809,6.995,4.812
					c4.242,4.243,6.864,10.1,6.864,16.574c0,1.352-0.12,2.677-0.34,3.967C48.784,107.308,48.554,107.293,48.336,107.293z
					 M39.399,88.456c-0.072-0.09,0.017-0.229,0.191-0.369c0.173-0.139,0.367-0.226,0.438-0.135c0.071,0.09-0.01,0.274-0.185,0.414
					S39.471,88.547,39.399,88.456z M25.232,69.376c0.076,0.001,0.144,0.018,0.192,0.034v1.237c-0.06-0.005-0.127-0.011-0.192-0.017
					V69.376z M25.04,70.91c0,0,0.001,0,0.002,0l0.993,0.139c-0.002,0.072-0.033,0.121-0.075,0.166
					c-0.013,0.014-0.027,0.022-0.038,0.033l-0.81-0.107c-0.063-0.095-0.074-0.16-0.074-0.205
					C25.039,70.928,25.04,70.919,25.04,70.91z M24.899,71.567l0.932,0.124l2.068,2.17c-0.163-0.058-0.362-0.164-0.533-0.271
					c-0.265-0.167-0.475-0.332-0.475-0.332l-0.157-0.125l-0.091,0.178c-0.088,0.16-0.17,0.194-0.312,0.199
					c-0.202,0.004-0.502-0.141-0.732-0.296c-0.231-0.155-0.399-0.31-0.399-0.31l-0.145-0.133l-0.104,0.168
					c-0.146,0.221-0.301,0.266-0.472,0.271c-0.121,0-0.245-0.034-0.337-0.072c-0.003,0-0.007-0.002-0.009-0.002L24.899,71.567z
					 M23.931,72.096l0.614-0.451l-0.684,1.389c0,0-0.283,0.29-0.268-0.133c0,0-1.694,2.359-1.725,1.622L23.931,72.096z
					 M18.158,80.188l1.442-1.762l0.024-0.164l1.548-1.888l0.028-0.185l2.074-2.426c0.127-0.078,0.217-0.109,0.257-0.117v0.01
					c0,0.023-0.005,0.051-0.009,0.071L11.249,90.469l-0.394-0.38l1.261-1.552l0.026-0.183l1.45-1.796l0.028-0.217l1.546-1.914
					l0.009-0.186l1.496-1.908l0.029-0.165l1.45-1.844L18.158,80.188z M43.394,120.832c-4.476,4.473-10.652,7.238-17.479,7.238
					c-6.828,0-13.004-2.766-17.479-7.238c-4.474-4.477-7.24-10.65-7.24-17.477c0-6.828,2.766-13.005,7.24-17.479
					c2.632-2.629,5.857-4.66,9.452-5.895l-0.902,1.125C8.169,84.648,1.938,93.27,1.938,103.354
					c0.001,10.345,6.553,19.159,15.734,22.521c2.57,0.939,5.348,1.454,8.244,1.454v0.003c10.345,0,19.161-6.555,22.522-15.733
					c0.94-2.571,1.455-5.348,1.455-8.244c0-10.215-6.39-18.928-15.385-22.382l-0.345-0.35c0.014-0.017,0.032-0.027,0.04-0.048
					c0.028-0.069,0.013-0.148-0.039-0.2l-0.476-0.48c3.698,1.225,7.013,3.289,9.708,5.981c4.474,4.475,7.239,10.65,7.239,17.479
					C50.633,110.181,47.867,116.355,43.394,120.832z M27.02,123.336l4.456,0.7c0.015,0.003,0.028,0.005,0.043,0.005
					c0.063,0,0.125-0.024,0.175-0.066c0.059-0.052,0.095-0.128,0.093-0.205l-0.02-4.502c0.007-0.12-0.065-0.232-0.176-0.271
					c-0.02-0.009-0.04-0.014-0.06-0.017l-4.422-0.678c-0.077-0.012-0.157,0.012-0.217,0.061c-0.059,0.053-0.093,0.127-0.093,0.206
					l-0.007,4.5C26.791,123.203,26.887,123.314,27.02,123.336z M29.663,119.24l1.566,0.242l0.018,3.973l-1.584-0.248V119.24
					L29.663,119.24z M27.336,118.882l1.79,0.276v3.963l-1.795-0.283L27.336,118.882z M30.779,94.834
					c-0.083,0.003-0.16,0.04-0.256,0.079c-0.141,0.059-0.333,0.126-0.46,0.204c-0.133,0.082-0.211,0.202-0.25,0.278
					c-0.052,0.059-0.457,0.302-0.549,0.37c-0.037,0.027-0.076,0.036-0.122,0.044c0.001-0.008,0.003-0.019,0.004-0.026
					c-0.001-0.005-0.001-0.01-0.001-0.012l0.001-0.012l-0.002-0.016c-0.029-0.143-0.079-0.188-0.081-0.275v-0.022
					c0-0.011,0-0.013,0-0.013c0-0.16-0.033-0.933-0.033-1.333c0-0.065,0.002-0.12,0.003-0.155c0.001-0.019,0.002-0.031,0.003-0.041
					c0.041-0.098,0.09-0.252,0.092-0.435c0-0.02-0.001-0.036-0.002-0.052c-0.013-0.203-0.12-0.889-0.137-1.073
					c-0.009-0.099-0.024-0.195-0.047-0.278c-0.026-0.062-0.03-0.145-0.119-0.186c0.002,0.002-0.006,0.004-0.006,0.004l0.001-0.006
					c0.001,0.002,0.003,0.002,0.005,0.002c-0.003-0.002-0.003,0-0.005-0.002h-0.001c-0.009-0.005-0.022-0.008-0.034-0.012v-0.002
					c0,0-0.001,0-0.003,0c0-0.003-0.006-0.003-0.029,0.002c-0.008,0.002-0.022,0.004-0.042,0.021
					c-0.084,0.048-0.081,0.13-0.103,0.189c-0.017,0.078-0.029,0.175-0.039,0.268c-0.021,0.2-0.112,0.877-0.122,1.075
					c0,0.01-0.001,0.025-0.001,0.043c0.001,0.191,0.056,0.354,0.098,0.449c0.004,0.037,0.009,0.184,0.008,0.354
					c0,0.396-0.015,0.967-0.015,1.146c0,0.017,0,0.027,0.002,0.043c0,0.002-0.001,0.005-0.001,0.01
					c0.003,0.094-0.048,0.14-0.075,0.291c0-0.003-0.002,0.012-0.002,0.029c0.002,0.051,0.014,0.107,0.028,0.162
					c-0.052,0.072-0.09,0.158-0.09,0.255c0,0.249,0.205,0.453,0.454,0.453c0.181,0,0.337-0.11,0.409-0.265
					c0.046-0.015,0.09-0.027,0.135-0.066l-0.064-0.07l0.065,0.069c0.076-0.087,0.074-0.144,0.139-0.184
					c0.057-0.036,0.175-0.134,0.298-0.228c0.059-0.047,0.118-0.09,0.163-0.121c0.023-0.019,0.042-0.031,0.057-0.037
					c0.007-0.003,0.01-0.006,0.014-0.008c0.084-0.01,0.223-0.045,0.344-0.143c0.119-0.096,0.237-0.254,0.342-0.369
					c0.078-0.096,0.153-0.152,0.167-0.273c0-0.023-0.006-0.048-0.019-0.07C30.857,94.842,30.809,94.832,30.779,94.834z
					 M18.413,95.979c-0.05,0.002-0.091,0.038-0.149,0.075c-0.08,0.055-0.189,0.116-0.264,0.189c-0.075,0.079-0.12,0.191-0.142,0.262
					c-0.029,0.057-0.262,0.285-0.315,0.348c-0.021,0.027-0.042,0.033-0.069,0.042c0.001-0.009,0.002-0.018,0.002-0.025
					c-0.001-0.006-0.001-0.009-0.001-0.012V96.85l-0.001-0.016c-0.017-0.134-0.045-0.178-0.046-0.261v-0.021
					c0-0.013,0-0.013,0-0.013c0-0.152-0.02-0.881-0.021-1.26c0-0.062,0.002-0.111,0.003-0.149c-0.001-0.017,0.001-0.028,0.001-0.036
					c0.023-0.092,0.049-0.238,0.052-0.409c0.001-0.019-0.001-0.036-0.001-0.05c-0.007-0.191-0.07-0.838-0.08-1.014
					c-0.005-0.093-0.015-0.186-0.027-0.265c-0.016-0.058-0.02-0.136-0.069-0.175c0.001,0.002-0.003,0.006-0.003,0.006l0.002-0.006
					c0,0,0,0,0.001,0c-0.001,0-0.001,0-0.001-0.002h-0.002c-0.006-0.006-0.013-0.008-0.02-0.01v-0.005c0,0,0,0-0.001,0
					c0,0-0.003,0-0.017,0c-0.004,0.005-0.012,0.007-0.024,0.022c-0.047,0.045-0.046,0.124-0.058,0.178
					c-0.012,0.074-0.019,0.166-0.023,0.254c-0.012,0.189-0.063,0.828-0.071,1.016c-0.001,0.008-0.001,0.023-0.001,0.041
					c0,0.18,0.031,0.333,0.057,0.423c0.003,0.034,0.007,0.173,0.007,0.333c0,0.375-0.008,0.916-0.008,1.083
					c-0.001,0.015-0.001,0.025,0.001,0.04v0.008c0.001,0.092-0.028,0.133-0.044,0.275c0-0.002-0.001,0.013-0.001,0.029
					c0.001,0.049,0.008,0.102,0.016,0.152c-0.03,0.068-0.052,0.148-0.052,0.238c0.001,0.238,0.12,0.43,0.263,0.43
					c0.104,0.003,0.193-0.1,0.234-0.248c0.025-0.012,0.052-0.025,0.077-0.062c0.044-0.082,0.044-0.134,0.079-0.171
					c0.033-0.035,0.1-0.128,0.171-0.216c0.035-0.042,0.069-0.085,0.093-0.115c0.015-0.017,0.026-0.028,0.034-0.034
					C18,96.839,18,96.839,18.001,96.834c0.05-0.009,0.129-0.043,0.199-0.131c0.067-0.092,0.135-0.242,0.195-0.349
					c0.045-0.091,0.089-0.146,0.096-0.26c0-0.021-0.002-0.046-0.011-0.068C18.457,95.988,18.429,95.979,18.413,95.979z"/>
			</g>
		</g>
	</g>
</g>
<g id="Layer_2_1_">
	<g>
		<path fill="#FFFFFF" d="M33.076,8.486l-2.428-2.285c0.208-0.167-0.083-0.583-0.083-0.583l-2.02-2.061
			c0.104-1.146-0.875-1.312-0.875-1.312V1.037c0-1.104-1.062-1.036-1.062-1.036c-0.917,0-1.083,1.015-1.083,1.015v1.229
			l-1.083,1.208l-2.207,2.624c-1,1.083-0.417,1.499-0.417,1.499l-1.022,1.188C8.848,11.77,0,22.583,0,35.465
			C0,50.673,12.33,63,27.537,63s27.535-12.327,27.535-27.535C55.071,22.155,45.628,11.05,33.076,8.486z"/>
		<g>
			<path fill="#FFFFFF" d="M94.42,26.138l-7.805,21.761h-0.674l-5.517-15.533l-5.777,15.533h-0.675L66.13,25.986l-2.213-0.301
				v-1.199h8.442v1.199l-3.115,0.301l5.743,16.319l4.538-12.417L78.1,25.986l-2.288-0.301v-1.199h8.626v1.199l-3.112,0.301v0.375
				l5.552,15.944l5.74-16.206l-3-0.415v-1.199h7.016v1.199L94.42,26.138z"/>
			<path fill="#FFFFFF" d="M107.507,47.599v-1.051l2.701-0.3v-6.453h-8.555v6.453l2.702,0.3v1.051H96.25v-1.051l2.703-0.3v-13.51
				l-2.703-0.299v-1.051h8.106v1.051l-2.702,0.299v5.706h8.555v-5.706l-2.701-0.299v-1.051h8.066v1.051l-2.699,0.299v13.51
				l2.699,0.3v1.051H107.507z"/>
			<path fill="#FFFFFF" d="M120.081,47.599v-1.051l2.702-0.3v-13.51l-2.702-0.299v-1.051h8.103v1.051l-2.698,0.299v13.51l2.698,0.3
				v1.051H120.081z"/>
			<path fill="#FFFFFF" d="M145.784,35.893l-0.413-3.154h-4.539v13.51l2.702,0.3v1.051h-8.105v-1.051l2.702-0.3v-13.51h-4.578
				l-0.414,3.154h-1.199v-4.504h15.045v4.504H145.784z"/>
			<path fill="#FFFFFF" d="M165.248,47.599v-1.051l2.701-0.3L167.2,34.955l-6.155,12.644h-0.599l-6.041-12.345L153.73,46.1
				l2.7,0.448v1.051h-6.979v-1.051l2.702-0.448l0.9-13.361l-2.699-0.299v-1.051h5.102l5.928,12.271l5.965-12.271h5.067v1.051
				l-2.701,0.225l0.937,13.584l2.703,0.3v1.051H165.248z"/>
			<path fill="#FFFFFF" d="M185.74,47.599v-1.051l2.814-0.3l-1.537-3.565h-6.531l-1.501,3.527l2.815,0.338v1.051h-6.454v-1.051
				l2.063-0.374l6.417-15.084h1.201l6.492,15.159l2.025,0.3v1.051H185.74z M183.789,34.955h-0.076l-2.664,6.377h5.404
				L183.789,34.955z"/>
			<path fill="#FFFFFF" d="M212.457,32.891v14.858h-0.861l-11.633-12.646V46.1l2.666,0.448v1.051h-6.904v-1.051l2.66-0.448V33.415
				l-0.711-0.751l-1.949-0.225v-1.051h4.426l10.732,11.746V32.891l-2.666-0.451v-1.051h6.904v1.051L212.457,32.891z"/>
			<path fill="#FFFFFF" d="M241.807,48.198c-6.682,0-11.707-4.688-11.707-12.006s4.875-12.308,12.195-12.308
				c3.113,0,4.988,0.527,6.375,1.125l0.488-1.125h1.201l-0.299,6.792h-1.201l-0.602-2.963c-1.799-1.501-3.49-2.328-6.604-2.328
				c-4.504,0-8.254,3.867-8.254,10.244c0,5.703,3.113,10.882,8.668,10.882c3,0,5.592-1.239,7.578-3.302l0.902,1.199
				C248.07,46.923,245.221,48.198,241.807,48.198z"/>
			<path fill="#FFFFFF" d="M261.197,48.198c-4.955,0-8.818-3.45-8.818-8.554c0-5.104,4.016-8.854,8.967-8.854
				c4.953,0,8.818,3.453,8.818,8.552C270.164,44.445,266.15,48.198,261.197,48.198z M261.197,32.141
				c-3.305,0-5.742,2.699-5.742,7.202s2.588,7.506,5.891,7.506c3.305,0,5.742-2.702,5.742-7.204
				C267.088,35.142,264.498,32.141,261.197,32.141z"/>
			<path fill="#FFFFFF" d="M272.215,47.599v-1.051l2.699-0.3v-13.51l-2.699-0.299v-1.051h8.105v1.051l-2.705,0.299v13.51h6.379
				l0.564-3.413h1.277v4.764H272.215z"/>
			<path fill="#FFFFFF" d="M288.934,47.599v-1.051l2.701-0.3v-13.51l-2.701-0.299v-1.051h8.102v1.051l-2.699,0.299v13.51h6.379
				l0.562-3.413h1.275v4.764H288.934z"/>
			<path fill="#FFFFFF" d="M304.963,47.599v-1.051l2.703-0.3v-13.51l-2.703-0.299v-1.051h13.475v4.24h-1.203l-0.412-2.891h-6.453
				v5.706h4.428l0.297-1.801h1.127v4.949h-1.127l-0.297-1.798h-4.428v6.453h6.678l0.49-3.039h1.273v4.39H304.963z"/>
			<path fill="#FFFFFF" d="M338.451,42.196v4.202c-1.238,0.789-3.68,1.8-6.941,1.8c-5.104,0-9.006-3.49-9.006-8.593
				s3.6-8.815,9.232-8.815c2.549,0,4.125,0.561,5.213,0.898l0.299-0.898h1.127l-0.225,5.102h-1.125l-0.414-2.251
				c-1.65-1.091-3.076-1.501-5.178-1.501c-3.453,0-5.854,2.735-5.854,7.165c0,4.393,2.363,7.543,6.189,7.543
				c1.953,0,3.154-0.413,3.98-1.052v-3.601l-2.928-0.301v-1.053h6.754v0.978L338.451,42.196z"/>
			<path fill="#FFFFFF" d="M343.068,47.599v-1.051l2.699-0.3v-13.51l-2.699-0.299v-1.051h13.469v4.24h-1.201l-0.412-2.891h-6.451
				v5.706h4.426l0.301-1.801h1.125v4.949h-1.125l-0.301-1.798h-4.426v6.453h6.678l0.486-3.039h1.277v4.39H343.068z"/>
		</g>
		<g>
			<g>
				<path fill="#003D7D" d="M33.857,10.52l-1.24-1.253c0.007-0.011,0.019-0.02,0.024-0.032c0.03-0.067,0.014-0.147-0.04-0.202
					l-1.581-1.595c0.003-0.006,0.009-0.009,0.012-0.016c0.028-0.07,0.012-0.148-0.04-0.202l-1.095-0.992
					c0.055-0.028,0.039-0.016,0.084-0.067c0.049-0.054,0.06-0.167,0.024-0.229c-0.075-0.125-2.344-2.468-2.344-2.468
					c0.045-0.08,0.081-0.176,0.085-0.3c0.004-0.176-0.073-0.327-0.073-0.327l-0.488-0.068V1.228l-0.084-0.053
					c-0.018-0.011-0.208-0.137-0.498-0.137c-0.161,0-0.351,0.041-0.539,0.159L25.979,1.25v1.56l-0.523,0.462L25.43,3.3L22.677,6.72
					c-0.047,0.058-0.062,0.134-0.045,0.206c0.005,0.014,0.013,0.093,0.064,0.167c0.041,0.065,0.086,0.1,0.227,0.117
					c-0.114,0.124-0.212,0.242-0.285,0.345l-0.461,0.541l-0.018,0.017l0,0.002l-1.237,1.448c-0.03,0.035-0.039,0.083-0.014,0.118
					c0.043,0.066,0.1,0.056,0.124,0.063l-0.732,0.896C9.311,13.704,1.245,23.779,1.245,35.744c0,14.396,11.672,26.065,26.068,26.066
					c14.397-0.001,26.067-11.67,26.067-26.066C53.379,23.61,45.083,13.426,33.857,10.52z M30.389,7.268l0.018,0.19l1.579,1.688
					l0.022,0.21l1.457,1.5l0.005,0.184l1.559,1.594l0.021,0.187l1.648,1.72l0.037,0.166l1.527,1.625l0.03,0.198l1.535,1.618
					l0.004,0.162l1.5,1.609c-0.24,0.019-0.409,0.207-0.409,0.207L28.465,6.042c0.427,0.238,1.028,0.315,1.028,0.315L30.389,7.268z
					 M33.836,50.832l-0.019,6.966l-6.319-0.99l0.017-6.928L33.836,50.832z M29.84,47.966l1.614-0.613c0,0-0.099,1.797-1.598,2.276
					L29.84,47.966z M30.681,49.808c0.943-0.338,1.389-1.078,1.598-1.67l0.871,0.12l0,0.036l0.034,1.892L30.681,49.808z
					 M27.661,46.422l-0.003-1.246l8.195,1.219l0.009,1.2L27.661,46.422z M33.989,45.757l-2.718-0.403l0.001-2.784l0.271-0.016
					c0.009-0.001,0.014-0.008,0.024-0.01h0.007c0.085,0,0.163-0.057,0.185-0.145l0.211-0.816c0.013-0.053,0.003-0.108-0.027-0.155
					c-0.032-0.046-0.08-0.076-0.135-0.083l-0.415-0.055c0.137-0.47,0.421-0.854,1.256-0.864c0.056,0,0.118,0.004,0.179,0.008
					c1.136,0.377,1.079,1.876,1.079,1.876L33.989,45.757z M32.914,40.002c-0.09-0.008-0.178-0.013-0.263-0.013
					c-1.091-0.01-1.522,0.636-1.7,1.246l-0.547-0.07c-0.128-0.613-0.501-1.498-1.606-1.644c-0.099-0.009-0.192-0.017-0.282-0.017
					c-0.582,0-0.986,0.207-1.269,0.498c0.012-0.03,0.017-0.062,0.027-0.092c0.277-0.621,1.207-2.248,3.288-1.985
					c1.638,0.209,2.483,1.241,2.951,2.253C33.34,40.091,33.145,40.027,32.914,40.002z M31.57,41.695l-0.116,0.448l-1.54-0.18
					l-0.046-0.489L31.57,41.695z M30.835,42.545v2.742l-0.285-0.04l-0.063-2.744L30.835,42.545z M33.888,39.54
					c-0.438-0.693-1.035-1.274-1.735-1.653l0.535-0.961c0.879,0.504,1.625,1.261,2.165,2.161L33.888,39.54z M35.09,39.521
					c0.357,0.717,0.59,1.505,0.651,2.33l-1.109-0.151c-0.058-0.61-0.232-1.196-0.498-1.73L35.09,39.521z M31.716,37.682
					c-0.329-0.133-0.672-0.226-1.029-0.268c-0.483-0.057-0.949-0.02-1.381,0.093l-0.464-1.09c0.577-0.168,1.199-0.228,1.853-0.157
					c0.546,0.062,1.072,0.217,1.563,0.445L31.716,37.682z M28.864,37.655c-0.559,0.229-1.044,0.597-1.416,1.07l-1.044-0.561
					c0.496-0.715,1.19-1.261,2-1.592L28.864,37.655z M27.186,39.108c-0.26,0.438-0.434,0.94-0.5,1.491l-1.108-0.154
					c0.066-0.691,0.27-1.325,0.579-1.884L27.186,39.108z M27.148,41.412c0.099-0.659,0.338-1.47,1.366-1.47
					c0.071,0,0.151,0.003,0.235,0.013c0.03,0.002,0.057,0.01,0.084,0.014c0.521,0.225,0.76,0.697,0.873,1.104l-0.047-0.006
					c-0.044-0.007-0.084,0.009-0.12,0.03l-0.065,0.016l-0.228,0.167c-0.044,0.031-0.065,0.086-0.056,0.139l0.152,0.849
					c0.012,0.062,0.062,0.108,0.124,0.115l0.347,0.04l0.065,2.725l-2.454-0.366c-0.035-0.005-0.069,0.004-0.101,0.018
					c-0.003,0.001-0.008,0-0.01,0.001l-0.166,0.066V41.412z M27.165,45.316l-0.001,1.162l-1.01,0.39l-0.008-1.146L27.165,45.316z
					 M27.779,46.834c0,0-0.101,1.798-1.598,2.276l-0.016-1.663L27.779,46.834z M28.602,47.629l0.881,0.12v0.025l0.035,1.858
					l-2.191-0.332v-0.082c0-0.022-0.007-0.045-0.013-0.063C28.042,48.782,28.415,48.152,28.602,47.629z M27.326,57.332l6.682,1.045
					v0.08c-2.121,0.624-4.36,0.97-6.682,0.972V57.332z M33.536,50.147l-0.015-1.662l1.612-0.614
					C35.133,47.871,35.035,49.669,33.536,50.147z M34.443,50.288c1.311-0.522,1.607-1.843,1.665-2.316
					c0.042-0.036,0.065-0.089,0.064-0.145l-0.012-1.584c0-0.094-0.069-0.173-0.162-0.188l-1.318-0.194l-0.086-3.622
					c-0.002,0-0.003-0.051-0.012-0.13l1.588,0.148l-0.016-0.139c-0.041-1.151-0.385-2.246-0.942-3.191l-0.003-0.01l-0.001,0.003
					c-0.637-1.08-1.553-1.965-2.63-2.512c0,0-0.99-0.487-1.878-0.569c-0.363-0.033-1.066-0.022-1.066-0.022
					c-3.789,0.193-4.693,3.681-4.779,3.938c-0.087,0.26-0.259,0.842-0.095,1.001c0.148,0.147,1.667,0.239,1.919,0.254l0.071,0.009
					c-0.021,0.122-0.036,0.242-0.037,0.354l-0.001,3.667l-0.801,0.319c-0.072,0.028-0.12,0.1-0.119,0.179l0.01,1.551
					c0,0.01,0.005,0.016,0.005,0.025c-0.001,0.006-0.005,0.013-0.003,0.021c0.001,0.005,0.003,0.008,0.004,0.012l-0.002,0.107
					l0.04,2.162c0,0.021,0.01,0.039,0.025,0.053c0.006,0.006,0.015,0.006,0.023,0.01c0.001,0.001,0,0.004,0.003,0.006
					c0.012,0.01,0.03,0.017,0.047,0.017c0.002,0,0.006-0.002,0.009-0.002l0.591-0.087c0.124-0.022,0.234-0.058,0.344-0.091v10.093
					c-1.672-0.029-3.303-0.229-4.872-0.587V20.054c0.346,0.034,1.171,0.126,1.578,0.25c0.179,0.056,0.29,0.139,0.361,0.229
					c0.026,0.068,0.03,0.127,0.032,0.164c0,0.02,0.005,0.118,0.005,0.118v12.79l0.005,0.002l-0.012,0.363l12.855,1.939l-0.003-0.24
					V22.707c0.032-0.001,0.062-0.004,0.096-0.005c0.427-0.006,1.173,0.067,1.679,0.144v0.007l-0.009-0.001v33.718
					c-1.315,0.715-2.709,1.305-4.161,1.763V50.288z M24.364,33.286V20.959l11.546,1.972v12.127L24.364,33.286z M35.753,22.242
					l-11.179-1.948c0-0.705-1.922-0.942-2.686-1.007l0.002,0.011c0,0-1.444,0.625-1.27,1.449l-4.665,3.026
					c0,0-0.67-0.465-2.474,0.893l0.001-0.532c0,0,0.016-0.013,0.039-0.031c-0.039,0.013-0.076,0.023-0.108,0.025
					c-0.19,0.005-0.369-0.049-0.369-0.049s0.002-0.003,0.002-0.005c-0.01-0.004-0.02-0.002-0.03-0.008
					c-0.202-0.097-0.238-0.134-0.327-0.416c-0.007-0.022-0.015-0.053-0.021-0.08l0.368-0.242c0.008,0.039,0.017,0.081,0.028,0.113
					c0.061,0.183,0.198,0.27,0.314,0.326c0.14,0.049,0.383,0.067,0.506,0.073c0.528-0.357,1.458-0.886,2.03-0.632l4.658-2.996
					c0,0-0.157-0.502,0.543-1.093c-0.027,0.006-0.053,0.01-0.078,0.009c-0.186-0.008-0.612,0.046-0.798-0.312
					c-0.029-0.057-0.052-0.14-0.069-0.205l0.361-0.239c0.021,0.074,0.049,0.168,0.082,0.237c0.098,0.206,0.658,0.208,0.913,0.218
					c0.082-0.05,0.169-0.1,0.264-0.148l0.002,0.01l0.02-0.01c0,0,0.495,0.031,0.71,0.054c0.167-0.1,0.355-0.252,0.355-0.445
					c0-0.149-0.005-0.416-0.005-0.416l0.905,0.153c0,0,0.011,0.242,0.015,0.372c0.006,0.277-0.123,0.351-0.334,0.491
					c1.269,0.312,1.217,0.833,1.217,0.833l11.014,1.917c0.5-0.245,1.478-0.221,2.339-0.136c0.168-0.087,0.327-0.2,0.327-0.427
					c0-0.151-0.005-0.416-0.005-0.416l0.917,0.15c0,0,0.015,0.242,0.018,0.372c0.005,0.247-0.096,0.333-0.27,0.448
					c0.183,0.029,0.333,0.055,0.448,0.075L39.458,22.3C36.057,21.747,35.753,22.242,35.753,22.242z M16.687,56.619v-6.128
					l2.946-1.633l-0.001,6.236L16.687,56.619z M19.632,55.528v2.623c-0.965-0.332-1.9-0.725-2.804-1.171L19.632,55.528z
					 M15.021,48.205l0.005-1.026l3.139-1.651v1.073L15.021,48.205z M16.159,48.812l-0.004,1.147c-0.917-0.169-0.978-0.72-1-1.066
					c0-0.032,0.001-0.06,0.002-0.086L16.159,48.812z M17.221,39.88c0.177-0.395,0.395-0.654,0.579-0.678
					c0.058-0.014,0.106-0.019,0.15-0.019c0.013-0.001,0.022-0.001,0.027-0.001c0.387-0.016,0.759,0.65,0.937,1.478
					c0.012,0.056,0.022,0.111,0.034,0.168c-0.072-0.039-0.157-0.062-0.255-0.065c-0.052,0-0.105,0.007-0.156,0.02
					c-0.472,0.155-0.581,0.699-0.675,1.173l0,0.005c-0.003-0.006-0.003-0.016-0.004-0.023c-0.091-0.341-0.298-0.697-0.715-0.702
					c-0.047,0-0.093,0.005-0.14,0.014c-0.054,0.016-0.097,0.036-0.142,0.059C16.91,40.983,17.023,40.379,17.221,39.88z
					 M17.004,38.872c0,0,0.307-0.651,0.832-0.805c0.528-0.153,0.825,0.282,0.825,0.282l-0.245,0.515
					c-0.749-0.395-1.25,0.256-1.25,0.256L17.004,38.872z M19.264,40.229c-0.199-0.8-0.571-1.142-0.571-1.142l0.195-0.411
					c0.284,0.406,0.536,1.464,0.536,1.464L19.264,40.229z M19.501,40.493c0.097,0.324,0.23,1.688,0.23,1.688l-0.147,0.051
					c0.017-0.44-0.23-1.657-0.23-1.657L19.501,40.493z M18.497,47.196c0-0.042,0.001-0.08,0.005-0.11l1.129,0.004l-0.004,1.294
					C18.594,48.205,18.518,47.585,18.497,47.196z M19.177,48.67l-1.053,0.582l0.005-1.385l0.105-0.054
					C18.373,48.146,18.65,48.486,19.177,48.67z M18.471,45.039c-0.02,0-0.038,0.006-0.057,0.009
					c-0.027-0.006-0.056-0.006-0.083-0.001l0.02-2.056c0,0,0.021-1.391,0.384-1.837c0.089,0.023,0.194,0.152,0.275,0.424
					c0.065,0.214,0.104,0.479,0.127,0.731c0.008,0.111,0.01,0.195,0.012,0.238c0,0.011,0.007,0.019,0.009,0.03v2.461H18.471z
					 M17.622,43.067v2.34l-0.751,0.396l0.022-2.374c0,0,0.019-1.302,0.351-1.791c0.097,0.048,0.177,0.174,0.248,0.404
					C17.577,42.337,17.605,42.734,17.622,43.067z M16.46,40.671c0.06-0.529,0.375-1.422,0.375-1.422l0.11,0.169
					C16.776,39.639,16.46,40.671,16.46,40.671z M17.747,47.931l-0.005,1.294c-1.031-0.178-1.107-0.8-1.129-1.188
					c0-0.041,0.001-0.078,0.003-0.109L17.747,47.931z M16.536,50.099l0.005-1.108c0.198,0.257,0.522,0.476,1.007,0.582l-1.012,0.561
					V50.099z M18.643,46.532v-1.13h1.014v1.13H18.643z M19.54,45.039v-2.207l0.879-0.295c0.027-0.01,0.044-0.037,0.041-0.064
					c0-0.005-0.001-0.008-0.002-0.013c0.002-0.006,0.003-0.014,0.002-0.022c-0.248-3.543-1.226-4.514-1.913-4.801
					c-0.031-0.011-0.382-0.049-0.487-0.054c-0.111,0-0.227,0.017-0.342,0.05c-1.84,0.609-1.847,4.256-1.885,5.557
					c0,0.145,0.001,0.263,0.004,0.342c0.002,0.04,0.002,0.071,0.002,0.095c0,0.008,0,0.018,0,0.025v0.006
					c0.003,0.078,0.047,0.148,0.113,0.185c0.035,0.021,0.074,0.031,0.111,0.031c0.038,0,0.074-0.01,0.107-0.028l0.048-0.024
					l-0.025,2.339l-1.429,0.751c-0.062,0.032-0.103,0.096-0.104,0.169l-0.006,1.456c-0.001,0.066,0.034,0.128,0.09,0.163
					c0.012,0.007,0.025,0.007,0.038,0.011c-0.005,0.051-0.01,0.109-0.01,0.184c-0.021,0.448,0.244,1.333,1.48,1.462v6.331
					c-0.597-0.316-1.179-0.656-1.744-1.018V24.712c0,0,0.748-0.571,1.124-0.329v12.283c0,0-0.004,0-0.005,0l-0.389,0.614
					c0,0-0.066,0.049,0.013,0.12c0.078,0.071,0.224-0.038,0.224-0.038l5.168-2.643c0,0-0.037-12.987-0.037-13.127
					c0-0.494,0.685-1.062,0.685-1.062v38.125c-0.404-0.105-0.8-0.227-1.195-0.352l-0.043-13.076c0-0.05-0.02-0.097-0.056-0.135
					c-0.036-0.036-0.085-0.055-0.136-0.055H19.54z M16.028,36.469l0.004-11.938l4.202-2.63v12.337L16.028,36.469z M10.426,41.82
					c-0.218-0.245-1.928-1.434-2.704-1.634c-0.302-0.07-0.263-0.111-0.99-0.228c0.38-0.17,0.891-0.352,1.397-0.37
					c0.029,0,0.056-0.001,0.085-0.001c1.089-0.007,3.946,0.781,5.744,1.309v14.406c-1.217-0.832-2.354-1.772-3.394-2.811
					c-3.318-3.318-5.649-7.615-6.535-12.418c0.63,0.114,0.929,0.148,0.929,0.148l0.607,0.091c0.461,0.097,0.66,0.162,1.016,0.236
					c0.538,0.111,1.417,0.503,2.163,0.867c0.375,0.185,0.717,0.358,0.978,0.489c0.285,0.132,0.375,0.211,0.552,0.235
					c0.021,0,0.059,0,0.111-0.036c0.056-0.033,0.088-0.114,0.084-0.161C10.467,41.877,10.448,41.854,10.426,41.82z M12.194,39.837
					c-1.689-0.339-2.937-0.886-4.055-0.891c-0.096,0-0.192,0.002-0.286,0.013c-0.733,0.075-1.858,0.689-2.103,0.791
					c-0.25-0.036-0.959-0.145-1.825-0.257c-0.194-1.222-0.3-2.472-0.3-3.749c0-6.542,2.652-12.46,6.939-16.748
					c2.037-2.035,4.445-3.69,7.11-4.88l-0.012,0.187l-1.49,1.745c-0.029,0.033-0.035,0.08-0.015,0.118
					c0.01,0.02,0.032,0.026,0.052,0.035l-1.651,1.979c-0.024,0.028-0.031,0.101,0.009,0.15c0.04,0.05,0.065,0.066,0.065,0.066
					l-1.719,2.025c-0.028,0.033-0.034,0.081-0.014,0.12c0.016,0.028,0.044,0.044,0.077,0.049l-1.619,1.9
					c-0.103,0.118-0.093,0.361-0.093,0.379c0.002,0.218,0.126,0.435,0.329,0.594c0.157,0.125,0.341,0.196,0.52,0.198
					c0.003,0,0.008-0.003,0.013-0.003c0.059,0.052,0.156,0.099,0.307,0.123v0.816h0.72v0.55h0.805v15.122
					C13.436,40.123,12.833,39.969,12.194,39.837z M12.008,22.856c0.144,0.11,0.214,0.264,0.213,0.358
					c-0.001,0.042-0.011,0.071-0.03,0.094c-0.026,0.033-0.071,0.057-0.15,0.057c-0.092,0.001-0.22-0.042-0.331-0.131
					c-0.142-0.109-0.213-0.261-0.211-0.356c0-0.043,0.011-0.071,0.028-0.093c0.028-0.035,0.075-0.059,0.151-0.06h0.005
					C11.775,22.726,11.898,22.768,12.008,22.856z M37.021,19.61c-0.685-0.379-1.37-0.077-1.37-0.077l-2.236-6.92l2.153,2.492
					L37.021,19.61z M36.3,15.967l2.056,2.417l0.522,1.55c-0.63-0.342-1.329-0.047-1.329-0.047L36.3,15.967z M36.088,20.264
					l0.9,0.143c0,0,0.013,0.244,0.017,0.371c0.005,0.238-0.087,0.325-0.245,0.432l-0.935-0.162c0.138-0.093,0.266-0.213,0.266-0.369
					C36.092,20.528,36.088,20.264,36.088,20.264z M35.11,19.268c-0.596-0.342-1.336-0.068-1.336-0.068l-3.148-9.768l2.116,2.408
					L35.11,19.268z M33.873,19.838l0.888,0.146c0,0,0.013,0.244,0.015,0.372c0.006,0.255-0.104,0.337-0.287,0.461l-0.905-0.157
					c0.151-0.109,0.293-0.253,0.293-0.406C33.877,20.104,33.873,19.838,33.873,19.838z M33.252,18.96
					c-0.63-0.378-1.396-0.095-1.396-0.095L27.717,6.158l2.177,2.432L33.252,18.96z M31.594,19.452l0.902,0.139
					c0,0,0.015,0.242,0.018,0.371c0.006,0.256-0.105,0.338-0.287,0.461l-0.901-0.157c0.146-0.084,0.273-0.196,0.273-0.398
					C31.599,19.717,31.594,19.452,31.594,19.452z M31.34,18.576c-0.829-0.295-1.361-0.045-1.361-0.045L25.968,6.176l0.251-0.632
					l0.135-0.083c0.35,0.333,0.894,0.515,0.894,0.515L31.34,18.576z M29.446,19.049l0.889,0.151c0,0,0.014,0.244,0.018,0.372
					c0.005,0.264-0.11,0.345-0.304,0.472l-0.909-0.158c0.162-0.086,0.31-0.199,0.31-0.421C29.45,19.316,29.446,19.049,29.446,19.049
					z M29.501,18.344c-0.702-0.471-1.54-0.167-1.54-0.167l-3.026-9.392l0.808-2.051L29.501,18.344z M22.757,14.039l0.849-2.11
					l1.771,5.707c-0.736-0.497-1.543-0.17-1.543-0.17L22.757,14.039z M23.357,17.282c-0.754-0.505-1.543-0.168-1.543-0.168
					l-0.155-0.461l0.811-1.947L23.357,17.282z M25.071,18.679c0-0.151-0.004-0.418-0.004-0.418l0.898,0.133
					c0,0,0.014,0.242,0.017,0.372c0.006,0.288-0.132,0.355-0.359,0.509l-0.897-0.156C24.899,19.028,25.071,18.917,25.071,18.679z
					 M25.911,17.852l-2.089-6.447l0.883-2.164l2.752,8.778C26.796,17.546,25.911,17.852,25.911,17.852z M27.265,19.058
					c0-0.152-0.005-0.417-0.005-0.417l0.899,0.145c0,0,0.015,0.241,0.019,0.371c0.006,0.283-0.129,0.355-0.349,0.502l-0.909-0.157
					C27.084,19.401,27.265,19.252,27.265,19.058z M21.11,17.021l-0.208-0.067l4.711-11.332l0.199-0.003L21.11,17.021z
					 M21.401,17.638c0,0.02-0.002,0.037-0.007,0.058c-0.026,0.094-0.147,0.178-0.331,0.178c-0.061,0-0.125-0.01-0.189-0.029
					c-0.228-0.07-0.355-0.247-0.35-0.361c0-0.022,0.002-0.04,0.007-0.054c0.029-0.1,0.147-0.185,0.333-0.186
					c0.06,0,0.123,0.01,0.188,0.031C21.278,17.344,21.407,17.522,21.401,17.638z M20.46,17.054
					c-0.859,0.072-1.037,1.042-1.037,1.042c-0.533-0.053-0.896,0.134-0.896,0.134l4.849-9.775l1.381-1.899L20.46,17.054z
					 M19.995,19.991l-0.377,0.247c-0.237-0.112-0.601-0.259-0.673-0.485c-0.026-0.079-0.061-0.2-0.083-0.273l0.36-0.239
					c0.027,0.083,0.069,0.212,0.099,0.305C19.381,19.731,19.789,19.907,19.995,19.991z M18.695,20.844l-0.383,0.251
					c-0.221-0.116-0.682-0.271-0.764-0.53c-0.017-0.05-0.038-0.119-0.056-0.182l0.361-0.239c0.022,0.072,0.049,0.153,0.07,0.215
					C17.998,20.583,18.572,20.79,18.695,20.844z M17.574,19.375c-0.833,0.053-1.174,0.362-1.174,0.362l2.881-5.694l2.901-3.958
					L17.574,19.375z M17.452,21.661l-0.378,0.25c-0.232-0.115-0.664-0.27-0.744-0.519c-0.016-0.056-0.041-0.133-0.062-0.199
					l0.361-0.24c0.024,0.076,0.055,0.166,0.076,0.233C16.776,21.398,17.293,21.596,17.452,21.661z M15.368,21.01
					c-1.052-0.026-1.493,0.405-1.493,0.405l4.152-5.664L15.368,21.01z M16.154,22.513l-0.377,0.248
					c-0.237-0.113-0.624-0.264-0.699-0.497c-0.021-0.066-0.05-0.162-0.072-0.237l0.362-0.24c0.026,0.083,0.061,0.192,0.086,0.269
					C15.517,22.251,15.958,22.433,16.154,22.513z M14.605,22.987l-0.372,0.25c-0.152-0.066-0.165-0.072-0.277-0.317
					c-0.02-0.042-0.044-0.099-0.07-0.153l0.354-0.234c0.023,0.048,0.044,0.097,0.064,0.136
					C14.397,22.864,14.493,22.946,14.605,22.987z M39.094,19.167l0.867,0.966c-0.096-0.003-0.534,0.106-0.534,0.106L39.094,19.167z
					 M39.308,40.061c0.356-0.102,0.787-0.181,1.269-0.181c0.135,0,0.272,0.006,0.412,0.02c1.563,0.149,3.023,0.875,3.344,0.989
					c0.655,0.234,1.525,0.407,1.913,0.472c0.362,0.061,1.753,0.528,2.104,0.538c0.026-0.001,0.054,0,0.1-0.018
					c0.042-0.007,0.133-0.091,0.129-0.187c0-0.051-0.018-0.091-0.043-0.127c-0.19-0.25-0.531-0.373-1.203-0.563
					c-0.268-0.074-0.267-0.111-0.776-0.222c0.412-0.111,0.915-0.229,1.38-0.275c0.42-0.043,0.821-0.064,1.205-0.064
					c0.489,0,0.942,0.033,1.37,0.094c-0.948,4.618-3.241,8.744-6.451,11.956c-1.418,1.416-3.016,2.649-4.752,3.671V40.061z
					 M49.969,39.725c-0.95,0-1.764,0.112-2.299,0.161c-0.717,0.071-2.001,0.519-2.285,0.604c-0.498-0.135-2.888-1.329-4.52-1.332
					c-0.074,0-0.146,0.002-0.222,0.007c-0.376,0.031-1.091,0.21-1.165,0.216c-0.054,0.006-0.11,0.018-0.17,0.032V22.987l0.254,0.03
					l0.01-0.417l0.262-0.262l0.005-0.51c0.25-0.126,0.25-0.451,0.25-0.451l0.606-0.429c0.011,0.002,0.023,0.004,0.035,0.006
					c0.054,0.021,0.112,0.029,0.167,0.029c0,0,0,0,0.001,0c0.006,0,0.013,0.003,0.02,0.003c0.003,0,0.003,0,0.005,0
					c0.196-0.002,0.399-0.09,0.591-0.239l-0.004-0.005c0,0,0,0,0-0.001l0.005,0.006c0.033-0.028,0.062-0.059,0.093-0.086
					c0.203-0.178,0.346-0.371,0.356-0.599c0-0.028-0.006-0.06-0.014-0.089c0.001-0.047-0.011-0.094-0.043-0.13l-1.46-1.535
					c0.009-0.012,0.023-0.02,0.029-0.035c0.028-0.068,0.012-0.149-0.04-0.202l-1.604-1.62c0.016-0.018,0.035-0.03,0.043-0.052
					c0.03-0.068,0.013-0.148-0.039-0.2l-1.541-1.557c0.003-0.008,0.014-0.012,0.016-0.021c0.03-0.07,0.014-0.149-0.038-0.2
					l-0.283-0.286c2.648,1.188,5.043,2.838,7.069,4.862c4.286,4.287,6.936,10.206,6.936,16.748c0,1.369-0.121,2.706-0.343,4.01
					C50.421,39.741,50.188,39.725,49.969,39.725z M41.13,20.317c0.175-0.14,0.372-0.227,0.444-0.136
					c0.073,0.091-0.012,0.277-0.188,0.42c-0.175,0.14-0.377,0.182-0.45,0.09C40.864,20.601,40.954,20.458,41.13,20.317z
					 M26.622,1.409c0.077,0.002,0.146,0.018,0.194,0.036v1.25c-0.059-0.004-0.127-0.012-0.194-0.017V1.409z M26.427,2.958h0.001
					l1.004,0.142c-0.002,0.071-0.035,0.12-0.076,0.166c-0.013,0.013-0.026,0.024-0.039,0.035L26.5,3.192
					c-0.062-0.096-0.073-0.162-0.073-0.205C26.427,2.978,26.427,2.968,26.427,2.958z M26.284,3.624l0.942,0.126l2.089,2.192
					c-0.165-0.059-0.367-0.165-0.539-0.275c-0.269-0.168-0.48-0.336-0.48-0.336l-0.159-0.125l-0.093,0.18
					c-0.089,0.162-0.173,0.195-0.314,0.2c-0.204,0.005-0.506-0.141-0.741-0.298c-0.232-0.156-0.404-0.312-0.404-0.312l-0.147-0.136
					l-0.105,0.169c-0.146,0.223-0.304,0.269-0.476,0.274c-0.124,0-0.249-0.034-0.341-0.07c-0.003-0.001-0.007-0.003-0.01-0.004
					L26.284,3.624z M25.306,4.157l0.622-0.455l-0.691,1.403c0,0-0.286,0.295-0.271-0.133c0,0-1.712,2.383-1.744,1.639L25.306,4.157z
					 M19.474,12.334l1.456-1.781l0.026-0.165l1.564-1.906l0.028-0.188l2.095-2.449c0.129-0.083,0.22-0.112,0.26-0.121v0.01
					c0.001,0.026-0.004,0.052-0.009,0.072L12.491,22.725l-0.399-0.385l1.275-1.567l0.028-0.186l1.466-1.815l0.027-0.219l1.563-1.934
					l0.01-0.188l1.515-1.929l0.027-0.165l1.467-1.862L19.474,12.334z M44.975,53.404c-4.523,4.522-10.765,7.316-17.663,7.316
					c-6.9,0-13.141-2.794-17.663-7.316c-4.521-4.521-7.315-10.762-7.315-17.66c0-6.898,2.794-13.14,7.315-17.66
					c2.659-2.658,5.919-4.711,9.553-5.958l-0.912,1.137C9.378,16.843,3.082,25.554,3.082,35.744c0,10.456,6.622,19.361,15.9,22.76
					c2.597,0.95,5.402,1.468,8.33,1.468v0.002c10.454,0,19.363-6.621,22.759-15.899c0.951-2.598,1.47-5.403,1.47-8.33
					c0-10.32-6.457-19.125-15.548-22.617l-0.348-0.353c0.015-0.016,0.031-0.029,0.04-0.048c0.028-0.069,0.013-0.15-0.039-0.203
					l-0.481-0.485c3.737,1.236,7.087,3.324,9.811,6.045c4.52,4.521,7.315,10.762,7.315,17.66
					C52.29,42.643,49.495,48.884,44.975,53.404z M19.254,49.586c-0.058-0.033-0.13-0.036-0.188-0.005l-1.918,1.017
					c-0.07,0.036-0.107,0.107-0.101,0.178l0.007,4.928c0,0.068,0.034,0.132,0.092,0.166c0.03,0.017,0.066,0.026,0.099,0.026
					c0.031,0,0.062-0.008,0.09-0.022l1.916-1.024c0.061-0.034,0.099-0.1,0.099-0.169l-0.006-4.932
					C19.345,49.683,19.31,49.622,19.254,49.586z M17.976,55.099l-0.54,0.289l-0.008-4.51l0.548-0.287V55.099z M18.356,54.895V50.39
					l0.608-0.322l0.006,4.497L18.356,54.895z M32.228,27.135c-0.085,0.003-0.163,0.04-0.26,0.08
					c-0.141,0.06-0.337,0.127-0.465,0.206c-0.134,0.084-0.214,0.205-0.253,0.28c-0.052,0.06-0.461,0.307-0.554,0.376
					c-0.037,0.028-0.077,0.036-0.124,0.043c0-0.007,0.003-0.018,0.003-0.027c0-0.005,0-0.009,0-0.009l0-0.013l-0.001-0.015
					c-0.029-0.145-0.08-0.189-0.082-0.278v-0.024c0-0.009,0-0.013,0-0.013c0-0.16-0.034-0.941-0.034-1.348
					c0-0.064,0.002-0.12,0.002-0.158c0.001-0.017,0.004-0.031,0.005-0.039c0.042-0.099,0.091-0.255,0.092-0.44
					c0-0.019,0-0.037-0.001-0.053c-0.014-0.204-0.122-0.896-0.139-1.083c-0.009-0.1-0.024-0.198-0.048-0.281
					c-0.028-0.062-0.032-0.146-0.12-0.188c0.004,0.001-0.006,0.005-0.006,0.005l0.001-0.007c0.001,0.001,0.004,0.001,0.005,0.002
					c-0.004-0.002-0.004-0.001-0.005-0.003h-0.001c-0.011-0.003-0.022-0.007-0.034-0.01v-0.003h-0.003v-0.001
					c0,0-0.006-0.001-0.031,0.002c-0.007,0.003-0.022,0.005-0.042,0.022c-0.085,0.047-0.081,0.13-0.103,0.189
					c-0.018,0.081-0.029,0.178-0.04,0.272c-0.02,0.204-0.113,0.887-0.124,1.086c0,0.011-0.001,0.026-0.001,0.043
					c0.001,0.194,0.057,0.357,0.1,0.453c0.005,0.038,0.008,0.188,0.007,0.357c0,0.401-0.014,0.979-0.014,1.159
					c0,0.017,0,0.028,0.002,0.044c0,0.003,0,0.006,0,0.01c0.001,0.096-0.05,0.14-0.078,0.294c0-0.003-0.003,0.011-0.003,0.03
					c0.003,0.051,0.015,0.108,0.03,0.164c-0.054,0.074-0.091,0.158-0.091,0.257c0,0.251,0.206,0.456,0.459,0.456
					c0.182,0,0.337-0.109,0.41-0.267c0.048-0.015,0.091-0.029,0.138-0.066l-0.066-0.07l0.067,0.069
					c0.076-0.089,0.074-0.144,0.139-0.185c0.057-0.038,0.177-0.136,0.3-0.23c0.06-0.047,0.121-0.091,0.165-0.124
					c0.024-0.017,0.044-0.031,0.058-0.039c0.007-0.002,0.01-0.004,0.014-0.006c0.085-0.011,0.225-0.045,0.347-0.145
					c0.119-0.098,0.239-0.257,0.345-0.374c0.078-0.095,0.156-0.153,0.169-0.277c0-0.023-0.005-0.049-0.02-0.071
					C32.305,27.141,32.258,27.134,32.228,27.135z M30.227,23.001h-0.006c-0.202,0.001-0.402,0.021-0.597,0.048
					c-2.355,0.21-4.192,2.336-4.191,4.916l-0.001,0.001c0,0.007,0,0.015,0.001,0.021c0.01,2.568,1.841,4.684,4.191,4.893
					c0.197,0.027,0.398,0.047,0.604,0.047h0.003c2.548,0,4.587-2.233,4.591-4.961v-0.002C34.819,25.235,32.777,23.003,30.227,23.001
					z M30.897,32.427c-0.217,0.04-0.439,0.064-0.667,0.064l-0.003-0.002c-2.28-0.002-4.155-2.009-4.155-4.522l-0.002-0.016
					c0.008-2.506,1.88-4.508,4.158-4.514h0.051c0.116,0.002,0.229,0.012,0.341,0.023c1.901,0.499,3.305,2.304,3.307,4.5
					C33.926,30.108,32.835,31.862,30.897,32.427z M17.274,28.826L17.274,28.826c-0.003-2.439,0.849-4.345,1.99-4.435
					c0.04-0.004,0.073-0.039,0.073-0.082c0-0.041-0.031-0.077-0.072-0.079c-0.024-0.001-0.21-0.062-0.282-0.065v0.002
					c-0.001,0-0.003,0-0.003-0.002c-1.375,0.02-2.397,2.108-2.403,4.644c0.004,3.017,1.028,4.65,2.197,4.666
					c0.073,0,0.147-0.008,0.22-0.021c0.029-0.005,0.193-0.017,0.233-0.021s0.073-0.037,0.073-0.081
					c0.001-0.04-0.029-0.077-0.071-0.081C17.937,33.136,17.27,31.262,17.274,28.826z M19.73,28.292
					c-0.051,0.003-0.094,0.038-0.152,0.076c-0.08,0.056-0.191,0.118-0.267,0.194c-0.075,0.079-0.12,0.191-0.143,0.263
					c-0.03,0.057-0.266,0.287-0.318,0.351c-0.022,0.027-0.044,0.033-0.07,0.042c0-0.009,0.002-0.016,0.002-0.025
					c-0.002-0.007-0.002-0.01-0.002-0.012v-0.009l0-0.016c-0.018-0.137-0.046-0.18-0.047-0.261v-0.023c0-0.012,0-0.012,0-0.012
					c0-0.154-0.021-0.889-0.021-1.274c0-0.061,0.001-0.111,0.003-0.149c-0.002-0.016,0.001-0.029,0.001-0.038
					c0.023-0.091,0.051-0.241,0.053-0.414c0-0.018-0.001-0.035-0.002-0.049c-0.008-0.194-0.07-0.847-0.081-1.024
					c-0.005-0.094-0.015-0.187-0.026-0.267c-0.018-0.058-0.021-0.138-0.071-0.177c0,0.001-0.004,0.005-0.004,0.005l0.001-0.007
					c0,0,0.001,0,0.003,0.002c-0.003-0.002-0.003-0.002-0.001-0.002h-0.003c-0.005-0.005-0.012-0.009-0.019-0.012V25.45
					c0,0,0,0-0.002,0c0,0-0.004,0-0.018,0c-0.003,0.005-0.012,0.006-0.024,0.022c-0.047,0.044-0.046,0.126-0.058,0.179
					c-0.012,0.077-0.019,0.168-0.023,0.257c-0.012,0.193-0.064,0.835-0.071,1.026c-0.001,0.008-0.001,0.023-0.001,0.04
					c0,0.183,0.032,0.338,0.058,0.43c0.004,0.034,0.007,0.173,0.007,0.336c0,0.377-0.008,0.924-0.008,1.095
					c-0.001,0.014-0.001,0.026,0.001,0.042v0.008c0.002,0.091-0.028,0.133-0.044,0.276c0-0.001,0,0.012,0,0.03
					c0,0.049,0.008,0.102,0.015,0.153c-0.03,0.071-0.052,0.15-0.052,0.241c0.001,0.24,0.122,0.435,0.266,0.436
					c0.105,0.002,0.195-0.103,0.236-0.25c0.026-0.014,0.053-0.026,0.078-0.063l-0.039-0.066l0.039,0.065
					c0.045-0.083,0.044-0.135,0.081-0.171c0.032-0.037,0.101-0.131,0.172-0.218c0.035-0.044,0.07-0.085,0.095-0.116
					c0.014-0.017,0.026-0.03,0.034-0.036c0.003-0.004,0.004-0.004,0.005-0.006c0.05-0.01,0.131-0.044,0.202-0.134
					c0.066-0.093,0.135-0.243,0.196-0.353c0.045-0.09,0.09-0.145,0.098-0.26c-0.001-0.022-0.003-0.047-0.013-0.068
					C19.775,28.302,19.746,28.292,19.73,28.292z M28.428,55.937l4.503,0.71c0.014,0.002,0.028,0.004,0.043,0.004
					c0.064,0,0.126-0.025,0.178-0.067c0.059-0.053,0.094-0.129,0.093-0.208l-0.019-4.55c0.008-0.121-0.067-0.233-0.18-0.273
					c-0.019-0.008-0.04-0.012-0.061-0.014l-4.469-0.688c-0.078-0.011-0.159,0.012-0.218,0.063c-0.06,0.053-0.094,0.127-0.094,0.206
					l-0.007,4.549C28.198,55.799,28.294,55.915,28.428,55.937z M31.099,51.799l1.583,0.244l0.017,4.016l-1.6-0.254V51.799z
					 M28.748,51.438l1.809,0.277v4.004l-1.814-0.284L28.748,51.438z M28.678,38.974c0,0,1.518-0.022,1.992,1.592
					c0,0,0.284-1.285,1.88-1.225C32.549,39.341,30.922,37.494,28.678,38.974z M30.7,39.799c-0.171-0.243-0.532-0.701-0.993-0.912
					c0.189-0.057,0.461-0.118,0.778-0.118c0.371,0.004,0.797,0.084,1.221,0.35C31.411,39.184,30.947,39.352,30.7,39.799z"/>
			</g>
		</g>
	</g>
</g>
</svg>
