<?xml version="1.0" standalone="no"?>
<!DOCTYPE svg PUBLIC "-//W3C//DTD SVG 20010904//EN"
 "http://www.w3.org/TR/2001/REC-SVG-20010904/DTD/svg10.dtd">
<svg version="1.0" xmlns="http://www.w3.org/2000/svg"
 width="474.000000pt" height="474.000000pt" viewBox="0 0 474.000000 474.000000"
 preserveAspectRatio="xMidYMid meet">
<metadata>
Created by potrace 1.14, written by Peter Selinger 2001-2017
</metadata>
<g transform="translate(0.000000,474.000000) scale(0.100000,-0.100000)"
fill="#000000" stroke="none">
<path d="M2358 4723 c-11 -3 -18 -14 -18 -30 0 -15 -22 -52 -61 -99 -34 -41
-59 -78 -55 -81 3 -3 -12 -28 -34 -56 -22 -27 -40 -53 -40 -58 0 -4 -24 -15
-52 -24 -223 -73 -426 -248 -530 -457 -76 -154 -104 -290 -95 -466 23 -479
404 -852 884 -866 448 -14 824 279 929 722 36 151 18 377 -44 532 -101 255
-335 471 -584 539 -26 8 -54 23 -61 35 -8 11 -27 35 -43 51 -16 17 -47 53 -69
80 -22 28 -51 60 -64 73 -13 12 -21 22 -17 22 3 0 0 10 -8 23 -7 12 -12 30
-11 39 4 21 -3 26 -27 21z m48 -124 l29 -31 -35 6 c-19 4 -43 7 -52 7 -21 0
-22 3 -6 29 17 27 29 25 64 -11z m-86 0 c-7 -11 -14 -18 -17 -15 -3 3 0 12 7
21 18 21 23 19 10 -6z m-49 -52 l-24 -22 19 27 c10 14 21 24 23 22 3 -3 -6
-15 -18 -27z m106 1 c10 -13 143 -411 143 -428 0 -5 -9 -8 -19 -7 -16 1 -30
35 -81 192 -34 104 -65 200 -71 213 -14 36 7 57 28 30z m143 -80 c34 -40 76
-89 94 -108 33 -35 202 -234 240 -280 37 -46 -78 75 -134 140 -30 36 -60 70
-66 75 -5 6 -41 46 -80 90 -38 44 -71 82 -74 85 -40 41 -62 70 -53 70 6 0 39
-33 73 -72z m-247 50 c-6 -7 -50 -67 -98 -133 -49 -66 -119 -160 -155 -210
-36 -49 -84 -116 -106 -147 -21 -32 -43 -57 -47 -58 -5 0 -5 6 -1 13 19 30
305 419 314 427 4 3 26 31 49 63 24 31 46 57 48 57 3 0 1 -6 -4 -12z m258
-231 c29 -89 54 -168 57 -175 3 -10 -2 -13 -18 -10 -23 3 -51 78 -157 413 -3
11 10 1 30 -23 29 -34 47 -77 88 -205z m-90 -107 c7 -19 13 -39 16 -45 2 -5
-8 -10 -21 -10 -23 0 -28 10 -76 156 -27 86 -50 162 -50 167 0 6 5 23 12 37
11 25 15 16 60 -122 26 -81 53 -164 59 -183z m-177 273 c-8 -21 -31 -76 -50
-123 -19 -47 -42 -99 -50 -117 -7 -17 -14 -34 -14 -38 0 -8 -24 -29 -52 -45
-16 -9 138 315 164 348 18 21 19 13 2 -25z m67 -135 c64 -206 60 -184 33 -184
-22 0 -28 10 -59 108 -19 59 -35 112 -35 117 0 14 19 61 24 61 2 0 19 -46 37
-102z m244 17 c7 -17 29 -78 48 -138 35 -107 35 -107 13 -107 -20 0 -27 14
-61 123 -22 67 -45 139 -51 161 l-13 38 26 -23 c14 -13 31 -38 38 -54z m-463
-117 c-41 -86 -72 -138 -83 -141 -14 -4 -7 17 32 96 42 83 109 189 116 183 1
0 -28 -63 -65 -138z m-28 98 c-3 -8 -31 -27 -62 -42 -142 -68 -265 -176 -350
-307 -245 -375 -157 -876 202 -1146 109 -83 208 -127 350 -157 65 -14 223 -20
271 -10 11 2 40 7 65 11 76 13 197 61 276 110 254 158 403 426 403 722 -1 158
-28 273 -97 402 -47 90 -89 145 -164 217 -75 72 -128 109 -225 158 -40 20 -73
41 -73 46 0 11 27 2 102 -36 186 -93 350 -276 424 -472 24 -63 29 -77 38 -119
27 -130 24 -279 -8 -404 -136 -534 -713 -811 -1214 -583 -230 105 -427 338
-481 569 -6 28 -14 61 -17 75 -14 57 -12 238 2 315 41 215 184 436 359 556 38
26 188 106 202 109 1 0 0 -6 -3 -14z m186 -15 c0 -10 6 -36 13 -57 29 -83 30
-94 4 -94 -20 0 -26 8 -40 59 -13 47 -14 64 -5 89 12 32 28 34 28 3z m429
-145 c22 -71 21 -89 -4 -80 -13 6 -26 38 -71 184 l-14 45 34 -40 c21 -25 42
-67 55 -109z m-676 72 c-36 -39 -203 -268 -203 -278 0 -5 9 -14 20 -20 11 -6
20 -17 20 -25 0 -8 7 -15 15 -15 8 0 15 -4 15 -10 0 -5 6 -10 13 -10 9 0 12
-59 12 -260 0 -143 -4 -260 -8 -260 -5 0 -51 10 -102 22 -85 19 -99 20 -137 8
-36 -12 -96 -16 -104 -7 -1 1 -4 34 -6 74 -16 288 105 548 338 725 50 38 120
77 138 78 5 0 0 -10 -11 -22z m776 -5 c190 -109 330 -290 391 -503 21 -75 35
-259 23 -326 -5 -31 -6 -31 -60 -33 -31 0 -72 -6 -93 -12 -32 -10 -46 -8 -96
10 -32 12 -80 22 -106 23 l-48 0 0 281 c1 245 3 287 18 317 9 19 26 36 37 38
11 2 25 11 32 19 10 13 -2 32 -73 114 -47 55 -82 99 -78 99 4 0 28 -12 53 -27z
m-565 -39 c5 -18 2 -21 -19 -21 -14 0 -25 1 -25 2 0 1 5 17 11 35 12 33 19 30
33 -16z m513 -42 c17 -20 33 -47 37 -58 6 -18 3 -21 -17 -17 -19 4 -27 16 -39
59 -9 30 -14 54 -13 54 1 0 15 -17 32 -38z m-747 -52 c-27 -53 -53 -81 -65
-69 -4 5 84 129 91 129 2 0 -9 -27 -26 -60z m170 50 c0 -5 -2 -10 -4 -10 -3 0
-8 5 -11 10 -3 6 -1 10 4 10 6 0 11 -4 11 -10z m84 -34 c-1 -9 3 -16 9 -16 6
0 18 -6 26 -14 9 -8 46 -20 81 -25 75 -13 96 -16 204 -36 110 -21 192 -20 205
2 11 20 23 12 28 -16 2 -18 -4 -19 -95 -16 -53 2 -110 6 -127 10 -78 15 -194
36 -230 42 -22 3 -55 14 -75 24 -43 24 -93 24 -116 2 -16 -16 -16 -16 -10 5 5
13 3 22 -3 22 -6 0 -11 5 -11 11 0 8 4 8 13 1 18 -14 77 -3 77 15 0 8 6 13 13
10 6 -2 11 -12 11 -21z m84 -7 c-2 -6 -8 -10 -13 -10 -5 0 -11 4 -13 10 -2 6
4 11 13 11 9 0 15 -5 13 -11z m75 -14 c0 -6 -7 -11 -16 -13 -12 -3 -15 1 -11
13 7 17 25 17 27 0z m77 -16 c0 -5 -7 -9 -15 -9 -15 0 -20 12 -9 23 8 8 24 -1
24 -14z m-375 -9 c3 -6 -1 -7 -9 -4 -18 7 -21 14 -7 14 6 0 13 -4 16 -10z
m453 -1 c-2 -6 -8 -10 -13 -10 -5 0 -11 4 -13 10 -2 6 4 11 13 11 9 0 15 -5
13 -11z m74 -14 c0 -5 -5 -11 -11 -13 -6 -2 -11 4 -11 13 0 9 5 15 11 13 6 -2
11 -8 11 -13z m-388 -1 c14 -5 16 -36 16 -245 0 -232 1 -239 20 -240 11 -1 23
-2 28 -3 4 -1 32 -6 62 -10 30 -5 63 -10 72 -12 15 -2 220 -32 258 -37 13 -2
15 29 15 228 l1 230 24 0 25 0 3 -591 c2 -466 -1 -594 -10 -601 -7 -6 -39 -20
-70 -32 l-58 -21 0 140 c0 117 3 142 15 147 41 15 64 142 28 144 -10 1 -21 1
-25 0 -7 -1 -10 37 -10 104 0 29 2 32 27 27 21 -4 25 -1 24 19 -1 74 -70 166
-144 194 -98 38 -195 1 -241 -92 -28 -56 -26 -73 9 -73 37 0 43 -12 42 -78 0
-50 -4 -66 -18 -74 -26 -14 -22 -138 4 -145 18 -5 19 -18 19 -180 l0 -175 -62
6 c-35 4 -72 9 -84 12 l-21 5 0 680 c0 640 1 679 18 679 9 0 24 -3 33 -6z
m-179 -22 c-3 -3 -11 0 -18 7 -9 10 -8 11 6 5 10 -3 15 -9 12 -12z m75 14 c0
-11 -148 -98 -194 -114 -50 -17 -57 -17 -69 -4 -10 13 -9 14 1 8 7 -4 29 -2
50 5 20 7 40 12 44 11 4 -1 40 21 80 48 67 45 88 56 88 46z m580 -6 c0 -5 -7
-10 -15 -10 -8 0 -15 5 -15 10 0 6 7 10 15 10 8 0 15 -4 15 -10z m-555 -665
c0 -661 -2 -700 -31 -653 -5 7 -9 113 -10 236 -1 124 -6 227 -11 231 -15 11
-8 63 11 77 39 28 -19 184 -69 184 -61 0 -99 -142 -71 -266 5 -25 -2 -37 -32
-53 l-22 -12 2 393 c3 340 5 393 18 396 13 2 15 -27 15 -215 -1 -120 -4 -224
-9 -231 -12 -20 4 -14 99 37 l90 48 0 234 c0 196 4 259 18 259 1 0 2 -299 2
-665z m220 636 c73 -13 120 -20 160 -27 17 -2 53 -9 81 -15 l51 -10 0 -209 c0
-116 -2 -210 -4 -210 -16 0 -345 52 -368 59 l-30 7 0 212 0 212 25 -4 c14 -3
52 -10 85 -15z m-370 -1 c3 -6 -1 -7 -9 -4 -18 7 -21 14 -7 14 6 0 13 -4 16
-10z m-40 -39 c-6 -5 -25 10 -25 20 0 5 6 4 14 -3 8 -7 12 -15 11 -17z m151
-193 l-1 -212 -71 -38 -71 -38 0 207 0 208 66 42 c36 23 69 43 72 43 3 0 6
-95 5 -212z m-286 182 c0 -5 -2 -10 -4 -10 -3 0 -8 5 -11 10 -3 6 -1 10 4 10
6 0 11 -4 11 -10z m692 -478 c32 -13 4 -31 -42 -28 -33 2 -46 7 -48 19 -3 14
4 17 35 16 21 0 46 -3 55 -7z m-127 -51 c-20 -20 -26 -22 -39 -12 -17 14 -9
27 29 48 31 18 39 -8 10 -36z m209 -3 c18 -23 22 -35 13 -40 -14 -8 -79 50
-71 64 10 17 33 7 58 -24z m-42 -41 c14 -19 16 -28 7 -26 -26 6 -69 -11 -69
-26 0 -22 -18 -18 -31 8 -16 29 -28 37 -63 37 l-29 0 22 24 c41 44 126 35 163
-17z m-507 33 c3 -5 2 -10 -4 -10 -5 0 -18 -3 -28 -7 -16 -6 -16 -5 -4 10 15
19 27 22 36 7z m299 -44 c-9 -29 -17 -36 -32 -27 -8 5 -11 17 -7 33 5 19 11
24 26 21 15 -4 18 -11 13 -27z m-296 -7 c12 -18 11 -23 -5 -38 -26 -24 -56
-16 -47 12 7 25 23 47 33 47 3 0 12 -9 19 -21z m-238 -20 l75 -20 0 -248 c0
-286 7 -272 -93 -177 -110 104 -194 240 -232 377 -11 40 -18 74 -17 75 7 7
116 -25 154 -44 51 -26 86 -30 63 -7 -8 8 -37 25 -63 39 -79 39 -27 42 113 5z
m830 2 c14 -28 13 -51 -4 -51 -15 0 -39 54 -29 64 11 11 22 6 33 -13z m235 5
c11 -2 34 -10 50 -16 104 -41 245 -56 154 -16 l-34 14 30 2 c17 1 40 3 52 4
43 5 47 -7 23 -80 -59 -178 -173 -335 -315 -430 l-50 -34 -3 277 c-2 203 1
279 9 284 12 7 39 5 84 -5z m-446 -10 c8 -9 8 -16 2 -20 -13 -8 -10 -44 4 -50
6 -2 10 -23 10 -47 -1 -41 -3 -44 -26 -41 -69 8 -68 7 -65 75 2 34 7 70 11 80
9 21 48 23 64 3z m156 -49 c4 -17 5 -55 3 -82 -2 -40 -6 -50 -20 -49 -10 1
-29 2 -43 3 -23 1 -25 5 -25 50 0 28 5 53 11 57 6 3 9 19 5 35 -4 21 -1 29 12
32 28 6 51 -11 57 -46z m-515 -59 c0 -47 -3 -56 -15 -52 -11 5 -14 19 -11 58
3 28 5 58 5 66 1 13 2 13 11 0 5 -8 10 -41 10 -72z m440 56 c0 -2 -13 -4 -30
-4 -16 0 -30 4 -30 8 0 5 14 7 30 4 17 -2 30 -6 30 -8z m-496 -78 c-1 -21 -7
-43 -13 -49 -7 -7 -9 11 -7 54 5 83 6 89 15 59 4 -14 7 -42 5 -64z m463 22
c-3 -7 -5 -2 -5 12 0 14 2 19 5 13 2 -7 2 -19 0 -25z m0 -50 c-3 -7 -5 -2 -5
12 0 14 2 19 5 13 2 -7 2 -19 0 -25z m-16 -23 c30 -4 56 -8 59 -10 3 -2 32 -6
64 -9 67 -7 76 -11 76 -32 0 -17 -3 -17 -126 1 -54 8 -112 16 -129 18 -21 3
-31 10 -33 25 -3 16 1 20 16 17 10 -2 43 -6 73 -10z m-374 -16 c1 -15 -2 -19
-13 -15 -9 3 -18 6 -20 6 -2 0 -4 7 -4 15 0 24 36 18 37 -6z m263 2 c0 -10 -7
-21 -15 -25 -15 -5 -22 24 -8 37 12 13 23 7 23 -12z m-317 -4 c3 -9 -14 -23
-49 -40 -62 -31 -65 -31 -61 -14 2 10 80 63 98 66 4 1 9 -5 12 -12z m325 -63
c-17 -37 -38 -43 -38 -11 0 15 8 28 23 34 29 14 32 10 15 -23z m-272 4 c3 -21
-7 -23 -24 -6 -17 17 -15 30 5 26 9 -2 17 -11 19 -20z m399 -27 c-19 -38 -35
-40 -35 -6 0 17 7 28 23 34 30 12 31 8 12 -28z m-52 7 c8 -28 1 -38 -27 -38
-33 0 -37 9 -18 36 21 29 38 30 45 2z m-413 -8 c0 -11 -4 -20 -10 -20 -5 0
-14 9 -20 20 -9 17 -8 20 10 20 13 0 20 -7 20 -20z m599 -13 c-18 -39 -39 -43
-39 -7 0 22 5 29 23 32 29 5 30 5 16 -25z m-564 14 c3 -5 1 -12 -4 -15 -5 -3
-11 1 -15 9 -6 16 9 21 19 6z m508 -3 c10 -31 -5 -48 -38 -46 l-33 2 21 27
c24 30 43 36 50 17z m-619 -54 c22 -5 23 -10 23 -102 2 -123 0 -127 -32 -106
-25 16 -25 18 -24 138 1 66 4 111 6 99 3 -13 14 -25 27 -29z m16 30 c0 -17
-22 -14 -28 4 -2 7 3 12 12 12 9 0 16 -7 16 -16z m126 -1 c0 -11 -8 -18 -21
-19 -11 0 -29 -4 -40 -8 -11 -5 -2 3 20 18 22 14 40 26 40 26 1 0 1 -8 1 -17z
m-91 -2 c3 -5 1 -12 -5 -16 -5 -3 -10 1 -10 9 0 18 6 21 15 7z m482 -35 c11
-3 41 -7 65 -11 l44 -7 -1 -116 -1 -117 -29 1 c-42 1 -178 24 -184 30 -3 3 -6
57 -6 120 l0 115 45 -5 c25 -3 55 -8 67 -10z m-482 -88 c-1 -51 0 -96 2 -100
2 -5 22 1 45 13 32 16 39 25 35 41 -4 15 -3 18 5 10 6 -6 8 -17 5 -25 -6 -16
-96 -70 -98 -59 -8 40 -4 212 5 212 1 0 1 -42 1 -92z m57 -60 c-5 -5 -8 23 -7
64 2 100 8 109 12 19 2 -41 0 -78 -5 -83z m35 120 c-3 -7 -5 -2 -5 12 0 14 2
19 5 13 2 -7 2 -19 0 -25z m-60 -63 c0 -41 -4 -75 -9 -75 -4 0 -8 34 -8 75 0
41 4 75 9 75 5 0 9 -34 8 -75z m60 23 c-3 -8 -6 -5 -6 6 -1 11 2 17 5 13 3 -3
4 -12 1 -19z m-2 -152 c0 -19 -3 -37 -6 -41 -3 -3 -23 2 -44 10 -41 18 -41 19
7 45 45 24 44 24 43 -14z m364 -41 c9 -2 43 -6 76 -10 49 -7 55 -9 37 -16 -32
-12 -67 -18 -139 -26 l-63 -6 0 36 c0 40 -1 40 89 22z"/>
<path d="M2430 3943 c-95 -37 -136 -157 -87 -253 53 -106 201 -121 269 -29 34
46 45 85 38 141 -11 85 -79 149 -159 147 -25 0 -53 -3 -61 -6z m135 -43 c14
-13 32 -43 41 -67 37 -96 -26 -213 -115 -213 -67 0 -133 62 -144 136 -9 58 36
142 88 165 34 15 104 3 130 -21z"/>
<path d="M2479 3885 c-4 -158 0 -166 60 -116 40 33 27 51 -14 19 l-27 -21 2
49 c3 76 1 94 -10 94 -5 0 -10 -11 -11 -25z"/>
<path d="M2058 3896 c-64 -48 -62 -272 3 -306 31 -17 44 -11 20 11 -31 29 -43
64 -43 135 -1 76 16 128 49 154 22 17 23 20 7 20 -11 0 -27 -7 -36 -14z"/>
<path d="M2077 3853 c-10 -9 -9 -153 1 -152 4 0 17 13 30 30 18 22 20 29 9 29
-9 0 -18 -6 -20 -12 -5 -13 -9 17 -9 80 -1 34 -1 36 -11 25z"/>
<path d="M2458 3403 c-10 -2 -18 -9 -18 -14 0 -6 4 -8 9 -5 5 4 20 -7 34 -24
19 -22 26 -26 31 -15 3 9 18 20 33 26 l28 11 -25 13 c-25 14 -59 17 -92 8z
m65 -24 c-8 -8 -16 -8 -30 0 -16 9 -14 10 12 11 21 0 26 -3 18 -11z"/>
<path d="M2419 2956 c-2 -66 -1 -157 3 -161 2 -2 33 -9 68 -15 116 -19 105
-27 105 75 l0 90 -45 8 c-25 4 -64 12 -87 16 -40 8 -43 7 -44 -13z m67 -16
c11 0 14 -16 14 -70 0 -38 -3 -70 -7 -70 -5 0 -18 3 -30 6 -21 6 -23 12 -23
76 0 60 2 69 16 64 9 -3 22 -6 30 -6z m88 -83 c1 -37 -1 -67 -4 -67 -3 0 -14
3 -26 6 -18 5 -21 13 -22 74 l-1 68 26 -7 c25 -7 26 -10 27 -74z"/>
<path d="M113 2363 c-7 -19 6 -33 31 -33 13 0 28 -6 33 -12 5 -7 58 -150 118
-318 59 -168 110 -311 113 -317 13 -36 35 7 111 213 46 124 87 222 91 217 4
-4 26 -64 50 -133 55 -159 107 -301 114 -307 2 -3 9 -3 14 1 5 3 60 149 123
325 l114 321 33 6 c37 7 44 14 32 33 -7 13 -67 16 -187 12 -36 -1 -31 -41 5
-42 64 -1 64 4 -22 -241 -45 -126 -83 -228 -86 -228 -3 0 -18 35 -32 78 -15
42 -49 142 -77 222 -28 79 -51 150 -51 157 0 8 14 13 40 13 27 0 43 5 47 15 3
9 3 19 0 22 -4 3 -63 6 -132 7 -122 1 -125 1 -125 -21 0 -17 7 -22 33 -25 29
-3 34 -8 53 -62 l20 -58 -64 -177 c-35 -97 -65 -177 -67 -179 -3 -3 -165 459
-165 470 0 4 19 8 43 10 33 2 43 7 45 23 3 19 -3 20 -124 20 -89 0 -128 -4
-131 -12z"/>
<path d="M3693 2168 c-5 -7 -50 -107 -98 -223 -48 -115 -93 -213 -99 -217 -6
-4 -21 -8 -33 -8 -16 0 -23 -6 -23 -20 0 -19 7 -20 100 -20 75 0 99 3 98 13
-4 18 -20 27 -50 27 -16 0 -28 4 -28 9 0 16 32 86 42 92 6 4 50 7 99 7 l88 -1
20 -48 c12 -26 21 -50 21 -53 0 -3 -17 -6 -37 -8 -27 -2 -39 -8 -41 -20 -3
-16 8 -18 118 -18 110 0 121 2 118 18 -2 10 -14 18 -31 20 -24 3 -32 12 -49
50 -10 26 -24 56 -29 67 -5 11 -40 92 -78 180 -66 155 -85 182 -108 153z m25
-170 c11 -29 28 -70 36 -90 l16 -38 -76 0 c-74 0 -75 1 -68 23 9 28 66 157 70
157 1 0 12 -24 22 -52z"/>
<path d="M1077 2150 c3 -13 14 -20 28 -20 56 0 55 4 55 -211 l0 -199 -40 0
c-33 0 -40 -3 -40 -20 0 -19 7 -20 120 -20 109 0 120 2 120 18 0 13 -9 18 -31
20 -18 1 -35 4 -39 7 -3 2 -7 45 -7 95 l-1 90 123 0 c89 0 124 -3 127 -12 4
-11 3 -104 -1 -165 -1 -7 -13 -13 -28 -13 -31 0 -47 -9 -51 -27 -1 -10 28 -13
124 -13 114 0 125 2 122 18 -2 12 -14 18 -41 20 l-37 3 2 202 3 202 38 3 c30
3 37 7 35 20 -3 15 -20 17 -123 20 -115 2 -121 2 -122 -18 -1 -16 4 -20 30
-20 18 0 37 -4 42 -8 11 -8 15 -154 4 -162 -4 -3 -60 -5 -126 -5 l-118 1 -2
69 c-2 97 2 105 43 105 27 0 34 4 34 20 0 19 -7 20 -124 20 -119 0 -124 -1
-119 -20z"/>
<path d="M1790 2150 c0 -14 7 -20 24 -20 57 0 56 4 56 -211 l0 -199 -32 -1
c-18 -1 -36 -1 -40 0 -5 0 -8 -8 -8 -19 0 -19 7 -20 125 -20 95 0 124 3 123
13 -4 18 -20 27 -50 27 -20 0 -28 5 -29 18 -5 83 -3 356 3 372 5 14 16 20 36
20 34 0 43 7 35 26 -4 11 -31 14 -124 14 -112 0 -119 -1 -119 -20z"/>
<path d="M2149 2168 c-1 -2 -2 -33 -3 -70 -2 -58 0 -68 15 -68 19 0 29 19 29
55 0 12 6 27 13 32 9 8 82 10 120 4 4 0 7 -91 7 -201 l0 -200 -34 0 c-33 0
-62 -20 -49 -33 3 -4 60 -7 125 -7 110 0 118 1 118 19 0 16 -8 20 -37 23 l-38
3 0 200 0 199 63 1 c67 1 67 1 76 -65 2 -16 10 -26 22 -28 18 -3 20 3 18 60
-1 35 -2 66 -3 71 -1 6 -439 11 -442 5z"/>
<path d="M2695 2160 c-11 -17 3 -27 45 -34 23 -3 39 -10 37 -14 -3 -4 -8 -56
-11 -117 -17 -281 -16 -275 -68 -275 -21 0 -28 -5 -28 -20 0 -19 7 -20 106
-20 95 0 105 2 102 18 -2 11 -15 19 -38 22 l-35 5 1 65 c2 113 8 221 14 230 3
5 43 -70 89 -165 46 -96 89 -175 96 -175 6 0 51 81 99 180 49 100 90 180 92
178 1 -2 5 -44 8 -93 3 -50 8 -120 11 -157 l6 -68 -33 -1 c-18 -1 -36 -1 -40
0 -5 0 -8 -8 -8 -19 0 -19 7 -20 119 -20 77 0 122 4 127 11 9 15 -14 29 -49
29 -15 0 -30 6 -32 13 -4 11 -7 52 -21 282 -3 50 -7 96 -9 103 -3 8 8 12 34
12 24 0 41 5 44 14 9 22 -2 26 -77 26 -83 0 -60 27 -176 -210 -39 -79 -72
-146 -74 -147 -3 -3 -44 79 -128 255 l-49 102 -74 0 c-40 0 -77 -4 -80 -10z"/>
<path d="M4050 2150 c0 -13 7 -20 20 -20 60 0 60 -2 60 -210 0 -203 1 -200
-56 -200 -17 0 -24 -6 -24 -20 0 -19 7 -20 106 -20 94 0 105 2 102 17 -2 10
-17 20 -36 24 -18 4 -35 9 -37 11 -6 6 -8 298 -2 304 3 4 78 -74 205 -215 66
-73 145 -151 153 -151 10 0 11 13 11 262 l1 187 38 6 c30 5 39 11 39 26 0 18
-7 20 -102 17 -85 -3 -103 -6 -106 -19 -2 -12 8 -18 38 -23 l40 -6 0 -150 0
-151 -47 53 c-25 29 -89 99 -141 156 -53 57 -103 112 -112 122 -14 16 -30 20
-84 20 -59 0 -66 -2 -66 -20z"/>
<path d="M755 1470 c-133 -27 -235 -121 -269 -250 -19 -74 -14 -190 13 -261
83 -220 383 -281 568 -116 21 19 22 22 7 38 -16 17 -18 17 -55 -13 -53 -42
-131 -67 -200 -64 -144 7 -242 137 -241 321 0 131 52 232 146 283 49 27 169
23 229 -8 53 -27 62 -38 72 -93 5 -26 12 -37 25 -37 20 0 26 30 29 143 2 57 0
67 -15 67 -9 0 -22 -7 -29 -16 -10 -14 -17 -15 -49 -4 -46 15 -176 20 -231 10z"/>
<path d="M1293 1245 c-101 -49 -152 -128 -155 -236 -4 -234 288 -350 459 -182
100 97 100 275 0 371 -74 71 -209 92 -304 47z m174 -34 c100 -46 140 -208 82
-328 -36 -74 -128 -110 -201 -79 -122 52 -154 278 -53 379 48 47 108 57 172
28z"/>
<path d="M3420 1261 c-110 -34 -179 -123 -185 -240 -9 -161 103 -272 274 -272
64 -1 153 21 185 44 15 11 19 26 19 75 0 51 3 63 18 67 11 4 19 13 19 21 0 11
-21 14 -106 14 -95 0 -105 -2 -102 -17 2 -13 16 -20 43 -23 l40 -5 2 -53 c1
-60 -5 -66 -78 -77 -66 -10 -120 8 -162 54 -100 111 -64 332 60 369 47 14 116
8 165 -14 30 -14 40 -25 48 -56 6 -21 14 -38 18 -38 20 1 27 22 30 88 3 66 1
72 -17 72 -10 0 -21 -5 -23 -12 -3 -9 -15 -9 -50 0 -52 13 -159 15 -198 3z"/>
<path d="M1768 1252 c-30 -3 -38 -7 -38 -23 0 -11 4 -18 9 -15 5 3 23 3 40 0
l31 -6 0 -199 0 -199 -40 -6 c-28 -5 -40 -12 -40 -23 0 -15 21 -17 205 -16
l205 0 0 72 c0 66 -2 73 -20 73 -13 0 -21 -8 -25 -25 -3 -14 -7 -36 -10 -50
-5 -24 -7 -25 -95 -25 -65 0 -90 4 -91 13 -1 6 -2 96 -3 199 l-1 188 25 1 c14
0 32 3 40 7 16 7 25 32 13 33 -34 3 -176 3 -205 1z"/>
<path d="M2247 1252 c-18 -4 -24 -31 -7 -33 6 -1 15 -3 20 -4 6 -1 19 -3 30
-4 19 -1 20 -8 20 -200 l0 -199 -40 -7 c-28 -5 -40 -12 -40 -24 0 -15 18 -17
203 -16 l202 0 3 73 c3 71 2 73 -19 70 -15 -2 -23 -11 -25 -28 -11 -74 -5 -71
-107 -68 l-92 3 1 192 c0 106 3 195 5 198 5 4 42 13 65 14 20 2 11 31 -10 32
-82 3 -195 3 -209 1z"/>
<path d="M2727 1252 c-20 -4 -23 -31 -4 -34 6 0 17 -2 22 -3 6 -2 18 -3 28 -4
16 -1 17 -18 17 -200 l0 -198 -40 -7 c-29 -5 -40 -11 -40 -24 0 -16 15 -18
203 -16 111 1 205 2 208 3 3 0 6 30 5 66 0 61 -1 65 -23 65 -18 0 -23 -6 -24
-25 -1 -14 -3 -29 -4 -35 -1 -5 -3 -14 -4 -20 0 -6 -41 -10 -99 -10 l-98 0 -1
95 -1 96 66 -3 c62 -3 67 -5 72 -28 3 -14 12 -25 20 -25 23 0 22 147 -1 151
-11 1 -19 -8 -23 -26 -5 -28 -7 -29 -68 -27 l-63 2 -1 83 -2 82 94 0 c102 0
96 4 106 -65 2 -12 11 -20 23 -20 17 0 20 7 20 63 1 56 -1 62 -19 63 -75 3
-355 3 -369 1z"/>
<path d="M3850 1238 c0 -10 6 -19 13 -20 6 0 17 -2 22 -3 6 -2 17 -3 26 -4 14
-1 16 -26 16 -201 0 -160 -3 -200 -14 -201 -7 -1 -17 -3 -23 -4 -5 -1 -19 -3
-29 -4 -13 -1 -18 -7 -14 -19 4 -16 20 -18 209 -17 112 0 204 3 205 7 0 5 0
28 0 53 0 73 0 75 -20 75 -16 0 -21 -9 -27 -45 l-6 -45 -98 0 -98 0 0 95 1 95
63 0 c61 0 63 -1 69 -29 4 -20 12 -28 23 -27 14 2 17 15 18 72 0 62 -7 83 -28
84 -3 0 -9 -13 -13 -29 -6 -29 -7 -30 -68 -28 l-62 2 -2 83 -2 82 94 0 c56 0
96 -4 96 -10 1 -5 3 -14 4 -20 1 -5 3 -20 4 -33 1 -25 40 -36 42 -11 6 96 4
114 -16 115 -11 0 -102 1 -203 2 -167 2 -182 1 -182 -15z"/>
<path d="M2983 522 c-28 -4 -30 -22 -4 -29 18 -4 19 -16 19 -161 0 -87 0 -165
1 -174 1 -21 72 -37 119 -27 79 17 117 75 110 166 -8 89 -76 135 -147 99 l-31
-17 -1 33 c-3 124 -1 121 -66 110z m166 -169 c15 -13 22 -33 25 -69 7 -86 -34
-139 -97 -127 -26 5 -27 8 -28 67 -2 98 1 120 19 134 22 17 56 15 81 -5z"/>
<path d="M2857 503 c-15 -14 -6 -51 13 -56 26 -7 55 30 38 50 -11 14 -40 17
-51 6z"/>
<path d="M505 480 c-4 -7 1 -14 14 -17 21 -5 23 -11 23 -108 0 -183 -1 -193
-22 -198 -11 -3 -20 -10 -20 -16 0 -7 29 -11 80 -11 61 0 80 3 80 14 0 7 -10
13 -22 13 -13 1 -28 1 -33 2 -6 0 -10 24 -10 53 l1 51 52 3 c89 5 141 62 129
141 -11 66 -33 78 -156 81 -75 3 -111 0 -116 -8z m182 -24 c47 -15 51 -106 8
-143 -25 -22 -94 -33 -96 -15 -1 4 -2 40 -3 80 -3 89 13 103 91 78z"/>
<path d="M2526 482 c-7 -12 18 -35 27 -25 4 3 7 -16 8 -43 0 -27 1 -95 2 -152
1 -56 -1 -103 -5 -103 -5 -1 -13 -2 -20 -3 -6 0 -13 -7 -15 -13 -4 -10 26 -13
126 -13 l130 0 6 38 c11 62 11 66 -6 70 -11 2 -19 -10 -28 -38 l-12 -41 -62 3
-62 3 0 138 c0 76 2 142 5 147 3 4 13 9 23 11 10 2 19 9 20 14 3 13 -129 19
-137 7z"/>
<path d="M880 392 c-62 -31 -88 -120 -56 -197 27 -63 94 -84 169 -52 48 21 41
39 -9 25 -64 -17 -107 9 -116 72 -3 25 -2 25 70 26 39 1 77 2 82 3 14 1 10 84
-5 104 -13 18 -57 37 -83 37 -9 0 -33 -8 -52 -18z m82 -29 c10 -9 18 -29 18
-44 0 -27 -1 -28 -55 -27 -63 2 -71 12 -44 57 21 35 52 41 81 14z"/>
<path d="M1101 400 c-40 -6 -52 -25 -22 -35 19 -6 21 -14 21 -105 0 -78 -3
-99 -15 -104 -33 -12 -12 -26 39 -26 57 0 82 14 46 25 -18 6 -20 15 -20 94 0
98 5 108 63 118 47 7 59 -16 59 -119 0 -64 -3 -83 -16 -90 -31 -18 -15 -28 44
-28 49 0 58 3 54 15 -4 8 -12 15 -20 15 -10 0 -13 16 -13 63 2 112 -1 134 -20
158 -22 28 -86 30 -122 5 -22 -15 -24 -15 -34 2 -7 13 -18 16 -44 12z"/>
<path d="M1420 401 c-30 -7 -37 -28 -11 -36 17 -5 19 -16 18 -108 -2 -81 -5
-102 -16 -102 -8 0 -16 -6 -18 -12 -4 -10 15 -13 71 -13 56 0 76 3 76 13 0 8
-11 13 -27 13 l-28 -1 -3 87 c-3 81 -1 88 20 99 12 7 35 12 50 11 24 -1 28 3
28 28 0 21 -4 27 -17 25 -10 -2 -23 -4 -28 -4 -6 -1 -23 -12 -38 -26 l-27 -26
0 25 c0 27 -14 35 -50 27z"/>
<path d="M1700 402 c-57 -26 -90 -75 -90 -134 0 -85 46 -138 122 -138 99 0
154 98 114 203 -8 23 -26 48 -38 56 -26 16 -86 24 -108 13z m66 -30 c37 -24
50 -141 21 -185 -29 -44 -89 -40 -107 8 -18 47 -12 130 11 159 20 25 53 33 75
18z"/>
<path d="M1965 400 c-82 -25 -72 -115 16 -150 45 -18 69 -39 69 -61 0 -45 -95
-47 -106 -3 -8 31 -30 31 -36 0 -7 -35 2 -45 53 -54 81 -15 139 17 139 79 0
31 -18 48 -86 82 -76 38 -79 87 -7 87 27 0 35 -5 43 -26 6 -14 16 -24 22 -22
14 5 19 56 7 64 -17 10 -85 12 -114 4z"/>
<path d="M2223 395 c-18 -8 -41 -27 -51 -44 -38 -62 -21 -171 31 -206 33 -21
95 -22 136 0 40 20 29 41 -13 25 -15 -5 -36 -10 -46 -10 -29 0 -69 41 -72 75
l-3 30 73 1 c39 1 77 2 82 3 14 1 13 64 -1 95 -11 24 -54 46 -88 46 -9 -1 -31
-7 -48 -15z m75 -31 c13 -9 22 -26 22 -42 0 -26 -2 -28 -55 -29 -55 -1 -60 3
-55 37 3 22 31 50 49 50 9 0 27 -7 39 -16z"/>
<path d="M3330 402 c-50 -6 -57 -12 -35 -30 18 -15 21 -30 22 -114 1 -87 -1
-98 -18 -103 -41 -13 -15 -25 56 -25 58 0 75 3 75 14 0 10 -9 14 -27 12 -35
-4 -39 5 -35 98 4 84 16 100 74 98 23 -1 28 4 28 22 0 12 -2 25 -5 28 -11 11
-56 -6 -81 -31 -25 -24 -27 -24 -22 -5 7 29 -2 40 -32 36z"/>
<path d="M3585 400 c-45 -10 -75 -29 -69 -44 4 -11 11 -11 42 0 20 7 45 13 54
14 24 0 48 -27 48 -56 0 -21 -5 -24 -34 -24 -102 0 -157 -73 -103 -136 27 -31
73 -35 112 -10 29 19 36 20 33 4 -2 -8 11 -14 35 -16 28 -2 37 0 37 12 0 9 -6
15 -12 13 -10 -1 -14 27 -18 105 -4 77 -9 111 -20 122 -18 18 -65 25 -105 16z
m75 -174 c0 -39 -3 -45 -30 -56 -36 -15 -58 -8 -69 22 -14 39 20 71 80 75 16
2 19 -6 19 -41z"/>
<path d="M3810 402 c-50 -6 -57 -12 -35 -30 18 -15 21 -30 22 -114 1 -87 -1
-98 -18 -103 -41 -13 -15 -25 56 -25 60 0 75 3 75 15 0 8 -8 14 -17 13 -43 -3
-48 1 -46 39 1 21 2 59 2 85 1 53 21 72 73 70 25 -1 28 3 28 29 0 27 -2 29
-27 23 -16 -4 -41 -18 -57 -33 -16 -14 -27 -19 -24 -11 9 26 -5 45 -32 42z"/>
<path d="M2838 393 c-24 -6 -23 -24 2 -30 18 -5 20 -14 20 -103 0 -89 -2 -98
-20 -103 -11 -3 -20 -10 -20 -16 0 -7 25 -11 65 -11 63 0 85 12 45 25 -19 6
-20 15 -20 126 l0 119 -27 -1 c-16 -1 -36 -3 -45 -6z"/>
<path d="M3960 385 c0 -8 4 -15 9 -15 5 0 30 -54 55 -119 26 -66 52 -121 57
-123 17 -6 -10 -55 -38 -67 -13 -6 -30 -11 -36 -11 -7 0 -13 -9 -14 -20 -1
-15 4 -20 25 -20 62 0 86 37 152 233 26 76 48 127 56 127 8 0 11 6 8 15 -4 10
-20 15 -50 15 -32 0 -44 -4 -44 -15 0 -8 6 -15 14 -15 8 0 13 -6 12 -12 -5
-25 -57 -188 -60 -188 -2 0 -16 38 -30 85 -15 47 -29 92 -32 100 -4 9 0 15 10
15 9 0 16 7 16 15 0 12 -13 15 -55 15 -42 0 -55 -3 -55 -15z"/>
</g>
</svg>
