<?xml version="1.0" encoding="UTF-8" standalone="no"?>
<!DOCTYPE svg PUBLIC "-//W3C//DTD SVG 1.1//EN" "http://www.w3.org/Graphics/SVG/1.1/DTD/svg11.dtd">
<svg width="100%" height="100%" viewBox="0 0 1106 767" version="1.1" xmlns="http://www.w3.org/2000/svg" xmlns:xlink="http://www.w3.org/1999/xlink" xml:space="preserve" xmlns:serif="http://www.serif.com/" style="fill-rule:evenodd;clip-rule:evenodd;stroke-miterlimit:10;">
    <g id="_x34_th_Floor_-_Vector">
        <rect x="36.6" y="108.4" width="540" height="164.3" style="fill:rgb(230,230,230);stroke:rgb(230,230,230);stroke-width:1px;"/>
        <rect x="36.6" y="108.4" width="95.8" height="40.3" style="fill:rgb(0,61,125);stroke:rgb(230,230,230);stroke-width:1px;"/>
        <rect x="132.3" y="108.4" width="95.8" height="40.3" style="fill:rgb(0,61,125);stroke:rgb(230,230,230);stroke-width:1px;"/>
        <rect x="229.5" y="108.4" width="95.8" height="40.3" style="fill:rgb(0,61,125);stroke:rgb(230,230,230);stroke-width:1px;"/>
        <rect x="325.3" y="108.4" width="95.8" height="40.3" style="fill:rgb(0,61,125);stroke:rgb(230,230,230);stroke-width:1px;"/>
        <rect x="421.1" y="108.4" width="69.3" height="54" style="fill:rgb(0,61,125);stroke:rgb(230,230,230);stroke-width:1px;"/>
        <rect x="490.4" y="108.4" width="86" height="54" style="fill:rgb(0,61,125);stroke:rgb(230,230,230);stroke-width:1px;"/>
        <rect x="490.4" y="162.4" width="86.2" height="83" style="fill:rgb(0,61,125);stroke:rgb(230,230,230);stroke-width:1px;"/>
        <rect x="490.4" y="189.4" width="43" height="26" style="fill:rgb(0,61,125);stroke:rgb(230,230,230);stroke-width:1px;"/>
        <rect x="97.9" y="176.4" width="352.2" height="76.6" style="fill:rgb(0,61,125);stroke:rgb(230,230,230);stroke-width:1px;"/>
        <rect x="36.4" y="108.4" width="540" height="164.3" style="fill:none;stroke:rgb(51,51,51);stroke-width:3px;"/>
    </g>
    <g id="Key_-_4th_Floor">
        <rect x="861.7" y="85.7" width="26.4" height="16.7" style="fill:none;"/>
        <g transform="matrix(1,0,0,1,876.384,95.7261)">
            <text x="0px" y="0px" style="font-family:'ArialMT', 'Arial', sans-serif;font-size:14px;fill:rgb(51,51,51);">1.</text>
        </g>
        <rect x="861.7" y="122" width="26.4" height="16.7" style="fill:none;"/>
        <g transform="matrix(1,0,0,1,876.384,132.003)">
            <text x="0px" y="0px" style="font-family:'ArialMT', 'Arial', sans-serif;font-size:14px;fill:rgb(51,51,51);">3.</text>
        </g>
        <rect x="861.7" y="140.1" width="26.4" height="16.7" style="fill:none;"/>
        <g transform="matrix(1,0,0,1,876.384,150.142)">
            <text x="0px" y="0px" style="font-family:'ArialMT', 'Arial', sans-serif;font-size:14px;fill:rgb(51,51,51);">4.</text>
        </g>
        <rect x="861.7" y="158.3" width="26.4" height="16.7" style="fill:none;"/>
        <g transform="matrix(1,0,0,1,876.384,168.28)">
            <text x="0px" y="0px" style="font-family:'ArialMT', 'Arial', sans-serif;font-size:14px;fill:rgb(51,51,51);">5.</text>
        </g>
        <rect x="861.7" y="103.9" width="26.4" height="16.7" style="fill:none;"/>
        <g transform="matrix(1,0,0,1,876.384,113.865)">
            <text x="0px" y="0px" style="font-family:'ArialMT', 'Arial', sans-serif;font-size:14px;fill:rgb(51,51,51);">2.</text>
        </g>
        <rect x="896.9" y="103.9" width="194.3" height="16.7" style="fill:none;"/>
        <g transform="matrix(1,0,0,1,896.909,113.865)">
            <text x="0px" y="0px" style="font-family:'ArialMT', 'Arial', sans-serif;font-size:14px;fill:rgb(51,51,51);">W<tspan x="12.694px 20.48px " y="0px 0px ">ak</tspan>eﬁeld Study <tspan x="103.756px 113.094px " y="0px 0px ">Al</tspan>cove</text>
        </g>
        <rect x="896.9" y="122" width="194.3" height="16.7" style="fill:none;"/>
        <g transform="matrix(1,0,0,1,896.909,132.003)">
            <text x="0px" y="0px" style="font-family:'ArialMT', 'Arial', sans-serif;font-size:14px;fill:rgb(51,51,51);">Phillips Study <tspan x="87.158px 96.496px " y="0px 0px ">Al</tspan>cove</text>
        </g>
        <rect x="896.9" y="140.1" width="194.3" height="16.7" style="fill:none;"/>
        <g transform="matrix(1,0,0,1,896.909,150.142)">
            <text x="0px" y="0px" style="font-family:'ArialMT', 'Arial', sans-serif;font-size:14px;fill:rgb(51,51,51);">Owen Study <tspan x="79.379px 88.717px " y="0px 0px ">Al</tspan>cove</text>
        </g>
        <rect x="896.9" y="158.3" width="194.3" height="16.7" style="fill:none;"/>
        <g transform="matrix(1,0,0,1,896.909,168.28)">
            <text x="0px" y="0px" style="font-family:'ArialMT', 'Arial', sans-serif;font-size:14px;fill:rgb(51,51,51);">Books <tspan x="42.027px 51.365px " y="0px 0px ">AC</tspan>-BQ</text>
        </g>
        <rect x="896.9" y="85.7" width="194.3" height="16.7" style="fill:none;"/>
        <g transform="matrix(1,0,0,1,896.909,95.7261)">
            <text x="0px" y="0px" style="font-family:'ArialMT', 'Arial', sans-serif;font-size:14px;fill:rgb(51,51,51);">Graham Study <tspan x="93.379px 102.717px " y="0px 0px ">Al</tspan>cove</text>
        </g>
        <rect x="869.9" y="201" width="190.7" height="16.7" style="fill:none;"/>
        <g transform="matrix(1,0,0,1,869.875,211.014)">
            <text x="0px" y="0px" style="font-family:'ArialMT', 'Arial', sans-serif;font-size:14px;fill:rgb(51,51,51);">Limited <tspan x="48.248px 57.586px " y="0px 0px ">Ac</tspan>cess <tspan x="96.489px 105.827px " y="0px 0px ">Ar</tspan>eas</text>
        </g>
        <rect x="845.6" y="41.3" width="249.8" height="26.5" style="fill:none;"/>
        <g transform="matrix(1,0,0,1,845.555,62.7549)">
            <text x="0px" y="0px" style="font-family:'ArialMT', 'Arial', sans-serif;font-size:30px;fill:rgb(51,51,51);">Fourth Floor</text>
        </g>
        <rect x="845.6" y="18.3" width="249.8" height="15.8" style="fill:none;"/>
        <g transform="matrix(1,0,0,1,845.555,32.6138)">
            <text x="0px" y="0px" style="font-family:'ArialMT', 'Arial', sans-serif;font-size:20px;fill:rgb(204,204,204);">Penrose Library</text>
        </g>
        <rect x="845.6" y="85.7" width="14" height="89.3" style="fill:rgb(0,61,125);"/>
        <rect x="845.6" y="200" width="14" height="14.2" style="fill:rgb(51,51,51);"/>
        <g>
            <g>
                <path d="M552.1,243.4C543.4,243.4 536.4,250.4 536.4,259.1C536.4,267.8 543.4,274.8 552.1,274.8C560.8,274.8 567.8,267.8 567.8,259.1C567.8,250.5 560.8,243.4 552.1,243.4Z" style="fill:white;fill-rule:nonzero;stroke:rgb(0,61,125);stroke-width:1px;"/>
            </g>
            <path d="M560.9,262.9C560.9,262.4 560.5,261.9 559.9,261.9L555.2,261.9L555.2,257.2C555.2,256.7 554.8,256.2 554.2,256.2L549.5,256.2L549.5,251.5C549.5,251 549.1,250.5 548.5,250.5L542.8,250.5C542.3,250.5 541.8,250.9 541.8,251.5C541.8,252 542.2,252.5 542.8,252.5L547.5,252.5L547.5,257.2C547.5,257.3 547.5,257.5 547.6,257.6C547.8,258 548.1,258.2 548.5,258.2L553.2,258.2L553.2,262.9C553.2,263.4 553.6,263.9 554.2,263.9L558.9,263.9L558.9,268.6C558.9,269.1 559.3,269.6 559.9,269.6C560.5,269.6 560.9,269.2 560.9,268.6L560.9,262.9Z" style="fill:rgb(0,61,125);fill-rule:nonzero;"/>
        </g>
        <g>
            <g>
                <path d="M511.9,186.7C503.2,186.7 496.2,193.7 496.2,202.4C496.2,211.1 503.2,218.1 511.9,218.1C520.6,218.1 527.6,211.1 527.6,202.4C527.6,193.7 520.6,186.7 511.9,186.7Z" style="fill:white;fill-rule:nonzero;stroke:rgb(0,61,125);stroke-width:1px;"/>
            </g>
            <g>
                <circle cx="509" cy="202.3" r="1.1" style="fill:rgb(0,61,125);"/>
                <path d="M507.7,207.1C507.7,207.3 507.5,207.5 507.3,207.5L507.2,207.5C507,207.5 506.8,207.3 506.8,207.1L506.8,204.2C506.8,203.9 507,203.8 507.3,203.8L510.9,203.8C511.2,203.8 511.4,204 511.4,204.4L511.4,207.3C511.4,207.5 511.2,207.7 511,207.7L510.9,207.7C510.7,207.7 510.5,207.5 510.5,207.3L510.5,210.5C510.5,210.8 510.2,211.1 509.9,211.1L509.8,211.1C509.5,211.1 509.2,210.8 509.2,210.5L509.2,207.6L509,207.6L509,210.5C509,210.8 508.7,211.1 508.4,211.1L508.3,211.1C508,211.1 507.7,210.8 507.7,210.5L507.7,207.1Z" style="fill:rgb(0,61,125);fill-rule:nonzero;"/>
            </g>
            <g>
                <circle cx="514.7" cy="202.3" r="1.1" style="fill:rgb(0,61,125);"/>
                <path d="M513.4,207.1C513.4,207.3 513.2,207.5 513,207.5L512.9,207.5C512.7,207.5 512.5,207.3 512.5,207.1L512.5,204.2C512.5,203.9 512.7,203.8 513,203.8L516.6,203.8C516.9,203.8 517.1,204 517.1,204.4L517.1,207.3C517.1,207.5 516.9,207.7 516.7,207.7L516.6,207.7C516.4,207.7 516.2,207.5 516.2,207.3L516.2,210.5C516.2,210.8 515.9,211.1 515.6,211.1L515.5,211.1C515.2,211.1 514.9,210.8 514.9,210.5L514.9,207.6L514.8,207.6L514.8,210.5C514.8,210.8 514.5,211.1 514.2,211.1L514,211.1C513.7,211.1 513.4,210.8 513.4,210.5L513.4,207.1Z" style="fill:rgb(0,61,125);fill-rule:nonzero;"/>
            </g>
            <path d="M518.4,197.3L505.3,197.3C504.5,197.3 503.9,197.9 503.9,198.7L503.9,211.8C503.9,212.6 504.5,213.2 505.3,213.2L518.4,213.2C519.2,213.2 519.8,212.6 519.8,211.8L519.8,198.7C519.8,198 519.2,197.3 518.4,197.3ZM518.1,211.4L505.7,211.4L505.7,199L518.1,199L518.1,211.4Z" style="fill:rgb(0,61,125);fill-rule:nonzero;"/>
            <path d="M515.1,196.2L515.3,196.3L515.9,196.3C515.9,196.3 516,196.3 516,196.2L518.4,193.8C518.7,193.5 518.7,193.1 518.4,192.9C518.1,192.6 517.7,192.6 517.5,192.9L516.2,194.2L516.2,190.8C516.2,190.4 515.9,190.1 515.5,190.1C515.1,190.1 514.8,190.4 514.8,190.8L514.8,194.2L513.5,192.9C513.2,192.6 512.8,192.6 512.6,192.9C512.3,193.2 512.3,193.6 512.6,193.8L515.1,196.2Z" style="fill:rgb(0,61,125);fill-rule:nonzero;"/>
            <path d="M508.6,190.3C508.6,190.3 508.6,190.2 508.6,190.3C508.5,190.2 508.5,190.2 508.4,190.2L507.8,190.2C507.8,190.2 507.7,190.2 507.7,190.3L505.3,192.7C505,193 505,193.4 505.3,193.6C505.6,193.9 506,193.9 506.2,193.6L507.5,192.3L507.5,195.7C507.5,196.1 507.8,196.4 508.2,196.4C508.6,196.4 508.9,196.1 508.9,195.7L508.9,192.3L510.2,193.6C510.5,193.9 510.9,193.9 511.1,193.6C511.4,193.3 511.4,192.9 511.1,192.7L508.6,190.3Z" style="fill:rgb(0,61,125);fill-rule:nonzero;"/>
        </g>
        <g>
            <g>
                <g>
                    <path d="M84.5,117.5C78.4,117.5 73.5,122.4 73.5,128.5C73.5,134.6 78.4,139.5 84.5,139.5C90.6,139.5 95.5,134.6 95.5,128.5C95.5,122.5 90.5,117.5 84.5,117.5Z" style="fill:white;fill-rule:nonzero;stroke:rgb(0,61,125);stroke-width:1px;"/>
                </g>
            </g>
            <rect x="73.7" y="123.6" width="21.3" height="11.3" style="fill:none;"/>
            <g transform="matrix(1,0,0,1,80.5059,133.407)">
                <text x="0px" y="0px" style="font-family:'ArialMT', 'Arial', sans-serif;font-size:13.712px;fill:rgb(0,61,125);">1</text>
            </g>
        </g>
        <g>
            <g>
                <g>
                    <path d="M180.2,117.5C174.1,117.5 169.2,122.4 169.2,128.5C169.2,134.6 174.1,139.5 180.2,139.5C186.3,139.5 191.2,134.6 191.2,128.5C191.3,122.5 186.3,117.5 180.2,117.5Z" style="fill:white;fill-rule:nonzero;stroke:rgb(0,61,125);stroke-width:1px;"/>
                </g>
            </g>
            <rect x="169.5" y="123.6" width="21.3" height="11.3" style="fill:none;"/>
            <g transform="matrix(1,0,0,1,176.298,133.407)">
                <text x="0px" y="0px" style="font-family:'ArialMT', 'Arial', sans-serif;font-size:13.712px;fill:rgb(0,61,125);">2</text>
            </g>
        </g>
        <g>
            <g>
                <g>
                    <path d="M277.4,117.5C271.3,117.5 266.4,122.4 266.4,128.5C266.4,134.6 271.3,139.5 277.4,139.5C283.5,139.5 288.4,134.6 288.4,128.5C288.4,122.5 283.4,117.5 277.4,117.5Z" style="fill:white;fill-rule:nonzero;stroke:rgb(0,61,125);stroke-width:1px;"/>
                </g>
            </g>
            <rect x="266.6" y="123.6" width="21.3" height="11.3" style="fill:none;"/>
            <g transform="matrix(1,0,0,1,273.422,133.407)">
                <text x="0px" y="0px" style="font-family:'ArialMT', 'Arial', sans-serif;font-size:13.712px;fill:rgb(0,61,125);">3</text>
            </g>
        </g>
        <g>
            <g>
                <g>
                    <path d="M373.2,117.5C367.1,117.5 362.2,122.4 362.2,128.5C362.2,134.6 367.1,139.5 373.2,139.5C379.3,139.5 384.2,134.6 384.2,128.5C384.2,122.5 379.2,117.5 373.2,117.5Z" style="fill:white;fill-rule:nonzero;stroke:rgb(0,61,125);stroke-width:1px;"/>
                </g>
            </g>
            <rect x="362.4" y="123.6" width="21.3" height="11.3" style="fill:none;"/>
            <g transform="matrix(1,0,0,1,369.214,133.408)">
                <text x="0px" y="0px" style="font-family:'ArialMT', 'Arial', sans-serif;font-size:13.712px;fill:rgb(0,61,125);">4</text>
            </g>
        </g>
        <g>
            <g>
                <g>
                    <path d="M274,204.4C267.9,204.4 263,209.3 263,215.4C263,221.5 267.9,226.4 274,226.4C280.1,226.4 285,221.5 285,215.4C285,209.3 280.1,204.4 274,204.4Z" style="fill:white;fill-rule:nonzero;stroke:rgb(0,61,125);stroke-width:1px;"/>
                </g>
            </g>
            <rect x="263.2" y="210.5" width="21.3" height="11.3" style="fill:none;"/>
            <g transform="matrix(1,0,0,1,270.051,220.254)">
                <text x="0px" y="0px" style="font-family:'ArialMT', 'Arial', sans-serif;font-size:13.712px;fill:rgb(0,61,125);">5</text>
            </g>
        </g>
        <rect x="1007.3" y="320.9" width="84" height="16.7" style="fill:none;"/>
        <g transform="matrix(1,0,0,1,1007.31,330.923)">
            <text x="0px" y="0px" style="font-family:'ArialMT', 'Arial', sans-serif;font-size:14px;fill:rgb(51,51,51);">Stairs</text>
        </g>
        <rect x="878.7" y="322.4" width="84" height="16.7" style="fill:none;"/>
        <g transform="matrix(1,0,0,1,878.726,332.378)">
            <text x="0px" y="0px" style="font-family:'ArialMT', 'Arial', sans-serif;font-size:14px;fill:rgb(51,51,51);">Elevator</text>
        </g>
        <rect x="1007.1" y="357.3" width="84" height="16.7" style="fill:none;"/>
        <g transform="matrix(1,0,0,1,1007.11,367.29)">
            <text x="0px" y="0px" style="font-family:'ArialMT', 'Arial', sans-serif;font-size:14px;fill:rgb(51,51,51);">Printer</text>
        </g>
        <g>
            <g>
                <path d="M984.9,313.1C976.2,313.1 969.2,320.1 969.2,328.8C969.2,337.5 976.2,344.5 984.9,344.5C993.6,344.5 1000.6,337.5 1000.6,328.8C1000.7,320.2 993.6,313.1 984.9,313.1Z" style="fill:white;fill-rule:nonzero;stroke:rgb(0,61,125);stroke-width:1px;"/>
            </g>
            <path d="M993.7,332.6C993.7,332.1 993.3,331.6 992.7,331.6L988,331.6L988,326.9C988,326.4 987.6,325.9 987,325.9L982.3,325.9L982.3,321.2C982.3,320.7 981.9,320.2 981.3,320.2L975.6,320.2C975.1,320.2 974.6,320.6 974.6,321.2C974.6,321.7 975,322.2 975.6,322.2L980.3,322.2L980.3,326.9C980.3,327 980.3,327.2 980.4,327.3C980.6,327.7 980.9,327.9 981.3,327.9L986,327.9L986,332.6C986,333.1 986.4,333.6 987,333.6L991.7,333.6L991.7,338.3C991.7,338.8 992.1,339.3 992.7,339.3C993.2,339.3 993.7,338.9 993.7,338.3L993.7,332.6Z" style="fill:rgb(0,61,125);fill-rule:nonzero;"/>
        </g>
        <g>
            <g>
                <path d="M856.4,313.5C847.7,313.5 840.7,320.5 840.7,329.2C840.7,337.9 847.7,344.9 856.4,344.9C865.1,344.9 872.1,337.9 872.1,329.2C872.1,320.5 865,313.5 856.4,313.5Z" style="fill:white;fill-rule:nonzero;stroke:rgb(0,61,125);stroke-width:1px;"/>
            </g>
            <g>
                <circle cx="853.5" cy="329.2" r="1.1" style="fill:rgb(0,61,125);"/>
                <path d="M852.1,333.9C852.1,334.1 851.9,334.3 851.7,334.3L851.6,334.3C851.4,334.3 851.2,334.1 851.2,333.9L851.2,331C851.2,330.7 851.4,330.6 851.7,330.6L855.3,330.6C855.6,330.6 855.8,330.8 855.8,331.2L855.8,334.1C855.8,334.3 855.6,334.5 855.4,334.5L855.3,334.5C855.1,334.5 854.9,334.3 854.9,334.1L854.9,337.3C854.9,337.6 854.6,337.9 854.3,337.9L854.2,337.9C853.9,337.9 853.6,337.6 853.6,337.3L853.6,334.4L853.5,334.4L853.5,337.3C853.5,337.6 853.2,337.9 852.9,337.9L852.8,337.9C852.5,337.9 852.2,337.6 852.2,337.3L852.1,333.9Z" style="fill:rgb(0,61,125);fill-rule:nonzero;"/>
            </g>
            <g>
                <circle cx="859.2" cy="329.2" r="1.1" style="fill:rgb(0,61,125);"/>
                <path d="M857.9,333.9C857.9,334.1 857.7,334.3 857.5,334.3L857.4,334.3C857.2,334.3 857,334.1 857,333.9L857,331C857,330.7 857.2,330.6 857.5,330.6L861.1,330.6C861.4,330.6 861.6,330.8 861.6,331.2L861.6,334.1C861.6,334.3 861.4,334.5 861.2,334.5L861,334.5C860.8,334.5 860.6,334.3 860.6,334.1L860.6,337.3C860.6,337.6 860.3,337.9 860,337.9L859.9,337.9C859.6,337.9 859.3,337.6 859.3,337.3L859.3,334.4L859.2,334.4L859.2,337.3C859.2,337.6 858.9,337.9 858.6,337.9L858.5,337.9C858.2,337.9 857.9,337.6 857.9,337.3L857.9,333.9Z" style="fill:rgb(0,61,125);fill-rule:nonzero;"/>
            </g>
            <path d="M862.9,324.2L849.8,324.2C849,324.2 848.4,324.8 848.4,325.6L848.4,338.7C848.4,339.5 849,340.1 849.8,340.1L862.9,340.1C863.7,340.1 864.3,339.5 864.3,338.7L864.3,325.6C864.3,324.8 863.7,324.2 862.9,324.2ZM862.6,338.3L850.2,338.3L850.2,325.9L862.6,325.9L862.6,338.3Z" style="fill:rgb(0,61,125);fill-rule:nonzero;"/>
            <path d="M859.6,323.1L859.8,323.2L860.4,323.2C860.4,323.2 860.5,323.2 860.5,323.1L862.9,320.7C863.2,320.4 863.2,320 862.9,319.8C862.6,319.5 862.2,319.5 862,319.8L860.7,321.1L860.7,317.7C860.7,317.3 860.4,317 860,317C859.6,317 859.3,317.3 859.3,317.7L859.3,321.1L858,319.8C857.7,319.5 857.3,319.5 857.1,319.8C856.8,320.1 856.8,320.5 857.1,320.7L859.6,323.1Z" style="fill:rgb(0,61,125);fill-rule:nonzero;"/>
            <path d="M853.1,317.1C853.1,317.1 853,317.1 853.1,317.1C853,317 853,317 852.9,317L852.3,317C852.3,317 852.2,317 852.2,317.1L849.8,319.5C849.5,319.8 849.5,320.2 849.8,320.4C850.1,320.7 850.5,320.7 850.7,320.4L852,319.1L852,322.5C852,322.9 852.3,323.2 852.7,323.2C853.1,323.2 853.4,322.9 853.4,322.5L853.4,319.1L854.7,320.4C855,320.7 855.4,320.7 855.6,320.4C855.9,320.1 855.9,319.7 855.6,319.5L853.1,317.1Z" style="fill:rgb(0,61,125);fill-rule:nonzero;"/>
        </g>
        <g>
            <g>
                <path d="M984.7,348.8C976.1,348.8 969.2,355.7 969.2,364.3C969.2,372.9 976.1,379.8 984.7,379.8C993.3,379.8 1000.2,372.9 1000.2,364.3C1000.2,355.7 993.3,348.8 984.7,348.8Z" style="fill:white;fill-rule:nonzero;stroke:rgb(0,61,125);stroke-width:1px;"/>
            </g>
            <rect x="977.4" y="353.7" width="14.5" height="10.3" style="fill:white;stroke:rgb(0,61,125);stroke-width:1px;"/>
            <path d="M996.2,367.8C996.2,368.4 995.7,368.9 995.1,368.9L974,368.9C973.4,368.9 972.9,368.4 972.9,367.8L972.9,360.3C972.9,359.7 973.4,359.2 974,359.2L995.1,359.2C995.7,359.2 996.2,359.7 996.2,360.3L996.2,367.8Z" style="fill:rgb(0,61,125);fill-rule:nonzero;"/>
            <rect x="974.7" y="360.9" width="3" height="1.3" style="fill:white;"/>
            <rect x="977.4" y="364.3" width="14.5" height="10.3" style="fill:white;stroke:rgb(0,61,125);stroke-width:1px;"/>
            <rect x="979.5" y="366" width="10.2" height="2.3" style="fill:rgb(0,61,125);"/>
            <rect x="979.5" y="370" width="5.2" height="2.3" style="fill:rgb(0,61,125);"/>
        </g>
        <rect x="878.7" y="358.5" width="84" height="16.7" style="fill:none;"/>
        <g transform="matrix(1,0,0,1,878.726,368.485)">
            <text x="0px" y="0px" style="font-family:'ArialMT', 'Arial', sans-serif;font-size:14px;fill:rgb(51,51,51);">Copier</text>
        </g>
        <rect x="1007.3" y="393.7" width="84" height="16.7" style="fill:none;"/>
        <g transform="matrix(1,0,0,1,1007.31,403.658)">
            <text x="0px" y="0px" style="font-family:'ArialMT', 'Arial', sans-serif;font-size:14px;fill:rgb(51,51,51);">Scanner</text>
        </g>
        <g>
            <g>
                <path d="M856.4,349.4C847.8,349.4 840.9,356.3 840.9,364.9C840.9,373.5 847.8,380.4 856.4,380.4C865,380.4 871.9,373.5 871.9,364.9C871.9,356.3 864.9,349.4 856.4,349.4Z" style="fill:white;fill-rule:nonzero;stroke:rgb(0,61,125);stroke-width:1px;"/>
            </g>
            <g>
                <path d="M863.7,358.3L856.2,358.3L856.2,356.7L861.2,355.1L861.2,353.9L848.7,355.6C848.1,355.6 847.6,356.1 847.6,356.7L847.6,361.3L864.8,361.3L864.8,359.4C864.8,358.8 864.3,358.3 863.7,358.3Z" style="fill:rgb(0,61,125);fill-rule:nonzero;"/>
                <path d="M868.5,361.4L864.7,362.3L859.1,362.3L859.1,363.5L853.1,363.5L853.1,362.3L847.6,362.3L847.6,368L864.8,368L864.8,364L868.5,362.3L868.5,361.4Z" style="fill:rgb(0,61,125);fill-rule:nonzero;"/>
                <path d="M868.5,368.2L864.8,369.1L859.2,369.1L859.2,370.3L853.2,370.3L853.2,369.1L847.6,369.1L847.6,373.7C847.6,374.3 848.1,374.8 848.7,374.8L863.7,374.8C864.3,374.8 864.8,374.3 864.8,373.7L864.8,370.8L868.5,369.1L868.5,368.2Z" style="fill:rgb(0,61,125);fill-rule:nonzero;"/>
            </g>
        </g>
        <rect x="878.7" y="394.6" width="84" height="16.7" style="fill:none;"/>
        <g transform="matrix(1,0,0,1,878.726,404.591)">
            <text x="0px" y="0px" style="font-family:'ArialMT', 'Arial', sans-serif;font-size:14px;fill:rgb(51,51,51);">Computers</text>
        </g>
        <g>
            <g>
                <path d="M984.7,384.2C976.1,384.2 969.2,391.1 969.2,399.7C969.2,408.3 976.1,415.2 984.7,415.2C993.3,415.2 1000.2,408.3 1000.2,399.7C1000.2,391.1 993.3,384.2 984.7,384.2Z" style="fill:white;fill-rule:nonzero;stroke:rgb(0,61,125);stroke-width:1px;"/>
            </g>
            <g>
                <path d="M973.6,405.3C973.6,406.3 974.4,407 975.3,407L994,407C995,407 995.7,406.2 995.7,405.3L995.7,402L973.5,402L973.5,405.3L973.6,405.3ZM990,403.5L993.5,403.5C993.8,403.5 994.1,403.8 994.1,404.1C994.1,404.4 993.8,404.7 993.5,404.7L990,404.7C989.7,404.7 989.4,404.4 989.4,404.1C989.4,403.8 989.7,403.5 990,403.5ZM987.6,403.5C987.9,403.5 988.2,403.8 988.2,404.1C988.2,404.4 987.9,404.7 987.6,404.7C987.3,404.7 987,404.4 987,404.1C987,403.8 987.2,403.5 987.6,403.5Z" style="fill:rgb(0,61,125);fill-rule:nonzero;"/>
                <path d="M994.9,399.3L977.7,391.8C976.8,391.4 975.8,391.8 975.4,392.7L995.7,401.6C996.2,400.7 995.8,399.6 994.9,399.3Z" style="fill:rgb(0,61,125);fill-rule:nonzero;"/>
            </g>
        </g>
        <g>
            <g>
                <path d="M856.4,385C847.8,385 840.9,391.9 840.9,400.5C840.9,409.1 847.8,416 856.4,416C865,416 871.9,409.1 871.9,400.5C871.9,392 864.9,385 856.4,385Z" style="fill:white;fill-rule:nonzero;stroke:rgb(0,61,125);stroke-width:1px;"/>
            </g>
            <path d="M863.8,390.4L849.1,390.4C848.5,390.4 848,390.9 848,391.5L848,400.7C848,401.3 848.5,401.8 849.1,401.8L854.6,401.8L854.6,403.3L852,403.3L852,404.4L860.8,404.4L860.8,403.3L858.2,403.3L858.2,401.8L863.7,401.8C864.3,401.8 864.8,401.3 864.8,400.7L864.8,391.5C864.9,390.9 864.4,390.4 863.8,390.4ZM863.8,400.1C863.8,400.4 863.5,400.7 863.2,400.7L849.7,400.7C849.4,400.7 849.1,400.4 849.1,400.1L849.1,392.1C849.1,391.8 849.4,391.5 849.7,391.5L863.2,391.5C863.5,391.5 863.8,391.8 863.8,392.1L863.8,400.1Z" style="fill:rgb(0,61,125);fill-rule:nonzero;"/>
            <path d="M866.2,408.8C866.5,409.1 865.9,409.3 865.5,409.3L847.2,409.3C846.8,409.3 846.2,409.2 846.5,408.8L849.1,406.1C849.4,405.8 849.7,405.6 850.3,405.6L862.1,405.6C863,405.6 863.1,405.8 863.5,406.1L866.2,408.8Z" style="fill:rgb(0,61,125);fill-rule:nonzero;"/>
        </g>
        <rect x="878.7" y="287.2" width="143" height="16.7" style="fill:none;"/>
        <g transform="matrix(1,0,0,1,878.726,297.2)">
            <text x="0px" y="0px" style="font-family:'ArialMT', 'Arial', sans-serif;font-size:14px;fill:rgb(51,51,51);">Emergency Exit</text>
        </g>
        <g>
            <g>
                <g>
                    <g>
                        <path d="M892.1,242.4C883.5,242.4 876.6,249.3 876.6,257.9C876.6,266.5 883.5,273.4 892.1,273.4C900.7,273.4 907.6,266.5 907.6,257.9C907.6,249.4 900.6,242.4 892.1,242.4Z" style="fill:white;fill-rule:nonzero;stroke:rgb(0,61,125);stroke-width:1px;"/>
                    </g>
                </g>
            </g>
            <g>
                <circle cx="892" cy="249.3" r="2.5" style="fill:rgb(0,61,125);"/>
                <path d="M896.3,252.4C896.2,252.4 896,252.4 895.9,252.5C895.8,252.5 895.7,252.4 895.6,252.4L888.4,252.4C888.3,252.4 888.2,252.4 888.1,252.5C888,252.5 887.9,252.4 887.7,252.4C887.1,252.4 886.6,252.9 886.6,253.5L886.6,260.2C886.6,260.8 887.1,261.3 887.7,261.3C888,261.3 888.3,261.2 888.5,261L886.7,265.1L889.1,265.1L889.1,267.9C889.1,268.6 889.7,269.2 890.4,269.2C891.1,269.2 891.7,268.6 891.7,267.9L891.7,265.1L892.4,265.1L892.4,267.9C892.4,268.6 893,269.2 893.7,269.2C894.4,269.2 895,268.6 895,267.9L895,265.1L897.4,265.1L895.6,261C895.8,261.2 896.1,261.3 896.4,261.3C897,261.3 897.5,260.8 897.5,260.2L897.5,253.5C897.4,252.9 896.9,252.4 896.3,252.4Z" style="fill:rgb(0,61,125);fill-rule:nonzero;"/>
            </g>
        </g>
        <g>
            <g>
                <g>
                    <g>
                        <path d="M856,242.4C847.4,242.4 840.5,249.3 840.5,257.9C840.5,266.5 847.4,273.4 856,273.4C864.6,273.4 871.5,266.5 871.5,257.9C871.5,249.4 864.6,242.4 856,242.4Z" style="fill:white;fill-rule:nonzero;stroke:rgb(0,61,125);stroke-width:1px;"/>
                    </g>
                </g>
            </g>
            <g>
                <circle cx="855.9" cy="249.2" r="2.5" style="fill:rgb(0,61,125);"/>
                <path d="M860.3,252.3C860.2,252.3 860,252.3 859.9,252.4C859.8,252.4 859.7,252.3 859.6,252.3L852.4,252.3C852.3,252.3 852.2,252.3 852.1,252.4C852,252.4 851.9,252.3 851.7,252.3C851.1,252.3 850.6,252.8 850.6,253.4L850.6,260.1C850.6,260.7 851.1,261.2 851.7,261.2C852.3,261.2 852.8,260.7 852.8,260.1L852.8,259.4C852.8,259.6 852.9,259.8 853.1,259.9L853.1,267.8C853.1,268.5 853.7,269.1 854.4,269.1C855.1,269.1 855.7,268.5 855.7,267.8L855.7,261.9L856.4,261.9L856.4,267.8C856.4,268.5 857,269.1 857.7,269.1C858.4,269.1 859,268.5 859,267.8L859,259.9C859.2,259.8 859.3,259.6 859.3,259.4L859.3,260.1C859.3,260.7 859.8,261.2 860.4,261.2C861,261.2 861.5,260.7 861.5,260.1L861.5,253.4C861.4,252.8 860.9,252.3 860.3,252.3Z" style="fill:rgb(0,61,125);fill-rule:nonzero;"/>
            </g>
        </g>
        <rect x="949.7" y="250.8" width="140.4" height="16.7" style="fill:none;"/>
        <g transform="matrix(1,0,0,1,949.668,260.789)">
            <text x="0px" y="0px" style="font-family:'ArialMT', 'Arial', sans-serif;font-size:14px;fill:rgb(51,51,51);">Restrooms</text>
        </g>
        <g>
            <g>
                <path d="M927.6,242.4C919,242.4 912.1,249.3 912.1,257.9C912.1,266.5 919,273.4 927.6,273.4C936.2,273.4 943.1,266.5 943.1,257.9C943.1,249.4 936.2,242.4 927.6,242.4Z" style="fill:white;fill-rule:nonzero;stroke:rgb(0,61,125);stroke-width:1px;"/>
            </g>
            <g>
                <rect x="926.7" y="246.5" width="1.9" height="22.6" style="fill:rgb(0,61,125);"/>
            </g>
            <g>
                <circle cx="934.1" cy="250.1" r="2.1" style="fill:rgb(0,61,125);"/>
                <path d="M937.8,252.8C937.7,252.8 937.6,252.8 937.5,252.9C937.4,252.9 937.3,252.8 937.2,252.8L931,252.8C930.9,252.8 930.8,252.8 930.7,252.9C930.6,252.9 930.5,252.8 930.4,252.8C929.9,252.8 929.4,253.2 929.4,253.8L929.4,259.6C929.4,260.1 929.8,260.6 930.4,260.6C930.9,260.6 931.4,260.2 931.4,259.6L931.4,259C931.4,259.2 931.5,259.4 931.6,259.5L931.6,266.3C931.6,266.9 932.1,267.4 932.7,267.4C933.3,267.4 933.8,266.9 933.8,266.3L933.8,259.6L934.4,259.6L934.4,266.3C934.4,266.9 934.9,267.4 935.5,267.4C936.1,267.4 936.6,266.9 936.6,266.3L936.6,259.5C936.7,259.4 936.8,259.2 936.8,259L936.8,259.6C936.8,260.1 937.2,260.6 937.8,260.6C938.3,260.6 938.8,260.2 938.8,259.6L938.8,253.8C938.8,253.2 938.3,252.8 937.8,252.8Z" style="fill:rgb(0,61,125);fill-rule:nonzero;"/>
            </g>
            <g>
                <circle cx="921" cy="250.1" r="2.1" style="fill:rgb(0,61,125);"/>
                <path d="M924.7,252.8C924.6,252.8 924.5,252.8 924.4,252.9C924.3,252.9 924.2,252.8 924.1,252.8L917.8,252.8C917.7,252.8 917.6,252.8 917.5,252.9C917.4,252.9 917.3,252.8 917.2,252.8C916.7,252.8 916.2,253.2 916.2,253.8L916.2,259.6C916.2,260.1 916.6,260.6 917.2,260.6C917.5,260.6 917.7,260.5 917.9,260.3L917.2,263.9L918.4,263.9L918.4,266.3C918.4,266.9 918.9,267.4 919.5,267.4C920.1,267.4 920.6,266.9 920.6,266.3L920.6,263.9L921.2,263.9L921.2,266.3C921.2,266.9 921.7,267.4 922.3,267.4C922.9,267.4 923.4,266.9 923.4,266.3L923.4,263.9L924.6,263.9L923.9,260.3C924.1,260.5 924.3,260.6 924.6,260.6C925.1,260.6 925.6,260.2 925.6,259.6L925.6,253.8C925.7,253.2 925.3,252.8 924.7,252.8Z" style="fill:rgb(0,61,125);fill-rule:nonzero;"/>
            </g>
        </g>
        <g>
            <g>
                <path d="M455.7,120C447.1,120 440.2,126.9 440.2,135.5C440.2,144.1 447.1,151 455.7,151C464.3,151 471.2,144.1 471.2,135.5C471.2,126.9 464.3,120 455.7,120Z" style="fill:white;fill-rule:nonzero;stroke:rgb(0,61,125);stroke-width:1px;"/>
            </g>
            <g>
                <rect x="454.8" y="124.1" width="1.9" height="22.6" style="fill:rgb(0,61,125);"/>
            </g>
            <g>
                <circle cx="462.1" cy="127.7" r="2.1" style="fill:rgb(0,61,125);"/>
                <path d="M465.9,130.4C465.8,130.4 465.7,130.4 465.6,130.5C465.5,130.5 465.4,130.4 465.3,130.4L459,130.4C458.9,130.4 458.8,130.4 458.7,130.5C458.6,130.5 458.5,130.4 458.4,130.4C457.9,130.4 457.4,130.8 457.4,131.4L457.4,137.2C457.4,137.7 457.8,138.2 458.4,138.2C458.9,138.2 459.4,137.8 459.4,137.2L459.4,136.6C459.4,136.8 459.5,137 459.6,137.1L459.6,143.9C459.6,144.5 460.1,145 460.7,145C461.3,145 461.8,144.5 461.8,143.9L461.8,137.2L462.4,137.2L462.4,143.9C462.4,144.5 462.9,145 463.5,145C464.1,145 464.6,144.5 464.6,143.9L464.6,137.1C464.7,137 464.8,136.8 464.8,136.6L464.8,137.2C464.8,137.7 465.2,138.2 465.8,138.2C466.3,138.2 466.8,137.8 466.8,137.2L466.8,131.4C466.8,130.8 466.4,130.4 465.9,130.4Z" style="fill:rgb(0,61,125);fill-rule:nonzero;"/>
            </g>
            <g>
                <circle cx="449" cy="127.7" r="2.1" style="fill:rgb(0,61,125);"/>
                <path d="M452.8,130.4C452.7,130.4 452.6,130.4 452.5,130.5C452.4,130.5 452.3,130.4 452.2,130.4L446,130.4C445.9,130.4 445.8,130.4 445.7,130.5C445.6,130.5 445.5,130.4 445.4,130.4C444.9,130.4 444.4,130.8 444.4,131.4L444.4,137.2C444.4,137.7 444.8,138.2 445.4,138.2C445.7,138.2 445.9,138.1 446.1,137.9L445.4,141.5L446.6,141.5L446.6,143.9C446.6,144.5 447.1,145 447.7,145C448.3,145 448.8,144.5 448.8,143.9L448.8,141.5L449.4,141.5L449.4,143.9C449.4,144.5 449.9,145 450.5,145C451.1,145 451.6,144.5 451.6,143.9L451.6,141.5L452.8,141.5L452.1,137.9C452.3,138.1 452.5,138.2 452.8,138.2C453.3,138.2 453.8,137.8 453.8,137.2L453.8,131.4C453.8,130.8 453.3,130.4 452.8,130.4Z" style="fill:rgb(0,61,125);fill-rule:nonzero;"/>
            </g>
        </g>
        <g>
            <g>
                <g>
                    <g>
                        <path d="M856,278.1C847.4,278.1 840.5,285 840.5,293.6C840.5,302.2 847.4,309.1 856,309.1C864.6,309.1 871.5,302.2 871.5,293.6C871.5,285 864.6,278.1 856,278.1Z" style="fill:white;fill-rule:nonzero;stroke:rgb(0,61,125);stroke-width:1px;"/>
                    </g>
                </g>
            </g>
            <g>
                <g>
                    <circle cx="851.4" cy="288.2" r="2.2" style="fill:none;"/>
                    <path d="M866.5,299.8L860.3,293.6L860.3,291.1C860.2,291.2 860.2,291.3 860.1,291.4C859.7,291.8 859,291.8 858.5,291.4L856.8,289.7L856,290.5L865.9,300.4C866.3,300.8 866.3,301.5 865.9,302C865.5,302.4 864.8,302.4 864.3,302L858,295.7L856.3,297.4L858.8,299.9C859.2,300.3 859.2,301 858.8,301.5C858.4,301.9 857.7,301.9 857.2,301.5L853.9,298.2C853.7,298 853.6,297.7 853.6,297.4C853.6,297.1 853.7,296.8 853.9,296.6L855.6,294.9L853.5,292.8L851.7,294.6C851.5,294.8 851.2,294.9 850.9,294.9C850.6,294.9 850.3,294.8 850.1,294.6L847.7,292.2C847.3,291.8 847.3,291.1 847.7,290.6C848.1,290.2 848.8,290.2 849.3,290.6L850.9,292.2L855.8,287.3C856.2,286.9 856.9,286.9 857.3,287.3L859.8,289.8C859.9,289.9 860,290 860,290.1L860,283.2L846.8,283.2L846.8,303.5L860,303.5L860,299.2L863.4,302.6C864.2,303.4 865.5,303.4 866.2,302.6C867.3,301.8 867.3,300.6 866.5,299.8ZM851.4,286C852.6,286 853.6,287 853.6,288.2C853.6,289.4 852.6,290.4 851.4,290.4C850.2,290.4 849.2,289.4 849.2,288.2C849.2,287 850.2,286 851.4,286Z" style="fill:rgb(0,61,125);fill-rule:nonzero;"/>
                </g>
            </g>
        </g>
        <g>
            <g>
                <path d="M53.8,241.7C45.1,241.7 38.1,248.7 38.1,257.4C38.1,266.1 45.1,273.1 53.8,273.1C62.5,273.1 69.5,266.1 69.5,257.4C69.5,248.7 62.5,241.7 53.8,241.7Z" style="fill:white;fill-rule:nonzero;stroke:rgb(0,61,125);stroke-width:1px;"/>
            </g>
            <path d="M62.6,261.2C62.6,260.7 62.2,260.2 61.6,260.2L56.9,260.2L56.9,255.5C56.9,255 56.5,254.5 55.9,254.5L51.2,254.5L51.2,249.8C51.2,249.3 50.8,248.8 50.2,248.8L44.5,248.8C44,248.8 43.5,249.2 43.5,249.8C43.5,250.3 43.9,250.8 44.5,250.8L49.2,250.8L49.2,255.5C49.2,255.6 49.2,255.8 49.3,255.9C49.5,256.3 49.8,256.5 50.2,256.5L54.9,256.5L54.9,261.2C54.9,261.7 55.3,262.2 55.9,262.2L60.6,262.2L60.6,266.9C60.6,267.4 61,267.9 61.6,267.9C62.1,267.9 62.6,267.5 62.6,266.9L62.6,261.2Z" style="fill:rgb(0,61,125);fill-rule:nonzero;"/>
        </g>
        <g>
            <g>
                <g>
                    <g>
                        <path d="M86,241.9C77.4,241.9 70.5,248.8 70.5,257.4C70.5,266 77.4,272.9 86,272.9C94.6,272.9 101.5,266 101.5,257.4C101.5,248.9 94.6,241.9 86,241.9Z" style="fill:white;fill-rule:nonzero;stroke:rgb(0,61,125);stroke-width:1px;"/>
                    </g>
                </g>
            </g>
            <g>
                <g>
                    <circle cx="81.4" cy="252.1" r="2.2" style="fill:none;"/>
                    <path d="M96.5,263.6L90.3,257.4L90.3,255C90.2,255.1 90.2,255.2 90.1,255.3C89.7,255.7 89,255.7 88.5,255.3L86.8,253.6L86,254.4L95.9,264.3C96.3,264.7 96.3,265.4 95.9,265.9C95.5,266.3 94.8,266.3 94.3,265.9L88,259.6L86.3,261.3L88.8,263.8C89.2,264.2 89.2,264.9 88.8,265.4C88.4,265.8 87.7,265.8 87.2,265.4L83.9,262.1C83.7,261.9 83.6,261.6 83.6,261.3C83.6,261 83.7,260.7 83.9,260.5L85.6,258.8L83.5,256.7L81.7,258.5C81.5,258.7 81.2,258.8 80.9,258.8C80.6,258.8 80.3,258.7 80.1,258.5L77.7,256.1C77.3,255.7 77.3,255 77.7,254.5C78.1,254.1 78.8,254.1 79.3,254.5L80.9,256.1L85.8,251.2C86.2,250.8 86.9,250.8 87.3,251.2L89.8,253.7C89.9,253.8 90,253.9 90,254L90,247.1L77,247.1L77,267.4L90.2,267.4L90.2,263.1L93.6,266.5C94.4,267.3 95.7,267.3 96.4,266.5C97.3,265.7 97.3,264.4 96.5,263.6ZM81.4,249.9C82.6,249.9 83.6,250.9 83.6,252.1C83.6,253.3 82.6,254.3 81.4,254.3C80.2,254.3 79.2,253.3 79.2,252.1C79.2,250.9 80.1,249.9 81.4,249.9Z" style="fill:rgb(0,61,125);fill-rule:nonzero;"/>
                </g>
            </g>
        </g>
    </g>
</svg>
