<?xml version="1.0" encoding="UTF-8" standalone="no"?>
<!DOCTYPE svg PUBLIC "-//W3C//DTD SVG 1.1//EN" "http://www.w3.org/Graphics/SVG/1.1/DTD/svg11.dtd">
<svg width="100%" height="100%" viewBox="0 0 1106 767" version="1.1" xmlns="http://www.w3.org/2000/svg" xmlns:xlink="http://www.w3.org/1999/xlink" xml:space="preserve" xmlns:serif="http://www.serif.com/" style="fill-rule:evenodd;clip-rule:evenodd;stroke-miterlimit:10;">
    <g id="_x32_nd_Floor_-_Vector">
        <path id="polygon4" d="M738.8,434.3L738.8,397.8L648.8,397.8L648.8,451L524.1,451L524.1,271.6L576.4,271.6L576.4,240.6L490.3,240.6L490.3,128.8L104.3,128.8L104.3,108.3L93.8,108.3L93.8,243.3L36.4,243.3L36.4,270.8L93.8,270.8L93.8,335.6L236.9,335.6L236.9,335.3L265.5,335.3L265.5,308.6L348.5,308.6L348.5,393.5L298.5,393.5L298.5,429.8L354.3,429.8L354.3,466.6L343.8,467L343.8,591L442.8,591L442.8,556.4L442.9,556.4L442.9,509.4L442.8,509.4L442.8,471.2L738.8,471.2L738.8,451L672.3,451L672.3,434.3L738.8,434.3Z" style="fill:rgb(230,230,230);fill-rule:nonzero;"/>
        <rect id="rect6" x="490.4" y="128.9" width="86.2" height="33.2" style="fill:rgb(230,230,230);"/>
        <rect id="rect8" x="217.9" y="450.7" width="19.1" height="0.3" style="fill:rgb(0,61,125);stroke:rgb(230,230,230);stroke-width:1px;"/>
        <path id="polygon10" d="M648.9,271.7L648.9,397.9L738.9,397.9L738.9,271.7L648.9,271.7Z" style="fill:rgb(0,61,125);fill-rule:nonzero;stroke:rgb(230,230,230);stroke-width:1px;"/>
        <rect id="rect12" x="533.4" y="162.1" width="43.2" height="12" style="fill:rgb(0,61,125);stroke:rgb(230,230,230);stroke-width:1px;"/>
        <rect id="rect14" x="395.2" y="286.4" width="30.7" height="31.3" style="fill:rgb(0,61,125);stroke:rgb(230,230,230);stroke-width:1px;"/>
        <path id="polygon16" d="M348.6,335.4L348.6,308.7L265.6,308.7L265.6,335.4L348.6,335.4Z" style="fill:rgb(0,61,125);fill-rule:nonzero;stroke:rgb(230,230,230);stroke-width:1px;"/>
        <path id="polygon18" d="M237.2,351.7L237.2,335.7L237,335.7L237,351.4L217.6,351.4L217.6,450.7L217.9,450.7L217.9,351.7L237.2,351.7Z" style="fill:rgb(0,61,125);fill-rule:nonzero;stroke:rgb(230,230,230);stroke-width:1px;"/>
        <rect id="rect20" x="237" y="451.1" width="0.2" height="15.7" style="fill:rgb(0,61,125);stroke:rgb(230,230,230);stroke-width:1px;"/>
        <path id="polygon22" d="M298.6,466.7L298.6,335.4L237,335.4L237,335.7L237.2,335.7L237.2,351.7L217.9,351.7L217.9,450.7L237,450.7L237,451.1L237.2,451.1L237.2,466.7L298.6,466.7Z" style="fill:rgb(0,61,125);fill-rule:nonzero;stroke:rgb(230,230,230);stroke-width:1px;"/>
        <rect id="rect24" x="298.6" y="335.4" width="50" height="58.2" style="fill:rgb(0,61,125);stroke:rgb(230,230,230);stroke-width:1px;"/>
        <path id="polygon26" d="M343.9,467.1L155.9,467.1L155.9,591.1L343.9,591.1L343.9,467.1Z" style="fill:rgb(0,61,125);fill-rule:nonzero;stroke:rgb(230,230,230);stroke-width:1px;"/>
        <rect id="rect28" x="468.3" y="384.1" width="39.6" height="60.3" style="fill:rgb(0,61,125);stroke:rgb(230,230,230);stroke-width:1px;"/>
        <rect id="rect30" x="36.6" y="270.9" width="57.3" height="64.9" style="fill:rgb(0,61,125);stroke:rgb(230,230,230);stroke-width:1px;"/>
        <rect id="rect32" x="36.6" y="211.1" width="57.3" height="32.2" style="fill:rgb(0,61,125);stroke:rgb(230,230,230);stroke-width:1px;"/>
        <rect id="rect34" x="36.6" y="174.4" width="57.3" height="36.8" style="fill:rgb(0,61,125);stroke:rgb(230,230,230);stroke-width:1px;"/>
        <rect id="rect36" x="36.6" y="108.4" width="57.3" height="66" style="fill:rgb(0,61,125);stroke:rgb(230,230,230);stroke-width:1px;"/>
        <path id="polygon38" d="M104.4,128.9L576.6,128.9L576.6,108.4L104.4,108.4L104.4,128.9Z" style="fill:rgb(0,61,125);fill-rule:nonzero;stroke:rgb(230,230,230);stroke-width:1px;"/>
        <path id="polygon40" d="M298.6,466.7L354.4,466.7L354.4,429.9L298.6,429.9L298.6,466.7Z" style="fill:rgb(0,61,125);fill-rule:nonzero;stroke:rgb(230,230,230);stroke-width:1px;"/>
        <path id="polygon42" d="M533.4,215.1L490.4,215.1L490.4,240.6L576.6,240.6L576.6,204.1L533.4,204.1L533.4,215.1Z" style="fill:rgb(0,61,125);fill-rule:nonzero;stroke:rgb(230,230,230);stroke-width:1px;"/>
        <path id="polygon44" d="M533.4,215.1L533.4,189.1L490.4,189.1L490.4,215.1L533.4,215.1Z" style="fill:rgb(0,61,125);fill-rule:nonzero;stroke:rgb(230,230,230);stroke-width:1px;"/>
        <path id="polygon46" d="M533.4,162.1L490.4,162.1L490.4,189.1L533.4,189.1L533.4,204.1L576.6,204.1L576.6,174.1L533.4,174.1L533.4,162.1Z" style="fill:rgb(0,61,125);fill-rule:nonzero;stroke:rgb(230,230,230);stroke-width:1px;"/>
        <rect id="rect48" x="524.3" y="337.4" width="56.6" height="25.2" style="fill:rgb(0,61,125);stroke:rgb(230,230,230);stroke-width:1px;"/>
        <path id="polygon50" d="M738.9,434.4L672.4,434.4L672.4,451.1L738.9,451.1L738.9,434.4Z" style="fill:rgb(0,61,125);fill-rule:nonzero;stroke:rgb(230,230,230);stroke-width:1px;"/>
        <path id="polygon52" d="M524.3,307.1L580.9,307.1L580.9,271.7L524.3,271.7L524.3,307.1Z" style="fill:rgb(0,61,125);fill-rule:nonzero;stroke:rgb(230,230,230);stroke-width:1px;"/>
        <path id="polygon54" d="M580.9,307.1L648.9,307.1L648.9,271.7L580.9,271.7L580.9,307.1Z" style="fill:rgb(0,61,125);fill-rule:nonzero;stroke:rgb(230,230,230);stroke-width:1px;"/>
        <rect id="rect56" x="618.2" y="307.1" width="30.7" height="35" style="fill:rgb(0,61,125);stroke:rgb(230,230,230);stroke-width:1px;"/>
        <path id="polygon58" d="M618.2,342.1L618.2,379.7L648.9,379.7L648.9,342.1L618.2,342.1Z" style="fill:rgb(0,61,125);fill-rule:nonzero;stroke:rgb(230,230,230);stroke-width:1px;"/>
        <path id="polygon60" d="M618.2,379.7L618.2,414.2L648.9,414.2L648.9,379.7L618.2,379.7Z" style="fill:rgb(0,61,125);fill-rule:nonzero;stroke:rgb(230,230,230);stroke-width:1px;"/>
        <rect id="rect62" x="618.2" y="414.2" width="30.7" height="36.8" style="fill:rgb(0,61,125);stroke:rgb(230,230,230);stroke-width:1px;"/>
        <path id="polygon64" d="M618.2,399.7L524.3,399.7L524.3,451.1L618.2,451.1L618.2,399.7Z" style="fill:rgb(0,61,125);fill-rule:nonzero;stroke:rgb(230,230,230);stroke-width:1px;"/>
        <path id="polygon66" d="M618.2,399.7L618.2,362.6L524.3,362.6L524.3,399.7L618.2,399.7Z" style="fill:rgb(0,61,125);fill-rule:nonzero;stroke:rgb(230,230,230);stroke-width:1px;"/>
        <path id="polygon68" d="M580.9,362.6L618.2,362.6L618.2,307.1L580.9,307.1L580.9,362.6Z" style="fill:rgb(0,61,125);fill-rule:nonzero;stroke:rgb(230,230,230);stroke-width:1px;"/>
        <rect id="rect70" x="524.3" y="307.1" width="56.6" height="30.3" style="fill:rgb(0,61,125);stroke:rgb(230,230,230);stroke-width:1px;"/>
        <path id="polygon72" d="M442.9,471.3L442.9,583.7L738.9,583.7L738.9,471.3L442.9,471.3Z" style="fill:rgb(0,61,125);fill-rule:nonzero;stroke:rgb(230,230,230);stroke-width:1px;"/>
        <path id="polygon74" d="M738.9,272.1L576.6,272.1L576.6,108.7L36.6,108.7L36.6,336.1L237.2,336.1L237.2,352.1L217.9,352.1L217.9,451.4L237.2,451.4L237.2,467.4L155.9,467.4L155.9,591.4L442.9,591.7L442.9,583.7L738.9,584.1L738.9,272.1Z" style="fill:none;fill-rule:nonzero;stroke:rgb(51,51,51);stroke-width:3px;"/>
        <path d="M237.502,350.2L237.168,448.3" style="fill:none;stroke:white;stroke-width:1px;stroke-linecap:round;stroke-linejoin:round;stroke-miterlimit:1.5;"/>
        <path d="M217.9,399.25L237.502,399.25" style="fill:none;stroke:white;stroke-width:1px;stroke-linecap:round;stroke-linejoin:round;stroke-miterlimit:1.5;"/>
    </g>
    <path id="polygon77" d="M357.7,145.6L317.6,145.6L317.6,145.5L104.6,145.5L104.6,299.4L360.1,299.4L360.1,255.4L425.9,255.4L425.9,145.5L357.7,145.5L357.7,145.6Z" style="fill:rgb(0,61,125);fill-rule:nonzero;stroke:rgb(230,230,230);stroke-width:1px;"/>
    <rect id="rect79" x="861.7" y="85.7" width="26.4" height="16.7" style="fill:none;"/>
    <g id="text81" transform="matrix(1,0,0,1,876.384,95.7261)">
        <text x="0px" y="0px" style="font-family:'ArialMT', 'Arial', sans-serif;font-size:14px;fill:rgb(51,51,51);">1.</text>
    </g>
    <rect id="rect83" x="861.7" y="122" width="26.4" height="16.7" style="fill:none;"/>
    <g id="text85" transform="matrix(1,0,0,1,876.384,132.003)">
        <text x="0px" y="0px" style="font-family:'ArialMT', 'Arial', sans-serif;font-size:14px;fill:rgb(51,51,51);">3.</text>
    </g>
    <rect id="rect87" x="861.7" y="140.1" width="26.4" height="16.7" style="fill:none;"/>
    <g id="text89" transform="matrix(1,0,0,1,876.384,150.142)">
        <text x="0px" y="0px" style="font-family:'ArialMT', 'Arial', sans-serif;font-size:14px;fill:rgb(51,51,51);">4.</text>
    </g>
    <rect id="rect91" x="861.7" y="158.3" width="26.4" height="16.7" style="fill:none;"/>
    <g id="text93" transform="matrix(1,0,0,1,876.384,168.28)">
        <text x="0px" y="0px" style="font-family:'ArialMT', 'Arial', sans-serif;font-size:14px;fill:rgb(51,51,51);">5.</text>
    </g>
    <rect id="rect95" x="861.7" y="176.4" width="26.4" height="16.7" style="fill:none;"/>
    <g id="text97" transform="matrix(1,0,0,1,876.384,186.436)">
        <text x="0px" y="0px" style="font-family:'ArialMT', 'Arial', sans-serif;font-size:14px;fill:rgb(51,51,51);">6.</text>
    </g>
    <rect id="rect99" x="861.7" y="103.9" width="26.4" height="16.7" style="fill:none;"/>
    <g id="text101" transform="matrix(1,0,0,1,876.384,113.865)">
        <text x="0px" y="0px" style="font-family:'ArialMT', 'Arial', sans-serif;font-size:14px;fill:rgb(51,51,51);">2.</text>
    </g>
    <rect id="rect103" x="861.7" y="194.6" width="26.4" height="16.7" style="fill:none;"/>
    <g id="text105" transform="matrix(1,0,0,1,876.384,204.574)">
        <text x="0px" y="0px" style="font-family:'ArialMT', 'Arial', sans-serif;font-size:14px;fill:rgb(51,51,51);">7.</text>
    </g>
    <rect id="rect107" x="861.7" y="212.7" width="26.4" height="16.7" style="fill:none;"/>
    <g id="text109" transform="matrix(1,0,0,1,876.384,222.713)">
        <text x="0px" y="0px" style="font-family:'ArialMT', 'Arial', sans-serif;font-size:14px;fill:rgb(51,51,51);">8.</text>
    </g>
    <rect id="rect111" x="861.7" y="230.9" width="26.4" height="16.7" style="fill:none;"/>
    <g id="text113" transform="matrix(1,0,0,1,876.384,240.851)">
        <text x="0px" y="0px" style="font-family:'ArialMT', 'Arial', sans-serif;font-size:14px;fill:rgb(51,51,51);">9.</text>
    </g>
    <rect id="rect115" x="861.7" y="249" width="26.5" height="16.7" style="fill:none;"/>
    <g id="text117" transform="matrix(1,0,0,1,868.738,258.99)">
        <text x="0px" y="0px" style="font-family:'ArialMT', 'Arial', sans-serif;font-size:14px;fill:rgb(51,51,51);">10.</text>
    </g>
    <rect id="rect119" x="861.7" y="267.1" width="26.4" height="16.7" style="fill:none;"/>
    <g id="text121" transform="matrix(1,0,0,1,868.6,277.129)">
        <text x="0px" y="0px" style="font-family:'ArialMT', 'Arial', sans-serif;font-size:14px;fill:rgb(51,51,51);">1<tspan x="6.747px 14.533px " y="0px 0px ">1.</tspan></text>
    </g>
    <rect id="rect123" x="861.7" y="303.4" width="26.4" height="16.7" style="fill:none;"/>
    <g id="text125" transform="matrix(1,0,0,1,868.6,313.406)">
        <text x="0px" y="0px" style="font-family:'ArialMT', 'Arial', sans-serif;font-size:14px;fill:rgb(51,51,51);">13.</text>
    </g>
    <rect id="rect127" x="861.7" y="285.3" width="26.4" height="16.7" style="fill:none;"/>
    <g id="text129" transform="matrix(1,0,0,1,868.6,295.267)">
        <text x="0px" y="0px" style="font-family:'ArialMT', 'Arial', sans-serif;font-size:14px;fill:rgb(51,51,51);">12.</text>
    </g>
    <rect id="rect131" x="861.7" y="321.5" width="26.4" height="16.7" style="fill:none;"/>
    <g id="text133" transform="matrix(1,0,0,1,868.6,331.544)">
        <text x="0px" y="0px" style="font-family:'ArialMT', 'Arial', sans-serif;font-size:14px;fill:rgb(51,51,51);">14.</text>
    </g>
    <rect id="rect135" x="896.9" y="85.7" width="194.3" height="16.7" style="fill:none;"/>
    <g id="text137" transform="matrix(1,0,0,1,896.909,95.7261)">
        <text x="0px" y="0px" style="font-family:'ArialMT', 'Arial', sans-serif;font-size:14px;fill:rgb(51,51,51);">Group Study 207</text>
    </g>
    <rect id="rect139" x="896.9" y="122" width="194.3" height="16.7" style="fill:none;"/>
    <g id="text141" transform="matrix(1,0,0,1,896.909,132.003)">
        <text x="0px" y="0px" style="font-family:'ArialMT', 'Arial', sans-serif;font-size:14px;fill:rgb(51,51,51);">Group Study 209</text>
    </g>
    <rect id="rect143" x="896.9" y="140.1" width="194.3" height="16.7" style="fill:none;"/>
    <g id="text145" transform="matrix(1,0,0,1,896.909,150.142)">
        <text x="0px" y="0px" style="font-family:'ArialMT', 'Arial', sans-serif;font-size:14px;fill:rgb(51,51,51);">Group Study 210</text>
    </g>
    <rect id="rect147" x="896.9" y="158.3" width="194.3" height="16.7" style="fill:none;"/>
    <g id="text149" transform="matrix(1,0,0,1,896.909,168.28)">
        <text x="0px" y="0px" style="font-family:'ArialMT', 'Arial', sans-serif;font-size:14px;fill:rgb(51,51,51);">Books P-PZ</text>
    </g>
    <rect id="rect151" x="896.9" y="176.4" width="194.3" height="16.7" style="fill:none;"/>
    <g id="text153" transform="matrix(1,0,0,1,896.909,186.436)">
        <text x="0px" y="0px" style="font-family:'ArialMT', 'Arial', sans-serif;font-size:14px;fill:rgb(51,51,51);">Library <tspan x="45.91px 55.248px " y="0px 0px ">Ad</tspan>ministration Oﬃce</text>
    </g>
    <rect id="rect155" x="896.9" y="103.9" width="194.3" height="16.7" style="fill:none;"/>
    <g id="text157" transform="matrix(1,0,0,1,896.909,113.865)">
        <text x="0px" y="0px" style="font-family:'ArialMT', 'Arial', sans-serif;font-size:14px;fill:rgb(51,51,51);">Group Study 208</text>
    </g>
    <rect id="rect159" x="896.9" y="194.6" width="194.3" height="16.7" style="fill:none;"/>
    <g id="text161" transform="matrix(1,0,0,1,896.909,204.574)">
        <text x="0px" y="0px" style="font-family:'ArialMT', 'Arial', sans-serif;font-size:14px;fill:rgb(51,51,51);">Films <tspan x="36.552px 45.89px " y="0px 0px ">A-</tspan>Z</text>
    </g>
    <rect id="rect163" x="896.9" y="212.7" width="194.3" height="16.7" style="fill:none;"/>
    <g id="text165" transform="matrix(1,0,0,1,896.909,222.713)">
        <text x="0px" y="0px" style="font-family:'ArialMT', 'Arial', sans-serif;font-size:14px;fill:rgb(51,51,51);">T<tspan x="7px 14.786px " y="0px 0px ">ec</tspan>hnology Support</text>
    </g>
    <rect id="rect167" x="896.9" y="230.9" width="194.3" height="16.7" style="fill:none;"/>
    <g id="text169" transform="matrix(1,0,0,1,896.909,240.851)">
        <text x="0px" y="0px" style="font-family:'ArialMT', 'Arial', sans-serif;font-size:14px;fill:rgb(51,51,51);">Oﬃce 215</text>
    </g>
    <rect id="rect171" x="896.9" y="249" width="195.3" height="16.7" style="fill:none;"/>
    <g id="text173" transform="matrix(1,0,0,1,896.909,258.99)">
        <text x="0px" y="0px" style="font-family:'ArialMT', 'Arial', sans-serif;font-size:14px;fill:rgb(51,51,51);">Oﬃce 217</text>
    </g>
    <rect id="rect175" x="896.9" y="267.1" width="194.3" height="16.7" style="fill:none;"/>
    <g id="text177" transform="matrix(1,0,0,1,896.909,277.129)">
        <text x="0px" y="0px" style="font-family:'ArialMT', 'Arial', sans-serif;font-size:14px;fill:rgb(51,51,51);">Library Conference Room</text>
    </g>
    <rect id="rect179" x="896.9" y="303.4" width="194.3" height="16.7" style="fill:none;"/>
    <g id="text181" transform="matrix(1,0,0,1,896.909,313.406)">
        <text x="0px" y="0px" style="font-family:'ArialMT', 'Arial', sans-serif;font-size:14px;fill:rgb(51,51,51);">Oﬃce 219</text>
    </g>
    <rect id="rect183" x="896.9" y="285.3" width="194.3" height="16.7" style="fill:none;"/>
    <g id="text185" transform="matrix(1,0,0,1,896.909,295.267)">
        <text x="0px" y="0px" style="font-family:'ArialMT', 'Arial', sans-serif;font-size:14px;fill:rgb(51,51,51);">Fitzpatrick Reading Room</text>
    </g>
    <rect id="rect187" x="896.9" y="321.5" width="194.3" height="16.7" style="fill:none;"/>
    <g id="text189" transform="matrix(1,0,0,1,896.909,331.544)">
        <text x="0px" y="0px" style="font-family:'ArialMT', 'Arial', sans-serif;font-size:14px;fill:rgb(51,51,51);">Circulation Oﬃce</text>
    </g>
    <rect id="rect191" x="861.7" y="339.4" width="26.4" height="16.7" style="fill:none;"/>
    <g id="text193" transform="matrix(1,0,0,1,868.6,349.427)">
        <text x="0px" y="0px" style="font-family:'ArialMT', 'Arial', sans-serif;font-size:14px;fill:rgb(51,51,51);">15.</text>
    </g>
    <rect id="rect195" x="896.9" y="339.4" width="194.3" height="16.7" style="fill:none;"/>
    <g id="text197" transform="matrix(1,0,0,1,896.909,349.427)">
        <text x="0px" y="0px" style="font-family:'ArialMT', 'Arial', sans-serif;font-size:14px;fill:rgb(51,51,51);">Oﬃce 222</text>
    </g>
    <rect id="rect199" x="861.7" y="357.8" width="26.4" height="16.7" style="fill:none;"/>
    <g id="text201" transform="matrix(1,0,0,1,868.6,367.801)">
        <text x="0px" y="0px" style="font-family:'ArialMT', 'Arial', sans-serif;font-size:14px;fill:rgb(51,51,51);">16.</text>
    </g>
    <rect id="rect203" x="896.9" y="357.8" width="194.3" height="16.7" style="fill:none;"/>
    <g id="text205" transform="matrix(1,0,0,1,896.909,367.801)">
        <text x="0px" y="0px" style="font-family:'ArialMT', 'Arial', sans-serif;font-size:14px;fill:rgb(51,51,51);">Allen Reading Room</text>
    </g>
    <rect id="rect207" x="861.7" y="375.6" width="26.4" height="16.7" style="fill:none;"/>
    <g id="text209" transform="matrix(1,0,0,1,868.6,385.551)">
        <text x="0px" y="0px" style="font-family:'ArialMT', 'Arial', sans-serif;font-size:14px;fill:rgb(51,51,51);">17.</text>
    </g>
    <rect id="rect211" x="861.7" y="394.1" width="26.4" height="16.7" style="fill:none;"/>
    <g id="text213" transform="matrix(1,0,0,1,868.6,404.051)">
        <text x="0px" y="0px" style="font-family:'ArialMT', 'Arial', sans-serif;font-size:14px;fill:rgb(51,51,51);">18.</text>
    </g>
    <rect id="rect215" x="896.9" y="376" width="194.3" height="16.7" style="fill:none;"/>
    <g id="text217" transform="matrix(1,0,0,1,896.909,386.036)">
        <text x="0px" y="0px" style="font-family:'ArialMT', 'Arial', sans-serif;font-size:14px;fill:rgb(51,51,51);">Circulation Desk</text>
    </g>
    <rect id="rect219" x="896.9" y="394" width="194.3" height="16.8" style="fill:none;"/>
    <g id="text221" transform="matrix(1,0,0,1,896.909,404.029)">
        <text x="0px" y="0px" style="font-family:'ArialMT', 'Arial', sans-serif;font-size:14px;fill:rgb(51,51,51);">Reference Collection</text>
    </g>
    <rect id="rect223" x="861.7" y="410.9" width="26.4" height="16.7" style="fill:none;"/>
    <g id="text225" transform="matrix(1,0,0,1,868.6,420.916)">
        <text x="0px" y="0px" style="font-family:'ArialMT', 'Arial', sans-serif;font-size:14px;fill:rgb(51,51,51);">19.</text>
    </g>
    <rect id="rect227" x="896.9" y="410.9" width="194.3" height="16.8" style="fill:none;"/>
    <g id="text229" transform="matrix(1,0,0,1,896.909,420.894)">
        <text x="0px" y="0px" style="font-family:'ArialMT', 'Arial', sans-serif;font-size:14px;fill:rgb(51,51,51);">Popular Literature</text>
    </g>
    <rect id="rect231" x="861.7" y="428.9" width="26.4" height="16.7" style="fill:none;"/>
    <g id="text233" transform="matrix(1,0,0,1,868.6,438.895)">
        <text x="0px" y="0px" style="font-family:'ArialMT', 'Arial', sans-serif;font-size:14px;fill:rgb(51,51,51);">20.</text>
    </g>
    <rect id="rect235" x="896.9" y="428.9" width="194.3" height="16.8" style="fill:none;"/>
    <g id="text237" transform="matrix(1,0,0,1,896.909,438.873)">
        <text x="0px" y="0px" style="font-family:'ArialMT', 'Arial', sans-serif;font-size:14px;fill:rgb(51,51,51);">Oﬃce 223</text>
    </g>
    <rect id="rect239" x="845.6" y="41.3" width="249.8" height="26.5" style="fill:none;"/>
    <g id="text241" transform="matrix(1,0,0,1,845.555,62.7549)">
        <text x="0px" y="0px" style="font-family:'ArialMT', 'Arial', sans-serif;font-size:30px;fill:rgb(51,51,51);">Second Floor</text>
    </g>
    <rect id="rect243" x="845.6" y="18.3" width="249.8" height="15.8" style="fill:none;"/>
    <g id="text245" transform="matrix(1,0,0,1,845.555,32.6138)">
        <text x="0px" y="0px" style="font-family:'ArialMT', 'Arial', sans-serif;font-size:20px;fill:rgb(204,204,204);">Penrose Library</text>
    </g>
    <g id="rect247" transform="matrix(1,0,0,1.07372,0,-6.31755)">
        <rect x="845.7" y="85.7" width="14" height="352.7" style="fill:rgb(0,61,125);"/>
    </g>
    <g id="g255">
        <g id="g251">
            <path id="path249" d="M323.9,349.1C315.2,349.1 308.2,356.1 308.2,364.8C308.2,373.5 315.2,380.5 323.9,380.5C332.6,380.5 339.6,373.5 339.6,364.8C339.6,356.1 332.6,349.1 323.9,349.1Z" style="fill:white;fill-rule:nonzero;stroke:rgb(0,61,125);stroke-width:1px;"/>
        </g>
        <path id="path253" d="M332.7,368.6C332.7,368.1 332.3,367.6 331.7,367.6L327,367.6L327,362.9C327,362.4 326.6,361.9 326,361.9L321.3,361.9L321.3,357.2C321.3,356.7 320.9,356.2 320.3,356.2L314.6,356.2C314.1,356.2 313.6,356.6 313.6,357.2C313.6,357.7 314,358.2 314.6,358.2L319.3,358.2L319.3,362.9C319.3,363 319.3,363.2 319.4,363.3C319.6,363.7 319.9,363.9 320.3,363.9L325,363.9L325,368.6C325,369.1 325.4,369.6 326,369.6L330.7,369.6L330.7,374.3C330.7,374.8 331.1,375.3 331.7,375.3C332.2,375.3 332.7,374.9 332.7,374.3L332.7,368.6Z" style="fill:rgb(0,61,125);fill-rule:nonzero;"/>
    </g>
    <g id="g263">
        <g id="g259">
            <path id="path257" d="M53.8,241.7C45.1,241.7 38.1,248.7 38.1,257.4C38.1,266.1 45.1,273.1 53.8,273.1C62.5,273.1 69.5,266.1 69.5,257.4C69.5,248.7 62.5,241.7 53.8,241.7Z" style="fill:white;fill-rule:nonzero;stroke:rgb(0,61,125);stroke-width:1px;"/>
        </g>
        <path id="path261" d="M62.6,261.2C62.6,260.7 62.2,260.2 61.6,260.2L56.9,260.2L56.9,255.5C56.9,255 56.5,254.5 55.9,254.5L51.2,254.5L51.2,249.8C51.2,249.3 50.8,248.8 50.2,248.8L44.5,248.8C44,248.8 43.5,249.2 43.5,249.8C43.5,250.3 43.9,250.8 44.5,250.8L49.2,250.8L49.2,255.5C49.2,255.6 49.2,255.8 49.3,255.9C49.5,256.3 49.8,256.5 50.2,256.5L54.9,256.5L54.9,261.2C54.9,261.7 55.3,262.2 55.9,262.2L60.6,262.2L60.6,266.9C60.6,267.4 61,267.9 61.6,267.9C62.1,267.9 62.6,267.5 62.6,266.9L62.6,261.2Z" style="fill:rgb(0,61,125);fill-rule:nonzero;"/>
    </g>
    <g id="g271">
        <g id="g267">
            <path id="path265" d="M554.8,240.7C546.1,240.7 539.1,247.7 539.1,256.4C539.1,265.1 546.1,272.1 554.8,272.1C563.5,272.1 570.5,265.1 570.5,256.4C570.5,247.7 563.5,240.7 554.8,240.7Z" style="fill:white;fill-rule:nonzero;stroke:rgb(0,61,125);stroke-width:1px;"/>
        </g>
        <path id="path269" d="M563.6,260.2C563.6,259.7 563.2,259.2 562.6,259.2L557.9,259.2L557.9,254.5C557.9,254 557.5,253.5 556.9,253.5L552.2,253.5L552.2,248.8C552.2,248.3 551.8,247.8 551.2,247.8L545.5,247.8C545,247.8 544.5,248.2 544.5,248.8C544.5,249.3 544.9,249.8 545.5,249.8L550.2,249.8L550.2,254.5C550.2,254.6 550.2,254.8 550.3,254.9C550.5,255.3 550.8,255.5 551.2,255.5L555.9,255.5L555.9,260.2C555.9,260.7 556.3,261.2 556.9,261.2L561.6,261.2L561.6,265.9C561.6,266.4 562,266.9 562.6,266.9C563.1,266.9 563.6,266.5 563.6,265.9L563.6,260.2Z" style="fill:rgb(0,61,125);fill-rule:nonzero;"/>
    </g>
    <g id="g279">
        <g id="g275">
            <path id="path273" d="M720.5,400.4C711.8,400.4 704.8,407.4 704.8,416.1C704.8,424.8 711.8,431.8 720.5,431.8C729.2,431.8 736.2,424.8 736.2,416.1C736.2,407.4 729.2,400.4 720.5,400.4Z" style="fill:white;fill-rule:nonzero;stroke:rgb(0,61,125);stroke-width:1px;"/>
        </g>
        <path id="path277" d="M729.3,419.9C729.3,419.4 728.9,418.9 728.3,418.9L723.6,418.9L723.6,414.2C723.6,413.7 723.2,413.2 722.6,413.2L717.9,413.2L717.9,408.5C717.9,408 717.5,407.5 716.9,407.5L711.2,407.5C710.7,407.5 710.2,407.9 710.2,408.5C710.2,409 710.6,409.5 711.2,409.5L715.9,409.5L715.9,414.2C715.9,414.3 715.9,414.5 716,414.6C716.2,415 716.5,415.2 716.9,415.2L721.6,415.2L721.6,419.9C721.6,420.4 722,420.9 722.6,420.9L727.3,420.9L727.3,425.6C727.3,426.1 727.7,426.6 728.3,426.6C728.8,426.6 729.3,426.2 729.3,425.6L729.3,419.9Z" style="fill:rgb(0,61,125);fill-rule:nonzero;"/>
    </g>
    <g id="g303">
        <g id="g283">
            <path id="path281" d="M511.9,186.7C503.2,186.7 496.2,193.7 496.2,202.4C496.2,211.1 503.2,218.1 511.9,218.1C520.6,218.1 527.6,211.1 527.6,202.4C527.6,193.7 520.6,186.7 511.9,186.7Z" style="fill:white;fill-rule:nonzero;stroke:rgb(0,61,125);stroke-width:1px;"/>
        </g>
        <g id="g289">
            <circle id="circle285" cx="509" cy="202.3" r="1.1" style="fill:rgb(0,61,125);"/>
            <path id="path287" d="M507.7,207.1C507.7,207.3 507.5,207.5 507.3,207.5L507.2,207.5C507,207.5 506.8,207.3 506.8,207.1L506.8,204.2C506.8,203.9 507,203.8 507.3,203.8L510.9,203.8C511.2,203.8 511.4,204 511.4,204.4L511.4,207.3C511.4,207.5 511.2,207.7 511,207.7L510.9,207.7C510.7,207.7 510.5,207.5 510.5,207.3L510.5,210.5C510.5,210.8 510.2,211.1 509.9,211.1L509.8,211.1C509.5,211.1 509.2,210.8 509.2,210.5L509.2,207.6L509,207.6L509,210.5C509,210.8 508.7,211.1 508.4,211.1L508.3,211.1C508,211.1 507.7,210.8 507.7,210.5L507.7,207.1Z" style="fill:rgb(0,61,125);fill-rule:nonzero;"/>
        </g>
        <g id="g295">
            <circle id="circle291" cx="514.7" cy="202.3" r="1.1" style="fill:rgb(0,61,125);"/>
            <path id="path293" d="M513.4,207.1C513.4,207.3 513.2,207.5 513,207.5L512.9,207.5C512.7,207.5 512.5,207.3 512.5,207.1L512.5,204.2C512.5,203.9 512.7,203.8 513,203.8L516.6,203.8C516.9,203.8 517.1,204 517.1,204.4L517.1,207.3C517.1,207.5 516.9,207.7 516.7,207.7L516.6,207.7C516.4,207.7 516.2,207.5 516.2,207.3L516.2,210.5C516.2,210.8 515.9,211.1 515.6,211.1L515.5,211.1C515.2,211.1 514.9,210.8 514.9,210.5L514.9,207.6L514.8,207.6L514.8,210.5C514.8,210.8 514.5,211.1 514.2,211.1L514,211.1C513.7,211.1 513.4,210.8 513.4,210.5L513.4,207.1Z" style="fill:rgb(0,61,125);fill-rule:nonzero;"/>
        </g>
        <path id="path297" d="M518.4,197.3L505.3,197.3C504.5,197.3 503.9,197.9 503.9,198.7L503.9,211.8C503.9,212.6 504.5,213.2 505.3,213.2L518.4,213.2C519.2,213.2 519.8,212.6 519.8,211.8L519.8,198.7C519.8,198 519.2,197.3 518.4,197.3ZM518.1,211.4L505.7,211.4L505.7,199L518.1,199L518.1,211.4Z" style="fill:rgb(0,61,125);fill-rule:nonzero;"/>
        <path id="path299" d="M515.1,196.2L515.3,196.3L515.9,196.3C515.9,196.3 516,196.3 516,196.2L518.4,193.8C518.7,193.5 518.7,193.1 518.4,192.9C518.1,192.6 517.7,192.6 517.5,192.9L516.2,194.2L516.2,190.8C516.2,190.4 515.9,190.1 515.5,190.1C515.1,190.1 514.8,190.4 514.8,190.8L514.8,194.2L513.5,192.9C513.2,192.6 512.8,192.6 512.6,192.9C512.3,193.2 512.3,193.6 512.6,193.8L515.1,196.2Z" style="fill:rgb(0,61,125);fill-rule:nonzero;"/>
        <path id="path301" d="M508.6,190.3C508.6,190.3 508.6,190.2 508.6,190.3C508.5,190.2 508.5,190.2 508.4,190.2L507.8,190.2C507.8,190.2 507.7,190.2 507.7,190.3L505.3,192.7C505,193 505,193.4 505.3,193.6C505.6,193.9 506,193.9 506.2,193.6L507.5,192.3L507.5,195.7C507.5,196.1 507.8,196.4 508.2,196.4C508.6,196.4 508.9,196.1 508.9,195.7L508.9,192.3L510.2,193.6C510.5,193.9 510.9,193.9 511.1,193.6C511.4,193.3 511.4,192.9 511.1,192.7L508.6,190.3Z" style="fill:rgb(0,61,125);fill-rule:nonzero;"/>
    </g>
    <g id="g315">
        <g id="g309">
            <g id="g307">
                <path id="path305" d="M571.2,413.2C565.1,413.2 560.2,418.1 560.2,424.2C560.2,430.3 565.1,435.2 571.2,435.2C577.3,435.2 582.2,430.3 582.2,424.2C582.2,418.1 577.3,413.2 571.2,413.2Z" style="fill:white;fill-rule:nonzero;stroke:rgb(0,61,125);stroke-width:1px;"/>
            </g>
        </g>
        <rect id="rect311" x="560.5" y="419.3" width="21.3" height="11.3" style="fill:none;"/>
        <g id="text313" transform="matrix(1,0,0,1,563.481,429.066)">
            <text x="0px" y="0px" style="font-family:'ArialMT', 'Arial', sans-serif;font-size:13.712px;fill:rgb(0,61,125);">14</text>
        </g>
    </g>
    <g id="g327">
        <g id="g321">
            <g id="g319">
                <path id="path317" d="M633.6,421.2C627.5,421.2 622.6,426.1 622.6,432.2C622.6,438.3 627.5,443.2 633.6,443.2C639.7,443.2 644.6,438.3 644.6,432.2C644.6,426.1 639.6,421.2 633.6,421.2Z" style="fill:white;fill-rule:nonzero;stroke:rgb(0,61,125);stroke-width:1px;"/>
            </g>
        </g>
        <rect id="rect323" x="622.8" y="427.3" width="21.3" height="11.3" style="fill:none;"/>
        <g id="text325" transform="matrix(1,0,0,1,625.797,437.076)">
            <text x="0px" y="0px" style="font-family:'ArialMT', 'Arial', sans-serif;font-size:13.712px;fill:rgb(0,61,125);">15</text>
        </g>
    </g>
    <g id="g339">
        <g id="g333">
            <g id="g331">
                <path id="path329" d="M633.6,386.9C627.5,386.9 622.6,391.8 622.6,397.9C622.6,404 627.5,408.9 633.6,408.9C639.7,408.9 644.6,404 644.6,397.9C644.6,391.8 639.6,386.9 633.6,386.9Z" style="fill:white;fill-rule:nonzero;stroke:rgb(0,61,125);stroke-width:1px;"/>
            </g>
        </g>
        <rect id="rect335" x="622.8" y="393" width="21.3" height="11.3" style="fill:none;"/>
        <g id="text337" transform="matrix(1,0,0,1,625.797,402.754)">
            <text x="0px" y="0px" style="font-family:'ArialMT', 'Arial', sans-serif;font-size:13.712px;fill:rgb(0,61,125);">20</text>
        </g>
    </g>
    <g id="g351" transform="matrix(1,0,0,1,-231,168)">
        <g id="g345">
            <g id="g343">
                <path id="path341" d="M458.1,195.6C452,195.6 447.1,200.5 447.1,206.6C447.1,212.7 452,217.6 458.1,217.6C464.2,217.6 469.1,212.7 469.1,206.6C469.1,200.5 464.2,195.6 458.1,195.6Z" style="fill:white;fill-rule:nonzero;stroke:rgb(0,61,125);stroke-width:1px;"/>
            </g>
        </g>
        <rect id="rect347" x="447.4" y="201.7" width="21.3" height="11.3" style="fill:none;"/>
        <g id="text349" transform="matrix(1,0,0,1,450.38,211.492)">
            <text x="0px" y="0px" style="font-family:'ArialMT', 'Arial', sans-serif;font-size:13.712px;fill:rgb(0,61,125);">19</text>
        </g>
    </g>
    <g id="g3511" serif:id="g351" transform="matrix(1,0,0,1,-231,219)">
        <g id="g3451" serif:id="g345">
            <g id="g3431" serif:id="g343">
                <path id="path3411" serif:id="path341" d="M458.1,195.6C452,195.6 447.1,200.5 447.1,206.6C447.1,212.7 452,217.6 458.1,217.6C464.2,217.6 469.1,212.7 469.1,206.6C469.1,200.5 464.2,195.6 458.1,195.6Z" style="fill:white;fill-rule:nonzero;stroke:rgb(0,61,125);stroke-width:1px;"/>
            </g>
        </g>
        <rect id="rect3471" serif:id="rect347" x="447.4" y="201.7" width="21.3" height="11.3" style="fill:none;"/>
        <g id="text3491" serif:id="text349" transform="matrix(1,0,0,1,450.38,211.492)">
            <text x="0px" y="0px" style="font-family:'ArialMT', 'Arial', sans-serif;font-size:13.712px;fill:rgb(0,61,125);">21<tspan x="14.235px 21.861px " y="0px 0px ">19</tspan></text>
        </g>
    </g>
    <g id="g363">
        <g id="g357">
            <g id="g355">
                <path id="path353" d="M249.9,519.5C243.8,519.5 238.9,524.4 238.9,530.5C238.9,536.6 243.8,541.5 249.9,541.5C256,541.5 260.9,536.6 260.9,530.5C260.9,524.4 256,519.5 249.9,519.5Z" style="fill:white;fill-rule:nonzero;stroke:rgb(0,61,125);stroke-width:1px;"/>
            </g>
        </g>
        <rect id="rect359" x="239.1" y="525.6" width="21.3" height="11.3" style="fill:none;"/>
        <g id="text361" transform="matrix(1,0,0,1,242.13,535.344)">
            <text x="0px" y="0px" style="font-family:'ArialMT', 'Arial', sans-serif;font-size:13.712px;fill:rgb(0,61,125);">16</text>
        </g>
    </g>
    <g id="g375">
        <g id="g369">
            <g id="g367">
                <path id="path365" d="M488.1,403.2C482,403.2 477.1,408.1 477.1,414.2C477.1,420.3 482,425.2 488.1,425.2C494.2,425.2 499.1,420.3 499.1,414.2C499.1,408.1 494.2,403.2 488.1,403.2Z" style="fill:white;fill-rule:nonzero;stroke:rgb(0,61,125);stroke-width:1px;"/>
            </g>
        </g>
        <rect id="rect371" x="477.3" y="409.3" width="21.3" height="11.3" style="fill:none;"/>
        <g id="text373" transform="matrix(1,0,0,1,480.318,419.087)">
            <text x="0px" y="0px" style="font-family:'ArialMT', 'Arial', sans-serif;font-size:13.712px;fill:rgb(0,61,125);">17</text>
        </g>
    </g>
    <g id="g387">
        <g id="g381">
            <g id="g379">
                <path id="path377" d="M590.4,520.2C584.3,520.2 579.4,525.1 579.4,531.2C579.4,537.3 584.3,542.2 590.4,542.2C596.5,542.2 601.4,537.3 601.4,531.2C601.4,525.1 596.5,520.2 590.4,520.2Z" style="fill:white;fill-rule:nonzero;stroke:rgb(0,61,125);stroke-width:1px;"/>
            </g>
        </g>
        <rect id="rect383" x="579.6" y="526.3" width="21.3" height="11.3" style="fill:none;"/>
        <g id="text385" transform="matrix(1,0,0,1,582.663,536.045)">
            <text x="0px" y="0px" style="font-family:'ArialMT', 'Arial', sans-serif;font-size:13.712px;fill:rgb(0,61,125);">18</text>
        </g>
    </g>
    <g id="g399">
        <g id="g393">
            <g id="g391">
                <path id="path389" d="M63.5,125.8C57.4,125.8 52.5,130.7 52.5,136.8C52.5,142.9 57.4,147.8 63.5,147.8C69.6,147.8 74.5,142.9 74.5,136.8C74.5,130.7 69.6,125.8 63.5,125.8Z" style="fill:white;fill-rule:nonzero;stroke:rgb(0,61,125);stroke-width:1px;"/>
            </g>
        </g>
        <rect id="rect395" x="52.7" y="131.9" width="21.3" height="11.3" style="fill:none;"/>
        <g id="text397" transform="matrix(1,0,0,1,59.5259,141.663)">
            <text x="0px" y="0px" style="font-family:'ArialMT', 'Arial', sans-serif;font-size:13.712px;fill:rgb(0,61,125);">1</text>
        </g>
    </g>
    <g id="g411">
        <g id="g405">
            <g id="g403">
                <path id="path401" d="M63.3,181.8C57.2,181.8 52.3,186.7 52.3,192.8C52.3,198.9 57.2,203.8 63.3,203.8C69.4,203.8 74.3,198.9 74.3,192.8C74.3,186.7 69.4,181.8 63.3,181.8Z" style="fill:white;fill-rule:nonzero;stroke:rgb(0,61,125);stroke-width:1px;"/>
            </g>
        </g>
        <rect id="rect407" x="52.6" y="187.8" width="21.3" height="11.3" style="fill:none;"/>
        <g id="text409" transform="matrix(1,0,0,1,59.3912,197.629)">
            <text x="0px" y="0px" style="font-family:'ArialMT', 'Arial', sans-serif;font-size:13.712px;fill:rgb(0,61,125);">2</text>
        </g>
    </g>
    <g id="g423">
        <g id="g417">
            <g id="g415">
                <path id="path413" d="M63.2,215.1C57.1,215.1 52.2,220 52.2,226.1C52.2,232.2 57.1,237.1 63.2,237.1C69.3,237.1 74.2,232.2 74.2,226.1C74.2,220 69.3,215.1 63.2,215.1Z" style="fill:white;fill-rule:nonzero;stroke:rgb(0,61,125);stroke-width:1px;"/>
            </g>
        </g>
        <rect id="rect419" x="52.4" y="221.2" width="21.3" height="11.3" style="fill:none;"/>
        <g id="text421" transform="matrix(1,0,0,1,59.2564,230.951)">
            <text x="0px" y="0px" style="font-family:'ArialMT', 'Arial', sans-serif;font-size:13.712px;fill:rgb(0,61,125);">3</text>
        </g>
    </g>
    <g id="g435">
        <g id="g429">
            <g id="g427">
                <path id="path425" d="M65.2,291.7C59.1,291.7 54.2,296.6 54.2,302.7C54.2,308.8 59.1,313.7 65.2,313.7C71.3,313.7 76.2,308.8 76.2,302.7C76.2,296.7 71.3,291.7 65.2,291.7Z" style="fill:white;fill-rule:nonzero;stroke:rgb(0,61,125);stroke-width:1px;"/>
            </g>
        </g>
        <rect id="rect431" x="54.4" y="297.8" width="21.3" height="11.3" style="fill:none;"/>
        <g id="text433" transform="matrix(1,0,0,1,61.2764,307.622)">
            <text x="0px" y="0px" style="font-family:'ArialMT', 'Arial', sans-serif;font-size:13.712px;fill:rgb(0,61,125);">4</text>
        </g>
    </g>
    <g id="g447">
        <g id="g441">
            <g id="g439">
                <path id="path437" d="M267.7,195.6C261.6,195.6 256.7,200.5 256.7,206.6C256.7,212.7 261.6,217.6 267.7,217.6C273.8,217.6 278.7,212.7 278.7,206.6C278.7,200.5 273.7,195.6 267.7,195.6Z" style="fill:white;fill-rule:nonzero;stroke:rgb(0,61,125);stroke-width:1px;"/>
            </g>
        </g>
        <rect id="rect443" x="256.9" y="201.7" width="21.3" height="11.3" style="fill:none;"/>
        <g id="text445" transform="matrix(1,0,0,1,263.713,211.492)">
            <text x="0px" y="0px" style="font-family:'ArialMT', 'Arial', sans-serif;font-size:13.712px;fill:rgb(0,61,125);">5</text>
        </g>
    </g>
    <g id="g459">
        <g id="g453">
            <g id="g451">
                <path id="path449" d="M580.9,278.4C574.8,278.4 569.9,283.3 569.9,289.4C569.9,295.5 574.8,300.4 580.9,300.4C587,300.4 591.9,295.5 591.9,289.4C591.9,283.3 587,278.4 580.9,278.4Z" style="fill:white;fill-rule:nonzero;stroke:rgb(0,61,125);stroke-width:1px;"/>
            </g>
        </g>
        <rect id="rect455" x="570.1" y="284.5" width="21.3" height="11.3" style="fill:none;"/>
        <g id="text457" transform="matrix(1,0,0,1,576.943,294.254)">
            <text x="0px" y="0px" style="font-family:'ArialMT', 'Arial', sans-serif;font-size:13.712px;fill:rgb(0,61,125);">6</text>
        </g>
    </g>
    <g id="g471">
        <g id="g465">
            <g id="g463">
                <path id="path461" d="M258.3,390C252.2,390 247.3,394.9 247.3,401C247.3,407.1 252.2,412 258.3,412C264.4,412 269.3,407.1 269.3,401C269.3,395 264.3,390 258.3,390Z" style="fill:white;fill-rule:nonzero;stroke:rgb(0,61,125);stroke-width:1px;"/>
            </g>
        </g>
        <rect id="rect467" x="247.5" y="396.1" width="21.3" height="11.3" style="fill:none;"/>
        <g id="text469" transform="matrix(1,0,0,1,254.318,405.92)">
            <text x="0px" y="0px" style="font-family:'ArialMT', 'Arial', sans-serif;font-size:13.712px;fill:rgb(0,61,125);">7</text>
        </g>
    </g>
    <g id="g483">
        <g id="g477">
            <g id="g475">
                <path id="path473" d="M410.6,291C404.5,291 399.6,295.9 399.6,302C399.6,308.1 404.5,313 410.6,313C416.7,313 421.6,308.1 421.6,302C421.6,295.9 416.6,291 410.6,291Z" style="fill:white;fill-rule:nonzero;stroke:rgb(0,61,125);stroke-width:1px;"/>
            </g>
        </g>
        <rect id="rect479" x="399.8" y="297.1" width="21.3" height="11.3" style="fill:none;"/>
        <g id="text481" transform="matrix(1,0,0,1,406.61,306.92)">
            <text x="0px" y="0px" style="font-family:'ArialMT', 'Arial', sans-serif;font-size:13.712px;fill:rgb(0,61,125);">8</text>
        </g>
    </g>
    <g id="g495">
        <g id="g489">
            <g id="g487">
                <path id="path485" d="M552.4,338.7C546.3,338.7 541.4,343.6 541.4,349.7C541.4,355.8 546.3,360.7 552.4,360.7C558.5,360.7 563.4,355.8 563.4,349.7C563.4,343.6 558.5,338.7 552.4,338.7Z" style="fill:white;fill-rule:nonzero;stroke:rgb(0,61,125);stroke-width:1px;"/>
            </g>
        </g>
        <rect id="rect491" x="541.7" y="344.8" width="21.3" height="11.3" style="fill:none;"/>
        <g id="text493" transform="matrix(1,0,0,1,544.679,354.587)">
            <text x="0px" y="0px" style="font-family:'ArialMT', 'Arial', sans-serif;font-size:13.712px;fill:rgb(0,61,125);">10</text>
        </g>
    </g>
    <g id="g507">
        <g id="g501">
            <g id="g499">
                <path id="path497" d="M599.6,324.4C593.5,324.4 588.6,329.3 588.6,335.4C588.6,341.5 593.5,346.4 599.6,346.4C605.7,346.4 610.6,341.5 610.6,335.4C610.6,329.3 605.6,324.4 599.6,324.4Z" style="fill:white;fill-rule:nonzero;stroke:rgb(0,61,125);stroke-width:1px;"/>
            </g>
        </g>
        <rect id="rect503" x="588.8" y="330.5" width="21.3" height="11.3" style="fill:none;"/>
        <g id="text505" transform="matrix(1,0,0,1,591.797,340.253)">
            <text x="0px" y="0px" style="font-family:'ArialMT', 'Arial', sans-serif;font-size:13.712px;fill:rgb(0,61,125);">1<tspan x="6.608px " y="0px ">1</tspan></text>
        </g>
    </g>
    <g id="g519">
        <g id="g513">
            <g id="g511">
                <path id="path509" d="M693.1,325.1C687,325.1 682.1,330 682.1,336.1C682.1,342.2 687,347.1 693.1,347.1C699.2,347.1 704.1,342.2 704.1,336.1C704.1,330 699.2,325.1 693.1,325.1Z" style="fill:white;fill-rule:nonzero;stroke:rgb(0,61,125);stroke-width:1px;"/>
            </g>
        </g>
        <rect id="rect515" x="682.4" y="331.2" width="21.3" height="11.3" style="fill:none;"/>
        <g id="text517" transform="matrix(1,0,0,1,685.38,340.955)">
            <text x="0px" y="0px" style="font-family:'ArialMT', 'Arial', sans-serif;font-size:13.712px;fill:rgb(0,61,125);">12</text>
        </g>
    </g>
    <g id="g531">
        <g id="g525">
            <g id="g523">
                <path id="path521" d="M571.2,370.7C565.1,370.7 560.2,375.6 560.2,381.7C560.2,387.8 565.1,392.7 571.2,392.7C577.3,392.7 582.2,387.8 582.2,381.7C582.2,375.6 577.3,370.7 571.2,370.7Z" style="fill:white;fill-rule:nonzero;stroke:rgb(0,61,125);stroke-width:1px;"/>
            </g>
        </g>
        <rect id="rect527" x="560.5" y="376.8" width="21.3" height="11.3" style="fill:none;"/>
        <g id="text529" transform="matrix(1,0,0,1,563.481,386.588)">
            <text x="0px" y="0px" style="font-family:'ArialMT', 'Arial', sans-serif;font-size:13.712px;fill:rgb(0,61,125);">13</text>
        </g>
    </g>
    <g id="g543">
        <g id="g537">
            <g id="g535">
                <path id="path533" d="M552.6,311C546.5,311 541.6,315.9 541.6,322C541.6,328.1 546.5,333 552.6,333C558.7,333 563.6,328.1 563.6,322C563.6,316 558.7,311 552.6,311Z" style="fill:white;fill-rule:nonzero;stroke:rgb(0,61,125);stroke-width:1px;"/>
            </g>
        </g>
        <rect id="rect539" x="541.8" y="317.1" width="21.3" height="11.3" style="fill:none;"/>
        <g id="text541" transform="matrix(1,0,0,1,548.626,326.92)">
            <text x="0px" y="0px" style="font-family:'ArialMT', 'Arial', sans-serif;font-size:13.712px;fill:rgb(0,61,125);">9</text>
        </g>
    </g>
    <g id="g559">
        <g id="g549">
            <path id="path547" d="M365.7,361.3C357.1,361.3 350.2,368.2 350.2,376.8C350.2,385.4 357.1,392.3 365.7,392.3C374.3,392.3 381.2,385.4 381.2,376.8C381.2,368.2 374.3,361.3 365.7,361.3Z" style="fill:white;fill-rule:nonzero;stroke:rgb(0,61,125);stroke-width:1px;"/>
        </g>
        <g id="g557">
            <path id="path551" d="M373,370.2L365.5,370.2L365.5,368.6L370.5,367L370.5,365.8L358,367.5C357.4,367.5 356.9,368 356.9,368.6L356.9,373.2L374.1,373.2L374.1,371.3C374.1,370.6 373.6,370.2 373,370.2Z" style="fill:rgb(0,61,125);fill-rule:nonzero;"/>
            <path id="polygon553" d="M374.1,374.2L368.5,374.2L368.5,375.4L362.5,375.4L362.5,374.2L357,374.2L357,379.9L374.1,379.9L374.1,375.9L377.9,374.2L377.9,373.3L374.1,374.2Z" style="fill:rgb(0,61,125);fill-rule:nonzero;"/>
            <path id="path555" d="M377.9,380.1L374.2,381L368.6,381L368.6,382.2L362.6,382.2L362.6,381L357,381L357,385.6C357,386.2 357.5,386.7 358.1,386.7L373.1,386.7C373.7,386.7 374.2,386.2 374.2,385.6L374.2,382.7L377.9,381L377.9,380.1Z" style="fill:rgb(0,61,125);fill-rule:nonzero;"/>
        </g>
    </g>
    <g id="g571">
        <g id="g563">
            <path id="path561" d="M365.7,321.9C357.1,321.9 350.2,328.8 350.2,337.4C350.2,346 357.1,352.9 365.7,352.9C374.3,352.9 381.2,346 381.2,337.4C381.2,328.8 374.3,321.9 365.7,321.9Z" style="fill:white;fill-rule:nonzero;stroke:rgb(0,61,125);stroke-width:1px;"/>
        </g>
        <g id="g569">
            <path id="path565" d="M354.6,343C354.6,344 355.4,344.7 356.3,344.7L375,344.7C376,344.7 376.7,343.9 376.7,343L376.7,339.7L354.5,339.7L354.5,343L354.6,343ZM371,341.2L374.5,341.2C374.8,341.2 375.1,341.5 375.1,341.8C375.1,342.1 374.8,342.4 374.5,342.4L371,342.4C370.7,342.4 370.4,342.1 370.4,341.8C370.4,341.5 370.7,341.2 371,341.2ZM368.6,341.2C368.9,341.2 369.2,341.5 369.2,341.8C369.2,342.1 368.9,342.4 368.6,342.4C368.3,342.4 368,342.1 368,341.8C367.9,341.5 368.2,341.2 368.6,341.2Z" style="fill:rgb(0,61,125);fill-rule:nonzero;"/>
            <path id="path567" d="M375.9,337L358.7,329.5C357.8,329.1 356.8,329.5 356.4,330.4L376.7,339.3C377.1,338.4 376.7,337.4 375.9,337Z" style="fill:rgb(0,61,125);fill-rule:nonzero;"/>
        </g>
    </g>
    <g id="g581">
        <g id="g575">
            <path id="path573" d="M217.9,101.8C209.3,101.8 202.4,108.7 202.4,117.3C202.4,125.9 209.3,132.8 217.9,132.8C226.5,132.8 233.4,125.9 233.4,117.3C233.4,108.7 226.4,101.8 217.9,101.8Z" style="fill:white;fill-rule:nonzero;stroke:rgb(0,61,125);stroke-width:1px;"/>
        </g>
        <path id="path577" d="M225.3,107.1L210.6,107.1C210,107.1 209.5,107.6 209.5,108.2L209.5,117.4C209.5,118 210,118.5 210.6,118.5L216.1,118.5L216.1,120L213.5,120L213.5,121.1L222.3,121.1L222.3,120L219.7,120L219.7,118.5L225.2,118.5C225.8,118.5 226.3,118 226.3,117.4L226.3,108.2C226.5,107.6 225.9,107.1 225.3,107.1ZM225.3,116.9C225.3,117.2 225,117.5 224.7,117.5L211.2,117.5C210.9,117.5 210.6,117.2 210.6,116.9L210.6,108.9C210.6,108.6 210.9,108.3 211.2,108.3L224.7,108.3C225,108.3 225.3,108.6 225.3,108.9L225.3,116.9Z" style="fill:rgb(0,61,125);fill-rule:nonzero;"/>
        <path id="path579" d="M227.7,125.5C228,125.8 227.4,126 227,126L208.7,126C208.3,126 207.7,125.9 208,125.5L210.6,122.8C210.9,122.5 211.2,122.3 211.8,122.3L223.6,122.3C224.5,122.3 224.6,122.5 225,122.8L227.7,125.5Z" style="fill:rgb(0,61,125);fill-rule:nonzero;"/>
    </g>
    <g id="g591">
        <g id="g585">
            <path id="path583" d="M468.3,286.6C459.7,286.6 452.8,293.5 452.8,302.1C452.8,310.7 459.7,317.6 468.3,317.6C476.9,317.6 483.8,310.7 483.8,302.1C483.8,293.5 476.8,286.6 468.3,286.6Z" style="fill:white;fill-rule:nonzero;stroke:rgb(0,61,125);stroke-width:1px;"/>
        </g>
        <path id="path587" d="M475.7,291.9L461,291.9C460.4,291.9 459.9,292.4 459.9,293L459.9,302.2C459.9,302.8 460.4,303.3 461,303.3L466.5,303.3L466.5,304.8L463.9,304.8L463.9,305.9L472.7,305.9L472.7,304.8L470.1,304.8L470.1,303.3L475.6,303.3C476.2,303.3 476.7,302.8 476.7,302.2L476.7,293C476.8,292.4 476.3,291.9 475.7,291.9ZM475.7,301.7C475.7,302 475.4,302.3 475.1,302.3L461.6,302.3C461.3,302.3 461,302 461,301.7L461,293.7C461,293.4 461.3,293.1 461.6,293.1L475.1,293.1C475.4,293.1 475.7,293.4 475.7,293.7L475.7,301.7Z" style="fill:rgb(0,61,125);fill-rule:nonzero;"/>
        <path id="path589" d="M478.1,310.3C478.4,310.6 477.8,310.8 477.4,310.8L459.1,310.8C458.7,310.8 458.1,310.7 458.4,310.3L461,307.6C461.3,307.3 461.6,307.1 462.2,307.1L474,307.1C474.9,307.1 475,307.3 475.4,307.6L478.1,310.3Z" style="fill:rgb(0,61,125);fill-rule:nonzero;"/>
    </g>
    <rect id="rect593" x="870" y="464.4" width="190.7" height="16.7" style="fill:none;"/>
    <g id="text595" transform="matrix(1,0,0,1,870.015,487.427)">
        <text x="0px" y="0px" style="font-family:'ArialMT', 'Arial', sans-serif;font-size:14px;fill:rgb(51,51,51);">Limited <tspan x="48.248px 57.586px " y="0px 0px ">Ac</tspan>cess <tspan x="96.489px 105.827px " y="0px 0px ">Ar</tspan>eas</text>
    </g>
    <rect id="rect597" x="1007.4" y="584.4" width="84" height="16.7" style="fill:none;"/>
    <g id="text599" transform="matrix(1,0,0,1,1007.37,594.411)">
        <text x="0px" y="0px" style="font-family:'ArialMT', 'Arial', sans-serif;font-size:14px;fill:rgb(51,51,51);">Stairs</text>
    </g>
    <rect id="rect601" x="878.8" y="585.9" width="84" height="16.7" style="fill:none;"/>
    <g id="text603" transform="matrix(1,0,0,1,878.782,595.866)">
        <text x="0px" y="0px" style="font-family:'ArialMT', 'Arial', sans-serif;font-size:14px;fill:rgb(51,51,51);">Elevator</text>
    </g>
    <rect id="rect605" x="1007.2" y="620.8" width="84" height="16.7" style="fill:none;"/>
    <g id="text607" transform="matrix(1,0,0,1,1007.16,630.778)">
        <text x="0px" y="0px" style="font-family:'ArialMT', 'Arial', sans-serif;font-size:14px;fill:rgb(51,51,51);">Printer</text>
    </g>
    <g id="rect609" transform="matrix(1,0,0,1,0,12)">
        <rect x="845.7" y="463.4" width="14" height="14.2" style="fill:rgb(51,51,51);"/>
    </g>
    <g id="g617">
        <g id="g613">
            <path id="path611" d="M985,576.6C976.3,576.6 969.3,583.6 969.3,592.3C969.3,601 976.3,608 985,608C993.7,608 1000.7,601 1000.7,592.3C1000.7,583.6 993.7,576.6 985,576.6Z" style="fill:white;fill-rule:nonzero;stroke:rgb(0,61,125);stroke-width:1px;"/>
        </g>
        <path id="path615" d="M993.8,596.1C993.8,595.6 993.4,595.1 992.8,595.1L988.1,595.1L988.1,590.4C988.1,589.9 987.7,589.4 987.1,589.4L982.4,589.4L982.4,584.7C982.4,584.2 982,583.7 981.4,583.7L975.7,583.7C975.2,583.7 974.7,584.1 974.7,584.7C974.7,585.2 975.1,585.7 975.7,585.7L980.4,585.7L980.4,590.4C980.4,590.5 980.4,590.7 980.5,590.8C980.7,591.2 981,591.4 981.4,591.4L986.1,591.4L986.1,596.1C986.1,596.6 986.5,597.1 987.1,597.1L991.8,597.1L991.8,601.8C991.8,602.3 992.2,602.8 992.8,602.8C993.3,602.8 993.8,602.4 993.8,601.8L993.8,596.1Z" style="fill:rgb(0,61,125);fill-rule:nonzero;"/>
    </g>
    <g id="g641">
        <g id="g621">
            <path id="path619" d="M856.4,577C847.7,577 840.7,584 840.7,592.7C840.7,601.4 847.7,608.4 856.4,608.4C865.1,608.4 872.1,601.4 872.1,592.7C872.1,584 865.1,577 856.4,577Z" style="fill:white;fill-rule:nonzero;stroke:rgb(0,61,125);stroke-width:1px;"/>
        </g>
        <g id="g627">
            <circle id="circle623" cx="853.5" cy="592.7" r="1.1" style="fill:rgb(0,61,125);"/>
            <path id="path625" d="M852.2,597.4C852.2,597.6 852,597.8 851.8,597.8L851.7,597.8C851.5,597.8 851.3,597.6 851.3,597.4L851.3,594.5C851.3,594.2 851.5,594.1 851.8,594.1L855.4,594.1C855.7,594.1 855.9,594.3 855.9,594.7L855.9,597.6C855.9,597.8 855.7,598 855.5,598L855.4,598C855.2,598 855,597.8 855,597.6L855,600.8C855,601.1 854.7,601.4 854.4,601.4L854.3,601.4C854,601.4 853.7,601.1 853.7,600.8L853.7,597.9L853.6,597.9L853.6,600.8C853.6,601.1 853.3,601.4 853,601.4L852.9,601.4C852.6,601.4 852.3,601.1 852.3,600.8L852.2,597.4Z" style="fill:rgb(0,61,125);fill-rule:nonzero;"/>
        </g>
        <g id="g633">
            <circle id="circle629" cx="859.3" cy="592.7" r="1.1" style="fill:rgb(0,61,125);"/>
            <path id="path631" d="M857.9,597.4C857.9,597.6 857.7,597.8 857.5,597.8L857.4,597.8C857.2,597.8 857,597.6 857,597.4L857,594.5C857,594.2 857.2,594.1 857.5,594.1L861.1,594.1C861.4,594.1 861.6,594.3 861.6,594.7L861.6,597.6C861.6,597.8 861.4,598 861.2,598L861.1,598C860.9,598 860.7,597.8 860.7,597.6L860.7,600.8C860.7,601.1 860.4,601.4 860.1,601.4L860,601.4C859.7,601.4 859.4,601.1 859.4,600.8L859.4,597.9L859.3,597.9L859.3,600.8C859.3,601.1 859,601.4 858.7,601.4L858.6,601.4C858.3,601.4 858,601.1 858,600.8L857.9,597.4Z" style="fill:rgb(0,61,125);fill-rule:nonzero;"/>
        </g>
        <path id="path635" d="M863,587.7L849.9,587.7C849.1,587.7 848.5,588.3 848.5,589.1L848.5,602.2C848.5,603 849.1,603.6 849.9,603.6L863,603.6C863.8,603.6 864.4,603 864.4,602.2L864.4,589C864.3,588.3 863.7,587.7 863,587.7ZM862.6,601.8L850.2,601.8L850.2,589.4L862.6,589.4L862.6,601.8Z" style="fill:rgb(0,61,125);fill-rule:nonzero;"/>
        <path id="path637" d="M859.7,586.6C859.8,586.7 859.8,586.7 859.9,586.7L860.5,586.7C860.5,586.7 860.6,586.7 860.6,586.6L863,584.2C863.3,583.9 863.3,583.5 863,583.3C862.7,583 862.3,583 862.1,583.3L860.8,584.6L860.8,581.2C860.8,580.8 860.5,580.5 860.1,580.5C859.7,580.5 859.4,580.8 859.4,581.2L859.4,584.6L858.1,583.3C857.8,583 857.4,583 857.2,583.3C856.9,583.6 856.9,584 857.2,584.2L859.7,586.6Z" style="fill:rgb(0,61,125);fill-rule:nonzero;"/>
        <path id="path639" d="M855.7,583L853.2,580.6L853,580.5L852.4,580.5C852.4,580.5 852.3,580.5 852.3,580.6L849.9,583C849.6,583.3 849.6,583.7 849.9,583.9C850.2,584.2 850.6,584.2 850.8,583.9L852.1,582.6L852.1,586C852.1,586.4 852.4,586.7 852.8,586.7C853.2,586.7 853.5,586.4 853.5,586L853.5,582.6L854.8,583.9C855.1,584.2 855.5,584.2 855.7,583.9C856,583.6 856,583.2 855.7,583Z" style="fill:rgb(0,61,125);fill-rule:nonzero;"/>
    </g>
    <g id="g659">
        <g id="g645">
            <path id="path643" d="M984.8,612.2C976.2,612.2 969.3,619.1 969.3,627.7C969.3,636.3 976.2,643.2 984.8,643.2C993.4,643.2 1000.3,636.3 1000.3,627.7C1000.3,619.2 993.4,612.2 984.8,612.2Z" style="fill:white;fill-rule:nonzero;stroke:rgb(0,61,125);stroke-width:1px;"/>
        </g>
        <rect id="rect647" x="977.5" y="617.2" width="14.5" height="10.3" style="fill:white;stroke:rgb(0,61,125);stroke-width:1px;"/>
        <path id="path649" d="M996.3,631.3C996.3,631.9 995.8,632.4 995.2,632.4L974,632.4C973.4,632.4 972.9,631.9 972.9,631.3L972.9,623.8C972.9,623.2 973.4,622.7 974,622.7L995.1,622.7C995.7,622.7 996.2,623.2 996.2,623.8L996.2,631.3L996.3,631.3Z" style="fill:rgb(0,61,125);fill-rule:nonzero;"/>
        <rect id="rect651" x="974.8" y="624.3" width="3" height="1.3" style="fill:white;"/>
        <rect id="rect653" x="977.5" y="627.7" width="14.5" height="10.3" style="fill:white;stroke:rgb(0,61,125);stroke-width:1px;"/>
        <rect id="rect655" x="979.5" y="629.5" width="10.2" height="2.3" style="fill:rgb(0,61,125);"/>
        <rect id="rect657" x="979.5" y="633.5" width="5.2" height="2.3" style="fill:rgb(0,61,125);"/>
    </g>
    <rect id="rect661" x="878.8" y="622" width="84" height="16.7" style="fill:none;"/>
    <g id="text663" transform="matrix(1,0,0,1,878.782,631.973)">
        <text x="0px" y="0px" style="font-family:'ArialMT', 'Arial', sans-serif;font-size:14px;fill:rgb(51,51,51);">Copier</text>
    </g>
    <rect id="rect665" x="1007.4" y="657.1" width="84" height="16.7" style="fill:none;"/>
    <g id="text667" transform="matrix(1,0,0,1,1007.37,667.146)">
        <text x="0px" y="0px" style="font-family:'ArialMT', 'Arial', sans-serif;font-size:14px;fill:rgb(51,51,51);">Scanner</text>
    </g>
    <g id="g681">
        <g id="g671">
            <path id="path669" d="M856.4,612.9C847.8,612.9 840.9,619.8 840.9,628.4C840.9,637 847.8,643.9 856.4,643.9C865,643.9 871.9,637 871.9,628.4C871.9,619.8 865,612.9 856.4,612.9Z" style="fill:white;fill-rule:nonzero;stroke:rgb(0,61,125);stroke-width:1px;"/>
        </g>
        <g id="g679">
            <path id="path673" d="M863.7,621.8L856.2,621.8L856.2,620.2L861.2,618.6L861.2,617.4L848.7,619.1C848.1,619.1 847.6,619.6 847.6,620.2L847.6,624.8L864.8,624.8L864.8,622.9C864.8,622.2 864.3,621.8 863.7,621.8Z" style="fill:rgb(0,61,125);fill-rule:nonzero;"/>
            <path id="polygon675" d="M864.8,625.8L859.2,625.8L859.2,627L853.2,627L853.2,625.8L847.6,625.8L847.6,631.5L864.8,631.5L864.8,627.5L868.6,625.8L868.6,624.9L864.8,625.8Z" style="fill:rgb(0,61,125);fill-rule:nonzero;"/>
            <path id="path677" d="M868.5,631.7L864.8,632.6L859.2,632.6L859.2,633.8L853.2,633.8L853.2,632.6L847.6,632.6L847.6,637.2C847.6,637.8 848.1,638.3 848.7,638.3L863.7,638.3C864.3,638.3 864.8,637.8 864.8,637.2L864.8,634.3L868.5,632.6L868.5,631.7Z" style="fill:rgb(0,61,125);fill-rule:nonzero;"/>
        </g>
    </g>
    <rect id="rect683" x="878.8" y="658.1" width="84" height="16.7" style="fill:none;"/>
    <g id="text685" transform="matrix(1,0,0,1,878.782,668.079)">
        <text x="0px" y="0px" style="font-family:'ArialMT', 'Arial', sans-serif;font-size:14px;fill:rgb(51,51,51);">Computers</text>
    </g>
    <g id="g697">
        <g id="g689">
            <path id="path687" d="M984.8,647.7C976.2,647.7 969.3,654.6 969.3,663.2C969.3,671.8 976.2,678.7 984.8,678.7C993.4,678.7 1000.3,671.8 1000.3,663.2C1000.3,654.6 993.4,647.7 984.8,647.7Z" style="fill:white;fill-rule:nonzero;stroke:rgb(0,61,125);stroke-width:1px;"/>
        </g>
        <g id="g695">
            <path id="path691" d="M973.6,668.8C973.6,669.8 974.4,670.5 975.3,670.5L994,670.5C995,670.5 995.7,669.7 995.7,668.8L995.7,665.5L973.5,665.5L973.5,668.8L973.6,668.8ZM990.1,667L993.6,667C993.9,667 994.2,667.3 994.2,667.6C994.2,667.9 993.9,668.2 993.6,668.2L990.1,668.2C989.8,668.2 989.5,667.9 989.5,667.6C989.4,667.3 989.7,667 990.1,667ZM987.6,667C987.9,667 988.2,667.3 988.2,667.6C988.2,667.9 987.9,668.2 987.6,668.2C987.3,668.2 987,667.9 987,667.6C987,667.3 987.3,667 987.6,667Z" style="fill:rgb(0,61,125);fill-rule:nonzero;"/>
            <path id="path693" d="M994.9,662.8L977.7,655.3C976.8,654.9 975.8,655.3 975.4,656.2L995.7,665.1C996.2,664.2 995.8,663.1 994.9,662.8Z" style="fill:rgb(0,61,125);fill-rule:nonzero;"/>
        </g>
    </g>
    <g id="g707">
        <g id="g701">
            <path id="path699" d="M856.4,648.5C847.8,648.5 840.9,655.4 840.9,664C840.9,672.6 847.8,679.5 856.4,679.5C865,679.5 871.9,672.6 871.9,664C871.9,655.5 865,648.5 856.4,648.5Z" style="fill:white;fill-rule:nonzero;stroke:rgb(0,61,125);stroke-width:1px;"/>
        </g>
        <path id="path703" d="M863.8,653.8L849.1,653.8C848.5,653.8 848,654.3 848,654.9L848,664.1C848,664.7 848.5,665.2 849.1,665.2L854.6,665.2L854.6,666.7L852,666.7L852,667.8L860.8,667.8L860.8,666.7L858.2,666.7L858.2,665.2L863.7,665.2C864.3,665.2 864.8,664.7 864.8,664.1L864.8,655C865,654.4 864.5,653.8 863.8,653.8ZM863.8,663.6C863.8,663.9 863.5,664.2 863.2,664.2L849.7,664.2C849.4,664.2 849.1,663.9 849.1,663.6L849.1,655.6C849.1,655.3 849.4,655 849.7,655L863.2,655C863.5,655 863.8,655.3 863.8,655.6L863.8,663.6Z" style="fill:rgb(0,61,125);fill-rule:nonzero;"/>
        <path id="path705" d="M866.2,672.3C866.5,672.6 865.9,672.8 865.5,672.8L847.2,672.8C846.8,672.8 846.2,672.7 846.5,672.3L849.1,669.6C849.4,669.3 849.7,669.1 850.3,669.1L862.1,669.1C863,669.1 863.1,669.3 863.5,669.6L866.2,672.3Z" style="fill:rgb(0,61,125);fill-rule:nonzero;"/>
    </g>
    <rect id="rect709" x="878.8" y="550.7" width="143" height="16.7" style="fill:none;"/>
    <g id="text711" transform="matrix(1,0,0,1,878.782,560.688)">
        <text x="0px" y="0px" style="font-family:'ArialMT', 'Arial', sans-serif;font-size:14px;fill:rgb(51,51,51);">Emergency Exit</text>
    </g>
    <g id="g727">
        <g id="g719">
            <g id="g717">
                <g id="g715">
                    <path id="path713" d="M892.1,505.9C883.5,505.9 876.6,512.8 876.6,521.4C876.6,530 883.5,536.9 892.1,536.9C900.7,536.9 907.6,530 907.6,521.4C907.6,512.8 900.7,505.9 892.1,505.9Z" style="fill:white;fill-rule:nonzero;stroke:rgb(0,61,125);stroke-width:1px;"/>
                </g>
            </g>
        </g>
        <g id="g725">
            <circle id="circle721" cx="892" cy="512.8" r="2.5" style="fill:rgb(0,61,125);"/>
            <path id="path723" d="M896.4,515.9C896.3,515.9 896.1,515.9 896,516C895.9,516 895.8,515.9 895.7,515.9L888.5,515.9C888.4,515.9 888.3,515.9 888.2,516C888.1,516 888,515.9 887.8,515.9C887.2,515.9 886.7,516.4 886.7,517L886.7,523.7C886.7,524.3 887.2,524.8 887.8,524.8C888.1,524.8 888.4,524.7 888.6,524.5L886.8,528.6L889.2,528.6L889.2,531.4C889.2,532.1 889.8,532.7 890.5,532.7C891.2,532.7 891.8,532.1 891.8,531.4L891.8,528.6L892.5,528.6L892.5,531.4C892.5,532.1 893.1,532.7 893.8,532.7C894.5,532.7 895.1,532.1 895.1,531.4L895.1,528.6L897.5,528.6L895.7,524.5C895.9,524.7 896.2,524.8 896.5,524.8C897.1,524.8 897.6,524.3 897.6,523.7L897.6,517C897.5,516.4 897,515.9 896.4,515.9Z" style="fill:rgb(0,61,125);fill-rule:nonzero;"/>
        </g>
    </g>
    <g id="g743">
        <g id="g735">
            <g id="g733">
                <g id="g731">
                    <path id="path729" d="M856.1,505.9C847.5,505.9 840.6,512.8 840.6,521.4C840.6,530 847.5,536.9 856.1,536.9C864.7,536.9 871.6,530 871.6,521.4C871.6,512.8 864.6,505.9 856.1,505.9Z" style="fill:white;fill-rule:nonzero;stroke:rgb(0,61,125);stroke-width:1px;"/>
                </g>
            </g>
        </g>
        <g id="g741">
            <circle id="circle737" cx="856" cy="512.7" r="2.5" style="fill:rgb(0,61,125);"/>
            <path id="path739" d="M860.3,515.8C860.2,515.8 860,515.8 859.9,515.9C859.8,515.9 859.7,515.8 859.6,515.8L852.4,515.8C852.3,515.8 852.2,515.8 852.1,515.9C852,515.9 851.9,515.8 851.7,515.8C851.1,515.8 850.6,516.3 850.6,516.9L850.6,523.6C850.6,524.2 851.1,524.7 851.7,524.7C852.3,524.7 852.8,524.2 852.8,523.6L852.8,522.9C852.8,523.1 852.9,523.3 853.1,523.4L853.1,531.3C853.1,532 853.7,532.6 854.4,532.6C855.1,532.6 855.7,532 855.7,531.3L855.7,525.4L856.4,525.4L856.4,531.3C856.4,532 857,532.6 857.7,532.6C858.4,532.6 859,532 859,531.3L859,523.4C859.2,523.3 859.3,523.1 859.3,522.9L859.3,523.6C859.3,524.2 859.8,524.7 860.4,524.7C861,524.7 861.5,524.2 861.5,523.6L861.5,516.9C861.4,516.3 860.9,515.8 860.3,515.8Z" style="fill:rgb(0,61,125);fill-rule:nonzero;"/>
        </g>
    </g>
    <g id="g759">
        <g id="g751">
            <g id="g749">
                <g id="g747">
                    <path id="path745" d="M554.1,207.1C545.5,207.1 538.6,214 538.6,222.6C538.6,231.2 545.5,238.1 554.1,238.1C562.7,238.1 569.6,231.2 569.6,222.6C569.6,214 562.6,207.1 554.1,207.1Z" style="fill:white;fill-rule:nonzero;stroke:rgb(0,61,125);stroke-width:1px;"/>
                </g>
            </g>
        </g>
        <g id="g757">
            <circle id="circle753" cx="554" cy="213.9" r="2.5" style="fill:rgb(0,61,125);"/>
            <path id="path755" d="M558.3,217.1C558.2,217.1 558,217.1 557.9,217.2C557.8,217.2 557.7,217.1 557.6,217.1L550.4,217.1C550.3,217.1 550.2,217.1 550.1,217.2C550,217.2 549.9,217.1 549.7,217.1C549.1,217.1 548.6,217.6 548.6,218.2L548.6,224.9C548.6,225.5 549.1,226 549.7,226C550,226 550.3,225.9 550.5,225.7L548.7,229.8L551.1,229.8L551.1,232.6C551.1,233.3 551.7,233.9 552.4,233.9C553.1,233.9 553.7,233.3 553.7,232.6L553.7,229.8L554.4,229.8L554.4,232.6C554.4,233.3 555,233.9 555.7,233.9C556.4,233.9 557,233.3 557,232.6L557,229.8L559.4,229.8L557.6,225.7C557.8,225.9 558.1,226 558.4,226C559,226 559.5,225.5 559.5,224.9L559.5,218.2C559.4,217.6 558.9,217.1 558.3,217.1Z" style="fill:rgb(0,61,125);fill-rule:nonzero;"/>
        </g>
    </g>
    <g id="g775">
        <g id="g767">
            <g id="g765">
                <g id="g763">
                    <path id="path761" d="M554,174C545.4,174 538.5,180.9 538.5,189.5C538.5,198.1 545.4,205 554,205C562.6,205 569.5,198.1 569.5,189.5C569.5,180.9 562.6,174 554,174Z" style="fill:white;fill-rule:nonzero;stroke:rgb(0,61,125);stroke-width:1px;"/>
                </g>
            </g>
        </g>
        <g id="g773">
            <circle id="circle769" cx="554" cy="180.7" r="2.5" style="fill:rgb(0,61,125);"/>
            <path id="path771" d="M558.3,183.9C558.2,183.9 558,183.9 557.9,184C557.8,184 557.7,183.9 557.6,183.9L550.4,183.9C550.3,183.9 550.2,183.9 550.1,184C550,184 549.9,183.9 549.7,183.9C549.1,183.9 548.6,184.4 548.6,185L548.6,191.7C548.6,192.3 549.1,192.8 549.7,192.8C550.3,192.8 550.8,192.3 550.8,191.7L550.8,191C550.8,191.2 550.9,191.4 551.1,191.5L551.1,199.4C551.1,200.1 551.7,200.7 552.4,200.7C553.1,200.7 553.7,200.1 553.7,199.4L553.7,193.5L554.4,193.5L554.4,199.4C554.4,200.1 555,200.7 555.7,200.7C556.4,200.7 557,200.1 557,199.4L557,191.5C557.2,191.4 557.3,191.2 557.3,191L557.3,191.7C557.3,192.3 557.8,192.8 558.4,192.8C559,192.8 559.5,192.3 559.5,191.7L559.5,185C559.4,184.4 558.9,183.9 558.3,183.9Z" style="fill:rgb(0,61,125);fill-rule:nonzero;"/>
        </g>
    </g>
    <rect id="rect777" x="949.7" y="514.3" width="140.4" height="16.7" style="fill:none;"/>
    <g id="text779" transform="matrix(1,0,0,1,949.724,524.277)">
        <text x="0px" y="0px" style="font-family:'ArialMT', 'Arial', sans-serif;font-size:14px;fill:rgb(51,51,51);">Restrooms</text>
    </g>
    <g id="g801">
        <g id="g783">
            <path id="path781" d="M927.7,505.9C919.1,505.9 912.2,512.8 912.2,521.4C912.2,530 919.1,536.9 927.7,536.9C936.3,536.9 943.2,530 943.2,521.4C943.2,512.8 936.3,505.9 927.7,505.9Z" style="fill:white;fill-rule:nonzero;stroke:rgb(0,61,125);stroke-width:1px;"/>
        </g>
        <g id="g787">
            <rect id="rect785" x="926.8" y="510" width="1.9" height="22.6" style="fill:rgb(0,61,125);"/>
        </g>
        <g id="g793">
            <circle id="circle789" cx="934.1" cy="513.6" r="2.1" style="fill:rgb(0,61,125);"/>
            <path id="path791" d="M937.9,516.3C937.8,516.3 937.7,516.3 937.6,516.4C937.5,516.4 937.4,516.3 937.3,516.3L931,516.3C930.9,516.3 930.8,516.3 930.7,516.4C930.6,516.4 930.5,516.3 930.4,516.3C929.9,516.3 929.4,516.7 929.4,517.3L929.4,523.1C929.4,523.6 929.8,524.1 930.4,524.1C930.9,524.1 931.4,523.7 931.4,523.1L931.4,522.5C931.4,522.7 931.5,522.9 931.6,523L931.6,529.8C931.6,530.4 932.1,530.9 932.7,530.9C933.3,530.9 933.8,530.4 933.8,529.8L933.8,523L934.4,523L934.4,529.7C934.4,530.3 934.9,530.8 935.5,530.8C936.1,530.8 936.6,530.3 936.6,529.7L936.6,523C936.7,522.9 936.8,522.7 936.8,522.5L936.8,523.1C936.8,523.6 937.2,524.1 937.8,524.1C938.3,524.1 938.8,523.7 938.8,523.1L938.8,517.3C938.8,516.7 938.4,516.3 937.9,516.3Z" style="fill:rgb(0,61,125);fill-rule:nonzero;"/>
        </g>
        <g id="g799">
            <circle id="circle795" cx="921" cy="513.6" r="2.1" style="fill:rgb(0,61,125);"/>
            <path id="path797" d="M924.8,516.3C924.7,516.3 924.6,516.3 924.5,516.4C924.4,516.4 924.3,516.3 924.2,516.3L918,516.3C917.9,516.3 917.8,516.3 917.7,516.4C917.6,516.4 917.5,516.3 917.4,516.3C916.9,516.3 916.4,516.7 916.4,517.3L916.4,523.1C916.4,523.6 916.8,524.1 917.4,524.1C917.7,524.1 917.9,524 918.1,523.8L917.4,527.4L918.6,527.4L918.6,529.8C918.6,530.4 919.1,530.9 919.7,530.9C920.3,530.9 920.8,530.4 920.8,529.8L920.8,527.4L921.4,527.4L921.4,529.8C921.4,530.4 921.9,530.9 922.5,530.9C923.1,530.9 923.6,530.4 923.6,529.8L923.6,527.4L924.8,527.4L924.1,523.8C924.3,524 924.5,524.1 924.8,524.1C925.3,524.1 925.8,523.7 925.8,523.1L925.8,517.3C925.7,516.7 925.3,516.3 924.8,516.3Z" style="fill:rgb(0,61,125);fill-rule:nonzero;"/>
        </g>
    </g>
    <g id="g819" transform="matrix(1,0,0,1,109,-127)">
        <g id="g805">
            <path id="path803" d="M411.6,256.2C403,256.2 396.1,263.1 396.1,271.7C396.1,280.3 403,287.2 411.6,287.2C420.2,287.2 427.1,280.3 427.1,271.7C427.1,263.2 420.1,256.2 411.6,256.2Z" style="fill:white;fill-rule:nonzero;stroke:rgb(0,61,125);stroke-width:1px;"/>
        </g>
        <rect id="rect807" x="404.3" y="261.2" width="14.5" height="10.3" style="fill:white;stroke:rgb(0,61,125);stroke-width:1px;"/>
        <path id="path809" d="M423,275.3C423,275.9 422.5,276.4 421.9,276.4L400.8,276.4C400.2,276.4 399.7,275.9 399.7,275.3L399.7,267.8C399.7,267.2 400.2,266.7 400.8,266.7L421.9,266.7C422.5,266.7 423,267.2 423,267.8L423,275.3Z" style="fill:rgb(0,61,125);fill-rule:nonzero;"/>
        <rect id="rect811" x="401.6" y="268.3" width="3" height="1.3" style="fill:white;"/>
        <rect id="rect813" x="404.3" y="271.7" width="14.5" height="10.3" style="fill:white;stroke:rgb(0,61,125);stroke-width:1px;"/>
        <rect id="rect815" x="406.3" y="273.5" width="10.2" height="2.3" style="fill:rgb(0,61,125);"/>
        <rect id="rect817" x="406.3" y="277.5" width="5.2" height="2.3" style="fill:rgb(0,61,125);"/>
    </g>
    <g id="g827">
        <path id="path821" d="M438.4,574.5C438.4,577.3 436.2,579.5 433.4,579.5L379.1,579.5C376.3,579.5 374.1,577.3 374.1,574.5L374.1,562.5C374.1,559.7 376.3,557.5 379.1,557.5L433.4,557.5C436.2,557.5 438.4,559.7 438.4,562.5L438.4,574.5Z" style="fill:white;fill-rule:nonzero;stroke:rgb(0,61,125);stroke-width:1px;"/>
        <rect id="rect823" x="376.5" y="565.1" width="59.3" height="7.7" style="fill:none;"/>
        <g id="text825" transform="matrix(1,0,0,1,380.401,571.993)">
            <text x="0px" y="0px" style="font-family:'ArialMT', 'Arial', sans-serif;font-size:9.712px;fill:rgb(0,61,125);">ENTRANCE</text>
        </g>
    </g>
    <g id="g845">
        <g id="g835">
            <g id="g833">
                <g id="g831">
                    <path id="path829" d="M856.1,541.6C847.5,541.6 840.6,548.5 840.6,557.1C840.6,565.7 847.5,572.6 856.1,572.6C864.7,572.6 871.6,565.7 871.6,557.1C871.6,548.5 864.7,541.6 856.1,541.6Z" style="fill:white;fill-rule:nonzero;stroke:rgb(0,61,125);stroke-width:1px;"/>
                </g>
            </g>
        </g>
        <g id="g843">
            <g id="g841">
                <circle id="circle837" cx="851.4" cy="551.7" r="2.2" style="fill:none;"/>
                <path id="path839" d="M866.6,563.3L860.4,557.1L860.4,554.6C860.3,554.7 860.3,554.8 860.2,554.9C859.8,555.3 859.1,555.3 858.6,554.9L856.9,553.2L856.1,554L866,563.9C866.4,564.3 866.4,565 866,565.5C865.6,565.9 864.9,565.9 864.4,565.5L858.1,559.2L856.4,560.9L858.9,563.4C859.3,563.8 859.3,564.5 858.9,565C858.5,565.4 857.8,565.4 857.3,565L854,561.7C853.8,561.5 853.7,561.2 853.7,560.9C853.7,560.6 853.8,560.3 854,560.1L855.7,558.4L853.6,556.3L851.8,558.1C851.6,558.3 851.3,558.4 851,558.4C850.7,558.4 850.4,558.3 850.2,558.1L847.8,555.7C847.4,555.3 847.4,554.6 847.8,554.1C848.2,553.7 848.9,553.7 849.4,554.1L851,555.7L855.9,550.8C856.3,550.4 857,550.4 857.4,550.8L859.9,553.3C860,553.4 860.1,553.5 860.1,553.6L860.1,546.7L846.9,546.7L846.9,567L860.1,567L860.1,562.7L863.5,566.1C864.3,566.9 865.6,566.9 866.3,566.1C867.4,565.3 867.4,564.1 866.6,563.3ZM851.4,549.5C852.6,549.5 853.6,550.5 853.6,551.7C853.6,552.9 852.6,553.9 851.4,553.9C850.2,553.9 849.2,552.9 849.2,551.7C849.3,550.5 850.2,549.5 851.4,549.5Z" style="fill:rgb(0,61,125);fill-rule:nonzero;"/>
            </g>
        </g>
    </g>
    <g id="g863">
        <g id="g853">
            <g id="g851">
                <g id="g849">
                    <path id="path847" d="M86,241.9C77.4,241.9 70.5,248.8 70.5,257.4C70.5,266 77.4,272.9 86,272.9C94.6,272.9 101.5,266 101.5,257.4C101.5,248.9 94.6,241.9 86,241.9Z" style="fill:white;fill-rule:nonzero;stroke:rgb(0,61,125);stroke-width:1px;"/>
                </g>
            </g>
        </g>
        <g id="g861">
            <g id="g859">
                <circle id="circle855" cx="81.4" cy="252.1" r="2.2" style="fill:none;"/>
                <path id="path857" d="M96.5,263.6L90.3,257.4L90.3,255C90.2,255.1 90.2,255.2 90.1,255.3C89.7,255.7 89,255.7 88.5,255.3L86.8,253.6L86,254.4L95.9,264.3C96.3,264.7 96.3,265.4 95.9,265.9C95.5,266.3 94.8,266.3 94.3,265.9L88,259.6L86.3,261.3L88.8,263.8C89.2,264.2 89.2,264.9 88.8,265.4C88.4,265.8 87.7,265.8 87.2,265.4L83.9,262.1C83.7,261.9 83.6,261.6 83.6,261.3C83.6,261 83.7,260.7 83.9,260.5L85.6,258.8L83.5,256.7L81.7,258.5C81.5,258.7 81.2,258.8 80.9,258.8C80.6,258.8 80.3,258.7 80.1,258.5L77.7,256.1C77.3,255.7 77.3,255 77.7,254.5C78.1,254.1 78.8,254.1 79.3,254.5L80.9,256.1L85.8,251.2C86.2,250.8 86.9,250.8 87.3,251.2L89.8,253.7C89.9,253.8 90,253.9 90,254L90,247.1L77,247.1L77,267.4L90.2,267.4L90.2,263.1L93.6,266.5C94.4,267.3 95.7,267.3 96.4,266.5C97.3,265.7 97.3,264.4 96.5,263.6ZM81.4,249.9C82.6,249.9 83.6,250.9 83.6,252.1C83.6,253.3 82.6,254.3 81.4,254.3C80.2,254.3 79.2,253.3 79.2,252.1C79.2,250.9 80.1,249.9 81.4,249.9Z" style="fill:rgb(0,61,125);fill-rule:nonzero;"/>
            </g>
        </g>
    </g>
    <g id="g881">
        <g id="g871">
            <g id="g869">
                <g id="g867">
                    <path id="path865" d="M688.3,401.6C679.7,401.6 672.8,408.5 672.8,417.1C672.8,425.7 679.7,432.6 688.3,432.6C696.9,432.6 703.8,425.7 703.8,417.1C703.8,408.5 696.9,401.6 688.3,401.6Z" style="fill:white;fill-rule:nonzero;stroke:rgb(0,61,125);stroke-width:1px;"/>
                </g>
            </g>
        </g>
        <g id="g879">
            <g id="g877">
                <circle id="circle873" cx="683.7" cy="411.7" r="2.2" style="fill:none;"/>
                <path id="path875" d="M698.8,423.3L692.6,417.1L692.6,414.6C692.5,414.7 692.5,414.8 692.4,414.9C692,415.3 691.3,415.3 690.8,414.9L689.1,413.2L688.3,414L698.2,423.9C698.6,424.3 698.6,425 698.2,425.5C697.8,425.9 697.1,425.9 696.6,425.5L690.3,419.2L688.6,420.9L691.1,423.4C691.5,423.8 691.5,424.5 691.1,425C690.7,425.4 690,425.4 689.5,425L686.2,421.7C686,421.5 685.9,421.2 685.9,420.9C685.9,420.6 686,420.3 686.2,420.1L687.9,418.4L685.8,416.3L684,418.1C683.8,418.3 683.5,418.4 683.2,418.4C682.9,418.4 682.6,418.3 682.4,418.1L680,415.7C679.6,415.3 679.6,414.6 680,414.1C680.4,413.7 681.1,413.7 681.6,414.1L683.2,415.7L688.1,410.8C688.5,410.4 689.2,410.4 689.6,410.8L692.1,413.3C692.2,413.4 692.3,413.5 692.3,413.6L692.3,406.7L679.1,406.7L679.1,427L692.3,427L692.3,422.7L695.7,426.1C696.5,426.9 697.8,426.9 698.5,426.1C699.6,425.4 699.6,424.1 698.8,423.3ZM683.7,409.5C684.9,409.5 685.9,410.5 685.9,411.7C685.9,412.9 684.9,413.9 683.7,413.9C682.5,413.9 681.5,412.9 681.5,411.7C681.5,410.5 682.5,409.5 683.7,409.5Z" style="fill:rgb(0,61,125);fill-rule:nonzero;"/>
            </g>
        </g>
    </g>
    <g id="g893">
        <g id="g887">
            <path id="path885" d="M431.9,101.8C423.3,101.8 416.4,108.7 416.4,117.3C416.4,125.9 423.3,132.8 431.9,132.8C440.5,132.8 447.4,125.9 447.4,117.3C447.4,108.7 440.4,101.8 431.9,101.8Z" style="fill:white;fill-rule:nonzero;stroke:rgb(0,61,125);stroke-width:1px;"/>
        </g>
        <path id="path889" d="M439.3,107.1L424.6,107.1C424,107.1 423.5,107.6 423.5,108.2L423.5,117.4C423.5,118 424,118.5 424.6,118.5L430.1,118.5L430.1,120L427.5,120L427.5,121.1L436.3,121.1L436.3,120L433.7,120L433.7,118.5L439.2,118.5C439.8,118.5 440.3,118 440.3,117.4L440.3,108.2C440.5,107.6 439.9,107.1 439.3,107.1ZM439.3,116.9C439.3,117.2 439,117.5 438.7,117.5L425.2,117.5C424.9,117.5 424.6,117.2 424.6,116.9L424.6,108.9C424.6,108.6 424.9,108.3 425.2,108.3L438.7,108.3C439,108.3 439.3,108.6 439.3,108.9L439.3,116.9Z" style="fill:rgb(0,61,125);fill-rule:nonzero;"/>
        <path id="path891" d="M441.7,125.5C442,125.8 441.4,126 441,126L422.7,126C422.3,126 421.7,125.9 422,125.5L424.6,122.8C424.9,122.5 425.2,122.3 425.8,122.3L437.6,122.3C438.5,122.3 438.6,122.5 439,122.8L441.7,125.5Z" style="fill:rgb(0,61,125);fill-rule:nonzero;"/>
    </g>
    <g id="text2331" serif:id="text233" transform="matrix(1,0,0,1,868.6,454.895)">
        <text x="0px" y="0px" style="font-family:'ArialMT', 'Arial', sans-serif;font-size:14px;fill:rgb(51,51,51);">21.</text>
    </g>
    <g id="text2371" serif:id="text237" transform="matrix(1,0,0,1,896.909,454.873)">
        <text x="0px" y="0px" style="font-family:'ArialMT', 'Arial', sans-serif;font-size:14px;fill:rgb(51,51,51);">Games</text>
    </g>
</svg>
