<svg xmlns="http://www.w3.org/2000/svg" viewBox="0 0 1106.45 767.72"><defs><style>.cls-1,.cls-10,.cls-12,.cls-17{fill:#003d7d;}.cls-1{stroke:#e6e6e6;}.cls-1,.cls-11,.cls-13,.cls-3{stroke-miterlimit:10;}.cls-2{fill:#e6e6e6;}.cls-13,.cls-18,.cls-3{fill:none;}.cls-13,.cls-3{stroke:#333;}.cls-3{stroke-width:3px;}.cls-4{font-size:14px;}.cls-14,.cls-4,.cls-7{fill:#333;}.cls-12,.cls-17,.cls-4,.cls-7,.cls-8{font-family:HelveticaNeue, Helvetica Neue;}.cls-5{letter-spacing:-0.02em;}.cls-6{letter-spacing:-0.11em;}.cls-7{font-size:30px;}.cls-8{font-size:20px;fill:#ccc;}.cls-9{letter-spacing:-0.02em;}.cls-11,.cls-15{fill:#fff;}.cls-11{stroke:#003d7d;}.cls-12{font-size:13.71px;}.cls-16{letter-spacing:-0.03em;}.cls-17{font-size:9.71px;}</style></defs><title>library-map-v2019-01_SecondFloor</title><g id="_2nd_Floor_-_Vector" data-name="2nd Floor - Vector"><polygon class="cls-1" points="299.29 433.49 299.29 431.33 299.29 430.99 299.29 394.99 299.29 336.83 266.29 336.83 237.62 336.83 237.62 336.83 237.62 337.16 237.87 337.16 237.87 353.16 218.54 353.16 218.54 452.16 237.62 452.16 237.62 452.49 237.87 452.49 237.87 468.16 299.29 468.16 299.29 433.49"/><rect class="cls-1" x="217.87" y="352.83" width="21.88" height="72.81"/><rect class="cls-1" x="217.87" y="425.64" width="21.88" height="27.13"/><polygon class="cls-2" points="739.42 435.74 739.42 399.24 672.92 399.24 649.42 399.24 649.42 452.41 618.76 452.41 524.79 452.41 524.79 401.08 524.79 363.99 524.79 338.74 524.79 308.41 524.79 273.08 577.09 273.08 577.09 241.99 533.92 241.99 524.79 241.99 523.92 241.99 490.92 241.99 490.92 216.49 490.92 208.77 490.92 190.49 490.92 163.49 490.92 130.24 441.92 130.24 441.11 130.24 104.92 130.24 104.92 109.74 94.42 109.74 94.42 175.74 94.42 212.49 94.42 244.74 37.09 244.74 37.09 272.21 94.42 272.21 94.42 337.08 237.5 337.08 237.5 336.74 237.5 336.74 266.17 336.74 266.17 310.08 349.17 310.08 349.17 394.91 299.17 394.91 299.17 430.91 299.17 431.24 354.92 431.24 354.92 468.08 344.42 468.41 344.42 592.41 443.42 592.41 443.42 557.83 443.54 557.83 443.54 510.83 443.42 510.83 443.42 510.74 443.42 510.74 443.42 472.61 739.42 472.61 739.42 468.41 739.42 452.41 672.92 452.41 672.92 435.74 739.42 435.74"/><rect class="cls-2" x="491.04" y="130.33" width="86.17" height="33.25"/><rect class="cls-1" x="218.54" y="452.16" width="19.08" height="0.33"/><polygon class="cls-1" points="649.54 343.49 649.54 399.33 739.54 399.33 739.54 328.83 739.54 273.16 649.54 273.16 649.54 308.49 649.54 343.49"/><rect class="cls-1" x="534.04" y="163.58" width="43.17" height="12"/><rect class="cls-1" x="395.87" y="287.83" width="30.67" height="31.33"/><polygon class="cls-1" points="349.29 336.83 349.29 310.16 266.29 310.16 266.29 336.83 299.29 336.83 349.29 336.83"/><polygon class="cls-1" points="237.87 353.16 237.87 337.16 237.62 337.16 237.62 352.83 237.62 352.83 218.29 352.83 218.29 452.16 218.54 452.16 218.54 353.16 237.87 353.16"/><rect class="cls-1" x="237.62" y="452.49" width="0.25" height="15.67"/><rect class="cls-1" x="299.29" y="336.83" width="50" height="58.17"/><polygon class="cls-1" points="237.87 468.49 156.54 468.49 156.54 592.49 344.54 592.49 344.54 539.83 344.54 468.49 237.87 468.49"/><rect class="cls-1" x="468.91" y="385.49" width="39.63" height="60.33"/><rect class="cls-1" x="37.21" y="272.29" width="57.33" height="64.87"/><rect class="cls-1" x="37.21" y="212.58" width="57.33" height="32.25"/><rect class="cls-1" x="37.21" y="175.83" width="57.33" height="36.75"/><rect class="cls-1" x="37.21" y="109.83" width="57.33" height="66"/><polygon class="cls-1" points="491.04 130.33 577.21 130.33 577.21 109.83 105.04 109.83 105.04 130.33 491.04 130.33"/><polygon class="cls-1" points="299.29 468.16 355.04 468.16 355.04 431.33 299.29 431.33 299.29 433.49 299.29 468.16"/><polygon class="cls-1" points="534.04 216.58 491.04 216.58 491.04 242.08 524.04 242.08 524.91 242.08 534.04 242.08 577.21 242.08 577.21 205.58 534.04 205.58 534.04 216.58"/><polygon class="cls-1" points="534.04 205.58 534.04 190.58 491.04 190.58 491.04 216.58 534.04 216.58 534.04 205.58"/><polygon class="cls-1" points="534.04 163.58 491.04 163.58 491.04 190.58 534.04 190.58 534.04 205.58 577.21 205.58 577.21 175.58 534.04 175.58 534.04 163.58"/><rect class="cls-1" x="524.91" y="338.83" width="56.63" height="25.25"/><polygon class="cls-1" points="714.54 435.83 673.04 435.83 673.04 452.49 739.54 452.49 739.54 435.83 714.54 435.83"/><polygon class="cls-1" points="524.91 308.49 581.54 308.49 581.54 273.16 577.21 273.16 524.91 273.16 524.91 308.49"/><polygon class="cls-1" points="618.87 308.49 649.54 308.49 649.54 273.16 581.54 273.16 581.54 308.49 618.87 308.49"/><rect class="cls-1" x="618.87" y="308.49" width="30.67" height="35"/><polygon class="cls-1" points="618.87 364.08 618.87 381.16 649.54 381.16 649.54 343.49 618.87 343.49 618.87 364.08"/><polygon class="cls-1" points="618.87 401.16 618.87 415.66 649.54 415.66 649.54 381.16 618.87 381.16 618.87 401.16"/><rect class="cls-1" x="618.87" y="415.66" width="30.67" height="36.83"/><polygon class="cls-1" points="618.87 401.16 524.91 401.16 524.91 452.49 618.87 452.49 618.87 415.66 618.87 401.16"/><polygon class="cls-1" points="618.87 381.16 618.87 364.08 581.54 364.08 524.91 364.08 524.91 401.16 618.87 401.16 618.87 381.16"/><polygon class="cls-1" points="581.54 364.08 618.87 364.08 618.87 343.49 618.87 308.49 581.54 308.49 581.54 338.83 581.54 364.08"/><rect class="cls-1" x="524.91" y="308.49" width="56.63" height="30.33"/><polygon class="cls-1" points="443.54 472.69 443.54 510.83 443.54 533.92 443.54 557.83 443.54 569.16 443.54 585.16 646.54 585.16 739.54 585.16 739.54 472.69 443.54 472.69"/><polygon class="cls-3" points="739.54 273.49 577.21 273.49 577.21 110.16 37.21 110.16 37.21 337.49 237.87 337.49 237.87 353.49 218.54 353.49 218.54 452.83 237.87 452.83 237.87 468.83 156.54 468.83 156.54 592.83 443.54 593.16 443.54 585.16 739.54 585.49 739.54 273.49"/></g><g id="Key_-_2nd_Floor" data-name="Key - 2nd Floor"><polygon class="cls-1" points="426.54 146.94 358.3 146.94 358.3 147.08 318.29 147.08 318.29 146.95 105.29 146.95 105.29 300.83 310.58 300.83 318.29 300.83 360.79 300.83 360.79 256.87 426.54 256.87 426.54 146.94"/><text class="cls-4" transform="translate(877.03 97.16)">1.</text><text class="cls-4" transform="translate(877.03 133.44)">3.</text><text class="cls-4" transform="translate(877.03 151.58)">4. </text><text class="cls-4" transform="translate(877.03 169.72)">5.</text><text class="cls-4" transform="translate(877.03 187.87)">6. </text><text class="cls-4" transform="translate(877.03 115.3)">2.</text><text class="cls-4" transform="translate(877.03 206.01)">7.</text><text class="cls-4" transform="translate(877.03 224.15)">8.</text><text class="cls-4" transform="translate(877.03 242.29)">9.</text><text class="cls-4" transform="translate(869.39 260.43)">10.</text><text class="cls-4" transform="translate(869.25 278.56)">11.</text><text class="cls-4" transform="translate(869.25 314.84)">13.</text><text class="cls-4" transform="translate(869.25 296.7)">12.</text><text class="cls-4" transform="translate(869.25 332.98)">14.</text><text class="cls-4" transform="translate(897.56 97.16)">G<tspan class="cls-5" x="10.63" y="0">r</tspan><tspan x="15.04" y="0">oup Study 207</tspan></text><text class="cls-4" transform="translate(897.56 133.44)">G<tspan class="cls-5" x="10.63" y="0">r</tspan><tspan x="15.04" y="0">oup Study 209</tspan></text><text class="cls-4" transform="translate(897.56 151.58)">G<tspan class="cls-5" x="10.63" y="0">r</tspan><tspan x="15.04" y="0">oup Study 210</tspan></text><text class="cls-4" transform="translate(897.56 169.72)">Books P-PZ</text><text class="cls-4" transform="translate(897.56 187.87)">Library Administration O<tspan class="cls-5" x="151.7" y="0">f</tspan><tspan x="155.59" y="0">fice</tspan></text><text class="cls-4" transform="translate(897.56 115.3)">G<tspan class="cls-5" x="10.63" y="0">r</tspan><tspan x="15.04" y="0">oup Study 208</tspan></text><text class="cls-4" transform="translate(897.56 206.01)">Films A-Z</text><text class="cls-4" transform="translate(897.56 224.15)"><tspan class="cls-6">T</tspan><tspan x="6.48" y="0">echnology Support</tspan></text><text class="cls-4" transform="translate(897.56 242.29)">O<tspan class="cls-5" x="10.64" y="0">f</tspan><tspan x="14.53" y="0">fice 215</tspan></text><text class="cls-4" transform="translate(897.56 260.43)">O<tspan class="cls-5" x="10.64" y="0">f</tspan><tspan x="14.53" y="0">fice 217</tspan></text><text class="cls-4" transform="translate(897.56 278.56)">Library Confe<tspan class="cls-5" x="84.52" y="0">r</tspan><tspan x="88.93" y="0">ence Room</tspan></text><text class="cls-4" transform="translate(897.56 314.84)">O<tspan class="cls-5" x="10.64" y="0">f</tspan><tspan x="14.53" y="0">fice 219</tspan></text><text class="cls-4" transform="translate(897.56 296.7)">Fitzpatrick Reading Room</text><text class="cls-4" transform="translate(897.56 332.98)">Ci<tspan class="cls-5" x="13.22" y="0">r</tspan><tspan x="17.63" y="0">culation O</tspan><tspan class="cls-5" x="81.42" y="0">f</tspan><tspan x="85.32" y="0">fice</tspan></text><text class="cls-4" transform="translate(869.25 350.86)">15.</text><text class="cls-4" transform="translate(897.56 350.86)">O<tspan class="cls-5" x="10.64" y="0">f</tspan><tspan x="14.53" y="0">fice 222</tspan></text><text class="cls-4" transform="translate(869.25 369.24)">16.</text><text class="cls-4" transform="translate(897.56 369.24)">Allen Reading Room</text><text class="cls-4" transform="translate(869.25 386.99)">17.</text><text class="cls-4" transform="translate(869.25 405.49)">18.</text><text class="cls-4" transform="translate(897.56 387.47)">Ci<tspan class="cls-5" x="13.22" y="0">r</tspan><tspan x="17.63" y="0">culation Desk</tspan></text><text class="cls-4" transform="translate(897.56 405.46)">Refe<tspan class="cls-5" x="28.77" y="0">r</tspan><tspan x="33.18" y="0">ence Collection</tspan></text><text class="cls-4" transform="translate(869.25 422.35)">19.</text><text class="cls-4" transform="translate(897.56 422.33)">Popular Literatu<tspan class="cls-5" x="99.57" y="0">r</tspan><tspan x="103.98" y="0">e</tspan></text><text class="cls-4" transform="translate(869.25 440.33)">20.</text><text class="cls-4" transform="translate(897.56 440.31)">O<tspan class="cls-5" x="10.64" y="0">f</tspan><tspan x="14.53" y="0">fice 223</tspan></text><text class="cls-4" transform="translate(869.25 457.09)">21.</text><text class="cls-4" transform="translate(897.56 457.07)">Games</text><text class="cls-7" transform="translate(846.21 64.19)">Second Floor</text><text class="cls-8" transform="translate(846.21 34.05)">Penrose Library</text><rect class="cls-10" x="846.34" y="87.17" width="14" height="370.7"/><path class="cls-11" d="M323.89,349.1a15.71,15.71,0,1,0,15.71,15.71A15.71,15.71,0,0,0,323.89,349.1Z" transform="translate(0.65 1.44)"/><path class="cls-10" d="M332.67,368.6a1,1,0,0,0-1-1H327V362.9h0a1,1,0,0,0-1-1h-4.71v-4.71h0a1,1,0,0,0-1-1h-5.71a1,1,0,0,0,0,2h4.72v4.7h0a1,1,0,0,0,.08.39,1,1,0,0,0,.91.6H325v4.72h0a1,1,0,0,0,1,1h4.72v4.71a1,1,0,0,0,2,0v-5.69Z" transform="translate(0.65 1.44)"/><path class="cls-11" d="M53.79,241.72A15.71,15.71,0,1,0,69.5,257.43,15.7,15.7,0,0,0,53.79,241.72Z" transform="translate(0.65 1.44)"/><path class="cls-10" d="M62.58,261.21a1,1,0,0,0-1-1H56.87v-4.7h0a1,1,0,0,0-1-1H51.16v-4.71h0a1,1,0,0,0-1-1h-5.7a1,1,0,0,0,0,2h4.71v4.71h0a1,1,0,0,0,.08.38,1,1,0,0,0,.91.61h4.72v4.71h0a1,1,0,0,0,1,1h4.71v4.72a1,1,0,0,0,2,0v-5.7Z" transform="translate(0.65 1.44)"/><path class="cls-11" d="M554.84,240.72a15.71,15.71,0,1,0,15.71,15.71A15.71,15.71,0,0,0,554.84,240.72Z" transform="translate(0.65 1.44)"/><path class="cls-10" d="M563.62,260.21a1,1,0,0,0-1-1h-4.72v-4.7h0a1,1,0,0,0-1-1h-4.71v-4.71h0a1,1,0,0,0-1-1h-5.71a1,1,0,0,0,0,2h4.72v4.71h0a1,1,0,0,0,.07.38,1,1,0,0,0,.92.61h4.71v4.71h0a1,1,0,0,0,1,1h4.72v4.72a1,1,0,0,0,2,0v-5.7Z" transform="translate(0.65 1.44)"/><path class="cls-11" d="M720.53,400.43a15.71,15.71,0,1,0,15.71,15.71A15.71,15.71,0,0,0,720.53,400.43Z" transform="translate(0.65 1.44)"/><path class="cls-10" d="M729.32,419.93a1,1,0,0,0-1-1h-4.72v-4.71h0a1,1,0,0,0-1-1H717.9v-4.7h0a1,1,0,0,0-1-1h-5.7a1,1,0,0,0,0,2h4.71v4.71h0a1,1,0,0,0,.08.39,1,1,0,0,0,.91.61h4.72v4.71h0a1,1,0,0,0,1,1h4.71v4.72a1,1,0,0,0,2,0v-5.7Z" transform="translate(0.65 1.44)"/><path class="cls-11" d="M511.89,186.68a15.71,15.71,0,1,0,15.71,15.71A15.71,15.71,0,0,0,511.89,186.68Z" transform="translate(0.65 1.44)"/><path class="cls-10" d="M510,202.33a1.06,1.06,0,1,1-2.11,0,1.06,1.06,0,0,1,2.11,0Z" transform="translate(0.65 1.44)"/><path class="cls-10" d="M507.65,207.06a.42.42,0,0,1-.42.43h-.07a.43.43,0,0,1-.43-.43v-2.84a.3.3,0,0,1,0-.1.5.5,0,0,1,.47-.44h3.59a.52.52,0,0,1,.48.56v2.82a.43.43,0,0,1-.43.43h-.06a.43.43,0,0,1-.43-.43v3.18a.6.6,0,0,1-.61.6h-.1a.6.6,0,0,1-.6-.6v-2.92H509v2.92a.6.6,0,0,1-.61.6h-.09a.6.6,0,0,1-.61-.6Z" transform="translate(0.65 1.44)"/><path class="cls-10" d="M515.79,202.33a1.06,1.06,0,1,1-2.11,0,1.06,1.06,0,0,1,2.11,0Z" transform="translate(0.65 1.44)"/><path class="cls-10" d="M513.41,207.06a.43.43,0,0,1-.43.43h-.07a.42.42,0,0,1-.42-.43v-2.84a.31.31,0,0,1,0-.1.51.51,0,0,1,.47-.44h3.59a.53.53,0,0,1,.49.56.13.13,0,0,1,0,.06v2.76a.42.42,0,0,1-.42.43h-.07a.43.43,0,0,1-.43-.43v3.18a.6.6,0,0,1-.61.6h-.09a.6.6,0,0,1-.61-.6v-2.92h-.09v2.92a.6.6,0,0,1-.61.6H514a.6.6,0,0,1-.61-.6Z" transform="translate(0.65 1.44)"/><path class="cls-10" d="M518.43,197.34H505.35a1.37,1.37,0,0,0-1.37,1.37v13.08a1.37,1.37,0,0,0,1.37,1.37h13.08a1.37,1.37,0,0,0,1.37-1.37V198.71A1.37,1.37,0,0,0,518.43,197.34Zm-.35,14.1H505.7V199.06h12.38Z" transform="translate(0.65 1.44)"/><path class="cls-10" d="M515.15,196.25l0,0,.08.06.06,0,.05,0,.08,0h0l.11,0h0l.11,0h0l.08,0,0,0,.06,0,.09-.07h0l2.38-2.38a.66.66,0,0,0-.93-.93l-1.25,1.26v-3.44a.67.67,0,0,0-.66-.66.67.67,0,0,0-.66.66v3.44l-1.26-1.26a.64.64,0,0,0-.92,0,.65.65,0,0,0,0,.93l2.38,2.38Z" transform="translate(0.65 1.44)"/><path class="cls-10" d="M508.63,190.3a0,0,0,0,0,0,0,.21.21,0,0,0-.08-.06l-.06,0-.05,0s-.05,0-.08,0H508l-.08,0-.05,0-.06,0a.31.31,0,0,0-.09.07,0,0,0,0,0,0,0h0l-2.38,2.38a.65.65,0,1,0,.92.92l1.26-1.26v3.44a.66.66,0,0,0,.66.66.65.65,0,0,0,.65-.66v-3.44l1.27,1.26a.65.65,0,0,0,.92-.92l-2.38-2.38Z" transform="translate(0.65 1.44)"/><path class="cls-11" d="M571.24,413.19a11,11,0,1,0,11,11A11,11,0,0,0,571.24,413.19Z" transform="translate(0.65 1.44)"/><text class="cls-12" transform="translate(564.13 430.5)">14</text><path class="cls-11" d="M633.56,421.2a11,11,0,1,0,11,11A11,11,0,0,0,633.56,421.2Z" transform="translate(0.65 1.44)"/><text class="cls-12" transform="translate(626.45 438.51)">15</text><path class="cls-11" d="M633.56,386.88a11,11,0,1,0,11,11A11,11,0,0,0,633.56,386.88Z" transform="translate(0.65 1.44)"/><text class="cls-12" transform="translate(626.45 404.19)">20</text><path class="cls-11" d="M249.89,519.47a11,11,0,1,0,11,11A11,11,0,0,0,249.89,519.47Z" transform="translate(0.65 1.44)"/><text class="cls-12" transform="translate(242.78 536.78)">16</text><path class="cls-11" d="M488.08,403.21a11,11,0,1,0,11,11A11,11,0,0,0,488.08,403.21Z" transform="translate(0.65 1.44)"/><text class="cls-12" transform="translate(480.97 420.52)">17</text><path class="cls-11" d="M590.42,520.17a11,11,0,1,0,11,11A11,11,0,0,0,590.42,520.17Z" transform="translate(0.65 1.44)"/><text class="cls-12" transform="translate(583.31 537.48)">18</text><path class="cls-11" d="M63.47,125.79a11,11,0,1,0,11,11A11,11,0,0,0,63.47,125.79Z" transform="translate(0.65 1.44)"/><text class="cls-12" transform="translate(60.18 143.1)">1</text><path class="cls-11" d="M63.34,181.76a11,11,0,1,0,11,11A11,11,0,0,0,63.34,181.76Z" transform="translate(0.65 1.44)"/><text class="cls-12" transform="translate(60.04 199.06)">2</text><path class="cls-11" d="M63.2,215.08a11,11,0,1,0,11,11A11,11,0,0,0,63.2,215.08Z" transform="translate(0.65 1.44)"/><text class="cls-12" transform="translate(59.91 232.39)">3</text><path class="cls-11" d="M65.22,291.75a11,11,0,1,0,11,11A11,11,0,0,0,65.22,291.75Z" transform="translate(0.65 1.44)"/><text class="cls-12" transform="translate(61.93 309.06)">4</text><path class="cls-11" d="M267.66,195.62a11,11,0,1,0,11,11A11,11,0,0,0,267.66,195.62Z" transform="translate(0.65 1.44)"/><text class="cls-12" transform="translate(264.36 212.93)">5</text><path class="cls-11" d="M580.89,278.38a11,11,0,1,0,11,11A11,11,0,0,0,580.89,278.38Z" transform="translate(0.65 1.44)"/><text class="cls-12" transform="translate(577.59 295.69)">6</text><path class="cls-11" d="M271.41,390.05a11,11,0,1,0,11,11A11,11,0,0,0,271.41,390.05Z" transform="translate(0.65 1.44)"/><text class="cls-12" transform="translate(268.12 407.36)">7</text><path class="cls-11" d="M410.56,291.05a11,11,0,1,0,11,11A11,11,0,0,0,410.56,291.05Z" transform="translate(0.65 1.44)"/><text class="cls-12" transform="translate(407.26 308.36)">8</text><path class="cls-11" d="M552.44,338.71a11,11,0,1,0,11,11A11,11,0,0,0,552.44,338.71Z" transform="translate(0.65 1.44)"/><text class="cls-12" transform="translate(545.33 356.02)">10</text><path class="cls-11" d="M599.56,324.38a11,11,0,1,0,11,11A11,11,0,0,0,599.56,324.38Z" transform="translate(0.65 1.44)"/><text class="cls-12" transform="translate(592.45 341.69)">11</text><path class="cls-11" d="M693.14,325.08a11,11,0,1,0,11,11A11,11,0,0,0,693.14,325.08Z" transform="translate(0.65 1.44)"/><text class="cls-12" transform="translate(686.03 342.39)">12</text><path class="cls-11" d="M571.24,370.72a11,11,0,1,0,11,11A11,11,0,0,0,571.24,370.72Z" transform="translate(0.65 1.44)"/><text class="cls-12" transform="translate(564.13 388.02)">13</text><path class="cls-11" d="M552.57,311.05a11,11,0,1,0,11,11A11,11,0,0,0,552.57,311.05Z" transform="translate(0.65 1.44)"/><text class="cls-12" transform="translate(549.28 328.36)">9</text><rect class="cls-13" x="0.5" y="0.5" width="1105.45" height="766.72"/><path class="cls-11" d="M365.73,361.28a15.5,15.5,0,1,0,15.5,15.5A15.5,15.5,0,0,0,365.73,361.28Z" transform="translate(0.65 1.44)"/><path class="cls-10" d="M373,370.17h-7.5v-1.57l5-1.58v-1.23L358,367.46a1.08,1.08,0,0,0-1.08,1.08v4.61h17.16v-1.9A1.08,1.08,0,0,0,373,370.17Z" transform="translate(0.65 1.44)"/><polygon class="cls-10" points="378.55 374.71 374.74 375.66 374.74 375.67 369.16 375.67 369.16 376.83 363.16 376.83 363.16 375.67 357.61 375.67 357.61 381.36 374.77 381.36 374.77 377.36 378.55 375.61 378.55 374.71"/><path class="cls-10" d="M377.86,380.12l-3.74.94v0h-5.61v1.16h-6V381H357v4.62a1.08,1.08,0,0,0,1.08,1.08h15a1.08,1.08,0,0,0,1.08-1.08v-2.9l3.74-1.73Z" transform="translate(0.65 1.44)"/><path class="cls-11" d="M365.73,321.89a15.5,15.5,0,1,0,15.5,15.5A15.5,15.5,0,0,0,365.73,321.89Z" transform="translate(0.65 1.44)"/><path class="cls-10" d="M354.55,343a1.73,1.73,0,0,0,1.73,1.73H375a1.73,1.73,0,0,0,1.73-1.73v-3.31H354.55ZM371,341.21h3.54a.63.63,0,0,1,0,1.26H371a.63.63,0,0,1,0-1.26Zm-2.44,0a.63.63,0,0,1,0,1.26.63.63,0,0,1,0-1.26Z" transform="translate(0.65 1.44)"/><path class="cls-10" d="M375.87,337l-17.15-7.5a1.72,1.72,0,0,0-2.28.89l20.33,8.89A1.74,1.74,0,0,0,375.87,337Z" transform="translate(0.65 1.44)"/><path class="cls-11" d="M217.89,101.89a15.5,15.5,0,1,0,15.5,15.5A15.49,15.49,0,0,0,217.89,101.89Z" transform="translate(0.65 1.44)"/><path class="cls-10" d="M225.31,107.21h-14.7a1.14,1.14,0,0,0-1.14,1.15v9.24a1.14,1.14,0,0,0,1.14,1.14h5.51v1.51h-2.58v1.12h8.85v-1.12H219.8v-1.51h5.51a1.14,1.14,0,0,0,1.15-1.14v-9.24A1.14,1.14,0,0,0,225.31,107.21Zm0,9.78a.58.58,0,0,1-.57.58H211.19a.58.58,0,0,1-.58-.58v-8a.58.58,0,0,1,.58-.58h13.55a.58.58,0,0,1,.57.58Z" transform="translate(0.65 1.44)"/><path class="cls-10" d="M227.7,125.63c.33.28-.3.49-.66.49H208.75c-.36,0-1-.1-.65-.49l2.61-2.69a1.45,1.45,0,0,1,1.18-.49h11.78a1.59,1.59,0,0,1,1.41.49Z" transform="translate(0.65 1.44)"/><path class="cls-11" d="M468.26,286.56a15.5,15.5,0,1,0,15.5,15.5A15.5,15.5,0,0,0,468.26,286.56Z" transform="translate(0.65 1.44)"/><path class="cls-10" d="M475.69,291.88H461a1.15,1.15,0,0,0-1.15,1.15v9.24a1.15,1.15,0,0,0,1.15,1.15h5.51v1.5h-2.58V306h8.84v-1.12h-2.58v-1.5h5.51a1.16,1.16,0,0,0,1.15-1.15V293A1.16,1.16,0,0,0,475.69,291.88Zm0,9.79a.58.58,0,0,1-.58.57H461.56a.58.58,0,0,1-.57-.57v-8a.57.57,0,0,1,.57-.57h13.55a.57.57,0,0,1,.58.57Z" transform="translate(0.65 1.44)"/><path class="cls-10" d="M478.07,310.3c.34.28-.29.49-.65.49H459.13c-.37,0-1-.1-.66-.49l2.62-2.68a1.4,1.4,0,0,1,1.18-.49h11.78a1.55,1.55,0,0,1,1.4.49Z" transform="translate(0.65 1.44)"/><text class="cls-4" transform="translate(870.67 490.36)">Limited Access A<tspan class="cls-5" x="108.65" y="0">r</tspan><tspan x="113.06" y="0">eas</tspan></text><text class="cls-4" transform="translate(1008.02 604.75)">Stairs</text><text class="cls-4" transform="translate(879.43 606.21)">Elevator</text><text class="cls-4" transform="translate(1007.81 641.12)">Printer</text><rect class="cls-14" x="846.34" y="479.36" width="14" height="14.21"/><path class="cls-11" d="M985,585.52a15.71,15.71,0,1,0,15.71,15.71A15.71,15.71,0,0,0,985,585.52Z" transform="translate(0.65 1.44)"/><path class="cls-10" d="M993.78,605a1,1,0,0,0-1-1h-4.71v-4.71h0a1,1,0,0,0-1-1h-4.72v-4.7h0a1,1,0,0,0-1-1h-5.7a1,1,0,0,0,0,2h4.71v4.71h0a1,1,0,0,0,.08.39,1,1,0,0,0,.91.6h4.72V605h0a1,1,0,0,0,1,1h4.71v4.72a1,1,0,0,0,2,0V605Z" transform="translate(0.65 1.44)"/><path class="cls-11" d="M856.42,585.91a15.71,15.71,0,1,0,15.7,15.71A15.71,15.71,0,0,0,856.42,585.91Z" transform="translate(0.65 1.44)"/><path class="cls-10" d="M854.56,601.56a1.06,1.06,0,1,1-1-1.06A1,1,0,0,1,854.56,601.56Z" transform="translate(0.65 1.44)"/><path class="cls-10" d="M852.18,606.29a.42.42,0,0,1-.43.42h-.06a.42.42,0,0,1-.43-.42v-2.84a.31.31,0,0,1,0-.1.51.51,0,0,1,.48-.44h3.58a.53.53,0,0,1,.49.56v2.82a.42.42,0,0,1-.43.42h-.07a.42.42,0,0,1-.42-.42v3.17a.61.61,0,0,1-.61.61h-.1a.61.61,0,0,1-.61-.61v-2.91h-.08v2.91a.61.61,0,0,1-.61.61h-.1a.61.61,0,0,1-.61-.61Z" transform="translate(0.65 1.44)"/><path class="cls-10" d="M860.31,601.56a1.06,1.06,0,0,1-2.11,0,1.06,1.06,0,1,1,2.11,0Z" transform="translate(0.65 1.44)"/><path class="cls-10" d="M857.93,606.29a.42.42,0,0,1-.42.42h-.07a.42.42,0,0,1-.43-.42v-2.84s0-.07,0-.1a.52.52,0,0,1,.48-.44h3.58a.53.53,0,0,1,.49.56v2.82a.42.42,0,0,1-.43.42h-.07a.42.42,0,0,1-.42-.42v3.17a.61.61,0,0,1-.61.61h-.1a.61.61,0,0,1-.61-.61v-2.91h-.08v2.91a.61.61,0,0,1-.61.61h-.1a.6.6,0,0,1-.6-.61Z" transform="translate(0.65 1.44)"/><path class="cls-10" d="M863,596.56H849.88a1.38,1.38,0,0,0-1.38,1.38V611a1.38,1.38,0,0,0,1.38,1.38H863a1.38,1.38,0,0,0,1.38-1.38V597.94A1.38,1.38,0,0,0,863,596.56Zm-.34,14.11H850.22V598.28h12.39Z" transform="translate(0.65 1.44)"/><path class="cls-10" d="M859.67,595.47l0,0s0,0,.07.06l.06,0,0,0,.08,0h.35l.08,0,.05,0,.06,0,.08-.06,0,0h0L863,593.1a.67.67,0,0,0,0-.93.65.65,0,0,0-.93,0l-1.26,1.26V590a.66.66,0,1,0-1.31,0v3.44l-1.26-1.26a.65.65,0,0,0-.93,0,.67.67,0,0,0,0,.93l2.38,2.37Z" transform="translate(0.65 1.44)"/><path class="cls-10" d="M853.16,589.52l0,0-.07-.06-.06,0,0,0-.08,0h0l-.11,0h0l-.11,0h-.05l-.08,0-.05,0-.06,0-.08.07h0l-2.38,2.38a.67.67,0,0,0,0,.93.65.65,0,0,0,.93,0l1.26-1.26V595a.66.66,0,1,0,1.31,0v-3.44l1.26,1.26a.65.65,0,0,0,.93,0,.67.67,0,0,0,0-.93l-2.38-2.38Z" transform="translate(0.65 1.44)"/><path class="cls-11" d="M984.79,621.14a15.5,15.5,0,1,0,15.5,15.5A15.5,15.5,0,0,0,984.79,621.14Z" transform="translate(0.65 1.44)"/><rect class="cls-11" x="978.15" y="627.56" width="14.5" height="10.34"/><rect class="cls-10" x="973.5" y="633.03" width="23.42" height="9.76" rx="1.15"/><rect class="cls-15" x="975.45" y="634.69" width="2.98" height="1.32"/><rect class="cls-11" x="978.15" y="638.08" width="14.5" height="10.34"/><rect class="cls-10" x="980.18" y="639.86" width="10.18" height="2.29"/><rect class="cls-10" x="980.18" y="643.83" width="5.23" height="2.29"/><text class="cls-4" transform="translate(879.43 642.31)">Copier</text><text class="cls-4" transform="translate(1008.02 677.49)">Scanner</text><path class="cls-11" d="M856.41,621.77a15.5,15.5,0,1,0,15.5,15.5A15.5,15.5,0,0,0,856.41,621.77Z" transform="translate(0.65 1.44)"/><path class="cls-10" d="M863.73,630.66h-7.51v-1.56l5-1.59v-1.22L848.72,628a1.09,1.09,0,0,0-1.08,1.08v4.62h17.17v-1.91A1.09,1.09,0,0,0,863.73,630.66Z" transform="translate(0.65 1.44)"/><polygon class="cls-10" points="869.23 635.2 865.42 636.16 865.42 636.16 859.84 636.16 859.84 637.32 853.85 637.32 853.85 636.16 848.29 636.16 848.29 641.86 865.46 641.86 865.46 637.85 869.23 636.11 869.23 635.2"/><path class="cls-10" d="M868.55,640.62l-3.74.94v0h-5.62v1.16h-6v-1.16h-5.56v4.61a1.08,1.08,0,0,0,1.08,1.08h15a1.08,1.08,0,0,0,1.08-1.08v-2.89l3.74-1.73Z" transform="translate(0.65 1.44)"/><text class="cls-4" transform="translate(879.43 678.42)">Computers</text><path class="cls-11" d="M984.79,656.56a15.5,15.5,0,1,0,15.5,15.5A15.5,15.5,0,0,0,984.79,656.56Z" transform="translate(0.65 1.44)"/><path class="cls-10" d="M973.61,677.7a1.74,1.74,0,0,0,1.73,1.73h18.73a1.73,1.73,0,0,0,1.73-1.73v-3.31H973.61Zm16.46-1.82h3.55a.63.63,0,0,1,0,1.25h-3.55a.63.63,0,1,1,0-1.25Zm-2.44,0a.63.63,0,1,1-.63.63A.63.63,0,0,1,987.63,675.88Z" transform="translate(0.65 1.44)"/><path class="cls-10" d="M994.94,671.66l-17.16-7.51a1.74,1.74,0,0,0-2.28.89l20.33,8.9A1.74,1.74,0,0,0,994.94,671.66Z" transform="translate(0.65 1.44)"/><path class="cls-11" d="M856.41,657.43a15.5,15.5,0,1,0,15.5,15.5A15.51,15.51,0,0,0,856.41,657.43Z" transform="translate(0.65 1.44)"/><path class="cls-10" d="M863.84,662.76h-14.7A1.14,1.14,0,0,0,848,663.9v9.24a1.15,1.15,0,0,0,1.15,1.15h5.51v1.5h-2.58v1.13h8.84v-1.13h-2.58v-1.5h5.51a1.16,1.16,0,0,0,1.15-1.15V663.9A1.15,1.15,0,0,0,863.84,662.76Zm0,9.78a.57.57,0,0,1-.58.57H849.71a.57.57,0,0,1-.57-.57v-8a.58.58,0,0,1,.57-.57h13.55a.58.58,0,0,1,.58.57Z" transform="translate(0.65 1.44)"/><path class="cls-10" d="M866.22,681.17c.34.28-.29.49-.65.49H847.28c-.37,0-1-.09-.66-.49l2.62-2.68a1.4,1.4,0,0,1,1.18-.49H862.2a1.55,1.55,0,0,1,1.4.49Z" transform="translate(0.65 1.44)"/><text class="cls-4" transform="translate(879.43 571.03)">Eme<tspan class="cls-16" x="28.01" y="0">r</tspan><tspan x="32.28" y="0">gency Exit</tspan></text><path class="cls-11" d="M892.14,514.81a15.5,15.5,0,1,0,15.5,15.5A15.5,15.5,0,0,0,892.14,514.81Z" transform="translate(0.65 1.44)"/><path class="cls-10" d="M892,524.14a2.48,2.48,0,1,0-2.47-2.48A2.47,2.47,0,0,0,892,524.14Z" transform="translate(0.65 1.44)"/><path class="cls-10" d="M896.36,524.81a1.22,1.22,0,0,0-.38.07.69.69,0,0,0-.29-.07h-7.18a.73.73,0,0,0-.3.07,1.09,1.09,0,0,0-1.47,1v6.73a1.1,1.1,0,0,0,1.1,1.1,1.06,1.06,0,0,0,.78-.34l-1.82,4.13h2.4v2.76a1.27,1.27,0,0,0,2.54,0v-2.76h.71v2.76a1.28,1.28,0,0,0,2.55,0v-2.76h2.36l-1.79-4.13a1.1,1.1,0,0,0,1.89-.76v-6.73A1.1,1.1,0,0,0,896.36,524.81Z" transform="translate(0.65 1.44)"/><path class="cls-11" d="M856.07,514.81a15.5,15.5,0,1,0,15.5,15.5A15.5,15.5,0,0,0,856.07,514.81Z" transform="translate(0.65 1.44)"/><path class="cls-10" d="M856,524.06a2.47,2.47,0,1,0-2.48-2.47A2.47,2.47,0,0,0,856,524.06Z" transform="translate(0.65 1.44)"/><path class="cls-10" d="M860.34,524.74a1,1,0,0,0-.38.07.59.59,0,0,0-.29-.07h-7.19a.59.59,0,0,0-.29.07,1,1,0,0,0-.38-.07,1.09,1.09,0,0,0-1.09,1.1v6.73a1.1,1.1,0,1,0,2.19,0v-.73a.68.68,0,0,0,.27.53v7.85a1.27,1.27,0,1,0,2.54,0v-5.9h.71v5.9a1.27,1.27,0,1,0,2.54,0v-7.85a.68.68,0,0,0,.27-.53v.73a1.1,1.1,0,1,0,2.19,0v-6.73A1.09,1.09,0,0,0,860.34,524.74Z" transform="translate(0.65 1.44)"/><path class="cls-11" d="M554.07,207.08a15.5,15.5,0,1,0,15.5,15.5A15.5,15.5,0,0,0,554.07,207.08Z" transform="translate(0.65 1.44)"/><path class="cls-10" d="M554,216.41a2.48,2.48,0,1,0-2.48-2.48A2.48,2.48,0,0,0,554,216.41Z" transform="translate(0.65 1.44)"/><path class="cls-10" d="M558.29,217.08a.9.9,0,0,0-.37.07.59.59,0,0,0-.29-.07h-7.19a.59.59,0,0,0-.29.07,1,1,0,0,0-.38-.07,1.1,1.1,0,0,0-1.1,1.1v6.73a1.1,1.1,0,0,0,1.89.76l-1.83,4.13h2.41v2.76a1.27,1.27,0,1,0,2.54,0V229.8h.71v2.76a1.27,1.27,0,1,0,2.54,0V229.8h2.37l-1.79-4.13a1.06,1.06,0,0,0,.78.34,1.1,1.1,0,0,0,1.1-1.1v-6.73A1.1,1.1,0,0,0,558.29,217.08Z" transform="translate(0.65 1.44)"/><path class="cls-11" d="M554,174a15.5,15.5,0,1,0,15.5,15.5A15.5,15.5,0,0,0,554,174Z" transform="translate(0.65 1.44)"/><path class="cls-10" d="M554,183.22a2.48,2.48,0,1,0-2.47-2.47A2.48,2.48,0,0,0,554,183.22Z" transform="translate(0.65 1.44)"/><path class="cls-10" d="M558.3,183.9a1.21,1.21,0,0,0-.38.06.68.68,0,0,0-.29-.06h-7.18a.65.65,0,0,0-.29.06,1.21,1.21,0,0,0-.38-.06,1.09,1.09,0,0,0-1.1,1.09v6.74a1.1,1.1,0,0,0,2.2,0V191a.65.65,0,0,0,.27.54s0,0,0,.05v7.8a1.27,1.27,0,0,0,2.54,0v-5.91h.72v5.91a1.27,1.27,0,0,0,2.54,0v-7.8a.09.09,0,0,0,0-.05.65.65,0,0,0,.27-.54v.74a1.1,1.1,0,0,0,2.2,0V185A1.09,1.09,0,0,0,558.3,183.9Z" transform="translate(0.65 1.44)"/><text class="cls-4" transform="translate(950.37 534.62)">Rest<tspan class="cls-5" x="28.52" y="0">r</tspan><tspan x="32.93" y="0">ooms</tspan></text><path class="cls-11" d="M927.7,514.81a15.5,15.5,0,1,0,15.5,15.5A15.5,15.5,0,0,0,927.7,514.81Z" transform="translate(0.65 1.44)"/><rect class="cls-10" x="927.41" y="520.37" width="1.92" height="22.62"/><path class="cls-10" d="M934.11,524.61a2.14,2.14,0,1,0-2.14-2.14A2.14,2.14,0,0,0,934.11,524.61Z" transform="translate(0.65 1.44)"/><path class="cls-10" d="M937.87,525.2a1.13,1.13,0,0,0-.32,0,.71.71,0,0,0-.26,0h-6.22a.7.7,0,0,0-.25,0,1.14,1.14,0,0,0-.33,0,1,1,0,0,0-1,.95V532a.95.95,0,0,0,1.9,0v-.64a.58.58,0,0,0,.24.47.07.07,0,0,0,0,.05v6.75a1.1,1.1,0,1,0,2.2,0v-6.69h.62v6.69a1.1,1.1,0,0,0,2.2,0v-6.8a.6.6,0,0,0,.23-.47V532a1,1,0,0,0,1.91,0v-5.83A1,1,0,0,0,937.87,525.2Z" transform="translate(0.65 1.44)"/><path class="cls-10" d="M921,524.62a2.15,2.15,0,1,0-2.15-2.14A2.14,2.14,0,0,0,921,524.62Z" transform="translate(0.65 1.44)"/><path class="cls-10" d="M924.79,525.2a.88.88,0,0,0-.33.06.54.54,0,0,0-.25-.06H918a.54.54,0,0,0-.25.06.88.88,0,0,0-.33-.06,1,1,0,0,0-.95.95V532a1,1,0,0,0,.95,1,.93.93,0,0,0,.68-.29l-.71,3.58h1.21v2.38a1.1,1.1,0,0,0,2.2,0v-2.38h.62v2.38a1.1,1.1,0,1,0,2.2,0v-2.38h1.19l-.69-3.58a1,1,0,0,0,.69.29,1,1,0,0,0,1-1v-5.84A1,1,0,0,0,924.79,525.2Z" transform="translate(0.65 1.44)"/><path class="cls-11" d="M411.56,256.23a15.5,15.5,0,1,0,15.5,15.5A15.49,15.49,0,0,0,411.56,256.23Z" transform="translate(0.65 1.44)"/><rect class="cls-11" x="404.92" y="262.64" width="14.5" height="10.34"/><rect class="cls-10" x="400.26" y="268.11" width="23.42" height="9.76" rx="1.15"/><rect class="cls-15" x="402.22" y="269.77" width="2.98" height="1.32"/><rect class="cls-11" x="404.92" y="273.16" width="14.5" height="10.34"/><rect class="cls-10" x="406.94" y="274.95" width="10.18" height="2.29"/><rect class="cls-10" x="406.94" y="278.91" width="5.23" height="2.29"/><path class="cls-11" d="M490.61,101.89a15.5,15.5,0,1,0,15.5,15.5A15.49,15.49,0,0,0,490.61,101.89Z" transform="translate(0.65 1.44)"/><rect class="cls-11" x="483.97" y="108.3" width="14.5" height="10.34"/><rect class="cls-10" x="479.32" y="113.77" width="23.42" height="9.76" rx="1.15"/><rect class="cls-15" x="481.27" y="115.43" width="2.98" height="1.32"/><rect class="cls-11" x="483.97" y="118.82" width="14.5" height="10.34"/><rect class="cls-10" x="486" y="120.61" width="10.18" height="2.29"/><rect class="cls-10" x="486" y="124.57" width="5.23" height="2.29"/><rect class="cls-11" x="374.77" y="558.91" width="64.27" height="22.02" rx="5"/><text class="cls-17" transform="translate(381.05 573.43)">ENTRANCE</text><path class="cls-11" d="M856.1,550.46A15.5,15.5,0,1,0,871.6,566,15.5,15.5,0,0,0,856.1,550.46Z" transform="translate(0.65 1.44)"/><path class="cls-18" d="M851.45,562.8a2.2,2.2,0,1,0-2.19-2.19A2.19,2.19,0,0,0,851.45,562.8Z" transform="translate(0.65 1.44)"/><path class="cls-10" d="M866.57,572.17l-6.21-6.2v-2.46a1.06,1.06,0,0,1-.21.31,1.1,1.1,0,0,1-1.57,0l-1.71-1.71-.79.79,9.91,9.91a1.1,1.1,0,0,1,0,1.56,1.12,1.12,0,0,1-1.57,0l-6.26-6.26-1.69,1.69,2.55,2.55a1.11,1.11,0,0,1-1.57,1.56l-3.29-3.29a1.08,1.08,0,0,1-.32-.82,1.1,1.1,0,0,1,.32-.82l1.69-1.68-2.08-2.08L852,567a.39.39,0,0,1-.08.1,1.07,1.07,0,0,1-.79.32,1.09,1.09,0,0,1-.79-.32l-.09-.1-2.33-2.33a1.11,1.11,0,0,1,1.57-1.57l1.64,1.65,4.93-4.94a1.11,1.11,0,0,1,1.54,0,.39.39,0,0,1,.1.08l2.43,2.43a1.06,1.06,0,0,1,.21.31v-6.91H847.12v20.28h13.24v-4.29l3.36,3.36a2,2,0,0,0,2.85-2.84Zm-15.12-13.76a2.2,2.2,0,1,1-2.19,2.2A2.19,2.19,0,0,1,851.45,558.41Z" transform="translate(0.65 1.44)"/><path class="cls-11" d="M86,241.93a15.5,15.5,0,1,0,15.5,15.5A15.49,15.49,0,0,0,86,241.93Z" transform="translate(0.65 1.44)"/><circle class="cls-18" cx="82" cy="253.5" r="2.19"/><path class="cls-10" d="M96.47,263.63l-6.2-6.2V255a1.4,1.4,0,0,1-.22.32,1.12,1.12,0,0,1-1.57,0l-1.71-1.71-.78.78,9.9,9.91a1.1,1.1,0,0,1,0,1.56,1.09,1.09,0,0,1-1.56,0l-6.27-6.26-1.69,1.69,2.55,2.55a1.12,1.12,0,0,1,0,1.57,1.1,1.1,0,0,1-1.56,0l-3.3-3.3a1.12,1.12,0,0,1-.32-.82,1.14,1.14,0,0,1,.32-.82l1.69-1.68-2.08-2.08-1.74,1.74-.09.1a1.06,1.06,0,0,1-.79.32,1.07,1.07,0,0,1-.79-.32.39.39,0,0,1-.08-.1l-2.33-2.33a1.1,1.1,0,0,1,1.56-1.56l1.64,1.64L86,251.23a1.11,1.11,0,0,1,1.54,0l.09.08,2.43,2.43a1.34,1.34,0,0,1,.22.31v-6.91H77V267.4H90.27v-4.28l3.36,3.36a2,2,0,1,0,2.84-2.85ZM81.35,249.88a2.19,2.19,0,1,1-2.19,2.19A2.19,2.19,0,0,1,81.35,249.88Z" transform="translate(0.65 1.44)"/><path class="cls-11" d="M688.33,401.59a15.5,15.5,0,1,0,15.5,15.5A15.5,15.5,0,0,0,688.33,401.59Z" transform="translate(0.65 1.44)"/><path class="cls-18" d="M683.67,413.92a2.19,2.19,0,1,0-2.19-2.19A2.2,2.2,0,0,0,683.67,413.92Z" transform="translate(0.65 1.44)"/><path class="cls-10" d="M698.79,423.29l-6.2-6.2v-2.46a1.14,1.14,0,0,1-.22.32,1.1,1.1,0,0,1-1.56,0l-1.71-1.71-.79.79,9.9,9.9a1.11,1.11,0,1,1-1.56,1.57l-6.26-6.27-1.69,1.69,2.55,2.55a1.11,1.11,0,0,1-1.57,1.57l-3.3-3.3a1.2,1.2,0,0,1,0-1.63l1.69-1.69L686,416.34l-1.74,1.74-.09.1a1.11,1.11,0,0,1-.79.33,1.08,1.08,0,0,1-.78-.33l-.09-.09-2.33-2.34a1.1,1.1,0,0,1,0-1.56,1.09,1.09,0,0,1,1.56,0l1.64,1.64,4.94-4.94a1.11,1.11,0,0,1,1.54,0l.09.08,2.43,2.43a1.1,1.1,0,0,1,.22.31v-6.91H679.35v20.28h13.24v-4.28l3.36,3.36a2,2,0,1,0,2.84-2.85Zm-15.12-13.75a2.19,2.19,0,1,1-2.19,2.19A2.2,2.2,0,0,1,683.67,409.54Z" transform="translate(0.65 1.44)"/><path class="cls-1" d="M317.39,67.81" transform="translate(0.65 1.44)"/><path class="cls-11" d="M431.89,101.89a15.5,15.5,0,1,0,15.5,15.5A15.49,15.49,0,0,0,431.89,101.89Z" transform="translate(0.65 1.44)"/><path class="cls-10" d="M439.31,107.21h-14.7a1.14,1.14,0,0,0-1.14,1.15v9.24a1.14,1.14,0,0,0,1.14,1.14h5.51v1.51h-2.58v1.12h8.85v-1.12H433.8v-1.51h5.51a1.14,1.14,0,0,0,1.15-1.14v-9.24A1.14,1.14,0,0,0,439.31,107.21Zm0,9.78a.58.58,0,0,1-.57.58H425.19a.58.58,0,0,1-.58-.58v-8a.58.58,0,0,1,.58-.58h13.55a.58.58,0,0,1,.57.58Z" transform="translate(0.65 1.44)"/><path class="cls-10" d="M441.7,125.63c.33.28-.3.49-.66.49H422.75c-.36,0-1-.1-.65-.49l2.61-2.69a1.45,1.45,0,0,1,1.18-.49h11.78a1.59,1.59,0,0,1,1.41.49Z" transform="translate(0.65 1.44)"/><text class="cls-4" transform="translate(879.43 717.41)">Happy Light</text><path class="cls-11" d="M856.41,696.42a15.5,15.5,0,1,0,15.5,15.5A15.51,15.51,0,0,0,856.41,696.42Z" transform="translate(0.65 1.44)"/><path class="cls-10" d="M856.41,703.77a5.69,5.69,0,0,0-4,9.71h0a8.06,8.06,0,0,1,1.69,3.63.49.49,0,0,0,.48.4h.09a.49.49,0,0,0,.39-.57,8.75,8.75,0,0,0-2-4.16h0a4.71,4.71,0,1,1,6.67,0h0a8.78,8.78,0,0,0-2,4.15.49.49,0,0,0,.39.57h.09a.49.49,0,0,0,.48-.4,8,8,0,0,1,1.7-3.63h0a5.69,5.69,0,0,0-4-9.71Z" transform="translate(0.65 1.44)"/><path class="cls-10" d="M858.61,718.61l-4.72,1.69a.48.48,0,0,0-.3.62.49.49,0,0,0,.46.33.51.51,0,0,0,.17,0l4.72-1.69a.49.49,0,0,0,.3-.63A.49.49,0,0,0,858.61,718.61Z" transform="translate(0.65 1.44)"/><path class="cls-10" d="M854.05,719.59a.51.51,0,0,0,.17,0l2.36-.85a.49.49,0,0,0,.3-.62.51.51,0,0,0-.63-.3l-2.36.85a.48.48,0,0,0-.3.62A.49.49,0,0,0,854.05,719.59Z" transform="translate(0.65 1.44)"/><path class="cls-10" d="M858.61,721.92l-1.26.46a.46.46,0,0,0-.32.41s-.06.56-.43.56h-.11s-.17,0-.38-.26a.49.49,0,0,0-.73.65,1.5,1.5,0,0,0,1.12.59h.15a1.4,1.4,0,0,0,1.29-1.13l1-.36a.48.48,0,0,0,.3-.62A.49.49,0,0,0,858.61,721.92Z" transform="translate(0.65 1.44)"/><path class="cls-10" d="M858.61,720.26l-4.72,1.7a.48.48,0,0,0-.3.62.49.49,0,0,0,.46.33.51.51,0,0,0,.17,0l4.72-1.69a.49.49,0,0,0-.33-.93Z" transform="translate(0.65 1.44)"/><path class="cls-10" d="M868.76,709H864.3a.48.48,0,0,0-.49.48.49.49,0,0,0,.49.49h4.46a.49.49,0,0,0,.49-.49A.48.48,0,0,0,868.76,709Z" transform="translate(0.65 1.44)"/><path class="cls-10" d="M863.07,713.23a.49.49,0,0,0-.69.69l3.15,3.16a.52.52,0,0,0,.35.14.49.49,0,0,0,.34-.14.47.47,0,0,0,0-.69Z" transform="translate(0.65 1.44)"/><path class="cls-10" d="M862.72,705.82a.52.52,0,0,0,.35-.14l3.15-3.16a.47.47,0,0,0,0-.69.49.49,0,0,0-.69,0L862.38,705a.49.49,0,0,0,0,.69A.49.49,0,0,0,862.72,705.82Z" transform="translate(0.65 1.44)"/><path class="cls-10" d="M849,709.45a.48.48,0,0,0-.49-.48h-4.46a.48.48,0,0,0-.49.48.49.49,0,0,0,.49.49h4.46A.49.49,0,0,0,849,709.45Z" transform="translate(0.65 1.44)"/><path class="cls-10" d="M849.76,713.23l-3.16,3.16a.49.49,0,0,0,0,.69.54.54,0,0,0,.35.14.52.52,0,0,0,.35-.14l3.15-3.16a.49.49,0,0,0-.69-.69Z" transform="translate(0.65 1.44)"/><path class="cls-10" d="M847.3,701.83a.5.5,0,0,0-.7,0,.49.49,0,0,0,0,.69l3.16,3.16a.52.52,0,0,0,.35.14.49.49,0,0,0,.34-.14.49.49,0,0,0,0-.69Z" transform="translate(0.65 1.44)"/><path class="cls-10" d="M859.54,710.36a.5.5,0,0,1-.5-.5,1.88,1.88,0,0,0-1.88-1.88.5.5,0,1,1,0-1,2.88,2.88,0,0,1,2.88,2.88A.51.51,0,0,1,859.54,710.36Z" transform="translate(0.65 1.44)"/><path class="cls-11" d="M109.39,304.64a15.5,15.5,0,1,0,15.5,15.5A15.5,15.5,0,0,0,109.39,304.64Z" transform="translate(0.65 1.44)"/><path class="cls-10" d="M109.39,312a5.7,5.7,0,0,0-5.69,5.69,5.68,5.68,0,0,0,1.67,4h0a7.88,7.88,0,0,1,1.68,3.63.5.5,0,0,0,.48.4h.09a.5.5,0,0,0,.4-.57,8.75,8.75,0,0,0-2-4.16h0a4.71,4.71,0,1,1,6.67,0h0a8.67,8.67,0,0,0-2,4.15.48.48,0,0,0,.39.57h.09a.5.5,0,0,0,.48-.4,7.85,7.85,0,0,1,1.69-3.64h0a5.69,5.69,0,0,0-4-9.71Z" transform="translate(0.65 1.44)"/><path class="cls-10" d="M111.59,326.83l-4.73,1.69a.49.49,0,0,0-.3.62.51.51,0,0,0,.47.33.45.45,0,0,0,.16,0l4.73-1.69a.49.49,0,0,0,.29-.63A.48.48,0,0,0,111.59,326.83Z" transform="translate(0.65 1.44)"/><path class="cls-10" d="M107,327.81a.45.45,0,0,0,.16,0l2.36-.85a.48.48,0,0,0,.3-.62.49.49,0,0,0-.63-.3l-2.36.85a.49.49,0,0,0-.3.62A.51.51,0,0,0,107,327.81Z" transform="translate(0.65 1.44)"/><path class="cls-10" d="M111.59,330.14l-1.27.45a.52.52,0,0,0-.32.42s0,.56-.43.56h-.1s-.18,0-.39-.26a.49.49,0,0,0-.73.65,1.52,1.52,0,0,0,1.12.59l.15,0a1.39,1.39,0,0,0,1.29-1.12l1-.36a.49.49,0,0,0-.33-.92Z" transform="translate(0.65 1.44)"/><path class="cls-10" d="M111.59,328.48l-4.73,1.7a.49.49,0,0,0-.3.62.51.51,0,0,0,.47.33.45.45,0,0,0,.16,0l4.73-1.7a.49.49,0,0,0,.29-.62A.49.49,0,0,0,111.59,328.48Z" transform="translate(0.65 1.44)"/><path class="cls-10" d="M121.74,317.18h-4.46a.49.49,0,0,0,0,1h4.46a.49.49,0,1,0,0-1Z" transform="translate(0.65 1.44)"/><path class="cls-10" d="M116,321.45a.49.49,0,1,0-.69.69l3.16,3.16a.49.49,0,0,0,.34.14.52.52,0,0,0,.35-.14.49.49,0,0,0,0-.69Z" transform="translate(0.65 1.44)"/><path class="cls-10" d="M115.7,314a.49.49,0,0,0,.34-.14l3.16-3.16a.49.49,0,1,0-.69-.69l-3.16,3.15a.5.5,0,0,0,0,.7A.52.52,0,0,0,115.7,314Z" transform="translate(0.65 1.44)"/><path class="cls-10" d="M102,317.67a.49.49,0,0,0-.49-.49H97a.49.49,0,0,0,0,1h4.46A.49.49,0,0,0,102,317.67Z" transform="translate(0.65 1.44)"/><path class="cls-10" d="M102.73,321.45l-3.15,3.16a.49.49,0,0,0,0,.69.5.5,0,0,0,.35.14.49.49,0,0,0,.34-.14l3.16-3.16a.49.49,0,0,0,0-.69A.5.5,0,0,0,102.73,321.45Z" transform="translate(0.65 1.44)"/><path class="cls-10" d="M100.27,310.05a.49.49,0,1,0-.69.69l3.15,3.16a.54.54,0,0,0,.35.14.52.52,0,0,0,.35-.14.5.5,0,0,0,0-.7Z" transform="translate(0.65 1.44)"/><path class="cls-10" d="M112.51,318.57a.5.5,0,0,1-.5-.5,1.87,1.87,0,0,0-1.87-1.87.5.5,0,1,1,0-1,2.88,2.88,0,0,1,2.87,2.87A.5.5,0,0,1,112.51,318.57Z" transform="translate(0.65 1.44)"/><path class="cls-11" d="M228.16,369.51a11,11,0,1,0,11,11A11,11,0,0,0,228.16,369.51Z" transform="translate(0.65 1.44)"/><text class="cls-12" transform="translate(221.06 386.82)">19</text><path class="cls-11" d="M228.16,426.76a11,11,0,1,0,11,11A11,11,0,0,0,228.16,426.76Z" transform="translate(0.65 1.44)"/><text class="cls-12" transform="translate(221.06 444.07)">21</text></g></svg>