<?xml version="1.0" encoding="UTF-8" standalone="no"?>
<!-- Generator: Adobe Illustrator 20.0.0, SVG Export Plug-In . SVG Version: 6.00 Build 0)  -->

<svg
   xmlns:dc="http://purl.org/dc/elements/1.1/"
   xmlns:cc="http://creativecommons.org/ns#"
   xmlns:rdf="http://www.w3.org/1999/02/22-rdf-syntax-ns#"
   xmlns:svg="http://www.w3.org/2000/svg"
   xmlns="http://www.w3.org/2000/svg"
   xmlns:sodipodi="http://sodipodi.sourceforge.net/DTD/sodipodi-0.dtd"
   xmlns:inkscape="http://www.inkscape.org/namespaces/inkscape"
   version="1.1"
   x="0px"
   y="0px"
   viewBox="0 0 1105.4 766.7"
   style="enable-background:new 0 0 1105.4 766.7;"
   xml:space="preserve"
   id="svg2"
   inkscape:version="0.91 r13725"
   sodipodi:docname="library-map-v2016-02_ThirdFloor.svg"><metadata
     id="metadata722"><rdf:RDF><cc:Work
         rdf:about=""><dc:format>image/svg+xml</dc:format><dc:type
           rdf:resource="http://purl.org/dc/dcmitype/StillImage" /><dc:title></dc:title></cc:Work></rdf:RDF></metadata><defs
     id="defs720" /><sodipodi:namedview
     pagecolor="#ffffff"
     bordercolor="#666666"
     borderopacity="1"
     objecttolerance="10"
     gridtolerance="10"
     guidetolerance="10"
     inkscape:pageopacity="0"
     inkscape:pageshadow="2"
     inkscape:window-width="1440"
     inkscape:window-height="838"
     id="namedview718"
     showgrid="false"
     inkscape:zoom="0.72776573"
     inkscape:cx="552.70001"
     inkscape:cy="383.35001"
     inkscape:window-x="-8"
     inkscape:window-y="-8"
     inkscape:window-maximized="1"
     inkscape:current-layer="Key_-_3rd_Floor"
     showborder="false" /><style
     type="text/css"
     id="style4">
	.st0{fill:#003D7D;stroke:#E6E6E6;stroke-miterlimit:10;}
	.st1{fill:#333333;stroke:#E6E6E6;stroke-miterlimit:10;}
	.st2{fill:none;}
	.st3{fill:#E6E6E6;}
	.st4{fill:none;stroke:#E6E6E6;stroke-miterlimit:10;}
	.st5{fill:none;stroke:#333333;stroke-width:3;stroke-miterlimit:10;}
	.st6{fill:#333333;}
	.st7{font-family:'HelveticaNeue';}
	.st8{font-size:14px;}
	.st9{font-size:30px;}
	.st10{fill:#CCCCCC;}
	.st11{font-size:20px;}
	.st12{fill:#003D7D;}
	.st13{fill:#FFFFFF;stroke:#003D7D;stroke-miterlimit:10;}
	.st14{fill:#FFFFFF;}
	.st15{font-size:13.7123px;}
	.st16{fill:none;stroke:#333333;stroke-miterlimit:10;}
</style><g
     id="_x33_rd_Floor_-Vector"><polygon
       class="st0"
       points="218,451.1 218,352.1 237.3,352.1 237.3,336.1 237.2,336.1 237.2,351.7 217.9,351.7 217.9,451.1    237,451.1 237,451.1  "
       id="polygon7" /><polygon
       class="st0"
       points="348.7,335.7 348.7,309.1 265.7,309.1 265.7,335.7 298.7,335.7  "
       id="polygon9" /><rect
       x="237"
       y="335.7"
       class="st0"
       width="0.2"
       height="0.3"
       id="rect11" /><rect
       x="237"
       y="451.1"
       class="st0"
       width="0.2"
       height="0.3"
       id="rect13" /><polygon
       class="st0"
       points="237.3,467.1 298.7,467.1 298.7,432.4 298.7,430.2 298.7,429.9 298.7,429.9 298.7,393.9 298.7,335.7    265.7,335.7 237,335.7 237,335.7 237,335.7 237.2,335.7 237.2,336.1 237.3,336.1 237.3,352.1 218,352.1 218,451.1 237,451.1    237,451.1 237.2,451.1 237.2,451.4 237.3,451.4  "
       id="polygon15" /><rect
       x="298.7"
       y="335.7"
       class="st0"
       width="50"
       height="58.2"
       id="rect17" /><polygon
       class="st1"
       points="237.2,467.1 155.9,467.1 155.9,591.1 304.6,591.1 304.6,467.1  "
       id="polygon19" /><polygon
       class="st0"
       points="304.6,467.1 304.6,591.1 343.9,591.1 343.9,538.4 343.9,467.1  "
       id="polygon21" /><polygon
       class="st0"
       points="298.7,432.4 298.7,467.1 354.4,467.1 354.4,429.9 298.7,429.9 298.7,430.2  "
       id="polygon23" /><polygon
       class="st0"
       points="576.4,271.9 524.1,271.9 524.1,271.7 482.9,271.7 482.9,293.7 482.9,314.7 482.9,341.7 580.9,341.7    580.9,297.1 580.9,271.7 576.6,271.7 576.4,271.7  "
       id="polygon25" /><polygon
       class="st0"
       points="608.2,342.2 648.9,342.2 648.9,341.7 648.9,272.1 608.2,272.1 608.2,297.1  "
       id="polygon27" /><rect
       x="648.9"
       y="272.1"
       class="st1"
       width="90"
       height="69.6"
       id="rect29" /><rect
       x="378.2"
       y="381"
       class="st1"
       width="63.6"
       height="64.4"
       id="rect31" /><rect
       x="441.8"
       y="271.7"
       class="st0"
       width="41.1"
       height="22"
       id="rect33" /><rect
       x="441.8"
       y="293.7"
       class="st0"
       width="41.1"
       height="21"
       id="rect35" /><rect
       x="441.8"
       y="314.7"
       class="st0"
       width="41.1"
       height="27"
       id="rect37" /><polygon
       class="st0"
       points="608.2,297.1 608.2,272.1 608.2,271.7 580.9,271.7 580.9,297.1  "
       id="polygon39" /><polygon
       class="st0"
       points="576.4,240.8 576.4,204.3 533.3,204.3 533.3,215.3 490.3,215.3 490.3,240.8 523.3,240.8 524.1,240.8    533.3,240.8  "
       id="polygon41" /><polygon
       class="st0"
       points="533.3,204.3 533.3,189.3 490.3,189.3 490.3,215.3 533.3,215.3  "
       id="polygon43" /><polygon
       class="st0"
       points="533.3,204.3 576.4,204.3 576.4,174.3 533.3,174.3 533.3,162.3 490.3,162.3 490.3,189.3 533.3,189.3     "
       id="polygon45" /><rect
       x="36.6"
       y="108.4"
       class="st0"
       width="57.3"
       height="66"
       id="rect47" /><rect
       x="36.6"
       y="174.4"
       class="st0"
       width="57.3"
       height="36.8"
       id="rect49" /><rect
       x="36.6"
       y="211.1"
       class="st0"
       width="57.3"
       height="32.2"
       id="rect51" /><rect
       x="36.6"
       y="270.9"
       class="st0"
       width="57.3"
       height="64.9"
       id="rect53" /><rect
       x="104.4"
       y="108.4"
       class="st0"
       width="472.2"
       height="20.5"
       id="rect55" /><polygon
       class="st0"
       points="416.4,248.6 472.6,248.6 472.6,146.5 104.4,146.5 104.4,247.8 104.4,248.6 104.4,295.7 416.4,295.7     "
       id="polygon57" /><rect
       x="468.3"
       y="401"
       class="st0"
       width="195"
       height="134.5"
       id="rect59" /><rect
       x="468.3"
       y="401"
       class="st2"
       width="195"
       height="134.5"
       id="rect61" /><rect
       x="378.2"
       y="381"
       class="st2"
       width="63.6"
       height="64.4"
       id="rect63" /><polygon
       class="st2"
       points="416.4,248.6 472.6,248.6 472.6,146.5 104.4,146.5 104.4,247.8 104.4,248.6 104.4,295.7 416.4,295.7     "
       id="polygon65" /><polygon
       class="st3"
       points="576.4,204.3 576.4,240.8 576.4,271.7 576.6,271.7 576.6,174.3 576.4,174.3  "
       id="polygon67" /><polygon
       class="st0"
       points="533.3,174.3 576.4,174.3 576.6,174.3 576.6,162.4 533.3,162.4  "
       id="polygon69" /><line
       class="st1"
       x1="155.9"
       y1="467.1"
       x2="304.6"
       y2="591.1"
       id="line71" /><line
       class="st1"
       x1="304.6"
       y1="467.1"
       x2="155.9"
       y2="591.1"
       id="line73" /><line
       class="st4"
       x1="378.2"
       y1="381"
       x2="441.8"
       y2="445.4"
       id="line75" /><line
       class="st4"
       x1="441.8"
       y1="381"
       x2="378.2"
       y2="445.4"
       id="line77" /><g
       id="g79"><path
         class="st3"
         d="M648.9,342.2h-40.7v-45.1h-27.3v44.6h-98h-41.1v-27v-21v-22h41.1h41.2h52.3v-31h-43.2h-9.1h-0.9h-33v-25.5    v-26v-27h43v0.1h43.3v-33.5H104.4v-20.5H93.9v66v36.8v32.2H36.6v27.5h57.3v64.9H237v0v0h28.7v-26.7h83v26.7v58.2h-50v36v0h55.7    v37.2h-55.7h-61.4v-15.7h-0.1v15.7h67.3h39.3v116.7h395v-242h-90V342.2z M104.4,295.7v-47.1v-0.8V146.5h368.2v102.1h-56.2v47.1    H104.4z M441.8,445.4h-63.6V381h63.6V445.4z M663.2,535.5h-195V401h195V535.5z"
         id="path81" /><polygon
         class="st3"
         points="608.2,271.7 608.2,272.1 648.9,272.1 738.9,272.1 738.9,271.7   "
         id="polygon83" /></g><polygon
       class="st5"
       points="580.9,271.7 576.5,271.7 576.5,174.3 576.5,128.9 576.5,108.4 36.5,108.4 36.5,335.7 237,335.7    237,336.1 237.2,336.1 237.2,351.7 217.9,351.7 217.9,451.1 237,451.1 237,451.4 237.2,451.4 237.2,467.1 155.9,467.1 155.9,591.1    304.5,591.1 343.9,591.1 343.9,583.7 738.9,583.7 738.9,272.1 738.9,271.7  "
       id="polygon85" /></g><g
     id="Key_-_3rd_Floor"><rect
       x="861.7"
       y="85.7"
       class="st2"
       width="26.4"
       height="16.7"
       id="rect88" /><text
       transform="matrix(1 0 0 1 876.3843 95.7261)"
       class="st6 st7 st8"
       id="text90">1.</text>
<rect
       x="861.7"
       y="122"
       class="st2"
       width="26.4"
       height="16.7"
       id="rect92" /><text
       transform="matrix(1 0 0 1 876.3843 132.0034)"
       class="st6 st7 st8"
       id="text94">3.</text>
<rect
       x="861.7"
       y="140.1"
       class="st2"
       width="26.4"
       height="16.7"
       id="rect96" /><text
       transform="matrix(1 0 0 1 876.3843 150.1416)"
       class="st6 st7 st8"
       id="text98">4. </text>
<rect
       x="861.7"
       y="158.3"
       class="st2"
       width="26.4"
       height="16.7"
       id="rect100" /><text
       transform="matrix(1 0 0 1 876.3843 168.2803)"
       class="st6 st7 st8"
       id="text102">5.</text>
<rect
       x="861.7"
       y="176.4"
       class="st2"
       width="26.4"
       height="16.7"
       id="rect104" /><text
       transform="matrix(1 0 0 1 876.3843 186.4189)"
       class="st6 st7 st8"
       id="text106">6.</text>
<rect
       x="861.7"
       y="194.6"
       class="st2"
       width="26.4"
       height="16.7"
       id="rect108" /><text
       transform="matrix(1 0 0 1 876.3843 204.5576)"
       class="st6 st7 st8"
       id="text110">7.</text>
<rect
       x="861.7"
       y="212.7"
       class="st2"
       width="26.4"
       height="16.7"
       id="rect112" /><text
       transform="matrix(1 0 0 1 876.3843 222.6963)"
       class="st6 st7 st8"
       id="text114">8. </text>
<rect
       x="861.7"
       y="103.9"
       class="st2"
       width="26.4"
       height="16.7"
       id="rect116" /><text
       transform="matrix(1 0 0 1 876.3843 113.8647)"
       class="st6 st7 st8"
       id="text118">2.</text>
<rect
       x="861.7"
       y="230.8"
       class="st2"
       width="26.4"
       height="16.7"
       id="rect120" /><text
       transform="matrix(1 0 0 1 876.3843 240.8345)"
       class="st6 st7 st8"
       id="text122">9.</text>
<rect
       x="861.7"
       y="249"
       class="st2"
       width="26.4"
       height="16.7"
       id="rect124" /><text
       transform="matrix(1 0 0 1 868.6002 258.9731)"
       class="st6 st7 st8"
       id="text126">10.</text>
<rect
       x="861.7"
       y="267.6"
       class="st2"
       width="26.5"
       height="16.7"
       id="rect128" /><text
       transform="matrix(1 0 0 1 868.7379 277.5681)"
       class="st6 st7 st8"
       id="text130">11.</text>
<rect
       x="861.7"
       y="286.1"
       class="st2"
       width="26.4"
       height="16.7"
       id="rect132" /><text
       transform="matrix(1 0 0 1 868.6002 296.0735)"
       class="st6 st7 st8"
       id="text134">12.</text>
<rect
       x="896.9"
       y="85.7"
       class="st2"
       width="199"
       height="16.7"
       id="rect136" /><text
       transform="matrix(1 0 0 1 896.9088 95.7261)"
       class="st6 st7 st8"
       id="text138">Group Study 307</text>
<rect
       x="896.9"
       y="122"
       class="st2"
       width="199"
       height="16.7"
       id="rect140" /><text
       transform="matrix(1 0 0 1 896.9088 132.0034)"
       class="st6 st7 st8"
       id="text142">Group Study 309</text>
<rect
       x="896.9"
       y="140.1"
       class="st2"
       width="199"
       height="16.7"
       id="rect144" /><text
       transform="matrix(1 0 0 1 896.9088 150.1416)"
       class="st6 st7 st8"
       id="text146">Group Study 310</text>
<rect
       x="896.9"
       y="158.3"
       class="st2"
       width="199"
       height="16.7"
       id="rect148" /><text
       transform="matrix(1 0 0 1 896.9088 168.2803)"
       class="st6 st7 st8"
       id="text150">Books BR-HN</text>
<rect
       x="896.9"
       y="176.4"
       class="st2"
       width="199"
       height="16.7"
       id="rect152" /><text
       transform="matrix(1 0 0 1 896.9088 186.4189)"
       class="st6 st7 st8"
       id="text154">Individual Study 314</text>
<rect
       x="896.9"
       y="194.6"
       class="st2"
       width="199"
       height="16.7"
       id="rect156" /><text
       transform="matrix(1 0 0 1 896.9088 204.5576)"
       class="st6 st7 st8"
       id="text158">Individual Study 315</text>
<rect
       x="896.9"
       y="212.7"
       class="st2"
       width="199"
       height="16.7"
       id="rect160" /><text
       transform="matrix(1 0 0 1 896.9088 222.6963)"
       class="st6 st7 st8"
       id="text162">Individual Study 316</text>
<rect
       x="896.9"
       y="103.9"
       class="st2"
       width="199"
       height="16.7"
       id="rect164" /><text
       transform="matrix(1 0 0 1 896.9088 113.8647)"
       class="st6 st7 st8"
       id="text166">Group Study 308</text>
<rect
       x="896.9"
       y="230.8"
       class="st2"
       width="199"
       height="16.7"
       id="rect168" /><text
       transform="scale(0.90040449,1.110612)"
       class="st6 st7 st8"
       id="text170"
       x="996.2829"
       y="216.84846"
       style="font-size:12.6056633px;font-family:HelveticaNeue;fill:#333333">Center for Teaching &amp; Learning</text>
<rect
       x="896.9"
       y="249"
       class="st2"
       width="199"
       height="16.7"
       id="rect172" /><text
       transform="matrix(1 0 0 1 896.9088 258.9731)"
       class="st6 st7 st8"
       id="text174">Staff Lounge</text>
<rect
       x="896.9"
       y="267.6"
       class="st2"
       width="199"
       height="16.7"
       id="rect176" /><text
       transform="matrix(1 0 0 1 896.9088 277.5681)"
       class="st6 st7 st8"
       id="text178">Books HN-NX</text>
<rect
       x="896.9"
       y="286.1"
       class="st2"
       width="199"
       height="16.7"
       id="rect180" /><text
       transform="matrix(1 0 0 1 896.9088 296.0735)"
       class="st6 st7 st8"
       id="text182">Reading Balcony</text>
<rect
       x="861.7"
       y="304.2"
       class="st2"
       width="26.4"
       height="16.7"
       id="rect184" /><text
       transform="matrix(1 0 0 1 868.6002 314.2332)"
       class="st6 st7 st8"
       id="text186">13.</text>
<rect
       x="896.9"
       y="304.2"
       class="st2"
       width="199"
       height="16.7"
       id="rect188" /><text
       transform="matrix(1 0 0 1 896.9088 314.2332)"
       class="st6 st7 st8"
       id="text190">Group Study 317</text>
<rect
       x="845.6"
       y="41.3"
       class="st2"
       width="249.8"
       height="26.5"
       id="rect192" /><text
       transform="matrix(1 0 0 1 845.5552 62.7549)"
       class="st6 st7 st9"
       id="text194">Third Floor</text>
<rect
       x="845.6"
       y="18.3"
       class="st2"
       width="249.8"
       height="15.8"
       id="rect196" /><text
       transform="matrix(1 0 0 1 845.5552 32.6138)"
       class="st10 st7 st11"
       id="text198">Penrose Library</text>
<rect
       x="845.7"
       y="86"
       class="st12"
       width="14"
       height="235"
       id="rect200" /><g
       id="g202"><g
         id="g204"><path
           class="st13"
           d="M323.9,349.1c-8.7,0-15.7,7-15.7,15.7c0,8.7,7,15.7,15.7,15.7c8.7,0,15.7-7,15.7-15.7     C339.6,356.1,332.6,349.1,323.9,349.1z"
           id="path206" /></g><path
         class="st12"
         d="M332.7,368.6c0-0.5-0.4-1-1-1H327v-4.7c0,0,0,0,0,0c0-0.5-0.4-1-1-1h-4.7v-4.7c0,0,0,0,0,0c0-0.5-0.4-1-1-1    h-5.7c-0.5,0-1,0.4-1,1c0,0.5,0.4,1,1,1h4.7v4.7c0,0,0,0,0,0c0,0.1,0,0.3,0.1,0.4c0.2,0.4,0.5,0.6,0.9,0.6c0,0,0,0,0,0h4.7v4.7    l0,0l0,0c0,0.5,0.4,1,1,1h4.7v4.7c0,0.5,0.4,1,1,1c0.5,0,1-0.4,1-1L332.7,368.6C332.7,368.6,332.7,368.6,332.7,368.6z"
         id="path208" /></g><g
       id="g210"><g
         id="g212"><path
           class="st13"
           d="M554.8,240.7c-8.7,0-15.7,7-15.7,15.7c0,8.7,7,15.7,15.7,15.7c8.7,0,15.7-7,15.7-15.7     C570.5,247.7,563.5,240.7,554.8,240.7z"
           id="path214" /></g><path
         class="st12"
         d="M563.6,260.2c0-0.5-0.4-1-1-1h-4.7v-4.7c0,0,0,0,0,0c0-0.5-0.4-1-1-1h-4.7v-4.7c0,0,0,0,0,0c0-0.5-0.4-1-1-1    h-5.7c-0.5,0-1,0.4-1,1c0,0.5,0.4,1,1,1h4.7v4.7c0,0,0,0,0,0c0,0.1,0,0.3,0.1,0.4c0.2,0.4,0.5,0.6,0.9,0.6c0,0,0,0,0,0h4.7v4.7    l0,0l0,0c0,0.5,0.4,1,1,1h4.7v4.7c0,0.5,0.4,1,1,1c0.5,0,1-0.4,1-1L563.6,260.2C563.6,260.2,563.6,260.2,563.6,260.2z"
         id="path216" /></g><g
       id="g218"><g
         id="g220"><path
           class="st13"
           d="M720.5,400.4c-8.7,0-15.7,7-15.7,15.7c0,8.7,7,15.7,15.7,15.7c8.7,0,15.7-7,15.7-15.7     C736.2,407.5,729.2,400.4,720.5,400.4z"
           id="path222" /></g><path
         class="st12"
         d="M729.3,419.9c0-0.5-0.4-1-1-1h-4.7v-4.7c0,0,0,0,0,0c0-0.5-0.4-1-1-1h-4.7v-4.7c0,0,0,0,0,0c0-0.5-0.4-1-1-1    h-5.7c-0.5,0-1,0.4-1,1c0,0.5,0.4,1,1,1h4.7v4.7c0,0,0,0,0,0c0,0.1,0,0.3,0.1,0.4c0.2,0.4,0.5,0.6,0.9,0.6c0,0,0,0,0,0h4.7v4.7    l0,0l0,0c0,0.5,0.4,1,1,1h4.7v4.7c0,0.5,0.4,1,1,1c0.5,0,1-0.4,1-1L729.3,419.9C729.3,419.9,729.3,419.9,729.3,419.9z"
         id="path224" /></g><g
       id="g226"><g
         id="g228"><path
           class="st13"
           d="M511.9,186.7c-8.7,0-15.7,7-15.7,15.7s7,15.7,15.7,15.7c8.7,0,15.7-7,15.7-15.7S520.6,186.7,511.9,186.7z"
           id="path230" /></g><g
         id="g232"><circle
           class="st12"
           cx="509"
           cy="202.3"
           r="1.1"
           id="circle234" /><path
           class="st12"
           d="M507.7,207.1c0,0.2-0.2,0.4-0.4,0.4h-0.1c-0.2,0-0.4-0.2-0.4-0.4v-2.8c0,0,0-0.1,0-0.1     c0-0.3,0.2-0.4,0.5-0.4h3.6c0.3,0,0.5,0.2,0.5,0.6c0,0,0,0,0,0.1v2.8c0,0.2-0.2,0.4-0.4,0.4h-0.1c-0.2,0-0.4-0.2-0.4-0.4v3.2     c0,0.3-0.3,0.6-0.6,0.6h-0.1c-0.3,0-0.6-0.3-0.6-0.6v-2.9H509v2.9c0,0.3-0.3,0.6-0.6,0.6h-0.1c-0.3,0-0.6-0.3-0.6-0.6     L507.7,207.1z"
           id="path236" /></g><g
         id="g238"><circle
           class="st12"
           cx="514.7"
           cy="202.3"
           r="1.1"
           id="circle240" /><path
           class="st12"
           d="M513.4,207.1c0,0.2-0.2,0.4-0.4,0.4h-0.1c-0.2,0-0.4-0.2-0.4-0.4v-2.8c0,0,0-0.1,0-0.1     c0-0.3,0.2-0.4,0.5-0.4h3.6c0.3,0,0.5,0.2,0.5,0.6c0,0,0,0,0,0.1v2.8c0,0.2-0.2,0.4-0.4,0.4h-0.1c-0.2,0-0.4-0.2-0.4-0.4v3.2     c0,0.3-0.3,0.6-0.6,0.6h-0.1c-0.3,0-0.6-0.3-0.6-0.6v-2.9h-0.1v2.9c0,0.3-0.3,0.6-0.6,0.6H514c-0.3,0-0.6-0.3-0.6-0.6     L513.4,207.1z"
           id="path242" /></g><path
         class="st12"
         d="M518.4,197.3h-13.1c-0.8,0-1.4,0.6-1.4,1.4v13.1c0,0.8,0.6,1.4,1.4,1.4h13.1c0.8,0,1.4-0.6,1.4-1.4v-13.1    C519.8,198,519.2,197.3,518.4,197.3z M518.1,211.4h-12.4v-12.4h12.4V211.4z"
         id="path244" /><path
         class="st12"
         d="M515.1,196.2C515.2,196.3,515.2,196.3,515.1,196.2C515.2,196.3,515.2,196.3,515.1,196.2    c0.1,0.1,0.1,0.1,0.2,0.1c0,0,0,0,0,0c0,0,0.1,0,0.1,0c0,0,0,0,0,0c0,0,0.1,0,0.1,0c0,0,0,0,0,0c0,0,0,0,0,0c0,0,0.1,0,0.1,0    c0,0,0,0,0,0c0,0,0.1,0,0.1,0c0,0,0,0,0.1,0c0,0,0,0,0.1,0c0,0,0.1,0,0.1-0.1c0,0,0,0,0,0l0,0l0,0l2.4-2.4c0.3-0.3,0.3-0.7,0-0.9    c-0.3-0.3-0.7-0.3-0.9,0l-1.3,1.3v-3.4c0-0.4-0.3-0.7-0.7-0.7c-0.4,0-0.7,0.3-0.7,0.7v3.4l-1.3-1.3c-0.3-0.3-0.7-0.3-0.9,0    c-0.3,0.3-0.3,0.7,0,0.9L515.1,196.2L515.1,196.2L515.1,196.2z"
         id="path246" /><path
         class="st12"
         d="M508.6,190.3C508.6,190.3,508.6,190.3,508.6,190.3C508.6,190.3,508.6,190.2,508.6,190.3    c-0.1-0.1-0.1-0.1-0.2-0.1c0,0,0,0,0,0c0,0-0.1,0-0.1,0c0,0,0,0,0,0c0,0-0.1,0-0.1,0c0,0,0,0,0,0c0,0,0,0,0,0c0,0-0.1,0-0.1,0    c0,0,0,0,0,0c0,0-0.1,0-0.1,0c0,0,0,0-0.1,0c0,0,0,0-0.1,0c0,0-0.1,0-0.1,0.1c0,0,0,0,0,0l0,0l0,0l-2.4,2.4    c-0.3,0.3-0.3,0.7,0,0.9c0.3,0.3,0.7,0.3,0.9,0l1.3-1.3v3.4c0,0.4,0.3,0.7,0.7,0.7c0.4,0,0.7-0.3,0.7-0.7v-3.4l1.3,1.3    c0.3,0.3,0.7,0.3,0.9,0c0.3-0.3,0.3-0.7,0-0.9L508.6,190.3L508.6,190.3L508.6,190.3z"
         id="path248" /></g><g
       id="g250"><g
         id="g252"><path
           class="st13"
           d="M506.7,240.7c-8.6,0-15.5,6.9-15.5,15.5c0,8.6,6.9,15.5,15.5,15.5c8.6,0,15.5-6.9,15.5-15.5     C522.2,247.7,515.3,240.7,506.7,240.7z"
           id="path254" /></g><rect
         x="499.4"
         y="245.7"
         class="st13"
         width="14.5"
         height="10.3"
         id="rect256" /><path
         class="st12"
         d="M518.2,259.8c0,0.6-0.5,1.1-1.1,1.1h-21.1c-0.6,0-1.1-0.5-1.1-1.1v-7.5c0-0.6,0.5-1.1,1.1-1.1h21.1    c0.6,0,1.1,0.5,1.1,1.1V259.8z"
         id="path258" /><rect
         x="496.7"
         y="252.9"
         class="st14"
         width="3"
         height="1.3"
         id="rect260" /><rect
         x="499.4"
         y="256.2"
         class="st13"
         width="14.5"
         height="10.3"
         id="rect262" /><rect
         x="501.5"
         y="258"
         class="st12"
         width="10.2"
         height="2.3"
         id="rect264" /><rect
         x="501.5"
         y="262"
         class="st12"
         width="5.2"
         height="2.3"
         id="rect266" /></g><g
       id="g268"><g
         id="g270"><g
           id="g272"><path
             class="st13"
             d="M63.5,125.8c-6.1,0-11,4.9-11,11c0,6.1,4.9,11,11,11c6.1,0,11-4.9,11-11C74.5,130.7,69.6,125.8,63.5,125.8      z"
             id="path274" /></g></g><rect
         x="52.7"
         y="131.9"
         class="st2"
         width="21.3"
         height="11.3"
         id="rect276" /><text
         transform="matrix(1 0 0 1 59.5259 141.6626)"
         class="st12 st7 st15"
         id="text278">1</text>
</g><g
       id="g280"><g
         id="g282"><g
           id="g284"><path
             class="st13"
             d="M63.3,181.8c-6.1,0-11,4.9-11,11c0,6.1,4.9,11,11,11c6.1,0,11-4.9,11-11C74.3,186.7,69.4,181.8,63.3,181.8      z"
             id="path286" /></g></g><rect
         x="52.6"
         y="187.8"
         class="st2"
         width="21.3"
         height="11.3"
         id="rect288" /><text
         transform="matrix(1 0 0 1 59.3912 197.6289)"
         class="st12 st7 st15"
         id="text290">2</text>
</g><g
       id="g292"><g
         id="g294"><g
           id="g296"><path
             class="st13"
             d="M63.2,215.1c-6.1,0-11,4.9-11,11c0,6.1,4.9,11,11,11s11-4.9,11-11C74.2,220,69.3,215.1,63.2,215.1z"
             id="path298" /></g></g><rect
         x="52.4"
         y="221.2"
         class="st2"
         width="21.3"
         height="11.3"
         id="rect300" /><text
         transform="matrix(1 0 0 1 59.2564 230.9512)"
         class="st12 st7 st15"
         id="text302">3</text>
</g><g
       id="g304"><g
         id="g306"><g
           id="g308"><path
             class="st13"
             d="M65.2,291.7c-6.1,0-11,4.9-11,11c0,6.1,4.9,11,11,11c6.1,0,11-4.9,11-11C76.2,296.7,71.3,291.7,65.2,291.7      z"
             id="path310" /></g></g><rect
         x="54.4"
         y="297.8"
         class="st2"
         width="21.3"
         height="11.3"
         id="rect312" /><text
         transform="matrix(1 0 0 1 61.2764 307.6216)"
         class="st12 st7 st15"
         id="text314">4</text>
</g><g
       id="g316"><g
         id="g318"><g
           id="g320"><path
             class="st13"
             d="M287.7,206.3c-6.1,0-11,4.9-11,11c0,6.1,4.9,11,11,11c6.1,0,11-4.9,11-11      C298.7,211.2,293.8,206.3,287.7,206.3z"
             id="path322" /></g></g><rect
         x="276.9"
         y="212.3"
         class="st2"
         width="21.3"
         height="11.3"
         id="rect324" /><text
         transform="matrix(1 0 0 1 283.7574 222.1289)"
         class="st12 st7 st15"
         id="text326">5</text>
</g><g
       id="g328"><g
         id="g330"><g
           id="g332"><path
             class="st13"
             d="M462.4,270.4c-6.1,0-11,4.9-11,11c0,6.1,4.9,11,11,11c6.1,0,11-4.9,11-11      C473.4,275.3,468.4,270.4,462.4,270.4z"
             id="path334" /></g></g><rect
         x="451.6"
         y="276.5"
         class="st2"
         width="21.3"
         height="11.3"
         id="rect336" /><text
         transform="matrix(1 0 0 1 458.4058 286.29)"
         class="st12 st7 st15"
         id="text338">6</text>
</g><g
       id="g340"><g
         id="g342"><g
           id="g344"><path
             class="st13"
             d="M462.4,294c-6.1,0-11,4.9-11,11c0,6.1,4.9,11,11,11c6.1,0,11-4.9,11-11C473.4,299,468.4,294,462.4,294z"
             id="path346" /></g></g><rect
         x="451.6"
         y="300.1"
         class="st2"
         width="21.3"
         height="11.3"
         id="rect348" /><text
         transform="matrix(1 0 0 1 458.4053 309.9067)"
         class="st12 st7 st15"
         id="text350">7</text>
</g><g
       id="g352"><g
         id="g354"><g
           id="g356"><path
             class="st13"
             d="M462.2,317.1c-6.1,0-11,4.9-11,11c0,6.1,4.9,11,11,11c6.1,0,11-4.9,11-11      C473.2,322,468.3,317.1,462.2,317.1z"
             id="path358" /></g></g><rect
         x="451.4"
         y="323.2"
         class="st2"
         width="21.3"
         height="11.3"
         id="rect360" /><text
         transform="matrix(1 0 0 1 458.2706 332.9531)"
         class="st12 st7 st15"
         id="text362">8</text>
</g><g
       id="g364"><g
         id="g366"><g
           id="g368"><path
             class="st13"
             d="M531.9,296.2c-6.1,0-11,4.9-11,11s4.9,11,11,11c6.1,0,11-4.9,11-11S538,296.2,531.9,296.2z"
             id="path370" /></g></g><rect
         x="521.1"
         y="302.3"
         class="st2"
         width="21.3"
         height="11.3"
         id="rect372" /><text
         transform="matrix(1 0 0 1 527.9542 312.0498)"
         class="st12 st7 st15"
         id="text374">9</text>
</g><g
       id="g376"><g
         id="g378"><g
           id="g380"><path
             class="st13"
             d="M628.5,296.2c-6.1,0-11,4.9-11,11s4.9,11,11,11c6.1,0,11-4.9,11-11S634.6,296.2,628.5,296.2z"
             id="path382" /></g></g><rect
         x="617.7"
         y="302.3"
         class="st2"
         width="21.3"
         height="11.3"
         id="rect384" /><text
         transform="matrix(1 0 0 1 620.7686 312.0498)"
         class="st12 st7 st15"
         id="text386">13</text>
</g><g
       id="g388"><g
         id="g390"><g
           id="g392"><path
             class="st13"
             d="M693.9,296.2c-6.1,0-11,4.9-11,11s4.9,11,11,11c6.1,0,11-4.9,11-11S700,296.2,693.9,296.2z"
             id="path394" /></g></g><rect
         x="683.1"
         y="302.3"
         class="st2"
         width="21.3"
         height="11.3"
         id="rect396" /><text
         transform="matrix(1 0 0 1 686.1304 312.0498)"
         class="st12 st7 st15"
         id="text398">10</text>
</g><g
       id="g400"><g
         id="g402"><g
           id="g404"><path
             class="st13"
             d="M569.6,457c-6.1,0-11,4.9-11,11c0,6.1,4.9,11,11,11c6.1,0,11-4.9,11-11C580.6,461.9,575.6,457,569.6,457z"
             id="path406" /></g></g><rect
         x="558.8"
         y="463.1"
         class="st2"
         width="21.3"
         height="11.3"
         id="rect408" /><text
         transform="matrix(1 0 0 1 561.8106 472.8574)"
         class="st12 st7 st15"
         id="text410">11</text>
</g><g
       id="g412"><g
         id="g414"><g
           id="g416"><path
             class="st13"
             d="M323.1,511c-6.1,0-11,4.9-11,11s4.9,11,11,11c6.1,0,11-4.9,11-11S329.2,511,323.1,511z"
             id="path418" /></g></g><rect
         x="312.3"
         y="517.1"
         class="st2"
         width="21.3"
         height="11.3"
         id="rect420" /><text
         transform="matrix(1 0 0 1 315.3629 526.9209)"
         class="st12 st7 st15"
         id="text422">12</text>
</g><g
       id="g426"><g
         id="g428"><path
           class="st13"
           d="M217.9,101.8c-8.6,0-15.5,6.9-15.5,15.5c0,8.6,6.9,15.5,15.5,15.5c8.6,0,15.5-6.9,15.5-15.5     C233.4,108.7,226.4,101.8,217.9,101.8z"
           id="path430" /></g><path
         class="st12"
         d="M225.3,107.1h-14.7c-0.6,0-1.1,0.5-1.1,1.1v9.2c0,0.6,0.5,1.1,1.1,1.1h5.5v1.5h-2.6v1.1h8.8v-1.1h-2.6v-1.5    h5.5c0.6,0,1.1-0.5,1.1-1.1v-9.2C226.5,107.6,225.9,107.1,225.3,107.1z M225.3,116.9c0,0.3-0.3,0.6-0.6,0.6h-13.5    c-0.3,0-0.6-0.3-0.6-0.6v-8c0-0.3,0.3-0.6,0.6-0.6h13.5c0.3,0,0.6,0.3,0.6,0.6V116.9z"
         id="path432" /><path
         class="st12"
         d="M227.7,125.5c0.3,0.3-0.3,0.5-0.7,0.5h-18.3c-0.4,0-1-0.1-0.7-0.5l2.6-2.7c0.3-0.3,0.6-0.5,1.2-0.5h11.8    c0.9,0,1,0.2,1.4,0.5L227.7,125.5z"
         id="path434" /></g><g
       id="g436"><g
         id="g438"><path
           class="st13"
           d="M431.9,101.8c-8.6,0-15.5,6.9-15.5,15.5c0,8.6,6.9,15.5,15.5,15.5c8.6,0,15.5-6.9,15.5-15.5     C447.4,108.7,440.4,101.8,431.9,101.8z"
           id="path440" /></g><path
         class="st12"
         d="M439.3,107.1h-14.7c-0.6,0-1.1,0.5-1.1,1.1v9.2c0,0.6,0.5,1.1,1.1,1.1h5.5v1.5h-2.6v1.1h8.8v-1.1h-2.6v-1.5    h5.5c0.6,0,1.1-0.5,1.1-1.1v-9.2C440.5,107.6,439.9,107.1,439.3,107.1z M439.3,116.9c0,0.3-0.3,0.6-0.6,0.6h-13.5    c-0.3,0-0.6-0.3-0.6-0.6v-8c0-0.3,0.3-0.6,0.6-0.6h13.5c0.3,0,0.6,0.3,0.6,0.6V116.9z"
         id="path442" /><path
         class="st12"
         d="M441.7,125.5c0.3,0.3-0.3,0.5-0.7,0.5h-18.3c-0.4,0-1-0.1-0.7-0.5l2.6-2.7c0.3-0.3,0.6-0.5,1.2-0.5h11.8    c0.9,0,1,0.2,1.4,0.5L441.7,125.5z"
         id="path444" /></g><rect
       x="870"
       y="347"
       class="st2"
       width="190.7"
       height="16.7"
       id="rect446" /><text
       transform="matrix(1 0 0 1 870.0074 356.9671)"
       class="st6 st7 st8"
       id="text448">Limited Access Areas</text>
<rect
       x="845.7"
       y="346"
       class="st6"
       width="14"
       height="14.2"
       id="rect450" /><g
       id="g452"><g
         id="g454"><g
           id="g456"><g
             id="g458"><path
               class="st13"
               d="M554.1,173.9c-8.6,0-15.5,6.9-15.5,15.5s6.9,15.5,15.5,15.5c8.6,0,15.5-6.9,15.5-15.5       S562.6,173.9,554.1,173.9z"
               id="path460" /></g></g></g><g
         id="g462"><circle
           class="st12"
           cx="554"
           cy="180.7"
           r="2.5"
           id="circle464" /><path
           class="st12"
           d="M558.3,183.9c-0.1,0-0.3,0-0.4,0.1c-0.1,0-0.2-0.1-0.3-0.1h-1c0,0-0.1,0-0.1,0h-5c0,0-0.1,0-0.1,0h-1     c-0.1,0-0.2,0-0.3,0.1c-0.1,0-0.2-0.1-0.4-0.1c-0.6,0-1.1,0.5-1.1,1.1v6.7c0,0.6,0.5,1.1,1.1,1.1c0.3,0,0.6-0.1,0.8-0.3l-1.8,4.1     h2.4v2.8c0,0.7,0.6,1.3,1.3,1.3c0.7,0,1.3-0.6,1.3-1.3v-2.8h0.7v2.8c0,0.7,0.6,1.3,1.3,1.3c0.7,0,1.3-0.6,1.3-1.3v-2.8h2.4     l-1.8-4.1c0.2,0.2,0.5,0.3,0.8,0.3c0.6,0,1.1-0.5,1.1-1.1V185C559.4,184.4,558.9,183.9,558.3,183.9z"
           id="path466" /></g></g><g
       id="g468"><g
         id="g470"><g
           id="g472"><g
             id="g474"><path
               class="st13"
               d="M554.1,207.1c-8.6,0-15.5,6.9-15.5,15.5c0,8.6,6.9,15.5,15.5,15.5c8.6,0,15.5-6.9,15.5-15.5       C569.6,214,562.6,207.1,554.1,207.1z"
               id="path476" /></g></g></g><g
         id="g478"><circle
           class="st12"
           cx="554"
           cy="213.9"
           r="2.5"
           id="circle480" /><path
           class="st12"
           d="M558.3,217c-0.1,0-0.3,0-0.4,0.1c-0.1,0-0.2-0.1-0.3-0.1h-1c0,0-0.1,0-0.1,0h-5c0,0-0.1,0-0.1,0h-1     c-0.1,0-0.2,0-0.3,0.1c-0.1,0-0.2-0.1-0.4-0.1c-0.6,0-1.1,0.5-1.1,1.1v6.7c0,0.6,0.5,1.1,1.1,1.1c0.6,0,1.1-0.5,1.1-1.1v-0.7     c0,0.2,0.1,0.4,0.3,0.5c0,0,0,0,0,0.1v7.8c0,0.7,0.6,1.3,1.3,1.3c0.7,0,1.3-0.6,1.3-1.3v-5.9h0.7v5.9c0,0.7,0.6,1.3,1.3,1.3     c0.7,0,1.3-0.6,1.3-1.3v-7.8c0,0,0,0,0-0.1c0.2-0.1,0.3-0.3,0.3-0.5v0.7c0,0.6,0.5,1.1,1.1,1.1c0.6,0,1.1-0.5,1.1-1.1v-6.7     C559.4,217.5,558.9,217,558.3,217z"
           id="path482" /></g></g><rect
       x="1007.4"
       y="457"
       class="st2"
       width="84"
       height="16.7"
       id="rect484" /><text
       transform="matrix(1 0 0 1 1007.398 466.9505)"
       class="st6 st7 st8"
       id="text486">Stairs</text>
<rect
       x="878.8"
       y="458.4"
       class="st2"
       width="84"
       height="16.7"
       id="rect488" /><text
       transform="matrix(1 0 0 1 878.8101 468.4055)"
       class="st6 st7 st8"
       id="text490">Elevator</text>
<rect
       x="1007.2"
       y="493.3"
       class="st2"
       width="84"
       height="16.7"
       id="rect492" /><text
       transform="matrix(1 0 0 1 1007.189 503.3181)"
       class="st6 st7 st8"
       id="text494">Printer</text>
<g
       id="g496"><g
         id="g498"><path
           class="st13"
           d="M985,449.2c-8.7,0-15.7,7-15.7,15.7c0,8.7,7,15.7,15.7,15.7c8.7,0,15.7-7,15.7-15.7     C1000.7,456.2,993.7,449.2,985,449.2z"
           id="path500" /></g><path
         class="st12"
         d="M993.8,468.7c0-0.5-0.4-1-1-1h-4.7V463c0,0,0,0,0,0c0-0.5-0.4-1-1-1h-4.7v-4.7c0,0,0,0,0,0c0-0.5-0.4-1-1-1    h-5.7c-0.5,0-1,0.4-1,1c0,0.5,0.4,1,1,1h4.7v4.7c0,0,0,0,0,0c0,0.1,0,0.3,0.1,0.4c0.2,0.4,0.5,0.6,0.9,0.6c0,0,0,0,0,0h4.7v4.7    l0,0l0,0c0,0.5,0.4,1,1,1h4.7v4.7c0,0.5,0.4,1,1,1c0.5,0,1-0.4,1-1L993.8,468.7C993.8,468.7,993.8,468.7,993.8,468.7z"
         id="path502" /></g><g
       id="g504"><g
         id="g506"><path
           class="st13"
           d="M856.4,449.5c-8.7,0-15.7,7-15.7,15.7c0,8.7,7,15.7,15.7,15.7s15.7-7,15.7-15.7     C872.2,456.6,865.1,449.5,856.4,449.5z"
           id="path508" /></g><g
         id="g510"><circle
           class="st12"
           cx="853.5"
           cy="465.2"
           r="1.1"
           id="circle512" /><path
           class="st12"
           d="M852.2,469.9c0,0.2-0.2,0.4-0.4,0.4h-0.1c-0.2,0-0.4-0.2-0.4-0.4v-2.8c0,0,0-0.1,0-0.1     c0-0.3,0.2-0.4,0.5-0.4h3.6c0.3,0,0.5,0.2,0.5,0.6c0,0,0,0,0,0.1v2.8c0,0.2-0.2,0.4-0.4,0.4h-0.1c-0.2,0-0.4-0.2-0.4-0.4v3.2     c0,0.3-0.3,0.6-0.6,0.6h-0.1c-0.3,0-0.6-0.3-0.6-0.6v-2.9h-0.1v2.9c0,0.3-0.3,0.6-0.6,0.6h-0.1c-0.3,0-0.6-0.3-0.6-0.6     L852.2,469.9z"
           id="path514" /></g><g
         id="g516"><circle
           class="st12"
           cx="859.3"
           cy="465.2"
           r="1.1"
           id="circle518" /><path
           class="st12"
           d="M858,469.9c0,0.2-0.2,0.4-0.4,0.4h-0.1c-0.2,0-0.4-0.2-0.4-0.4v-2.8c0,0,0-0.1,0-0.1c0-0.3,0.2-0.4,0.5-0.4     h3.6c0.3,0,0.5,0.2,0.5,0.6c0,0,0,0,0,0.1v2.8c0,0.2-0.2,0.4-0.4,0.4h-0.1c-0.2,0-0.4-0.2-0.4-0.4v3.2c0,0.3-0.3,0.6-0.6,0.6H860     c-0.3,0-0.6-0.3-0.6-0.6v-2.9h-0.1v2.9c0,0.3-0.3,0.6-0.6,0.6h-0.1c-0.3,0-0.6-0.3-0.6-0.6L858,469.9z"
           id="path520" /></g><path
         class="st12"
         d="M863,460.2h-13.1c-0.8,0-1.4,0.6-1.4,1.4v13.1c0,0.8,0.6,1.4,1.4,1.4H863c0.8,0,1.4-0.6,1.4-1.4v-13.1    C864.4,460.8,863.7,460.2,863,460.2z M862.6,474.3h-12.4v-12.4h12.4V474.3z"
         id="path522" /><path
         class="st12"
         d="M859.7,459.1C859.7,459.1,859.7,459.1,859.7,459.1C859.7,459.1,859.8,459.2,859.7,459.1    c0.1,0.1,0.1,0.1,0.2,0.1c0,0,0,0,0,0c0,0,0.1,0,0.1,0c0,0,0,0,0,0c0,0,0.1,0,0.1,0c0,0,0,0,0,0c0,0,0,0,0,0c0,0,0.1,0,0.1,0    c0,0,0,0,0,0c0,0,0.1,0,0.1,0c0,0,0,0,0.1,0c0,0,0,0,0.1,0c0,0,0.1,0,0.1-0.1c0,0,0,0,0,0l0,0l0,0l2.4-2.4c0.3-0.3,0.3-0.7,0-0.9    c-0.3-0.3-0.7-0.3-0.9,0l-1.3,1.3v-3.4c0-0.4-0.3-0.7-0.7-0.7c-0.4,0-0.7,0.3-0.7,0.7v3.4l-1.3-1.3c-0.3-0.3-0.7-0.3-0.9,0    c-0.3,0.3-0.3,0.7,0,0.9L859.7,459.1L859.7,459.1L859.7,459.1z"
         id="path524" /><path
         class="st12"
         d="M853.2,453.2C853.2,453.2,853.2,453.1,853.2,453.2C853.1,453.1,853.1,453.1,853.2,453.2    c-0.1-0.1-0.1-0.1-0.2-0.1c0,0,0,0,0,0c0,0-0.1,0-0.1,0c0,0,0,0,0,0c0,0-0.1,0-0.1,0c0,0,0,0,0,0s0,0,0,0c0,0-0.1,0-0.1,0    c0,0,0,0,0,0c0,0-0.1,0-0.1,0c0,0,0,0-0.1,0c0,0,0,0-0.1,0c0,0-0.1,0-0.1,0.1c0,0,0,0,0,0l0,0l0,0l-2.4,2.4    c-0.3,0.3-0.3,0.7,0,0.9c0.3,0.3,0.7,0.3,0.9,0l1.3-1.3v3.4c0,0.4,0.3,0.7,0.7,0.7s0.7-0.3,0.7-0.7v-3.4l1.3,1.3    c0.3,0.3,0.7,0.3,0.9,0c0.3-0.3,0.3-0.7,0-0.9L853.2,453.2L853.2,453.2L853.2,453.2z"
         id="path526" /></g><g
       id="g528"><g
         id="g530"><path
           class="st13"
           d="M984.8,484.8c-8.6,0-15.5,6.9-15.5,15.5c0,8.6,6.9,15.5,15.5,15.5s15.5-6.9,15.5-15.5     C1000.3,491.7,993.4,484.8,984.8,484.8z"
           id="path532" /></g><rect
         x="977.5"
         y="489.8"
         class="st13"
         width="14.5"
         height="10.3"
         id="rect534" /><path
         class="st12"
         d="M996.3,503.8c0,0.6-0.5,1.1-1.1,1.1H974c-0.6,0-1.1-0.5-1.1-1.1v-7.5c0-0.6,0.5-1.1,1.1-1.1h21.1    c0.6,0,1.1,0.5,1.1,1.1V503.8z"
         id="path536" /><rect
         x="974.8"
         y="496.9"
         class="st14"
         width="3"
         height="1.3"
         id="rect538" /><rect
         x="977.5"
         y="500.3"
         class="st13"
         width="14.5"
         height="10.3"
         id="rect540" /><rect
         x="979.6"
         y="502.1"
         class="st12"
         width="10.2"
         height="2.3"
         id="rect542" /><rect
         x="979.6"
         y="506"
         class="st12"
         width="5.2"
         height="2.3"
         id="rect544" /></g><rect
       x="878.8"
       y="494.5"
       class="st2"
       width="84"
       height="16.7"
       id="rect546" /><text
       transform="matrix(1 0 0 1 878.8101 504.512)"
       class="st6 st7 st8"
       id="text548">Copier</text>
<rect
       x="1007.4"
       y="529.7"
       class="st2"
       width="84"
       height="16.7"
       id="rect550" /><text
       transform="matrix(1 0 0 1 1007.398 539.6848)"
       class="st6 st7 st8"
       id="text552">Scanner</text>
<g
       id="g554"><g
         id="g556"><path
           class="st13"
           d="M856.4,485.4c-8.6,0-15.5,6.9-15.5,15.5c0,8.6,6.9,15.5,15.5,15.5c8.6,0,15.5-6.9,15.5-15.5     C871.9,492.3,865,485.4,856.4,485.4z"
           id="path558" /></g><g
         id="g560"><path
           class="st12"
           d="M863.8,494.3l-7.5,0v-1.6l5-1.6v-1.2l-12.5,1.7c-0.6,0-1.1,0.5-1.1,1.1v4.6h17.2v-1.9     C864.8,494.8,864.4,494.3,863.8,494.3z"
           id="path562" /><polygon
           class="st12"
           points="868.6,497.4 864.8,498.4 864.8,498.4 859.2,498.4 859.2,499.5 853.2,499.5 853.2,498.4      847.7,498.4 847.7,504.1 864.8,504.1 864.8,500.1 868.6,498.3    "
           id="polygon564" /><path
           class="st12"
           d="M868.6,504.3l-3.7,0.9v0h-5.6v1.2h-6v-1.2h-5.6v4.6c0,0.6,0.5,1.1,1.1,1.1h15c0.6,0,1.1-0.5,1.1-1.1v-2.9     l3.7-1.7V504.3z"
           id="path566" /></g></g><rect
       x="878.8"
       y="530.6"
       class="st2"
       width="84"
       height="16.7"
       id="rect568" /><text
       transform="matrix(1 0 0 1 878.8101 540.6184)"
       class="st6 st7 st8"
       id="text570">Computers</text>
<g
       id="g572"><g
         id="g574"><path
           class="st13"
           d="M984.8,520.2c-8.6,0-15.5,6.9-15.5,15.5c0,8.6,6.9,15.5,15.5,15.5s15.5-6.9,15.5-15.5     C1000.3,527.1,993.4,520.2,984.8,520.2z"
           id="path576" /></g><g
         id="g578"><path
           class="st12"
           d="M973.6,541.3c0,1,0.8,1.7,1.7,1.7h18.7c1,0,1.7-0.8,1.7-1.7V538h-22.2V541.3z M990.1,539.5h3.5     c0.3,0,0.6,0.3,0.6,0.6c0,0.3-0.3,0.6-0.6,0.6h-3.5c-0.3,0-0.6-0.3-0.6-0.6C989.5,539.8,989.7,539.5,990.1,539.5z M987.7,539.5     c0.3,0,0.6,0.3,0.6,0.6c0,0.3-0.3,0.6-0.6,0.6c-0.3,0-0.6-0.3-0.6-0.6C987,539.8,987.3,539.5,987.7,539.5z"
           id="path580" /><path
           class="st12"
           d="M995,535.3l-17.2-7.5c-0.9-0.4-1.9,0-2.3,0.9l20.3,8.9C996.2,536.7,995.8,535.7,995,535.3z"
           id="path582" /></g></g><g
       id="g584"><g
         id="g586"><path
           class="st13"
           d="M856.4,521.1c-8.6,0-15.5,6.9-15.5,15.5c0,8.6,6.9,15.5,15.5,15.5c8.6,0,15.5-6.9,15.5-15.5     C871.9,528,865,521.1,856.4,521.1z"
           id="path588" /></g><path
         class="st12"
         d="M863.9,526.4h-14.7c-0.6,0-1.1,0.5-1.1,1.1v9.2c0,0.6,0.5,1.1,1.1,1.1h5.5v1.5h-2.6v1.1h8.8v-1.1h-2.6v-1.5    h5.5c0.6,0,1.1-0.5,1.1-1.1v-9.2C865,526.9,864.5,526.4,863.9,526.4z M863.9,536.2c0,0.3-0.3,0.6-0.6,0.6h-13.5    c-0.3,0-0.6-0.3-0.6-0.6v-8c0-0.3,0.3-0.6,0.6-0.6h13.5c0.3,0,0.6,0.3,0.6,0.6V536.2z"
         id="path590" /><path
         class="st12"
         d="M866.3,544.8c0.3,0.3-0.3,0.5-0.7,0.5h-18.3c-0.4,0-1-0.1-0.7-0.5l2.6-2.7c0.3-0.3,0.6-0.5,1.2-0.5h11.8    c0.9,0,1,0.2,1.4,0.5L866.3,544.8z"
         id="path592" /></g><rect
       x="878.8"
       y="423.2"
       class="st2"
       width="143"
       height="16.7"
       id="rect594" /><text
       transform="matrix(1 0 0 1 878.8101 433.2268)"
       class="st6 st7 st8"
       id="text596">Emergency Exit</text>
<g
       id="g598"><g
         id="g600"><g
           id="g602"><g
             id="g604"><path
               class="st13"
               d="M892.2,378.4c-8.6,0-15.5,6.9-15.5,15.5c0,8.6,6.9,15.5,15.5,15.5c8.6,0,15.5-6.9,15.5-15.5       C907.7,385.4,900.7,378.4,892.2,378.4z"
               id="path606" /></g></g></g><g
         id="g608"><circle
           class="st12"
           cx="892"
           cy="385.3"
           r="2.5"
           id="circle610" /><path
           class="st12"
           d="M896.4,388.4c-0.1,0-0.3,0-0.4,0.1c-0.1,0-0.2-0.1-0.3-0.1h-1c0,0-0.1,0-0.1,0h-5c0,0-0.1,0-0.1,0h-1     c-0.1,0-0.2,0-0.3,0.1c-0.1,0-0.2-0.1-0.4-0.1c-0.6,0-1.1,0.5-1.1,1.1v6.7c0,0.6,0.5,1.1,1.1,1.1c0.3,0,0.6-0.1,0.8-0.3l-1.8,4.1     h2.4v2.8c0,0.7,0.6,1.3,1.3,1.3c0.7,0,1.3-0.6,1.3-1.3v-2.8h0.7v2.8c0,0.7,0.6,1.3,1.3,1.3c0.7,0,1.3-0.6,1.3-1.3v-2.8h2.4     l-1.8-4.1c0.2,0.2,0.5,0.3,0.8,0.3c0.6,0,1.1-0.5,1.1-1.1v-6.7C897.5,388.9,897,388.4,896.4,388.4z"
           id="path612" /></g></g><g
       id="g614"><g
         id="g616"><g
           id="g618"><g
             id="g620"><path
               class="st13"
               d="M856.1,378.4c-8.6,0-15.5,6.9-15.5,15.5c0,8.6,6.9,15.5,15.5,15.5c8.6,0,15.5-6.9,15.5-15.5       C871.6,385.4,864.7,378.4,856.1,378.4z"
               id="path622" /></g></g></g><g
         id="g624"><circle
           class="st12"
           cx="856"
           cy="385.2"
           r="2.5"
           id="circle626" /><path
           class="st12"
           d="M860.4,388.4c-0.1,0-0.3,0-0.4,0.1c-0.1,0-0.2-0.1-0.3-0.1h-1c0,0-0.1,0-0.1,0h-5c0,0-0.1,0-0.1,0h-1     c-0.1,0-0.2,0-0.3,0.1c-0.1,0-0.2-0.1-0.4-0.1c-0.6,0-1.1,0.5-1.1,1.1v6.7c0,0.6,0.5,1.1,1.1,1.1c0.6,0,1.1-0.5,1.1-1.1v-0.7     c0,0.2,0.1,0.4,0.3,0.5c0,0,0,0,0,0.1v7.8c0,0.7,0.6,1.3,1.3,1.3c0.7,0,1.3-0.6,1.3-1.3v-5.9h0.7v5.9c0,0.7,0.6,1.3,1.3,1.3     c0.7,0,1.3-0.6,1.3-1.3v-7.8c0,0,0,0,0-0.1c0.2-0.1,0.3-0.3,0.3-0.5v0.7c0,0.6,0.5,1.1,1.1,1.1c0.6,0,1.1-0.5,1.1-1.1v-6.7     C861.5,388.9,861,388.4,860.4,388.4z"
           id="path628" /></g></g><rect
       x="949.8"
       y="386.8"
       class="st2"
       width="140.4"
       height="16.7"
       id="rect630" /><text
       transform="matrix(1 0 0 1 949.7525 396.8157)"
       class="st6 st7 st8"
       id="text632">Restrooms</text>
<g
       id="g634"><g
         id="g636"><path
           class="st13"
           d="M927.7,378.4c-8.6,0-15.5,6.9-15.5,15.5c0,8.6,6.9,15.5,15.5,15.5c8.6,0,15.5-6.9,15.5-15.5     C943.2,385.4,936.3,378.4,927.7,378.4z"
           id="path638" /></g><g
         id="g640"><rect
           x="926.8"
           y="382.6"
           class="st12"
           width="1.9"
           height="22.6"
           id="rect642" /></g><g
         id="g644"><circle
           class="st12"
           cx="934.1"
           cy="386.1"
           r="2.1"
           id="circle646" /><path
           class="st12"
           d="M937.9,388.8c-0.1,0-0.2,0-0.3,0.1c-0.1,0-0.2-0.1-0.3-0.1h-0.9c0,0-0.1,0-0.1,0H932c0,0-0.1,0-0.1,0h-0.9     c-0.1,0-0.2,0-0.3,0.1c-0.1,0-0.2-0.1-0.3-0.1c-0.5,0-1,0.4-1,1v5.8c0,0.5,0.4,1,1,1c0.5,0,1-0.4,1-1V395c0,0.2,0.1,0.4,0.2,0.5     c0,0,0,0,0,0v6.8c0,0.6,0.5,1.1,1.1,1.1c0.6,0,1.1-0.5,1.1-1.1v-6.7h0.6v6.7c0,0.6,0.5,1.1,1.1,1.1c0.6,0,1.1-0.5,1.1-1.1v-6.8     c0,0,0,0,0,0c0.1-0.1,0.2-0.3,0.2-0.5v0.6c0,0.5,0.4,1,1,1c0.5,0,1-0.4,1-1v-5.8C938.9,389.3,938.4,388.8,937.9,388.8z"
           id="path648" /></g><g
         id="g650"><circle
           class="st12"
           cx="921.1"
           cy="386.1"
           r="2.1"
           id="circle652" /><path
           class="st12"
           d="M924.8,388.8c-0.1,0-0.2,0-0.3,0.1c-0.1,0-0.2-0.1-0.3-0.1h-0.9c0,0-0.1,0-0.1,0H919c0,0-0.1,0-0.1,0H918     c-0.1,0-0.2,0-0.3,0.1c-0.1,0-0.2-0.1-0.3-0.1c-0.5,0-1,0.4-1,1v5.8c0,0.5,0.4,1,1,1c0.3,0,0.5-0.1,0.7-0.3l-0.7,3.6h1.2v2.4     c0,0.6,0.5,1.1,1.1,1.1c0.6,0,1.1-0.5,1.1-1.1v-2.4h0.6v2.4c0,0.6,0.5,1.1,1.1,1.1c0.6,0,1.1-0.5,1.1-1.1v-2.4h1.2l-0.7-3.6     c0.2,0.2,0.4,0.3,0.7,0.3c0.5,0,1-0.4,1-1v-5.8C925.8,389.3,925.3,388.8,924.8,388.8z"
           id="path654" /></g></g><g
       id="g656"><g
         id="g658"><g
           id="g660"><g
             id="g662"><path
               class="st13"
               d="M856.1,414.1c-8.6,0-15.5,6.9-15.5,15.5c0,8.6,6.9,15.5,15.5,15.5c8.6,0,15.5-6.9,15.5-15.5       C871.6,421,864.7,414.1,856.1,414.1z"
               id="path664" /></g></g></g><g
         id="g666"><g
           id="g668"><circle
             class="st2"
             cx="851.5"
             cy="424.2"
             r="2.2"
             id="circle670" /><path
             class="st12"
             d="M866.6,435.8l-6.2-6.2v-2.5c-0.1,0.1-0.1,0.2-0.2,0.3c-0.4,0.4-1.1,0.4-1.6,0l-1.7-1.7l-0.8,0.8l9.9,9.9      c0.4,0.4,0.4,1.1,0,1.6c-0.4,0.4-1.1,0.4-1.6,0l-6.3-6.3l-1.7,1.7l2.5,2.5c0.4,0.4,0.4,1.1,0,1.6c-0.4,0.4-1.1,0.4-1.6,0      l-3.3-3.3c-0.2-0.2-0.3-0.5-0.3-0.8c0-0.3,0.1-0.6,0.3-0.8l1.7-1.7l-2.1-2.1l-1.7,1.7c0,0-0.1,0.1-0.1,0.1      c-0.2,0.2-0.5,0.3-0.8,0.3c-0.3,0-0.6-0.1-0.8-0.3c0,0-0.1-0.1-0.1-0.1l-2.3-2.3c-0.4-0.4-0.4-1.1,0-1.6c0.4-0.4,1.1-0.4,1.6,0      l1.6,1.6l4.9-4.9c0.4-0.4,1.1-0.4,1.5,0c0,0,0.1,0.1,0.1,0.1l2.4,2.4c0.1,0.1,0.2,0.2,0.2,0.3v-6.9h-13.2v20.3h13.2v-4.3      l3.4,3.4c0.8,0.8,2.1,0.8,2.8,0C867.4,437.9,867.4,436.6,866.6,435.8z M851.5,422c1.2,0,2.2,1,2.2,2.2c0,1.2-1,2.2-2.2,2.2      c-1.2,0-2.2-1-2.2-2.2C849.3,423,850.3,422,851.5,422z"
             id="path672" /></g></g></g><g
       id="g674"><g
         id="g676"><g
           id="g678"><g
             id="g680"><path
               class="st13"
               d="M688.3,401.6c-8.6,0-15.5,6.9-15.5,15.5c0,8.6,6.9,15.5,15.5,15.5c8.6,0,15.5-6.9,15.5-15.5       C703.8,408.5,696.9,401.6,688.3,401.6z"
               id="path682" /></g></g></g><g
         id="g684"><g
           id="g686"><circle
             class="st2"
             cx="683.7"
             cy="411.7"
             r="2.2"
             id="circle688" /><path
             class="st12"
             d="M698.8,423.3l-6.2-6.2v-2.5c-0.1,0.1-0.1,0.2-0.2,0.3c-0.4,0.4-1.1,0.4-1.6,0l-1.7-1.7l-0.8,0.8l9.9,9.9      c0.4,0.4,0.4,1.1,0,1.6c-0.4,0.4-1.1,0.4-1.6,0l-6.3-6.3l-1.7,1.7l2.5,2.5c0.4,0.4,0.4,1.1,0,1.6c-0.4,0.4-1.1,0.4-1.6,0      l-3.3-3.3c-0.2-0.2-0.3-0.5-0.3-0.8c0-0.3,0.1-0.6,0.3-0.8l1.7-1.7l-2.1-2.1l-1.7,1.7c0,0-0.1,0.1-0.1,0.1      c-0.2,0.2-0.5,0.3-0.8,0.3c-0.3,0-0.6-0.1-0.8-0.3c0,0-0.1-0.1-0.1-0.1l-2.3-2.3c-0.4-0.4-0.4-1.1,0-1.6c0.4-0.4,1.1-0.4,1.6,0      l1.6,1.6l4.9-4.9c0.4-0.4,1.1-0.4,1.5,0c0,0,0.1,0.1,0.1,0.1l2.4,2.4c0.1,0.1,0.2,0.2,0.2,0.3v-6.9h-13.2v20.3h13.2v-4.3      l3.4,3.4c0.8,0.8,2.1,0.8,2.8,0C699.6,425.4,699.6,424.1,698.8,423.3z M683.7,409.5c1.2,0,2.2,1,2.2,2.2c0,1.2-1,2.2-2.2,2.2      c-1.2,0-2.2-1-2.2-2.2C681.5,410.5,682.5,409.5,683.7,409.5z"
             id="path690" /></g></g></g><g
       id="g692"><g
         id="g694"><path
           class="st13"
           d="M53.8,241.7c-8.7,0-15.7,7-15.7,15.7c0,8.7,7,15.7,15.7,15.7s15.7-7,15.7-15.7     C69.5,248.7,62.5,241.7,53.8,241.7z"
           id="path696" /></g><path
         class="st12"
         d="M62.6,261.2c0-0.5-0.4-1-1-1h-4.7v-4.7c0,0,0,0,0,0c0-0.5-0.4-1-1-1h-4.7v-4.7c0,0,0,0,0,0c0-0.5-0.4-1-1-1    h-5.7c-0.5,0-1,0.4-1,1c0,0.5,0.4,1,1,1h4.7v4.7c0,0,0,0,0,0c0,0.1,0,0.3,0.1,0.4c0.2,0.4,0.5,0.6,0.9,0.6c0,0,0,0,0,0h4.7v4.7    l0,0l0,0c0,0.5,0.4,1,1,1h4.7v4.7c0,0.5,0.4,1,1,1c0.5,0,1-0.4,1-1L62.6,261.2C62.6,261.2,62.6,261.2,62.6,261.2z"
         id="path698" /></g><g
       id="g700"><g
         id="g702"><g
           id="g704"><g
             id="g706"><path
               class="st13"
               d="M86,241.9c-8.6,0-15.5,6.9-15.5,15.5c0,8.6,6.9,15.5,15.5,15.5c8.6,0,15.5-6.9,15.5-15.5       C101.5,248.9,94.6,241.9,86,241.9z"
               id="path708" /></g></g></g><g
         id="g710"><g
           id="g712"><circle
             class="st2"
             cx="81.4"
             cy="252.1"
             r="2.2"
             id="circle714" /><path
             class="st12"
             d="M96.5,263.6l-6.2-6.2V255c-0.1,0.1-0.1,0.2-0.2,0.3c-0.4,0.4-1.1,0.4-1.6,0l-1.7-1.7l-0.8,0.8l9.9,9.9      c0.4,0.4,0.4,1.1,0,1.6c-0.4,0.4-1.1,0.4-1.6,0l-6.3-6.3l-1.7,1.7l2.5,2.5c0.4,0.4,0.4,1.1,0,1.6c-0.4,0.4-1.1,0.4-1.6,0      l-3.3-3.3c-0.2-0.2-0.3-0.5-0.3-0.8c0-0.3,0.1-0.6,0.3-0.8l1.7-1.7l-2.1-2.1l-1.7,1.7c0,0-0.1,0.1-0.1,0.1      c-0.2,0.2-0.5,0.3-0.8,0.3c-0.3,0-0.6-0.1-0.8-0.3c0,0-0.1-0.1-0.1-0.1l-2.3-2.3c-0.4-0.4-0.4-1.1,0-1.6c0.4-0.4,1.1-0.4,1.6,0      l1.6,1.6l4.9-4.9c0.4-0.4,1.1-0.4,1.5,0c0,0,0.1,0.1,0.1,0.1l2.4,2.4c0.1,0.1,0.2,0.2,0.2,0.3v-6.9H77v20.3h13.2v-4.3l3.4,3.4      c0.8,0.8,2.1,0.8,2.8,0C97.3,265.7,97.3,264.4,96.5,263.6z M81.4,249.9c1.2,0,2.2,1,2.2,2.2c0,1.2-1,2.2-2.2,2.2      c-1.2,0-2.2-1-2.2-2.2C79.2,250.9,80.1,249.9,81.4,249.9z"
             id="path716" /></g></g></g></g></svg>